<?xml version="1.0" encoding="UTF-8"?>
<svg width="450px" height="450px" viewBox="0 0 450 450" version="1.1" xmlns="http://www.w3.org/2000/svg" xmlns:xlink="http://www.w3.org/1999/xlink">
    <!-- Generator: Sketch 55.2 (78181) - https://sketchapp.com -->
    <title>Artboard Copy 6</title>
    <desc>Created with Sketch.</desc>
    <g id="Artboard-Copy-6" stroke="none" stroke-width="1" fill="none" fill-rule="evenodd">
        <path d="M143.125124,190.265377 C142.731237,188.188433 142.121598,186.334923 141.364805,184.653116 C138.101964,173.22277 124.412193,166.517554 113.170936,169.325336 C100.164934,172.573381 93.7366167,185.304706 96.0689563,197.796087 C96.9729038,202.640088 98.5052996,212.54492 97.3147885,213.859107 C95.5389797,215.119362 93.2132787,215.225025 89.6550225,214.684601 C89.2390075,214.621864 84.3895558,213.959267 83.2510466,212.564732 C82.878182,211.413442 83.2067896,209.687609 82.9622702,210.581344 C83.9790728,206.86772 84.3818108,205.828698 86.1211076,203.17831 C102.75507,177.838935 62.527745,153.373483 45.9579551,178.617101 C35.3882968,194.718644 32.6996891,215.888723 40.4778423,233.662167 C44.5096475,242.874684 51.5464974,249.210078 59.9232254,253.514757 C50.6646783,254.43821 42.6032808,259.471524 39.4555075,269.531549 C36.0488313,280.414867 42.7227744,296.687012 55.2685041,298.729836 C86.8491339,303.871015 115.57298,293.587556 131.398147,264.543361 C143.535607,242.270422 147.850656,215.164489 143.125124,190.265377" id="Fill-39-Copy" fill="#C57FE6"></path>
        <path d="M137.125124,184.265377 C136.731237,182.188433 136.121598,180.334923 135.364805,178.653116 C132.101964,167.22277 118.412193,160.517554 107.170936,163.325336 C94.164934,166.573381 87.7366167,179.304706 90.0689563,191.796087 C90.9729038,196.640088 92.5052996,206.54492 91.3147885,207.859107 C89.5389797,209.119362 87.2132787,209.225025 83.6550225,208.684601 C83.2390075,208.621864 78.3895558,207.959267 77.2510466,206.564732 C76.878182,205.413442 77.2067896,203.687609 76.9622702,204.581344 C77.9790728,200.86772 78.3818108,199.828698 80.1211076,197.17831 C96.7550701,171.838935 56.527745,147.373483 39.9579551,172.617101 C29.3882968,188.718644 26.6996891,209.888723 34.4778423,227.662167 C38.5096475,236.874684 45.5464974,243.210078 53.9232254,247.514757 C44.6646783,248.43821 36.6032808,253.471524 33.4555075,263.531549 C30.0488313,274.414867 36.7227744,290.687012 49.2685041,292.729836 C80.8491339,297.871015 109.57298,287.587556 125.398147,258.543361 C137.535607,236.270422 141.850656,209.164489 137.125124,184.265377" id="Fill-39-Copy-2" fill="#FF467F"></path>
        <path d="M132.125124,179.265377 C131.731237,177.188433 131.121598,175.334923 130.364805,173.653116 C127.101964,162.22277 113.412193,155.517554 102.170936,158.325336 C89.164934,161.573381 82.7366167,174.304706 85.0689563,186.796087 C85.9729038,191.640088 87.5052996,201.54492 86.3147885,202.859107 C84.5389797,204.119362 82.2132787,204.225025 78.6550225,203.684601 C78.2390075,203.621864 73.3895558,202.959267 72.2510466,201.564732 C71.878182,200.413442 72.2067896,198.687609 71.9622702,199.581344 C72.9790728,195.86772 73.3818108,194.828698 75.1211076,192.17831 C91.7550701,166.838935 51.527745,142.373483 34.9579551,167.617101 C24.3882968,183.718644 21.6996891,204.888723 29.4778423,222.662167 C33.5096475,231.874684 40.5464974,238.210078 48.9232254,242.514757 C39.6646783,243.43821 31.6032808,248.471524 28.4555075,258.531549 C25.0488313,269.414867 31.7227744,285.687012 44.2685041,287.729836 C75.8491339,292.871015 104.57298,282.587556 120.398147,253.543361 C132.535607,231.270422 136.850656,204.164489 132.125124,179.265377" id="Fill-39" fill="#FB9E20"></path>
        <path d="M126.125124,173.265377 C125.731237,171.188433 125.121598,169.334923 124.364805,167.653116 C121.101964,156.22277 107.412193,149.517554 96.1709356,152.325336 C83.164934,155.573381 76.7366167,168.304706 79.0689563,180.796087 C79.9729038,185.640088 81.5052996,195.54492 80.3147885,196.859107 C78.5389797,198.119362 76.2132787,198.225025 72.6550225,197.684601 C72.2390075,197.621864 67.3895558,196.959267 66.2510466,195.564732 C65.878182,194.413442 66.2067896,192.687609 65.9622702,193.581344 C66.9790728,189.86772 67.3818108,188.828698 69.1211076,186.17831 C85.7550701,160.838935 45.527745,136.373483 28.9579551,161.617101 C18.3882968,177.718644 15.6996891,198.888723 23.4778423,216.662167 C27.5096475,225.874684 34.5464974,232.210078 42.9232254,236.514757 C33.6646783,237.43821 25.6032808,242.471524 22.4555075,252.531549 C19.0488313,263.414867 25.7227744,279.687012 38.2685041,281.729836 C69.8491339,286.871015 98.5729798,276.587556 114.398147,247.543361 C126.535607,225.270422 130.850656,198.164489 126.125124,173.265377" id="Fill-39-Copy-3" fill="#8240A1"></path>
        <path d="M180.332215,256.711263 C189.061117,276.114114 208.285749,288.356141 229.299363,290.656111 C252.738903,293.222475 273.436814,281.189836 286.301975,262.412954 C305.411403,234.522796 261.209116,206.271401 243.427335,232.205718 C237.944873,240.201763 229.64538,240.966354 226.176639,234.641632 C222.707898,228.31691 229.299363,221.155298 241.13766,223.964637 C255.023267,227.259822 268.104208,211.945153 268.661395,198.990552 C269.326033,183.541941 257.566384,173.964942 243.427335,171.75048 C195.489267,164.242139 161.363468,214.547693 180.332215,256.711263 Z" id="Fill-41" fill="#C57FE6"></path>
        <path d="M320.332215,256.711263 C329.061117,276.114114 348.285749,288.356141 369.299363,290.656111 C392.738903,293.222475 413.436814,281.189836 426.301975,262.412954 C445.411403,234.522796 401.209116,206.271401 383.427335,232.205718 C377.944873,240.201763 369.64538,240.966354 366.176639,234.641632 C362.707898,228.31691 369.299363,221.155298 381.13766,223.964637 C395.023267,227.259822 408.104208,211.945153 408.661395,198.990552 C409.326033,183.541941 397.566384,173.964942 383.427335,171.75048 C335.489267,164.242139 301.363468,214.547693 320.332215,256.711263 Z" id="Fill-41-Copy-6" fill="#C57FE6"></path>
        <path d="M174.332215,251.425524 C183.061117,270.990065 202.285749,283.334108 223.299363,285.653245 C246.738903,288.240996 267.436814,276.108084 280.301975,257.174729 C299.411403,229.052152 255.209116,200.565329 237.427335,226.715766 C231.944873,234.778444 223.64538,235.549407 220.176639,229.171979 C216.707898,222.794551 223.299363,215.573258 235.13766,218.406009 C249.023267,221.728654 262.104208,206.286362 262.661395,193.223806 C263.326033,177.646457 251.566384,167.98965 237.427335,165.756734 C189.489267,158.185824 155.363468,208.910591 174.332215,251.425524 Z" id="Fill-41-Copy-3" fill="#FF467F"></path>
        <path d="M314.332215,251.425524 C323.061117,270.990065 342.285749,283.334108 363.299363,285.653245 C386.738903,288.240996 407.436814,276.108084 420.301975,257.174729 C439.411403,229.052152 395.209116,200.565329 377.427335,226.715766 C371.944873,234.778444 363.64538,235.549407 360.176639,229.171979 C356.707898,222.794551 363.299363,215.573258 375.13766,218.406009 C389.023267,221.728654 402.104208,206.286362 402.661395,193.223806 C403.326033,177.646457 391.566384,167.98965 377.427335,165.756734 C329.489267,158.185824 295.363468,208.910591 314.332215,251.425524 Z" id="Fill-41-Copy-7" fill="#FF467F"></path>
        <path d="M169.286248,245.711263 C177.939901,265.114114 196.998803,277.356141 217.831265,279.656111 C241.06874,282.222475 261.588221,270.189836 274.342475,251.412954 C293.287167,223.522796 249.465934,195.271401 231.837444,221.205718 C226.402245,229.201763 218.174299,229.966354 214.735461,223.641632 C211.296624,217.31691 217.831265,210.155298 229.567508,212.964637 C243.333412,216.259822 256.301585,200.945153 256.853969,187.990552 C257.512877,172.541941 245.854605,162.964942 231.837444,160.75048 C184.312635,153.242139 150.481025,203.547693 169.286248,245.711263 Z" id="Fill-41-Copy-4" fill="#FB9E20"></path>
        <path d="M309.332215,245.711263 C318.061117,265.114114 337.285749,277.356141 358.299363,279.656111 C381.738903,282.222475 402.436814,270.189836 415.301975,251.412954 C434.411403,223.522796 390.209116,195.271401 372.427335,221.205718 C366.944873,229.201763 358.64538,229.966354 355.176639,223.641632 C351.707898,217.31691 358.299363,210.155298 370.13766,212.964637 C384.023267,216.259822 397.104208,200.945153 397.661395,187.990552 C398.326033,172.541941 386.566384,162.964942 372.427335,160.75048 C324.489267,153.242139 290.363468,203.547693 309.332215,245.711263 Z" id="Fill-41-Copy-8" fill="#FB9E20"></path>
        <path d="M163.332215,240.425524 C172.061117,259.990065 191.285749,272.334108 212.299363,274.653245 C235.738903,277.240996 256.436814,265.108084 269.301975,246.174729 C288.411403,218.052152 244.209116,189.565329 226.427335,215.715766 C220.944873,223.778444 212.64538,224.549407 209.176639,218.171979 C205.707898,211.794551 212.299363,204.573258 224.13766,207.406009 C238.023267,210.728654 251.104208,195.286362 251.661395,182.223806 C252.326033,166.646457 240.566384,156.98965 226.427335,154.756734 C178.489267,147.185824 144.363468,197.910591 163.332215,240.425524 Z" id="Fill-41-Copy-5" fill="#8240A1"></path>
        <path d="M303.332215,240.425524 C312.061117,259.990065 331.285749,272.334108 352.299363,274.653245 C375.738903,277.240996 396.436814,265.108084 409.301975,246.174729 C428.411403,218.052152 384.209116,189.565329 366.427335,215.715766 C360.944873,223.778444 352.64538,224.549407 349.176639,218.171979 C345.707898,211.794551 352.299363,204.573258 364.13766,207.406009 C378.023267,210.728654 391.104208,195.286362 391.661395,182.223806 C392.326033,166.646457 380.566384,156.98965 366.427335,154.756734 C318.489267,147.185824 284.363468,197.910591 303.332215,240.425524 Z" id="Fill-41-Copy-9" fill="#8240A1"></path>
    </g>
</svg>