<?xml version="1.0" encoding="utf-8"?>
<!-- Generator: Adobe Illustrator 16.0.0, SVG Export Plug-In . SVG Version: 6.00 Build 0)  -->
<!DOCTYPE svg PUBLIC "-//W3C//DTD SVG 1.1//EN" "http://www.w3.org/Graphics/SVG/1.1/DTD/svg11.dtd">
<svg version="1.1" id="圖層_1" xmlns="http://www.w3.org/2000/svg" xmlns:xlink="http://www.w3.org/1999/xlink" x="0px" y="0px"
	 width="170px" height="90px" viewBox="0 0 170 90" enable-background="new 0 0 170 90" xml:space="preserve">
<g>
	<path d="M29.708,22.947L16.892,52.371h-4.416l4.56-10.224l-9.216-19.2h5.04l6.432,14.16l6.288-14.16H29.708z"/>
	<path d="M34.988,14.02c0.543-0.48,1.167-0.72,1.872-0.72c0.703,0,1.32,0.24,1.848,0.72c0.528,0.48,0.792,1.072,0.792,1.776
		c0,0.704-0.264,1.296-0.792,1.776c-0.528,0.48-1.145,0.72-1.848,0.72c-0.705,0-1.329-0.24-1.872-0.72
		c-0.544-0.48-0.816-1.072-0.816-1.776C34.171,15.092,34.443,14.5,34.988,14.02z M38.972,22.947v19.872h-4.464V22.947H38.972z"/>
	<path d="M54.379,30.531v3.936h-8.928v-3.936H54.379z"/>
	<path d="M74.274,42.675c-1.232,0.416-2.488,0.624-3.769,0.624c-2.145,0-4.04-0.432-5.688-1.296
		c-1.648-0.864-2.928-2.088-3.84-3.672c-0.912-1.584-1.368-3.416-1.368-5.496c0-2.048,0.48-3.864,1.44-5.448s2.239-2.808,3.84-3.672
		c1.6-0.864,3.328-1.296,5.184-1.296c3.04,0,5.552,0.833,7.536,2.496l-2.256,2.928c-0.641-0.48-1.377-0.888-2.208-1.224
		c-0.833-0.336-1.729-0.504-2.688-0.504c-1.184,0-2.265,0.296-3.24,0.888c-0.977,0.592-1.745,1.4-2.304,2.424
		c-0.56,1.024-0.84,2.16-0.84,3.408s0.295,2.384,0.888,3.408c0.591,1.025,1.399,1.841,2.424,2.448
		c1.024,0.608,2.192,0.912,3.504,0.912c1.632,0,3.055-0.48,4.271-1.44l2.304,2.784C76.57,41.684,75.506,42.26,74.274,42.675z"/>
	<path d="M100.17,23.835c1.216,1.104,1.84,2.537,1.872,4.296v14.688H97.53V29.667c-0.064-1.12-0.401-2-1.009-2.64
		c-0.607-0.64-1.52-0.976-2.735-1.008c-1.152,0-2.192,0.32-3.12,0.96c-0.929,0.64-1.656,1.536-2.185,2.688
		c-0.527,1.152-0.792,2.432-0.792,3.84v9.312h-4.464v-37.2h4.368v20.928c0.736-1.312,1.8-2.368,3.192-3.168
		c1.392-0.799,2.983-1.2,4.775-1.2C97.417,22.179,98.953,22.731,100.17,23.835z"/>
	<path d="M128.25,22.947v19.872h-4.032l-0.288-3.792c-0.672,1.344-1.712,2.44-3.12,3.288c-1.408,0.847-2.976,1.272-4.704,1.272
		c-1.823,0-3.32-0.552-4.487-1.656c-1.169-1.104-1.784-2.536-1.849-4.296V22.947h4.464v13.104c0.064,1.121,0.392,2.009,0.984,2.664
		c0.592,0.656,1.479,1,2.664,1.032c1.088,0,2.08-0.328,2.976-0.984c0.896-0.655,1.608-1.56,2.137-2.712
		c0.527-1.152,0.792-2.432,0.792-3.84v-9.264H128.25z"/>
	<path d="M152.97,23.835c1.216,1.104,1.84,2.537,1.872,4.296v14.688h-4.512V29.667c-0.064-1.12-0.401-2-1.009-2.64
		c-0.607-0.64-1.52-0.976-2.735-1.008c-1.761,0-3.216,0.704-4.368,2.112c-1.152,1.409-1.729,3.2-1.729,5.376v9.312h-4.464V22.947
		h4.032l0.288,3.84c0.703-1.44,1.76-2.568,3.168-3.384s3.024-1.224,4.848-1.224C150.217,22.179,151.753,22.731,152.97,23.835z"/>
	<path d="M23.732,85.676C22.5,86.091,21.244,86.3,19.964,86.3c-2.145,0-4.041-0.433-5.688-1.297
		c-1.648-0.863-2.928-2.088-3.84-3.672c-0.912-1.584-1.368-3.415-1.368-5.496c0-2.048,0.48-3.864,1.44-5.448s2.239-2.808,3.84-3.672
		c1.6-0.863,3.328-1.295,5.184-1.295c3.04,0,5.551,0.832,7.536,2.496l-2.256,2.928c-0.64-0.48-1.376-0.889-2.208-1.225
		c-0.833-0.336-1.728-0.504-2.688-0.504c-1.184,0-2.264,0.297-3.24,0.889c-0.977,0.592-1.745,1.4-2.304,2.424
		c-0.56,1.023-0.84,2.16-0.84,3.407c0,1.248,0.295,2.385,0.888,3.408c0.591,1.024,1.399,1.841,2.424,2.448
		c1.024,0.608,2.191,0.912,3.504,0.912c1.632,0,3.056-0.48,4.272-1.44l2.304,2.784C26.028,84.684,24.964,85.26,23.732,85.676z"/>
	<path d="M49.628,66.836c1.216,1.104,1.84,2.536,1.872,4.295v14.688h-4.512V72.668c-0.064-1.121-0.4-2-1.008-2.641
		c-0.608-0.64-1.521-0.976-2.736-1.008c-1.152,0-2.192,0.32-3.12,0.96c-0.929,0.64-1.656,1.536-2.184,2.688
		c-0.528,1.151-0.792,2.432-0.792,3.84v9.312h-4.464v-37.2h4.368v20.928c0.736-1.312,1.8-2.367,3.192-3.168
		c1.392-0.799,2.983-1.199,4.776-1.199C46.875,65.18,48.412,65.731,49.628,66.836z"/>
	<path d="M73.388,80.731l2.064,3.312c-1.057,0.705-2.201,1.257-3.433,1.656c-1.232,0.399-2.424,0.601-3.576,0.601
		c-2.208,0-4.136-0.456-5.784-1.368c-1.648-0.912-2.92-2.168-3.816-3.769c-0.896-1.6-1.344-3.408-1.344-5.424
		c0-1.952,0.487-3.735,1.464-5.353c0.976-1.615,2.312-2.895,4.008-3.84c1.696-0.943,3.552-1.416,5.568-1.416
		c2.592,0,4.76,0.761,6.504,2.28c1.743,1.521,2.936,3.641,3.576,6.36l-15.744,5.52c0.576,0.992,1.352,1.769,2.328,2.328
		c0.976,0.561,2.088,0.84,3.336,0.84C70.203,82.459,71.819,81.884,73.388,80.731z M63.692,70.604
		c-1.184,1.28-1.776,2.912-1.776,4.896c0,0.479,0.016,0.848,0.048,1.104l11.568-4.271c-0.48-1.088-1.16-1.969-2.04-2.641
		c-0.881-0.672-1.977-1.008-3.289-1.008C66.38,68.684,64.875,69.324,63.692,70.604z"/>
	<path d="M101.131,66.836c1.216,1.104,1.84,2.536,1.872,4.295v14.688h-4.512V72.668c-0.064-1.121-0.401-2-1.009-2.641
		c-0.607-0.64-1.52-0.976-2.735-1.008c-1.761,0-3.216,0.704-4.368,2.111c-1.152,1.409-1.729,3.201-1.729,5.377v9.312h-4.464V65.947
		h4.032l0.288,3.84c0.703-1.439,1.76-2.568,3.168-3.384s3.024-1.224,4.848-1.224C98.378,65.18,99.914,65.731,101.131,66.836z"/>
</g>
</svg>
