<svg id="Layer_1" data-name="Layer 1" xmlns="http://www.w3.org/2000/svg" xmlns:xlink="http://www.w3.org/1999/xlink" viewBox="0 0 121 40"><defs><style>.cls-1{fill:none;}.cls-2{isolation:isolate;}.cls-3{clip-path:url(#clip-path);}.cls-4{fill:#ff8ce2;}.cls-5{clip-path:url(#clip-path-2);}.cls-6{fill:#ff8de2;}.cls-7{fill:#ff8ee2;}.cls-8{clip-path:url(#clip-path-3);}.cls-9{fill:#ffa0e5;}.cls-10{fill:#ff8be2;}.cls-11{fill:#f6c571;}.cls-12{clip-path:url(#clip-path-4);}.cls-13{fill:#f5c36e;}.cls-14{fill:#f5c26c;}.cls-15{clip-path:url(#clip-path-5);}.cls-16{fill:#f6c570;}.cls-17{fill:#f6c672;}.cls-18{fill:#f4c16a;}.cls-19{fill:#fedf95;}.cls-20{clip-path:url(#clip-path-6);}.cls-21{clip-path:url(#clip-path-7);}.cls-22{fill:#d8cdfd;}.cls-23{fill:#d9cefd;}.cls-24{fill:#dbcffd;}.cls-25{fill:#dbd0fd;}.cls-26{clip-path:url(#clip-path-8);}.cls-27{fill:#dcd1fd;}.cls-28{clip-path:url(#clip-path-9);}.cls-29{clip-path:url(#clip-path-10);}.cls-30{fill:#c0b5ff;}</style><clipPath id="clip-path"><path class="cls-1" d="M70.89,37.46,60,34.27A3.5,3.5,0,0,1,58.26,33l10.9,3.19A3.42,3.42,0,0,0,70.89,37.46Z"/></clipPath><clipPath id="clip-path-2"><path class="cls-1" d="M63.14,4.15,74,7.34a3,3,0,0,0-1.54,0L61.6,4.13A2.87,2.87,0,0,1,63.14,4.15Z"/></clipPath><clipPath id="clip-path-3"><path class="cls-1" d="M69.22,10.24,58.32,7.05A5.63,5.63,0,0,1,61.6,4.13L72.5,7.32A5.6,5.6,0,0,0,69.22,10.24Z"/></clipPath><clipPath id="clip-path-4"><path class="cls-1" d="M115.82,34.65l-11.14,3a3.84,3.84,0,0,0,1.86-1.14c2.16-2.29,2.21-6.94.11-10.37l11.14-2.95c2.1,3.43,2,8.08-.11,10.37A3.92,3.92,0,0,1,115.82,34.65Z"/></clipPath><clipPath id="clip-path-5"><path class="cls-1" d="M101,6.73l11.13-3a3.89,3.89,0,0,1,2,0L103,6.75A3.75,3.75,0,0,0,101,6.73Z"/></clipPath><clipPath id="clip-path-6"><path class="cls-1" d="M103,6.75,114.11,3.8A6.78,6.78,0,0,1,118,7c2.1,3.43,2.05,8.08-.11,10.38l-11.14,2.95c2.16-2.3,2.21-7,.11-10.38A6.82,6.82,0,0,0,103,6.75Z"/></clipPath><clipPath id="clip-path-7"><path class="cls-1" d="M3.61,7.71l6.75-3.88A5.92,5.92,0,0,1,14,3.11a7.48,7.48,0,0,1,4.74,2.67L12,9.67A7.5,7.5,0,0,0,7.28,7,5.85,5.85,0,0,0,3.61,7.71Z"/></clipPath><clipPath id="clip-path-8"><path class="cls-1" d="M32.51,34.15,25.76,38a5.37,5.37,0,0,0,1.07-.79c2.61-2.46,2.61-7,0-10.08l6.75-3.88c2.62,3.1,2.63,7.61,0,10.08A6.15,6.15,0,0,1,32.51,34.15Z"/></clipPath><clipPath id="clip-path-9"><path class="cls-1" d="M18.36,9.52l6.75-3.88a5.87,5.87,0,0,1,3.68-.71L22,8.81A5.88,5.88,0,0,0,18.36,9.52Z"/></clipPath><clipPath id="clip-path-10"><path class="cls-1" d="M22,8.81l6.75-3.88A7.48,7.48,0,0,1,33.54,7.6c2.62,3.1,2.63,7.61,0,10.07L26.8,21.56c2.62-2.46,2.61-7,0-10.08A7.47,7.47,0,0,0,22,8.81Z"/></clipPath></defs><g class="cls-2"><g class="cls-2"><g class="cls-3"><g class="cls-2"><path class="cls-4" d="M70.89,37.46,60,34.27A3.5,3.5,0,0,1,58.26,33l10.9,3.19a3.42,3.42,0,0,0,1.73,1.26"/></g></g></g><g class="cls-2"><g class="cls-5"><g class="cls-2"><path class="cls-6" d="M72.5,7.32,61.6,4.13A3,3,0,0,1,62.18,4l10.9,3.19a2.91,2.91,0,0,0-.58.09"/><path class="cls-7" d="M73.08,7.23,62.18,4a2.81,2.81,0,0,1,1,.11L74,7.34a3.15,3.15,0,0,0-1-.11"/></g></g></g><g class="cls-2"><g class="cls-8"><g class="cls-2"><path class="cls-4" d="M69.22,10.24,58.32,7.05A6.29,6.29,0,0,1,60.8,4.44L71.69,7.63a6.33,6.33,0,0,0-2.47,2.61"/><path class="cls-6" d="M71.69,7.63,60.8,4.44a3.57,3.57,0,0,1,.8-.31L72.5,7.32a3.85,3.85,0,0,0-.81.31"/></g></g></g><path class="cls-9" d="M72.5,7.32A3.07,3.07,0,0,1,75.77,8.6c1.8,2.36,1.79,6.91,0,10.16L73.92,22l1.82,2.37c1.8,2.35,1.79,6.9,0,10.15a5.6,5.6,0,0,1-3.28,2.92,3.06,3.06,0,0,1-3.27-1.28L60.82,25.31l8.4-15.07A5.6,5.6,0,0,1,72.5,7.32Z"/><polygon class="cls-10" points="69.16 36.2 58.26 33.01 49.92 22.11 60.82 25.3 69.16 36.2"/><polygon class="cls-4" points="60.82 25.3 49.92 22.11 58.32 7.05 69.22 10.24 60.82 25.3"/></g><g class="cls-2"><polygon class="cls-11" points="104.53 22.63 115.67 19.67 117.79 23.14 106.65 26.09 104.53 22.63"/><g class="cls-2"><g class="cls-12"><g class="cls-2"><path class="cls-13" d="M106.65,26.09l11.14-2.95c.13.22.26.44.38.67l-11.14,3-.38-.67"/><path class="cls-14" d="M107,26.76l11.14-3c1.71,3.35,1.53,7.56-.49,9.7a3.92,3.92,0,0,1-1.86,1.14l-11.14,3a3.84,3.84,0,0,0,1.86-1.14c2-2.14,2.2-6.35.49-9.7"/></g></g></g><g class="cls-2"><g class="cls-15"><g class="cls-2"><path class="cls-16" d="M101,6.73l11.13-3a4,4,0,0,1,1.09-.12L102,6.61a3.26,3.26,0,0,0-1.08.12"/><path class="cls-17" d="M102,6.61l11.14-3a3.84,3.84,0,0,1,.94.15L103,6.75a3.82,3.82,0,0,0-.94-.14"/></g></g></g><polygon class="cls-18" points="106.71 20.32 117.85 17.37 115.67 19.67 104.53 22.63 106.71 20.32"/><path class="cls-19" d="M103,6.75a6.82,6.82,0,0,1,3.85,3.19c2.1,3.43,2.05,8.08-.11,10.38l-2.18,2.31,2.12,3.46c2.1,3.43,2,8.08-.11,10.37a3.79,3.79,0,0,1-3.89,1.12,6.77,6.77,0,0,1-3.84-3.19L89.07,18.48l10-10.61A3.8,3.8,0,0,1,103,6.75Z"/><g class="cls-2"><g class="cls-20"><g class="cls-2"><path class="cls-17" d="M103,6.75,114.11,3.8l.18.05L103.16,6.8l-.19,0"/><path class="cls-16" d="M103.16,6.8l11.13-2.95A6.07,6.07,0,0,1,117,5.65L105.83,8.6a6.18,6.18,0,0,0-2.67-1.8"/><path class="cls-13" d="M105.83,8.6,117,5.65A8.82,8.82,0,0,1,118,7c.13.22.26.44.37.67l-11.14,2.95c-.11-.23-.24-.45-.37-.67a9.5,9.5,0,0,0-1-1.34"/><path class="cls-14" d="M107.19,10.61l11.14-2.95c1.71,3.35,1.54,7.56-.48,9.71l-11.14,2.95c2-2.15,2.19-6.36.48-9.71"/></g></g></g></g><g class="cls-2"><g class="cls-2"><g class="cls-21"><g class="cls-2"><path class="cls-22" d="M3.61,7.71l6.75-3.88a5.19,5.19,0,0,1,1.05-.47L4.66,7.24a6.13,6.13,0,0,0-1.05.47"/><path class="cls-23" d="M4.66,7.24l6.75-3.88A6,6,0,0,1,14,3.11l.43.07L7.72,7.07,7.28,7a6.1,6.1,0,0,0-2.62.24"/><path class="cls-24" d="M7.72,7.07l6.74-3.89a7.55,7.55,0,0,1,4.31,2.6L12,9.67a7.55,7.55,0,0,0-4.31-2.6"/></g></g></g><polygon class="cls-25" points="12.03 9.67 18.77 5.78 21.41 8.91 14.67 12.79 12.03 9.67"/><polygon class="cls-25" points="24.17 24.04 30.92 20.15 33.56 23.28 26.81 27.16 24.17 24.04"/><g class="cls-2"><g class="cls-26"><g class="cls-2"><path class="cls-24" d="M26.81,27.16l6.75-3.88c2.62,3.1,2.63,7.61,0,10.08a6.15,6.15,0,0,1-1.07.79L25.76,38a5.37,5.37,0,0,0,1.07-.79c2.61-2.46,2.61-7,0-10.08"/></g></g></g><polygon class="cls-27" points="26.8 21.56 33.55 17.68 30.92 20.15 24.17 24.04 26.8 21.56"/><g class="cls-2"><g class="cls-28"><g class="cls-2"><path class="cls-22" d="M18.36,9.52l6.75-3.88a6.13,6.13,0,0,1,1.05-.47L19.42,9.05a5.9,5.9,0,0,0-1.06.47"/><path class="cls-23" d="M19.42,9.05l6.74-3.88a6,6,0,0,1,2.63-.24L22,8.81a6.08,6.08,0,0,0-2.62.24"/></g></g></g><g class="cls-2"><g class="cls-29"><g class="cls-2"><path class="cls-23" d="M22,8.81l6.75-3.88.43.06L22.48,8.88,22,8.81"/><path class="cls-24" d="M22.48,8.88,29.22,5A7.64,7.64,0,0,1,33.54,7.6c2.62,3.1,2.63,7.61,0,10.07L26.8,21.56c2.62-2.46,2.61-7,0-10.08a7.55,7.55,0,0,0-4.31-2.6"/></g></g></g><path class="cls-30" d="M22,8.81a7.47,7.47,0,0,1,4.75,2.67c2.62,3.11,2.63,7.62,0,10.08L24.17,24l2.64,3.12c2.63,3.11,2.63,7.62,0,10.08a5.8,5.8,0,0,1-4.74,1.51,7.49,7.49,0,0,1-4.75-2.68L2.56,18.58C-.06,15.48-.07,11,2.54,8.5A5.8,5.8,0,0,1,7.28,7,7.5,7.5,0,0,1,12,9.67l2.64,3.12,2.63-2.47A5.76,5.76,0,0,1,22,8.81Z"/></g></svg>