<?xml version="1.0" encoding="utf-8"?>
<!-- Generator: Adobe Illustrator 16.0.0, SVG Export Plug-In . SVG Version: 6.00 Build 0)  -->
<!DOCTYPE svg PUBLIC "-//W3C//DTD SVG 1.1//EN" "http://www.w3.org/Graphics/SVG/1.1/DTD/svg11.dtd">
<svg version="1.1" id="圖層_1" xmlns="http://www.w3.org/2000/svg" xmlns:xlink="http://www.w3.org/1999/xlink" x="0px" y="0px"
	 width="170px" height="90px" viewBox="0 0 170 90" enable-background="new 0 0 170 90" xml:space="preserve">
<text transform="matrix(1 0 0 1 -162.0918 36.8193)"><tspan x="0" y="0" font-family="'JosefinSans-Regular'" font-size="48">yi-chun</tspan><tspan x="0" y="43" font-family="'JosefinSans-Regular'" font-size="48">chen</tspan></text>
<g>
	<path fill="#B4B4B5" d="M86.844,59.497c-0.154,0.196-0.305,0.351-0.451,0.462c-0.147,0.112-0.361,0.168-0.642,0.168
		c-0.266,0-0.525-0.08-0.777-0.241c-0.252-0.161-0.554-0.343-0.904-0.547c-0.351-0.202-0.767-0.385-1.25-0.546
		s-1.082-0.242-1.797-0.242c-0.911,0-1.709,0.165-2.396,0.494c-0.687,0.329-1.258,0.803-1.713,1.419s-0.795,1.362-1.019,2.238
		c-0.224,0.875-0.336,1.866-0.336,2.974c0,1.148,0.123,2.171,0.368,3.067c0.245,0.897,0.599,1.65,1.062,2.26
		s1.022,1.071,1.681,1.387c0.658,0.315,1.401,0.473,2.228,0.473s1.496-0.102,2.007-0.305s0.942-0.427,1.292-0.673
		c0.35-0.244,0.655-0.469,0.914-0.672s0.55-0.305,0.873-0.305c0.42,0,0.735,0.161,0.945,0.483l1.492,1.892
		c-0.574,0.672-1.197,1.236-1.87,1.691s-1.37,0.819-2.091,1.093s-1.468,0.466-2.238,0.578c-0.771,0.111-1.534,0.168-2.291,0.168
		c-1.331,0-2.584-0.249-3.762-0.746c-1.177-0.497-2.203-1.223-3.079-2.175c-0.875-0.953-1.569-2.119-2.081-3.499
		s-0.767-2.953-0.767-4.718c0-1.584,0.228-3.051,0.683-4.403c0.455-1.352,1.125-2.521,2.007-3.51
		c0.883-0.987,1.976-1.761,3.278-2.321c1.303-0.561,2.802-0.841,4.498-0.841c1.611,0,3.022,0.259,4.234,0.777
		c1.212,0.519,2.301,1.261,3.268,2.228L86.844,59.497z"/>
	<path fill="#B4B4B5" d="M94.346,76.498V45.27h5.191v12c0.84-0.799,1.764-1.443,2.773-1.934c1.008-0.49,2.191-0.735,3.551-0.735
		c1.178,0,2.221,0.199,3.133,0.599c0.91,0.399,1.67,0.96,2.279,1.682s1.072,1.583,1.387,2.585c0.316,1.001,0.473,2.104,0.473,3.31
		v13.723h-5.189V62.775c0-1.316-0.305-2.336-0.914-3.058c-0.611-0.722-1.525-1.082-2.744-1.082c-0.896,0-1.736,0.203-2.521,0.609
		s-1.527,0.959-2.227,1.66v15.593H94.346z"/>
	<path fill="#B4B4B5" d="M131.27,54.601c1.358,0,2.609,0.217,3.751,0.651s2.126,1.068,2.952,1.901
		c0.827,0.834,1.472,1.856,1.934,3.068c0.463,1.212,0.693,2.596,0.693,4.15c0,0.393-0.018,0.719-0.052,0.978
		c-0.035,0.26-0.099,0.462-0.189,0.609c-0.092,0.147-0.214,0.252-0.368,0.315c-0.154,0.063-0.35,0.095-0.588,0.095h-13.324
		c0.154,2.214,0.75,3.839,1.787,4.875c1.036,1.037,2.409,1.556,4.118,1.556c0.841,0,1.566-0.099,2.176-0.295
		c0.609-0.195,1.142-0.413,1.597-0.651s0.854-0.455,1.198-0.651c0.343-0.196,0.676-0.294,0.998-0.294
		c0.21,0,0.392,0.042,0.546,0.126s0.287,0.203,0.399,0.357l1.514,1.892c-0.575,0.672-1.219,1.236-1.934,1.691
		s-1.461,0.819-2.238,1.093s-1.569,0.466-2.375,0.578c-0.806,0.111-1.586,0.168-2.343,0.168c-1.499,0-2.894-0.249-4.182-0.746
		c-1.289-0.497-2.41-1.232-3.362-2.207c-0.953-0.974-1.703-2.178-2.249-3.614c-0.547-1.436-0.819-3.1-0.819-4.991
		c0-1.471,0.237-2.854,0.714-4.15s1.159-2.424,2.05-3.384c0.889-0.959,1.975-1.719,3.257-2.279S129.658,54.601,131.27,54.601z
		 M131.374,58.32c-1.513,0-2.696,0.428-3.551,1.281c-0.855,0.855-1.401,2.067-1.64,3.636h9.751c0-0.672-0.091-1.306-0.273-1.901
		c-0.182-0.596-0.462-1.117-0.84-1.565c-0.379-0.448-0.855-0.803-1.43-1.062S132.145,58.32,131.374,58.32z"/>
	<path fill="#B4B4B5" d="M147.388,76.498V54.937h3.173c0.673,0,1.114,0.315,1.324,0.945l0.357,1.703
		c0.434-0.448,0.893-0.854,1.376-1.22c0.483-0.363,0.995-0.679,1.534-0.945c0.539-0.266,1.117-0.469,1.733-0.609
		c0.616-0.14,1.289-0.21,2.018-0.21c1.177,0,2.221,0.199,3.132,0.599c0.91,0.399,1.67,0.96,2.279,1.682
		c0.61,0.722,1.072,1.583,1.388,2.585c0.315,1.001,0.473,2.104,0.473,3.31v13.723h-5.19V62.775c0-1.316-0.305-2.336-0.914-3.058
		c-0.61-0.722-1.524-1.082-2.743-1.082c-0.896,0-1.737,0.203-2.521,0.609c-0.785,0.406-1.527,0.959-2.228,1.66v15.593H147.388z"/>
</g>
<g>
	<g>
		<path d="M22.554,51.107c-0.154,0.365-0.354,0.642-0.599,0.83c-0.246,0.189-0.62,0.284-1.125,0.284h-3.867l4.035-8.637
			L12.278,23.62h4.54c0.42,0,0.742,0.098,0.966,0.294s0.392,0.42,0.504,0.672l4.603,11.18c0.154,0.364,0.287,0.743,0.399,1.135
			c0.112,0.392,0.21,0.785,0.294,1.177c0.112-0.406,0.234-0.799,0.368-1.177c0.133-0.378,0.277-0.764,0.431-1.156l4.329-11.159
			c0.112-0.28,0.297-0.511,0.557-0.693s0.55-0.273,0.872-0.273h4.161L22.554,51.107z"/>
		<path d="M46.238,17.337c0,0.448-0.091,0.869-0.273,1.261c-0.182,0.393-0.424,0.735-0.725,1.03
			c-0.301,0.294-0.655,0.529-1.061,0.704c-0.407,0.175-0.841,0.263-1.303,0.263c-0.449,0-0.873-0.087-1.271-0.263
			c-0.399-0.175-0.746-0.41-1.041-0.704c-0.294-0.294-0.529-0.637-0.704-1.03c-0.175-0.392-0.262-0.813-0.262-1.261
			c0-0.462,0.087-0.896,0.262-1.303c0.175-0.406,0.41-0.756,0.704-1.051c0.294-0.294,0.641-0.528,1.041-0.704
			c0.399-0.175,0.823-0.263,1.271-0.263c0.462,0,0.896,0.088,1.303,0.263c0.406,0.176,0.76,0.41,1.061,0.704
			c0.301,0.294,0.543,0.645,0.725,1.051C46.147,16.44,46.238,16.875,46.238,17.337z M45.46,23.62v21.562h-5.19V23.62H45.46z"/>
		<path d="M53.257,30.324h10.886v4.329H53.257V30.324z"/>
		<path d="M86.775,28.181c-0.154,0.196-0.305,0.35-0.451,0.462c-0.148,0.112-0.361,0.168-0.642,0.168
			c-0.266,0-0.525-0.081-0.777-0.242c-0.252-0.161-0.554-0.343-0.904-0.546c-0.351-0.203-0.767-0.385-1.25-0.546
			s-1.082-0.242-1.797-0.242c-0.911,0-1.709,0.165-2.396,0.494c-0.687,0.33-1.258,0.802-1.713,1.418
			c-0.455,0.617-0.795,1.363-1.019,2.238c-0.224,0.876-0.336,1.867-0.336,2.974c0,1.149,0.123,2.172,0.368,3.068
			s0.599,1.649,1.062,2.259s1.022,1.072,1.681,1.387c0.658,0.315,1.401,0.473,2.228,0.473s1.496-0.102,2.007-0.305
			c0.511-0.203,0.942-0.427,1.292-0.672s0.655-0.469,0.914-0.672s0.55-0.305,0.873-0.305c0.42,0,0.735,0.161,0.945,0.483
			l1.492,1.891c-0.574,0.672-1.197,1.237-1.87,1.692s-1.37,0.819-2.091,1.093c-0.722,0.273-1.468,0.465-2.238,0.578
			c-0.771,0.112-1.534,0.168-2.291,0.168c-1.331,0-2.584-0.249-3.762-0.746c-1.177-0.497-2.203-1.222-3.079-2.175
			c-0.875-0.953-1.569-2.119-2.081-3.499c-0.511-1.38-0.767-2.953-0.767-4.718c0-1.583,0.228-3.05,0.683-4.403
			c0.455-1.352,1.125-2.521,2.007-3.509c0.883-0.988,1.976-1.762,3.278-2.322c1.303-0.56,2.802-0.84,4.498-0.84
			c1.611,0,3.022,0.259,4.234,0.777c1.212,0.519,2.301,1.261,3.268,2.228L86.775,28.181z"/>
		<path d="M94.277,45.182V13.953h5.191v12c0.84-0.798,1.764-1.442,2.773-1.933c1.008-0.49,2.191-0.735,3.551-0.735
			c1.178,0,2.221,0.199,3.133,0.599c0.91,0.399,1.67,0.96,2.279,1.681c0.609,0.722,1.072,1.583,1.387,2.585
			c0.316,1.002,0.473,2.105,0.473,3.31v13.723h-5.189V31.459c0-1.317-0.305-2.336-0.914-3.058c-0.611-0.722-1.525-1.083-2.744-1.083
			c-0.896,0-1.736,0.203-2.521,0.609c-0.785,0.407-1.527,0.96-2.227,1.66v15.593H94.277z"/>
		<path d="M127.04,23.62v13.702c0,1.317,0.305,2.336,0.914,3.058s1.523,1.082,2.742,1.082c0.896,0,1.737-0.2,2.522-0.599
			c0.784-0.399,1.526-0.949,2.228-1.65V23.62h5.19v21.562h-3.173c-0.673,0-1.114-0.315-1.324-0.946l-0.357-1.723
			c-0.448,0.449-0.911,0.858-1.387,1.229c-0.477,0.371-0.984,0.687-1.523,0.946c-0.54,0.259-1.121,0.462-1.745,0.609
			c-0.623,0.147-1.292,0.221-2.007,0.221c-1.177,0-2.217-0.2-3.12-0.599c-0.904-0.399-1.664-0.963-2.28-1.692
			c-0.617-0.728-1.082-1.593-1.397-2.595c-0.315-1.001-0.473-2.105-0.473-3.31V23.62H127.04z"/>
		<path d="M148.749,45.182V23.62h3.173c0.673,0,1.114,0.315,1.324,0.946l0.357,1.702c0.434-0.448,0.893-0.854,1.376-1.219
			s0.995-0.68,1.534-0.946s1.117-0.469,1.733-0.609s1.289-0.21,2.018-0.21c1.177,0,2.221,0.199,3.132,0.599
			c0.91,0.399,1.67,0.96,2.279,1.681c0.61,0.722,1.072,1.583,1.388,2.585c0.315,1.002,0.473,2.105,0.473,3.31v13.723h-5.19V31.459
			c0-1.317-0.305-2.336-0.914-3.058c-0.61-0.722-1.524-1.083-2.743-1.083c-0.896,0-1.737,0.203-2.521,0.609
			c-0.785,0.407-1.527,0.96-2.228,1.66v15.593H148.749z"/>
	</g>
</g>
<g>
	<polygon fill="#B4B4B5" points="40.785,57.776 28.162,74.629 25.439,70.995 15.538,57.776 	"/>
	<polygon points="32.38,57.776 23.959,69.02 15.538,57.776 	"/>
</g>
<path d="M52.634,56.874V74.52c-4.873,0-8.82-3.953-8.82-8.825S47.762,56.874,52.634,56.874z"/>
<path fill="#B4B4B5" d="M56.988,74.52V56.874c4.872,0,8.82,3.953,8.82,8.825S61.86,74.52,56.988,74.52z"/>
</svg>
