<svg id="Layer_1" data-name="Layer 1" xmlns="http://www.w3.org/2000/svg" viewBox="0 0 100 50"><defs><style>.cls-1,.cls-2{fill:#231f20;stroke:#f48694;}.cls-1{stroke-miterlimit:10;}.cls-2{stroke-linecap:round;stroke-linejoin:round;}</style></defs><title>logo14</title><path class="cls-1" d="M57.44,14.21c-9-3.64-18,4.65-16.27,13.9a12,12,0,0,0,8,8.93c4.48,1.59,9.09.13,12.47-3,4.6-4.28-2.3-11.17-6.89-6.9-1.34,1.25-3.67.91-4.08-1-.63-2.85,2.17-3.36,4.17-2.56,2.45,1,5.36-1.07,6-3.4.76-2.78-1-5-3.41-6Z"/><path class="cls-1" d="M86.09,13.92c-9-3.65-18,4.63-16.29,13.88a12.08,12.08,0,0,0,8,8.94c4.48,1.59,9.09.13,12.47-3,4.61-4.28-2.3-11.16-6.89-6.9-1.35,1.25-3.68.89-4.08-1-.61-2.85,2.18-3.35,4.18-2.54,2.45,1,5.36-1.08,6-3.41.77-2.78-.95-5-3.4-6Z"/><path class="cls-2" d="M33.38,17.9A5.36,5.36,0,0,0,33,16.71c-1.49-5.8-10.6-3.2-9.33,2.84.21,1,.56,3.55.23,4.34s-1.77.89-2.42.81c-.17,0-1.86-.18-2.22-.81-.53-.93-.05-2,.69-3.17,3.32-5.35-5.11-10.25-8.42-4.92a13.4,13.4,0,0,0-1,12.47c1.55,3.39,5.33,5.32,8.37,5.64a5.34,5.34,0,0,1-2.35.14c-2.63-.37-5.21.65-6,3.41-.65,2.28.8,5.63,3.4,6,7.24,1,13.69-1.53,17.14-8.26A26.63,26.63,0,0,0,33.38,17.9Z"/></svg>