<?xml version="1.0" encoding="UTF-8"?>
<svg width="422px" height="299px" viewBox="0 0 422 299" version="1.1" xmlns="http://www.w3.org/2000/svg" xmlns:xlink="http://www.w3.org/1999/xlink">
    <!-- Generator: Sketch 55.2 (78181) - https://sketchapp.com -->
    <title>Artboard Copy 27</title>
    <desc>Created with Sketch.</desc>
    <g id="Artboard-Copy-27" stroke="none" stroke-width="1" fill="none" fill-rule="evenodd">
        <path d="M137.125124,111.265377 C136.731237,109.188433 136.121598,107.334923 135.364805,105.653116 C132.101964,94.2227702 118.412193,87.5175545 107.170936,90.325336 C94.164934,93.5733813 87.7366167,106.304706 90.0689563,118.796087 C90.9729038,123.640088 92.5052996,133.54492 91.3147885,134.859107 C89.5389797,136.119362 87.2132787,136.225025 83.6550225,135.684601 C83.2390075,135.621864 78.3895558,134.959267 77.2510466,133.564732 C76.878182,132.413442 77.2067896,130.687609 76.9622702,131.581344 C77.9790728,127.86772 78.3818108,126.828698 80.1211076,124.17831 C96.7550701,98.8389348 56.527745,74.3734826 39.9579551,99.6171008 C29.3882968,115.718644 26.6996891,136.888723 34.4778423,154.662167 C38.5096475,163.874684 45.5464974,170.210078 53.9232254,174.514757 C44.6646783,175.43821 36.6032808,180.471524 33.4555075,190.531549 C30.0488313,201.414867 36.7227744,217.687012 49.2685041,219.729836 C80.8491339,224.871015 109.57298,214.587556 125.398147,185.543361 C137.535607,163.270422 141.850656,136.164489 137.125124,111.265377" id="Fill-39-Copy-2" fill="#F25AA5"></path>
        <path d="M132.125124,106.265377 C131.731237,104.188433 131.121598,102.334923 130.364805,100.653116 C127.101964,89.2227702 113.412193,82.5175545 102.170936,85.325336 C89.164934,88.5733813 82.7366167,101.304706 85.0689563,113.796087 C85.9729038,118.640088 87.5052996,128.54492 86.3147885,129.859107 C84.5389797,131.119362 82.2132787,131.225025 78.6550225,130.684601 C78.2390075,130.621864 73.3895558,129.959267 72.2510466,128.564732 C71.878182,127.413442 72.2067896,125.687609 71.9622702,126.581344 C72.9790728,122.86772 73.3818108,121.828698 75.1211076,119.17831 C91.7550701,93.8389348 51.527745,69.3734826 34.9579551,94.6171008 C24.3882968,110.718644 21.6996891,131.888723 29.4778423,149.662167 C33.5096475,158.874684 40.5464974,165.210078 48.9232254,169.514757 C39.6646783,170.43821 31.6032808,175.471524 28.4555075,185.531549 C25.0488313,196.414867 31.7227744,212.687012 44.2685041,214.729836 C75.8491339,219.871015 104.57298,209.587556 120.398147,180.543361 C132.535607,158.270422 136.850656,131.164489 132.125124,106.265377" id="Fill-39" fill="#CBADFF"></path>
        <path d="M126.125124,100.265377 C125.731237,98.188433 125.121598,96.334923 124.364805,94.6531158 C121.101964,83.2227702 107.412193,76.5175545 96.1709356,79.325336 C83.164934,82.5733813 76.7366167,95.304706 79.0689563,107.796087 C79.9729038,112.640088 81.5052996,122.54492 80.3147885,123.859107 C78.5389797,125.119362 76.2132787,125.225025 72.6550225,124.684601 C72.2390075,124.621864 67.3895558,123.959267 66.2510466,122.564732 C65.878182,121.413442 66.2067896,119.687609 65.9622702,120.581344 C66.9790728,116.86772 67.3818108,115.828698 69.1211076,113.17831 C85.7550701,87.8389348 45.527745,63.3734826 28.9579551,88.6171008 C18.3882968,104.718644 15.6996891,125.888723 23.4778423,143.662167 C27.5096475,152.874684 34.5464974,159.210078 42.9232254,163.514757 C33.6646783,164.43821 25.6032808,169.471524 22.4555075,179.531549 C19.0488313,190.414867 25.7227744,206.687012 38.2685041,208.729836 C69.8491339,213.871015 98.5729798,203.587556 114.398147,174.543361 C126.535607,152.270422 130.850656,125.164489 126.125124,100.265377" id="Fill-39-Copy-3" fill-opacity="0.7" fill="#A000FB"></path>
        <path d="M165.332215,178.425524 C174.061117,197.990065 193.285749,210.334108 214.299363,212.653245 C237.738903,215.240996 258.436814,203.108084 271.301975,184.174729 C290.411403,156.052152 246.209116,127.565329 228.427335,153.715766 C222.944873,161.778444 214.64538,162.549407 211.176639,156.171979 C207.707898,149.794551 214.299363,142.573258 226.13766,145.406009 C240.023267,148.728654 253.104208,133.286362 253.661395,120.223806 C254.326033,104.646457 242.566384,94.9896496 228.427335,92.7567341 C180.489267,85.1858238 146.363468,135.910591 165.332215,178.425524 Z" id="Fill-41-Copy-3" fill-opacity="0.8" fill="#F25AA5"></path>
        <path d="M296.332215,178.425524 C305.061117,197.990065 324.285749,210.334108 345.299363,212.653245 C368.738903,215.240996 389.436814,203.108084 402.301975,184.174729 C421.411403,156.052152 377.209116,127.565329 359.427335,153.715766 C353.944873,161.778444 345.64538,162.549407 342.176639,156.171979 C338.707898,149.794551 345.299363,142.573258 357.13766,145.406009 C371.023267,148.728654 384.104208,133.286362 384.661395,120.223806 C385.326033,104.646457 373.566384,94.9896496 359.427335,92.7567341 C311.489267,85.1858238 277.363468,135.910591 296.332215,178.425524 Z" id="Fill-41-Copy-7" fill="#F25AA5"></path>
        <path d="M160.286248,172.711263 C168.939901,192.114114 187.998803,204.356141 208.831265,206.656111 C232.06874,209.222475 252.588221,197.189836 265.342475,178.412954 C284.287167,150.522796 240.465934,122.271401 222.837444,148.205718 C217.402245,156.201763 209.174299,156.966354 205.735461,150.641632 C202.296624,144.31691 208.831265,137.155298 220.567508,139.964637 C234.333412,143.259822 247.301585,127.945153 247.853969,114.990552 C248.512877,99.5419405 236.854605,89.9649418 222.837444,87.7504801 C175.312635,80.2421394 141.481025,130.547693 160.286248,172.711263 Z" id="Fill-41-Copy-4" fill-opacity="0.8" fill="#CBADFF"></path>
        <path d="M291.332215,172.711263 C300.061117,192.114114 319.285749,204.356141 340.299363,206.656111 C363.738903,209.222475 384.436814,197.189836 397.301975,178.412954 C416.411403,150.522796 372.209116,122.271401 354.427335,148.205718 C348.944873,156.201763 340.64538,156.966354 337.176639,150.641632 C333.707898,144.31691 340.299363,137.155298 352.13766,139.964637 C366.023267,143.259822 379.104208,127.945153 379.661395,114.990552 C380.326033,99.5419405 368.566384,89.9649418 354.427335,87.7504801 C306.489267,80.2421394 272.363468,130.547693 291.332215,172.711263 Z" id="Fill-41-Copy-8" fill="#CBADFF"></path>
        <path d="M154.332215,167.425524 C163.061117,186.990065 182.285749,199.334108 203.299363,201.653245 C226.738903,204.240996 247.436814,192.108084 260.301975,173.174729 C279.411403,145.052152 235.209116,116.565329 217.427335,142.715766 C211.944873,150.778444 203.64538,151.549407 200.176639,145.171979 C196.707898,138.794551 203.299363,131.573258 215.13766,134.406009 C229.023267,137.728654 242.104208,122.286362 242.661395,109.223806 C243.326033,93.6464567 231.566384,83.9896496 217.427335,81.7567341 C169.489267,74.1858238 135.363468,124.910591 154.332215,167.425524 Z" id="Fill-41-Copy-5" fill-opacity="0.7" fill="#A000FB"></path>
        <path d="M285.332215,167.425524 C294.061117,186.990065 313.285749,199.334108 334.299363,201.653245 C357.738903,204.240996 378.436814,192.108084 391.301975,173.174729 C410.411403,145.052152 366.209116,116.565329 348.427335,142.715766 C342.944873,150.778444 334.64538,151.549407 331.176639,145.171979 C327.707898,138.794551 334.299363,131.573258 346.13766,134.406009 C360.023267,137.728654 373.104208,122.286362 373.661395,109.223806 C374.326033,93.6464567 362.566384,83.9896496 348.427335,81.7567341 C300.489267,74.1858238 266.363468,124.910591 285.332215,167.425524 Z" id="Fill-41-Copy-9" fill-opacity="0.7" fill="#A000FB"></path>
    </g>
</svg>