<svg id="Layer_1" data-name="Layer 1" xmlns="http://www.w3.org/2000/svg" viewBox="0 0 300 454.58"><defs><style>.cls-1{fill:#231f20;}</style></defs><title>logo14</title><path class="cls-1" d="M229.46,97.8c-43-8.28-75.34,36.56-59.5,75.57,7.29,17.95,24.26,29.68,43.15,32.41,21.07,3,40.11-7.31,52.29-24,18.09-24.85-21.49-51.42-39.53-26.63-2,2.72-3.79,4.19-6.21,3.67a11.58,11.58,0,0,1-5.66-2.7c2.77,2.54-1-3.25-.12-.52-2.86-8.5,1.92-12.15,11.93-10.23,12.65,2.44,24.7-10.14,25.59-21.94,1.07-14.06-9.25-23.15-21.94-25.59Z"/><path class="cls-1" d="M138.48,296.67c-8.94-3.85-17.82-6.63-27.72-5.49-8.7,1-16.94,3.35-24.16,8.53a51.72,51.72,0,0,0-21.19,49c2.61,19.45,15.78,34.09,34,40.71s37.94.45,51.44-12.57c8.48-8.19,8.84-23.7,0-31.82-9.12-8.37-22.77-8.73-31.82,0-.49.48-2,1.47-2.26,2.08.36-1,3.65-2.33.89-.91a12.31,12.31,0,0,0-2.61,1.4c2.93-1.17,3.58-1.48,2-.95a13.91,13.91,0,0,1-1.4.4c-.71.18-4.13.91-.6.22s.09-.33-.67-.22c-2.49.37,4,1.07,1.51.29a25.8,25.8,0,0,0-3-.79c-2.53-.44,3.14,1.92.9.41-.79-.54-3.25-1.25-3.67-2.2.27.62,3,2.83,1,.64a12.43,12.43,0,0,0-1.88-2c.92.58,2.47,3.86,1.16,1.22a14.36,14.36,0,0,0-1.25-2.4c.74.94,1.33,4.41.86,1.55-.14-.86-1-4.93-.38-1,.69,4.62.79-5.45,0-1-.68,3.61,0,.2.18-.53.22-.94.61-1.87.79-2.81.51-2.57-2,3.51-.55,1.24a24.47,24.47,0,0,0,1.44-2.6c1-2.28-3.39,3.42-.62.77.5-.48,1.7-1.3,2-1.9-.42.89-3.94,2.54-1.23,1.07a10.64,10.64,0,0,0,2.44-1.35c-.62.76-4.51,1.46-1.46.7a10.08,10.08,0,0,0,2.76-.71c-1.12.91-5.19.34-.93.26.87,0,4,.45.72-.2-3.49-.69.08.08.77.25,1.26.32,4.86,1.73-.11-.41,5.78,2.49,11,4,17.34,2.27,5.22-1.44,10.87-5.48,13.44-10.34,5.12-9.69,3.47-25.81-8.07-30.79Z"/><path class="cls-1" d="M292.94-43.77a24.85,24.85,0,0,0-1.41-5.44c-2.58-11.08-14.72-17.9-24.95-15.51C254.73-62,248.52-49.91,250.23-37.84c.66,4.67,1.51,11.05.64,15.46-2.37.34-3.77.95-7,.33-.37-.07-3.28-1.05-5.7-1.95,0-1.29.05-2.77-.2-1.92a20,20,0,0,1,3.09-7c15.82-23.88-19.7-48.51-35.46-24.72-10.06,15.18-13.16,35.45-6.71,52.75a37.85,37.85,0,0,0,16.88,19.6c-8.37.64-15.8,5.27-19,14.84-3.42,10.36,2.08,26.18,13.34,28.5,28.33,5.81,54.59-3.27,69.8-30.74A115.63,115.63,0,0,0,292.94-43.77ZM238.46-21.56c-1.11-2.3-1.21-2.6-.32-.88v-.18A9.47,9.47,0,0,1,238.46-21.56Zm-1.3-2.84a7.33,7.33,0,0,1-2.29-1.1A3,3,0,0,1,237.16-24.4Z"/><path class="cls-1" d="M219.37,217.17a23,23,0,0,1-2.73,16.5c-1.2,2.09,2.88,4.88,4.24,2.52a26.27,26.27,0,0,0,2.92-18.61c-.49-2.4-5.06-3.46-4.43-.41Z"/><path class="cls-1" d="M267.8,317.94c.12,5.71-.26,11.2-.27,16.92,0,14.62,1.35,10.19,2.35,3.22.86-5.92.66-12.48.53-19,0-2.23-.72-5.5-1.49-5.72s-1.16,2.47-1.12,4.56Z"/><path class="cls-1" d="M262.15,195.3c2,4.69,4.1,9.66,3.09,14.87-.61,3.14,4.21,4.49,4.82,1.33,1.3-6.7-1-12.66-3.59-18.73-1.27-2.94-5.58-.4-4.32,2.53Z"/><path class="cls-1" d="M167.14,188.81c-8.83,4.77-17.12,12.2-21.85,21.06-.32.61-.44-2-.11-2.62A50.59,50.59,0,0,1,166,186.33c.42-.23,2.51,1.58,1.83,1.95Z"/><path class="cls-1" d="M140.75,213c-4.23-.9-9.85.12-11.29,4.89-.57,1.91-.12,4,1.94,4.57,1.68.5,4.62.62,6.24-.18s2-2.66,1.37-4.33c-.77-2-2.25-3-4.39-2.17-1.65.63-3.55,2.52-3.39,4.41.2,2.36,2.65,2.37,4.42,2,.62-.11,1.88-1.19.88-1.73-2.8-1.5-7.7-2.07-7.93,2.21-.21,3.74,2.89,5.51,6.08,3.5,1-.64,3-2.23,2.74-3.67s-2.73-2.3-4-2.12c-4,.55-2.39,5,1.08,4.91,2.53-.08,6-4.22,2.69-5.83-2.92-1.42-5.81,3.16-2.37,4.59a3.93,3.93,0,0,0,4.09-1c.87-.89,2-3,1.59-4.32s-1.86-1.27-2.86-1a4.23,4.23,0,0,0-2.94,3.62,2.56,2.56,0,1,0,5,0,2.17,2.17,0,0,0-3.17-1.73c-2.06.79-1.89,2.61-1.05,4.26.5,1,3.24.07,2.78-1a3,3,0,0,0-5.23-.37c-1.46,2.23,1.31,3.76,3.2,4,2.45.31,4.07-1.37,4.66-3.6.88-3.34-2-3.16-4.39-3.25-.67,0-1.89.27-2,1.12l-.27,2.53c-.14,1.41,2.8,1,2.93-.26l.26-2.52-2,1.12c1.07,0,2.5-.33,2.57,1.24.06,1.35-2.1,2.12-2.67.78l2.78-1c-.1-1.13-.55-1.26-1.34-.4a1,1,0,0,1-.31,1l1.35-.62c-.74.05.75-4.19-.26-2.62-.28.44-.21,1.21-.59,1.62l-1.49.67c-1.13-.05-1.55.27-1.26.95a.41.41,0,0,1-.15.66,1.15,1.15,0,0,1-1.16.49c-1.18.17-1.17,0-1.33-1.07a4,4,0,0,1,0-1.46c-.36-.63-.13-.77.69-.41a3.36,3.36,0,0,1,2,.63l.88-1.73c-1-1.21-1-2,0-2.37.39-.44.62-.36.7.22a3,3,0,0,1,.54,2.14c-.49.95-3.68.3-4.12-.48-.65-1.11.3-2.93,1-3.72,1.49-1.63,3.71-1.73,5.73-1.3,1.17.25,3.43-1.49,1.7-1.86Z"/><path class="cls-1" d="M281.21,105.63A19.12,19.12,0,0,1,267,123.9c-1.07.31-1.63,3.17-.14,2.74a22.91,22.91,0,0,0,16.35-21.82c0-2-2-.48-2,.81Z"/><path class="cls-1" d="M285.29,98A7.56,7.56,0,0,1,279,95.78c-1.11-1.08-3.23-3.94-1.76-5.54l-1.56.72c1-.13,3.77,6.45,4.21,7.3s2.66.16,2.89-.6c.69-2.34.12-3.93.32-6.21.15-1.59.24,0,.33.55a25.07,25.07,0,0,1,.14,5.61c-.06,1,2.8.41,2.88-.43a15.83,15.83,0,0,1,.82-4.48q.31-2.24,2.34-1.26a3,3,0,0,1-.72,2.2c-1.4,2.48-4.64,4.37-6.95,5.94-1.28.86,1.62.76,2.28.31,1.59-1.08,12.35-8.34,7.09-11-1.35-.68-3.35.11-4.49.94-2.51,1.82-3,4.87-3.25,7.76l2.88-.43c.13-2.54,1.05-8.91-3-8.68a3.8,3.8,0,0,0-2.94,1.65c-.61,1-.19,2.12-.15,3.25a13.91,13.91,0,0,1-.49,4.68l2.89-.6c-1-2-1.93-4.15-3.11-6.07a3.71,3.71,0,0,0-1.91-1.87A3.21,3.21,0,0,0,274,91.38c-.69,2.43,1.9,5.34,3.7,6.54a10.14,10.14,0,0,0,7.18,1.48c1.31-.17,2.49-1.64.46-1.38Z"/><path class="cls-1" d="M214.72,240.86l-1.35,8.57c-.24,1.55,4.13.68,4.7.11l2.57-2.58c.29-.29,1.83-2,1.8-2l-2.45-.05c1.65.71-3.84,4.63-4.42,4.87l3.55,1.2a12,12,0,0,1,2.46-2.16l.64-.38c1.36-.59,1.14-.58-.65.05-.74.58-1,1.29-1.86,1.82a5.14,5.14,0,0,1-1.45.66c-.67-.14-.93-.46-.79-.94,2.27-1.48-2.46-2-3.67-1.24-2.85,1.85-.41,4.19,2.06,4.48a12,12,0,0,0,9-2.81c.82-.73,2.29-2.13,1.94-3.39s-2.19-1.43-3.26-1.4c-3.37.08-6.61,2.18-8.81,4.59-1.48,1.62,2.87,1.49,3.55,1.2,2-.82,9.31-5.1,6.14-7.94-1.25-1.12-3.69-.81-5.06-.1-2.17,1.13-4,3.68-5.69,5.4l4.69.11,1.34-8.56c.21-1.29-4.7-1.24-5,.48Z"/><path class="cls-1" d="M265.19,217.56l.05,7.7c0,1.39,2.87,4.17,3.9,2.19.54-1,1.08-2.09,1.71-3.08a29.91,29.91,0,0,1,2.39-2.86c.9-.55.34-1.26-1.7-2.13a4.89,4.89,0,0,1-.41.6,14,14,0,0,1-1.13,1.3,18.75,18.75,0,0,1-2.71,2.24l3.19,3.85a27.08,27.08,0,0,1,2.73-2.94c.42-.38.86-.75,1.31-1.11s.6-.47.91-.69c.5-.16.51-.26,0-.32l-1.35-1.38c-.45-.83-.94.19-1.43.52a6.26,6.26,0,0,1-1.68.77,17.37,17.37,0,0,1-3.79.64c-2.72.24-.59,4.56,1.47,4.39,3.17-.27,10.25-1.33,9.24-6.1a3.64,3.64,0,0,0-5.09-2.71c-2.16,1.08-4,3.23-5.52,5.08-1.36,1.68,1.26,5.17,3.19,3.85,2.87-2,7.85-6.51,3.4-9.65-4-2.81-7.06,3.84-8.49,6.58l3.9,2.19-.05-7.69c0-2.13-4.07-4.28-4.05-1.24Z"/><path class="cls-1" d="M146.73,294.89c6.76-12.17,2.09-29.15-3.88-40.61-.4-.77-2.27.09-2,.63,5.94,11.39,9.78,26.84,3.07,38.93-.26.48.23,2.19,1.3,2.19C146.09,296,146.73,294.89,146.73,294.89Z"/><path class="cls-1" d="M141.05,253.07c2.91-1.62,5.16-8.52,2.4-11.13-2.06-1.94-6.63-.26-5.69,2.87.77,2.6,5.52,2.5,5.17-.42-.41-3.36-5.74-1.84-6.68.35-1.44,3.33,3.33,6.46,5.63,3.53s-2.94-6.63-5.63-6a3.35,3.35,0,0,0-2.79,2.65c-.22,1.41.52,4,2.09,4.39,2.58.69,6-3.22,3.68-5.26-2-1.8-7.17.38-7.36,3-.23,3.34,3,6.22,5.95,4a4.54,4.54,0,0,0,1.66-4.1c-.5-1.91-3.38-2.63-5-2.92-3.58-.63-5,2.22-3.15,5.36,1.65,2.85,6.08,1.57,7.45-.93,1.51-2.72.54-10.6-3.72-10a3.17,3.17,0,0,0-2.71,2c-.48,1.69.91,6,2.15,7.24,1.81,1.82,6.78,0,7.4-2.4.9-3.42-4.18-7.88-6.93-4.47-2.55,3.15,2.46,6.75,5.45,5.06,3.16-1.78,2.16-8.74-2-8.12a3,3,0,0,0-2.65,3,9,9,0,0,0,.52,4.14c.61,1.6,2.14,2.95.83,4.6a.4.4,0,0,0-.12.33c1.07,2.37,5.35-.31,4.89-2.57,0-.2-.39-.25-.53-.27-1.92-.26-4.63,1.9-1.89,3.07a2.81,2.81,0,0,0,2.5-.67c1.3-1.28.39-4.07-.11-5.54-.27-.8-3.15,0-2.9.77.35,1,1.34,3.92.36,4.88l2.5-.67a.82.82,0,0,1-.38-1.28l-2.25.72c-.27,0-.22,1.46,1,.66a2.15,2.15,0,0,0,.41-.66c.4-.83-.23-1.86-.57-2.53-.77-1.52-2.66-5.93-.68-7.23l-2.05.55c1.44.2,2,2.27,2.09,3.51.16,2.78-1.26,2.05-1.81.21a2,2,0,0,1-.12-1.18c0-.68,0-.73.05-.16a10.37,10.37,0,0,1,1.3,2.47l.26.81-1.91,1.75c-.26,0-.84-1.89-.91-2.1-.47-1.24-.58-2.61-1-3.84l-.5-.33.8,1.36a10.67,10.67,0,0,1,.76,2.34,9.81,9.81,0,0,1,.24,1.95c0,.5,0,3.34-.91,3.59-.6.17-1.4-1-1.63-1.43-.42-.79-.72-2.76-.17-3.44l-1.57.69a10.14,10.14,0,0,1,2.78.91c1.09.51,2.71,2.6,1.2,3.73-.25.19-1.17-1.92-1.3-2.69l0-1.31c1.7-.11,2.35.29,2,1.19a3,3,0,0,1-.9,1.64l1.93-.73c-.69.05-1.13-1.55-1.23-1.95-.2-.75-.75-2.11.26-2,1.42.21,3.61,3.44,2.06,4.55L141,248c-1.36-.15-2.43-2.18-2-3.43.53-1.49,1.24.75.71,1.6l1.68-.86-.58.11,1.12.11c-.55-.33-1.89-2.84-1.41-2.8.77.05,1,2.17,1.07,2.64.12,2-.25,6-2.23,7.11-1.69.94.94,1,1.72.56Z"/><path class="cls-1" d="M138,396.63a59,59,0,0,1,3.79,17.74c.16,2.6,4.83.88,4.69-1.51a62.49,62.49,0,0,0-4.12-18.69c-.87-2.27-5.26.12-4.36,2.46Z"/><path class="cls-1" d="M64.09,365.53a85.89,85.89,0,0,0-20.41,23.22c-.45.76-1.82-1.19-1.3-2.05a87,87,0,0,1,20.71-23.49c.68-.55,1.88,1.62,1,2.32Z"/><path class="cls-1" d="M198.87,368.43a108.09,108.09,0,0,1-6.42,30.35c-.89,2.45,4.08,2.78,4.9.54a112.18,112.18,0,0,0,6.5-31.36c.15-2.42-4.82-2-5,.47Z"/><path class="cls-1" d="M95.4,395.85a35.53,35.53,0,0,1-4.49,17.89c-1.52,2.72,3,3.53,4.19,1.41a39.49,39.49,0,0,0,5.19-19.88c0-2.67-4.91-1.82-4.89.58Z"/><path class="cls-1" d="M142.73,420.22l0,6.12c0,1.83,3.7,2.59,4.66,1.22a38.92,38.92,0,0,0,2.5-4,35.8,35.8,0,0,1,1.63-3.37l-1.9-.32c.2.07-1.72,3.12-2,3.41a10.91,10.91,0,0,1-3.15,2.5l4.32,1.54a3.56,3.56,0,0,1,1.37-4.22c2.25-1.47-2-3.86-3.75-2.71A5.85,5.85,0,0,0,144,427a3.08,3.08,0,0,0,4.32,1.55c3-1.68,8.93-7.55,4.57-10.8a4,4,0,0,0-5.84.69c-.68,1-1.09,2.28-1.69,3.37a39.79,39.79,0,0,1-2.35,3.7l4.67,1.22,0-6.13c0-2.1-4.9-2.85-4.89-.36Z"/><path class="cls-1" d="M87.35,419.71A14.21,14.21,0,0,1,82,426l4.51,1.72c0-.32,1-.75,1.15-1a1.93,1.93,0,0,0,.41-1.32A6.86,6.86,0,0,0,87,421.94c-1.25-2.14-3.88-3.94-6.48-3.45A3.82,3.82,0,0,0,78,423.66c1,2.36,3.92,3.65,6.28,3.9.38.05,1.23.2,1.44-.28A4.72,4.72,0,0,0,84,421.59c-.44-.34-4-2.18-4.22-.93-.45,2.6-.21,4.76,2.37,5.91.85.37,2.3.85,3.22.3.54-.33,1.16-2.37.91-2.42l-2.36-.9.31.2a5.52,5.52,0,0,0,2.88.95c.47,0,1.33-.27.76-.88-1.65-1.76-1.43-4.25-3.71-5.35-2-1-4.26-.88-4.86,1.62a8,8,0,0,0,1,6,6.86,6.86,0,0,0,6.42,2.39c1.07-.25.06-1.16-.4-1.47a4.84,4.84,0,0,0-3.31-.92q2.39,1.63,1.31,0l-.15-.53a9.63,9.63,0,0,1-.29-1.85c-.08-1-.08-3.05,1.19-3.45l-3.31-.92.28.16-.88-.92c.38.74.45,1.6.81,2.36a8.65,8.65,0,0,0,1.53,2.21l3.64.07A6.2,6.2,0,0,0,82.91,422a1.77,1.77,0,0,0-1.18.66c-.31.41-.26,1.88-.86,2l3.32.92c.49.29.09-.76.08-1a8.45,8.45,0,0,1,.13-2.13l-4.21-.93a3.2,3.2,0,0,1,.82,4l1.43-.28c.88.09.07-.42,0-1a3.21,3.21,0,0,1,.25-1.78c.2-.46,1-1,1.15-1.37q-2.66-1.77-1.7-.6a5.83,5.83,0,0,1,.66,1.1c.52,1.09,1,2.51.09,3.44-.58.57-1,.55-1,1.48,0,1.22,3.64,2.29,4.51,1.72A15.32,15.32,0,0,0,92,421.5c.49-1.13-4.13-3-4.67-1.79Z"/><path class="cls-1" d="M39.59,392.25c-1.81,3.77-4.05,12.29.78,14.64,1.29.63,3.36,1.58,4.8,1,3-1.3.72-4.6-.6-6.14L40,400.19a18.57,18.57,0,0,1,3.55,5.52c.3.72,4,2.27,4.68,1.76,4.06-3.18-1.79-6.88-4.38-8.08a7.57,7.57,0,0,0-3.05-1.06c-.63.05-.75.05,0,.5l4.63,2.66a32,32,0,0,0,4.08,1.28c-.8-3.94-4.87-5.54-8.44-6.27-.93-.18-.76,0-.18.46a9.23,9.23,0,0,0,3.31,1.25c-1-.21.5,2.14.63,2.79l4.08,1.28-4.63-2.66-3-.56c2.48,1.14,5.17,4.38,2.27,6.65l4.68,1.76a19.75,19.75,0,0,0-3.65-5.76,6.84,6.84,0,0,0-2.79-1.31c-.24-.07-2-.47-1.79-.21.84,1,1.93,2.13,1.95,3.5a2.18,2.18,0,0,1-2.24,2.44l4,1.53c-1.79-1.11-1.49-5.45-1.33-7.2A18.84,18.84,0,0,1,44.26,394c.17-.34-4.39-2.35-4.67-1.77Z"/><path class="cls-1" d="M227.59,67a24.34,24.34,0,0,1-1.77,14.16c-1.3,2.91,3,5.46,4.32,2.52a30.38,30.38,0,0,0,2.27-18c-.54-3.16-5.36-1.82-4.82,1.33Z"/><path class="cls-1" d="M263.17,55.35c2.78,9.35,3.45,19.15,3,28.86-.15,3.21,4.85,3.21,5,0,.45-10.13-.29-20.44-3.18-30.19-.92-3.08-5.74-1.77-4.83,1.33Z"/></svg>