<svg id="Layer_1" data-name="Layer 1" xmlns="http://www.w3.org/2000/svg" viewBox="0 0 140 90"><defs><style>.cls-1{fill:none;}.cls-1,.cls-2,.cls-3{stroke:#000;}.cls-1,.cls-2{stroke-linecap:round;stroke-width:2px;}.cls-1,.cls-3{stroke-miterlimit:10;}.cls-2{stroke-linejoin:round;}</style></defs><title>Artboard 1</title><path class="cls-1" d="M135,67.76a34.79,34.79,0,1,1-5-51.58"/><polygon class="cls-2" points="35.5 10 66 10 50.75 27.39 35.5 44.79 20.25 27.39 5 10 35.5 10"/><polygon class="cls-2" points="76.51 10 44.62 44.79 12.73 79.58 76.51 10"/><path class="cls-3" d="M83.89,29.47A30.4,30.4,0,0,0,80,44.2a29.75,29.75,0,0,0,30,29.32,32.29,32.29,0,0,0,3.57-.21l-5.15-58.79A30.06,30.06,0,0,0,83.89,29.47Z"/><line class="cls-2" x1="109" y1="14.95" x2="114" y2="72.65"/></svg>