<svg xmlns="http://www.w3.org/2000/svg" viewBox="0 0 350 545.27"><defs><style>.cls-1{fill:#f7a7a9;}.cls-2{fill:#f386aa;}.cls-3{fill:#b09ecc;}.cls-4{fill:#a3c1d2;}.cls-5{fill:#8873b4;}.cls-6{fill:#442f8f;}.cls-7{fill:#7985c1;}.cls-8{fill:#e6e7e8;}.cls-9{fill:#2c266d;}.cls-10{fill:#fbc3b6;}.cls-11{fill:#fcc396;}.cls-12{fill:#faa964;}.cls-13{fill:#e0d9c9;}.cls-14{fill:#cdabbe;}.cls-15{fill:#ebe07b;}.cls-16{fill:#8874b5;}</style></defs><title>welcome</title><g id="Layer_1" data-name="Layer 1"><path class="cls-1" d="M300.39,53.76a23.27,23.27,0,0,0-1.59-5.1c-2.95-10.38-15.32-16.47-25.49-13.92-11.75,2.95-17.56,14.52-15.45,25.87C258.68,65,260.06,74,259,75.2c-1.6,1.14-3.7,1.24-6.92.75-.37-.06-4.76-.66-5.79-1.93-.33-1,0-2.61-.26-1.8a18.29,18.29,0,0,1,2.86-6.72c15-23-21.33-45.25-36.3-22.32-9.56,14.63-12,33.86-5,50,3.65,8.37,10,14.13,17.58,18-8.37.84-15.65,5.41-18.5,14.55-3.08,9.89,2.95,24.67,14.29,26.53,28.54,4.67,54.51-4.67,68.81-31.06A103.74,103.74,0,0,0,300.39,53.76Z"/><path class="cls-2" d="M199.25,199.17c-43.71-3-70.37,45.38-49.94,82.19,9.4,16.94,27.67,26.54,46.75,27,21.28.48,38.93-12.09,49-30.17,14.95-26.86-27.54-48.46-42.45-21.67-1.64,2.94-3.26,4.61-5.73,4.4a11.6,11.6,0,0,1-5.94-2c3.06,2.19-1.43-3.09-.19-.49-3.85-8.1.44-12.3,10.62-11.6,12.84.89,23.29-13,22.75-24.87-.63-14.09-12-21.86-24.87-22.75Z"/><path class="cls-3" d="M116.06,380.12c-9.34-2.75-18.49-4.43-28.18-2.1-8.51,2.05-16.41,5.37-22.95,11.38a51.71,51.71,0,0,0-15.12,51.21c4.94,19,19.78,31.94,38.7,36.3s37.72-4.13,49.55-18.68c7.43-9.16,5.92-24.6-3.84-31.59-10.06-7.21-23.66-5.92-31.59,3.84-.43.53-1.85,1.7-2,2.33.24-1.07,3.34-2.74.77-1a12.35,12.35,0,0,0-2.42,1.7q4.16-2.28,1.84-1.18a12.2,12.2,0,0,1-1.34.56c-.68.27-4,1.41-.56.3s0-.34-.7-.14c-2.43.66,4.08.57,1.54.1a24.87,24.87,0,0,0-3.07-.42c-2.57-.13,3.35,1.53.94.29-.85-.43-3.38-.84-3.9-1.73.34.58,3.32,2.45,1.05.51A12.62,12.62,0,0,0,92.68,430c1,.47,2.92,3.54,1.31,1.07a15.21,15.21,0,0,0-1.54-2.23c.85.85,1.86,4.22,1,1.44-.24-.84-1.56-4.78-.51-1,1.24,4.5.13-5.51-.17-1-.23,3.66,0,.19.12-.56.1-.95.38-1.93.45-2.88.19-2.61-1.55,3.72-.4,1.3a25.31,25.31,0,0,0,1.12-2.76c.73-2.38-3,3.81-.52.84a10.72,10.72,0,0,0,1.73-2.12c-.31.93-3.61,3-1.09,1.21a10.26,10.26,0,0,0,2.25-1.64c-.52.84-4.3,2-1.36.88a10.46,10.46,0,0,0,2.66-1c-1,1-5.11,1-.9.37.86-.13,4,0,.7-.29-3.55-.26.09.07.79.16,1.28.16,5,1.13-.16-.4,6,1.78,11.4,2.66,17.48.16,5-2.06,10.14-6.74,12.1-11.89,3.92-10.23.33-26-11.73-29.58Z"/><path class="cls-4" d="M203.64,318.88a23,23,0,0,1-.71,16.71c-.94,2.22,3.44,4.49,4.51,2a26.3,26.3,0,0,0,.65-18.83c-.78-2.31-5.44-2.82-4.45.13Z"/><path class="cls-4" d="M243.47,292c2.58,4.42,5.24,9.1,4.86,14.39-.22,3.2,4.72,3.95,4.95.74.48-6.81-2.49-12.44-5.82-18.15-1.62-2.77-5.59.27-4,3Z"/><path class="cls-4" d="M149.38,300.66c-8.19,5.8-15.53,14.18-19.16,23.54-.24.64-.67-1.95-.42-2.59a50.63,50.63,0,0,1,18.12-23.28c.39-.28,2.68,1.27,2.06,1.71Z"/><path class="cls-5" d="M126.1,327.86c-4.31-.39-9.77,1.3-10.62,6.21-.34,2,.35,3.94,2.47,4.3,1.74.29,4.67.06,6.18-.93s1.67-2.88.84-4.46c-1-1.94-2.6-2.7-4.63-1.63-1.55.83-3.21,2.94-2.82,4.79.48,2.32,2.91,2,4.63,1.48.6-.19,1.72-1.41.66-1.82-3-1.15-7.89-1.13-7.61,3.15.25,3.74,3.54,5.12,6.46,2.74.93-.76,2.77-2.58,2.28-4s-3-2-4.26-1.62c-3.92,1-1.77,5.27,1.66,4.75,2.5-.39,5.47-4.92,2-6.12-3.07-1.06-5.39,3.84-1.8,4.84a3.9,3.9,0,0,0,3.93-1.5c.77-1,1.63-3.24,1.06-4.47s-2-1-3-.62a4.24,4.24,0,0,0-2.48,3.95,2.56,2.56,0,1,0,4.94-.59,2.16,2.16,0,0,0-3.35-1.34c-2,1-1.56,2.83-.52,4.35.61.91,3.22-.31,2.63-1.33a3,3,0,0,0-5.23.27c-1.19,2.38,1.75,3.57,3.66,3.57,2.47,0,3.87-1.85,4.19-4.13.46-3.43-2.35-2.9-4.76-2.71-.66.06-1.84.5-1.83,1.36l0,2.54c0,1.42,2.89.63,2.87-.61l0-2.54-1.83,1.36c1.07-.09,2.43-.63,2.69.92.22,1.33-1.82,2.35-2.55,1.09l2.64-1.34c-.24-1.1-.7-1.18-1.38-.23a1,1,0,0,1-.19,1l1.26-.78c-.72.15.24-4.25-.57-2.57-.23.47-.06,1.23-.39,1.69l-1.4.83c-1.13.09-1.51.46-1.13,1.1a.41.41,0,0,1-.08.67,1.15,1.15,0,0,1-1.09.63c-1.15.32-1.16.19-1.45-.9a4.2,4.2,0,0,1-.14-1.46c-.44-.57-.23-.74.63-.49a3.45,3.45,0,0,1,2.08.39l.66-1.83c-1.09-1.08-1.19-1.87-.27-2.35.33-.48.57-.44.72.14a3,3,0,0,1,.8,2.05c-.38,1-3.62.74-4.16,0-.77-1,0-2.94.58-3.82,1.29-1.79,3.47-2.16,5.54-2,1.18.11,3.22-1.89,1.46-2.05Z"/><path class="cls-4" d="M249.08,208.77a19.11,19.11,0,0,1-11.89,19.84c-1,.44-1.24,3.35.19,2.74A22.88,22.88,0,0,0,251,207.72c-.21-2-2-.24-1.89,1.05Z"/><path class="cls-5" d="M159.6,65.41a7,7,0,0,1-6.65.89c-1.51-.53-3.92-1.84-3.51-3.78l-.68.92c.19-.15,6.09,3.93,6.73,4.33s2.66-.81,2.45-1.65a11.54,11.54,0,0,0-1.77-4c-.58-.82-2.38-2.52-1.37-3.56l-1.62.84c2.2-.39,4.28,4.42,5.09,6,.4.76,3-.69,2.58-1.53-.8-1.71-1.7-3.53-1.63-5.47,0-.75,0-2,.71-1.78s.94,2.18.94,2.58c-.06,2.93-1.82,6.22-3.05,8.82-.47,1,2.2,0,2.55-.77,1-2.12,6.33-13.22.31-12.9a4.38,4.38,0,0,0-3.39,2.42c-1.57,2.84-.27,5.95,1,8.63l2.58-1.53c-1.32-2.56-3.79-8.17-7.47-5.82A2.8,2.8,0,0,0,152,61.2a8.88,8.88,0,0,0,1.63,2.42,11.65,11.65,0,0,1,1.77,4L157.81,66c-2.23-1.4-5.89-5-8.79-4.17-2,.59-3,2.37-1.63,4.1,3.27,4.16,9.91,3,13.51.11,1.59-1.26-.26-1.47-1.3-.64Z"/><path class="cls-4" d="M135.19,386.24c5.49-10.88-.85-24.35-7.94-33.11-.47-.59-2.24.35-1.91.76,7,8.7,12.41,21,7,31.83a1.49,1.49,0,0,0,1.51,1.65C134.67,387.27,135.19,386.24,135.19,386.24Z"/><path class="cls-5" d="M125.33,352.19c2.7-2,4.1-9.07,1-11.33-2.29-1.68-6.61.54-5.31,3.53,1.09,2.49,5.79,1.82,5.08-1-.81-3.29-5.92-1.13-6.59,1.15-1,3.48,4.1,6,6,2.82s-3.73-6.21-6.32-5.28a3.37,3.37,0,0,0-2.45,3c0,1.43,1,3.87,2.6,4.1,2.64.38,5.58-3.92,3-5.66-2.26-1.53-7.08,1.24-7,3.84.17,3.35,3.72,5.82,6.38,3.25a4.54,4.54,0,0,0,1.16-4.27c-.73-1.84-3.68-2.2-5.36-2.29-3.63-.19-4.66,2.8-2.48,5.7,2,2.63,6.22.83,7.29-1.82,1.16-2.88-.75-10.6-4.91-9.5a3.17,3.17,0,0,0-2.45,2.31c-.27,1.74,1.63,5.84,3,6.93,2,1.59,6.72-.85,7.06-3.27.48-3.51-5.1-7.32-7.42-3.61-2.16,3.44,3.26,6.41,6,4.37,2.92-2.15,1.09-8.94-3-7.83a3,3,0,0,0-2.27,3.3,9,9,0,0,0,1,4c.79,1.52,2.48,2.68,1.38,4.47a.39.39,0,0,0-.08.34c1.35,2.23,5.27-1,4.54-3.14-.06-.19-.41-.21-.56-.21-1.93,0-4.36,2.45-1.5,3.28a2.78,2.78,0,0,0,2.4-1c1.14-1.43-.1-4.08-.78-5.49-.36-.75-3.11.43-2.78,1.13.47,1,1.8,3.72.94,4.79l2.41-1c-.61-.27-.79-.67-.54-1.23l-2.14,1c-.28,0,0,1.48,1,.54a2.3,2.3,0,0,0,.33-.71c.29-.87-.46-1.82-.88-2.44-.94-1.41-3.35-5.57-1.54-7.09l-2,.79c1.46,0,2.28,2,2.5,3.23.49,2.74-1,2.19-1.78.43a2.13,2.13,0,0,1-.26-1.16c-.07-.67-.06-.73,0-.17a10.65,10.65,0,0,1,1.58,2.3l.36.77-1.69,2c-.25,0-1-1.77-1.16-2-.61-1.18-.89-2.53-1.48-3.69l-.53-.27,1,1.26a10.07,10.07,0,0,1,1,2.23,9.54,9.54,0,0,1,.48,1.91c.07.49.34,3.31-.48,3.66-.57.25-1.5-.81-1.78-1.21-.52-.74-1-2.66-.6-3.4l-1.47.87a10.72,10.72,0,0,1,2.87.57c1.15.38,3,2.26,1.65,3.56-.23.22-1.4-1.77-1.62-2.51l-.18-1.3c1.68-.32,2.37,0,2.09.94a3,3,0,0,1-.69,1.74l1.83-1c-.68.14-1.31-1.4-1.46-1.79-.29-.72-1-2,0-2,1.44,0,4,3,2.6,4.28l2-.8c-1.37,0-2.67-1.87-2.39-3.17.35-1.54,1.32.6.9,1.51l1.57-1.06-.57.18,1.12,0c-.58-.27-2.21-2.59-1.73-2.62.77,0,1.29,2,1.38,2.5.36,2,.47,6-1.35,7.33-1.57,1.13,1,.86,1.77.34Z"/><path class="cls-4" d="M127.64,479.41a58.9,58.9,0,0,1,5.89,17.15c.47,2.56,4.91.29,4.48-2.06a62,62,0,0,0-6.35-18.06c-1.14-2.15-5.2.75-4,3Z"/><path class="cls-4" d="M85.27,483.77a35.54,35.54,0,0,1-2.3,18.3c-1.18,2.89,3.41,3.15,4.33.89a39.49,39.49,0,0,0,2.75-20.35c-.34-2.65-5.09-1.21-4.78,1.16Z"/><path class="cls-6" d="M135.2,502.25l.78,6.07c.25,2,3.86,1.94,4.78.65a40,40,0,0,0,2.67-4.26c.39-.73.75-1.47,1.09-2.21.14-.33.28-.65.43-1,.42-.48.26-.61-.48-.38-.64-.19-.94.05-.92.72a9,9,0,0,1-.44.88,11.59,11.59,0,0,1-1.2,1.73,13.19,13.19,0,0,1-3.45,2.77l3.85.86c-.87-1.58.32-3.12,1.6-4,1-.69.17-1.94-.58-2.38a3.29,3.29,0,0,0-3.47.13c-2.5,1.68-3.54,4.61-2.06,7.32.63,1.14,2.8,1.46,3.85.86,2.95-1.7,10.58-8.2,5.43-11.51-2.05-1.32-5.18-1.11-6.57,1.05-.7,1.1-1.12,2.42-1.74,3.58a41.15,41.15,0,0,1-2.67,4.27l4.78.64-.79-6.07c-.26-2.09-5.21-2.24-4.89.23Z"/><path class="cls-6" d="M80.9,507c-.94,3.16-2.71,4.89-5.32,6.79L80.26,515c-.1-.51,1.13-1.1,1.37-1.48a2.39,2.39,0,0,0,.27-2,10.08,10.08,0,0,0-2.32-4.11c-1.86-2.18-4.93-3.86-7.86-3s-3.89,4.53-2.18,7,5.14,3.49,8,3.53c.38,0,1.24,0,1.39-.46.94-3.18-1.22-5.68-3.86-7.12-.39-.22-3.82-1.27-3.84-.15,0,3,.58,5.9,3.76,6.84.92.27,2.51.55,3.39-.11a2,2,0,0,0,.7-1.25v-1.2c.69-1,.23-1.35-1.39-1.15.74.35,5.36.95,3.28-.64-2.29-1.76-2.63-5-5.45-5.92-2.42-.82-4.86-.06-5.1,2.77-.43,5.21,4.24,11,9.77,8.85,1.56-.62-2.79-2.4-4-1.93.92-.37.16-1-.1-1.66a13.51,13.51,0,0,1-.66-2.19c-.29-1.37-.46-3.56,1.19-4.2l-2.84-.28c-1.28-.52.43,1.94.77,2.39A13.35,13.35,0,0,0,77.24,510l3.28-.64a7,7,0,0,0-4.73-.75,2.11,2.11,0,0,0-1.33.92c-.4.7.16,2.43-.91,2.69l3.4.52c-.84-.36-.87-3.77-.85-4.41l-3.84-.15a4.3,4.3,0,0,1,1.83,5l1.39-.45c-1.8,0-2.2-3.08-1.85-4.26a16.09,16.09,0,0,1,1.38-2c-1.1-.63-1.21-.59-.36.11a6.8,6.8,0,0,1,.88,1.05c.86,1.15,2.09,3,1.28,4.38-.59,1-1.59.87-1.35,2.2s3.82,1.78,4.68,1.16c2.74-2,4.63-3.91,5.61-7.21.35-1.19-4.47-2.5-4.85-1.21Z"/><path class="cls-4" d="M50.53,457.46A85.65,85.65,0,0,0,33.07,483c-.36.81-1.95-1-1.54-1.88a87.31,87.31,0,0,1,17.72-25.82c.62-.63,2.07,1.38,1.28,2.19Z"/><path class="cls-4" d="M258.48,157.19c-1.63,4-3.85,9.42-2.89,13.8.74,3.38,3.71,6.81,6.17,9.1.89.83,5.58.93,4.4-.17-2.87-2.67-5.86-6.58-5.78-10.65.09-3.79,2.23-7.62,3-11.27.58-2.64-4.38-2.16-4.93-.81Z"/><path class="cls-4" d="M214,158.43a112,112,0,0,1-18.42,12.67c-2.8,1.53-2.35,6.67,3,4.25,8-3.61,11.94-7.43,18.53-13,4.11-3.48-.62-5.94-3.12-3.91Z"/><path class="cls-6" d="M190.26,177.2c-.24-3.69-5.4-6-7.24-2.09a5.16,5.16,0,0,0,4.67,7.17,1.8,1.8,0,0,0,1.86-1.65,16.63,16.63,0,0,0-1.79-9c-.67-1.17-1.94-2.25-3.38-1.95-1.27.26-2,1.63-2.48,2.7a6.63,6.63,0,0,0,1,7.45,5.19,5.19,0,0,0,3.17,1.54,4.14,4.14,0,0,0,1.56-.2c.35-.11,1-.72,1.29-.75l-1.64-.32.3.19-1.21-1.51.13.34c.57,1.55,2.43,2.54,3.75,1.25l2.6-2.53c1.83-1.79-1.48-5.46-3.5-3.48l-2.6,2.52,3.76,1.25c-.73-1.95-3.08-3.35-4.76-1.56-.26.28-.23.08-.22-.11.06-.73.32-2,1-2.35l-1.6.15c-.64-.69-.83-.79-.58-.29a7.47,7.47,0,0,1,.29.79,9.44,9.44,0,0,1,.35,1.29,12.92,12.92,0,0,1,.22,3.1l1.86-1.65c-1.08,0,.1.37-.21.4.46,0-1-1.76-.94-1,.18,2.76,4.52,3.49,4.31.25Z"/><path class="cls-6" d="M263,184.58a9.53,9.53,0,0,1,.52,3.14l3.68-1.84a9.09,9.09,0,0,0-6.65,0c-1.6.66-4.05,2.34-3.29,4.4s3.25,1.72,5,1.73c1.18,0,2.07.14,3.08-.63a4.08,4.08,0,0,0,.82-.84c.08-.12.63-.84.34-.63l-1.74.64a6.62,6.62,0,0,0,3.42-1.32l-4.32-1.2c-.12.41-.11.51,0,.31l.87-.74-.56.23c-.26-.07-.28,0,0,.07s.26.1.07-.26c-.15-.72-1.13-1.27-1.74-1.51a4.44,4.44,0,0,0-5,1.28,2.74,2.74,0,0,0,.51,3.92,6.05,6.05,0,0,0,5.58.27,1.78,1.78,0,0,0,.78-2.7,2.94,2.94,0,0,0-3.44-.56c.63-.28.37,0,0-.19l.93.66c.24.92-.52,1.06-2.27.42a1.67,1.67,0,0,0,.37.81,3.28,3.28,0,0,0,.86.8,6.34,6.34,0,0,0,3.56.86,5.91,5.91,0,0,0,3.34-1c1-.76,1.05-1.7,1.19-2.87.11-.85-.95-1.53-1.61-1.71a3.1,3.1,0,0,0-2.71.52c-.17.1-.18.12,0,.07.31-.09.13-.07-.56.06a3.18,3.18,0,0,0-1.25.68c-.41.37-.59,1-1,1.34l1.08-.55c.87.05,1,0,.32-.09-.36,0-.71,0-1.07,0l-.84.1c-.55,0-.48.07.22.19l.68.83-.1-.33,0,1c.29-1,2.09-.83,2.79-.56,1.39.52,3.7,0,3.69-1.84a12.38,12.38,0,0,0-.74-4.17C267,181,262.09,182,263,184.58Z"/><path class="cls-4" d="M306.16,92.66c4.89,8.62,16.16,13.64,26.39,15.24,2.19.34,3.82,2.18.59,1.68-11.89-1.86-22.78-5.18-28.51-15.29-1-1.71-.54-3.23.63-2.53A6.71,6.71,0,0,1,306.16,92.66Z"/><path class="cls-5" d="M251.08,198.8c-.48-1.21-.54-3.14-1.18-4.2q-2-2.13-.48.18a3.2,3.2,0,0,1,.22,3c-.58,1.66,2.09,3.82,3,1.84.65-1.38,3.05-3.55,4.78-2.77l-1.34-1.29c-.47-1.14-5.37.9-6.06,1.56-1.11,1.07.19,3.93,1.8,3.23a51,51,0,0,1,5-1.89c.87-.27,1.74-.5,2.61-.72.35-.08,3.27-.46,1.47-1.68-.56-.37-3.63.71-4.43.82a58.13,58.13,0,0,1-6.72.53l1.42,3.27c1.35-1.12,3.64-1.09,5.31-1.35.61-.1,5.26-.65,4.87-1.33l.08-2.34a19.87,19.87,0,0,1-11.38,1.85c-2.12-.26-1,3.25.7,3.46a22.25,22.25,0,0,0,12.83-2.23c.87-.44.4-1.77.07-2.34-1.14-2-3.43-1.28-5.29-1-2.84.45-7.05.3-9.34,2.2-1.18,1,0,3.3,1.42,3.27a61.27,61.27,0,0,0,10.2-1.06c1.83-.35,4.42-.95,4.1-3.41-.76-5.89-11.67-.64-14.42.55l1.81,3.23c1.41-1.36,10.07-1.81,6.29-6-2.76-3.05-7.61,1-8.84,3.58l3,1.84c.87-2.5-.27-8.79-3.66-9.19-4.33-.52-1.38,7.42-.71,9.11.79,2,3.69,1.55,2.79-.73Z"/><path class="cls-4" d="M195.59,80c2-.42,1.86-2.68-.48-2.61-5.73.18-21.54-2.11-31.52-6.53-2.15-.95-1.47.65-1.2,1C163.23,73.1,184.65,82.21,195.59,80Z"/><path class="cls-7" d="M341.3,110.8a13,13,0,0,0,2.42-4.5l.27-.41-.55-.29s-.12,1.31-.17,1.5a4.7,4.7,0,0,1-2.62,3.17c-.55.21-2,1.27-.64,1.49a12.58,12.58,0,0,0,6.43-.91c1.3-.48,2.68-1,2.23-2.72-.37-1.39-2.26-.87-3.37-.6a9.49,9.49,0,0,0-2.39,1c-.9.51-1.71,1.51-2.66,1.85-.44.16-1.87.93-.91,1.42a4.94,4.94,0,0,1,2.64,3.49l1.6-1.23c-1.22.21-2-3.74-2.12-4.47-.21-.93-3.09-.12-2.86.9.58,2.61,1.37,5.71,4.64,5.13.47-.08,1.77-.51,1.6-1.23a5.86,5.86,0,0,0-3.25-4.06l-.91,1.42c1.61-.57,2.82-2.14,4.39-2.59.58-.16.52-.35.74-.09s0,.39-.13.57c-.76.76-3.05.7-3.95.55l-.64,1.49a8.14,8.14,0,0,0,4.45-3.54c.57-1,1.56-3.51,0-4.12-1.36-.54-3.1.66-3.94,1.62-1.35,1.55-1.66,3.71-3,5.29-.46.55.46.76.81.77a2.42,2.42,0,0,0,1.88-.86Z"/><path class="cls-6" d="M248.41,312.2a38.7,38.7,0,0,1,1.51,7.61c.17,1.71,4.33,1.54,4.92.21.74-1.7,1.44-3.44,2.25-5.11a10.25,10.25,0,0,1,1.56-2.39l.66-.52-.42-.05a4,4,0,0,1,.26,1.69,5.46,5.46,0,0,1-2.4,3.95,8.12,8.12,0,0,0-1,.49c-.4.1-.3.13.28.11.37.2.58.12.62-.23.7-.68.78-1.8,2-2.07l-3.11-1.47c-.23.69-.43,1.55-1.17,1.87l1.76-.42-.49,0,2.45,1.52a8.54,8.54,0,0,1,2.38-3.9c1.62-1.52-3.18-2.26-4.34-1.16a10.24,10.24,0,0,0-2.88,4.52c-.39,1.27,1.63,1.56,2.45,1.53a4.62,4.62,0,0,0,4.68-3.44c.49-1.48-2.26-1.66-3.12-1.47a7.49,7.49,0,0,0-5,3.13c-.88,1.44-1.16,3,.64,3.7,3.64,1.37,8.43-.66,10.36-3.91.88-1.47,1.4-3.69.47-5.26-1-1.72-3.57-2-5.34-1.7-5.12.76-6.55,5.9-8.35,10l4.92.21a41.86,41.86,0,0,0-1.71-8.28c-.47-1.51-5.4-1.13-4.8.79Z"/><path class="cls-6" d="M201.57,341.41c.37,2.57-.48,4.42-1.29,6.8-.7,2.1,3.89,2.38,4.82,1.05s2.19-3.32,3.89-4.06a1.73,1.73,0,0,1,1.73,0c1.07.85.06,1.89-.76,2.34a8.08,8.08,0,0,1-2.69.73c-.57.08-2.68.31-.8.75a9.44,9.44,0,0,0,2.66-.53,19.94,19.94,0,0,0,2.88-.62c3.84-1.4.78-4.83-2-5-3.58-.28-5.23,2.72-7.83,4.5-1,.7-.14,1.92.61,2.35a3.33,3.33,0,0,0,3.47-.16,22.25,22.25,0,0,0,2.61-2.34c.09-.08,1.32-1,1.33-1,.47-1.81-2-1-2.47-.92-1.86.35-4.92.46-6,2.35s.77,3.42,2.42,3.9c2.26.66,5.12.15,7.32-.51,2-.6,4.49-1.82,4.71-4.14s-1.72-3.9-3.57-4.61c-5.29-2-9.29,1.55-12.14,5.6l4.81,1c.95-2.8,1.65-4.68,1.22-7.69-.29-2-5.24-2.17-4.89.26Z"/></g><g id="Layer_2" data-name="Layer 2"><path class="cls-8" d="M223.56,55.59c-1.74,2.68-4.86,8.06-1.74,10.85,2.87,2.58,7.06,2.57,8.08-1.56.91-3.69.52-7.11-3.54-8.3-1.53-.45-2.62-.29-3.36,1.2a28.07,28.07,0,0,0-2,7.65c-.21,1.26,4.29,3,4.55,2.07.51-1.82-2.35-2.78-3.68-3.09-.35-.08-1.16-.31-1.41.11-1.6,2.63,2.31,5,4.7,4.59,1.59-.29,1.53-1.81,1.64-3.15.2-2.56.36-5.12.55-7.68.08-1.14-3.48-2.9-4.39-2.22a6.64,6.64,0,0,0-2.69,4.84c-.17,1.54-.42,3.86.56,5.14a5.11,5.11,0,0,0,4.12,1.77c1.86-.39,1.29-3.45,1.11-4.86-.12-1-3.84-2.81-4.55-1.85-2.84,3.86,3.16,6.66,6.27,6.7l-4.08-2.3a1.44,1.44,0,0,1-1.21,1.15l3.23,1.16-.37-.25.85.9c-.52-1.77-1.35-8.64,1.67-8.9L225.72,59c-1.16-.48-.55-.77-.73.25-.09.55.08,1.6,0,2.07,0,.69-.39,3.53-1.47,3.48l3.51,1.77c-1.7-2.56-.51-6.32,1.1-8.58L225,57.39a2.44,2.44,0,0,1,.59,1.33c.28,1.08,4.63,2.83,4.56,1.62l-.21-3.86c-.06-.94-2.5-1.83-3.15-1.95-1.5-.29-2.42-.2-3.39,1.09-1.29,1.72-2.1,4-3.08,6l4.55,2.07.12-2.39c.06-1.15-3.84-3.13-4.55-2.07a6.72,6.72,0,0,0,0,7.52c.6,1,5,2.36,4.26,1.06a5.91,5.91,0,0,1,.32-6.51l-4.55-2.07-.12,2.39c-.05,1.13,4,3.17,4.55,2.07,1-1.89,2.22-6.14,4.34-6.88l-1.24,0,.55.11-3.15-2,.22,3.86,4.56,1.62a6.13,6.13,0,0,0-3.31-3.79c-.5-.28-2.64-1.4-3.2-.62-2.51,3.53-3.13,10.08,2.19,11.27,4.18.94,5-6,2.69-8.32-1.07-1.08-3.47-2.27-5-1.75-2.17.71-2.33,3.9-2.3,5.8,0,2.34,0,4.2,2.18,5.4,1.88,1,3.84,1.42,4.88-.76.57-1.18-3.41-2.28-4.07-2.29,1.15.44,1.57.11,1.26-1a2.55,2.55,0,0,1,.62-1.11l-4.56-1.84c.05.43.54,3.91-.34,4l3.93,1.79c-.79-.94-.37-3.81-.15-4.91a5.84,5.84,0,0,1,2.24-3.75l-4.38-2.23c-.06.82-.87,10.46-.94,10.44l3,1.68a1.33,1.33,0,0,1,.15-1.74l-1.41.11.43.09-3-1.67,0,.31,4.55,2.07c.17-1,1.4-8.79,2.78-8.62l-2.81-1.15c.77.49.16,3.43,0,4.27-.23,1.32-.82,4-2.74,3.7l2.3.83c.51.28,0-.77,0-1.08a8.08,8.08,0,0,1,.58-2.83,21.58,21.58,0,0,1,2.44-5c.52-.8-3.84-3.17-4.55-2.07Z"/><path class="cls-8" d="M282.14,56.05c-2.51,2.46-4.33,6.59-2.79,10s6.38,4.34,7.63.29a15.42,15.42,0,0,0,.33-5.86,4.12,4.12,0,0,0-3.45-3.58c-4.17-.48-5.49,5.18-4.81,8.23a3.19,3.19,0,0,0,2.58,2.42c6.26.35,5.34-10.85,0-9.76-4.94,1-6.15,9.18-1.72,11.52a3.73,3.73,0,0,0,5.32-1.86c1.08-2.12,2.15-5.68,1.12-8a4.76,4.76,0,0,0-5.82-2.65c-2.68,1-3.09,3.87-3.08,6.38l4.36,1.09a2.6,2.6,0,0,1,.32-2.23,3,3,0,0,1,.73-.78c.36-.26,1-.26.3-.46l-1.53-1.18c-.35-.43,0-.42,0,.21a8.25,8.25,0,0,1-.05,1.72,8,8,0,0,1-1.13,2.81c-1.16,1.94,2.83,4.84,4.18,2.59,1.69-2.82,2.73-9.42-1.79-10.31-3.81-.75-6.18,3.92-5.34,7.08a3.21,3.21,0,0,0,2.3,2.34c.88.21,2.07-.14,2.06-1.26a8.66,8.66,0,0,1,.17-2.54c.2-.61.7-.84.94-1.29q1.23-.18-.6-1a4.47,4.47,0,0,1-.19,1.31,21.71,21.71,0,0,1-.65,2.36,17.12,17.12,0,0,0-.74,1.59c-.6.37-.35.61.73.71a2.15,2.15,0,0,1,0-.76c.41-1,1-3.07,2.41-3.19l-1.65-.41c-.87-.47-.66-1.73-.73-.09,0,.41,0,1.78-.75,1.74l2.59,2.41a4.51,4.51,0,0,1,.16-2.81,3.9,3.9,0,0,1,.66-1.13c.8-.89.59.08-.45-1l-.93-1.59a10.14,10.14,0,0,1,.06,3.21c0,.67-.24,1.29-.28,1.93l-.33.39c.79.88,1.11,1,1,.46,0,0,.07-1.38.06-1.3a7.32,7.32,0,0,1,.49-1.59,8.66,8.66,0,0,1,2-2.85c1.72-1.68-1.91-5.12-3.65-3.42Z"/><path class="cls-8" d="M185.18,215.07c.16,3.44.71,7.27,4.21,8.88,2.71,1.25,6.58.85,8.42-1.7s1.17-6.2-.17-8.69c-1.61-3-5.77-3.82-8.62-2.08-2.23,1.35-3.64,4.7-2.5,7.17,1.26,2.74,5.23,2.77,7.51,1.39,2.46-1.49,3.06-4.74.4-6.37-2.43-1.49-6.51-1.06-8.32,1.22-2.23,2.81,0,7.29,3.61,6.93,4.12-.41,4.59-4.95,1.94-7.42-1.07-1-3.86-.49-4.52.79-1.24,2.4-2,5.65,1.08,6.88,2.06.8,5.55.47,6.41-1.89.67-1.83-4.27-1.84-4.87-.19,1.37.15,1.77-.21,1.2-1.07a2.1,2.1,0,0,1,.08-1.14,9.09,9.09,0,0,1,1-2.4l-4.51.79c.37.35,1.72,3,.71,3.34l3-.11a2.36,2.36,0,0,1-1.05-2.07c0-.13.3-1.92.1-1.84.44-.17.94,1.07,1,1.23s-.58,1.9-.73,1.71c1.16.13,1.46-.06.89-.59a2.2,2.2,0,0,1-.29-.93,4.07,4.07,0,0,1,.09-1.59c.12-.5.45-.92.57-1.4.51-.37.5-.55,0-.53a2.57,2.57,0,0,1,.81.83c1.33,1.82,2,5.71.47,7.57-.3.23-.24.29.19.17a3.23,3.23,0,0,1-1.09-.64,4.57,4.57,0,0,1-1.17-1.64,14,14,0,0,1-.84-5.13c-.08-1.77-5.06-1.34-5,.52Z"/><path class="cls-8" d="M163.62,224.88a42,42,0,0,0,.26,8.54c.3,2,1.11,3.39,3.24,3.66,4.87.61,6.65-4.73,6.41-8.65s-2.59-7.76-7-6.25c-4.57,1.57-4.59,8.22-4,12.1.32,2,3.54,1.95,4.67.75a10.26,10.26,0,0,0,2.22-10.63c-.59-1.68-5.18-1.52-4.9.49l.66,4.93c.3,2.2,5.29,2,5-.07l-.66-4.92-4.91.49a7.86,7.86,0,0,1-1.75,8.14l4.67.75a16.16,16.16,0,0,1,.22-7.19c.13-.42.32-.8.47-1.21l.48-.68-.91.31a8.3,8.3,0,0,0,.41,1.08,9.55,9.55,0,0,1,.31,2.39,9.88,9.88,0,0,1-.49,3.58c-.28.79-.91,1,.19,1.19s.63-.36.53-1.22a44.31,44.31,0,0,1-.15-7.64c.13-2.14-4.87-2.15-5,.06Z"/><path class="cls-8" d="M103,390.1c0,1.65-.21,3.46.55,5a4.87,4.87,0,0,0,4.69,2.55,3,3,0,0,0,2.82-3.22,5.09,5.09,0,0,0-.84-2.28c-.33-.51-.92-1-1-1.65l-.67,1.27.18-.14-1.06.35.23,0-1.28-.14.23.06-1.12-.62c-.38-.28-.2-.48-.23.07a6.14,6.14,0,0,0,.12,1l.21,1.89a2.75,2.75,0,0,0,2.55,2.15c.95.1,2.49-.38,2.34-1.62-.21-1.87,0-4.5-1.63-5.78s-5.39-1.07-4.61,1.78a7.36,7.36,0,0,0,1.2,2.22c.2.28.31.57.48.84a.79.79,0,0,1,0,.35c-.4-.45,2.17-.33,1.92.17,0,0-.17-.67-.17-.75a26.57,26.57,0,0,1,0-3c0-2.33-4.88-3.17-4.89-.53Z"/><path class="cls-8" d="M75.68,394.12c-.17,2.06-.78,4.7.82,6.37s4.49,1.08,5.88-.66c2.45-3.07.29-9.74-4.34-7.85-2.05.83-3,2.84-3.49,4.85-.46,1.73-.73,3.77.36,5.34,1.31,1.89,4,1.79,5.66.47,2-1.55,2.16-3.82,1.67-6.12-.59-2.75-5.29-1.17-4.75,1.35a10.55,10.55,0,0,0,.22,1.89q1.83.36,1.32-.39a3.88,3.88,0,0,1-.11-.75,6,6,0,0,1,.27-1.57c.07-.29.55-1.13.5-1.38.35-.53-.16-.51-1.52.06a1.23,1.23,0,0,1,.19.31,9,9,0,0,0,.23,1.76c1.43.25,2,0,1.66-.75a3.46,3.46,0,0,1,0-.91c0-.76.12-1.52.18-2.28.24-3-4.56-2.29-4.76.26Z"/><path class="cls-9" d="M279.15,68.39c5,0,5.71-10,.75-10s-5.7,10-.75,10Z"/><path class="cls-9" d="M222,65.64c4.78,0,6.61-9.77,1.27-9.77-4.78,0-6.62,9.77-1.27,9.77Z"/><path class="cls-9" d="M192.92,218.42c4.81,0,8.72-8.48,2.5-8.48-4.82,0-8.72,8.48-2.5,8.48Z"/><path class="cls-9" d="M172.34,229.58a3.38,3.38,0,0,0,3.4-4.24c-.73-2.5-3.69-3.55-6-3.55a3.38,3.38,0,0,0-3.4,4.24c.73,2.5,3.69,3.55,6,3.55Z"/><path class="cls-9" d="M104.79,394.3l.24,2,3.76-2.16a1.72,1.72,0,0,1,.43.42c-.26-.37.11.33,0,.05s0,.33,0,.41c0,.33,0,0,.07-.16l-2.41,1.84c.51,0-.49-.19,0,0l-.3-.14.14.07c.18.12.18.11,0,0s-.17-.13,0,0c.33.3-.2-.31,0-.06s-.08-.06,0-.09-.06.65.08.13-.11.09,0,.14l0-.35q-.1.39.09-.15a2.5,2.5,0,0,0,4.32,2.53,4.88,4.88,0,0,0-.19-4.74,4.82,4.82,0,0,0-4.09-2.33,2.58,2.58,0,0,0-2.41,1.83,4.3,4.3,0,0,0,1.78,4.93c1.45,1.06,4-.34,3.76-2.16l-.24-2a2.55,2.55,0,0,0-2.5-2.5c-1.22.05-2.66,1.11-2.5,2.5Z"/><path class="cls-9" d="M75.71,400.06a3.9,3.9,0,1,0,7.08-3c-1.57-2.5-4.74-1.27-6.1.7a4.74,4.74,0,0,0-.16,5.21,2.5,2.5,0,1,0,4.31-2.52c-.11-.16-.26-.58,0,0-.16-.43.06.42,0,.12-.08-.54.09.1,0,.11l.06-.23c.06-.18,0-.11-.1.22l.08-.14c.12-.18.11-.19,0,0s-.13.17,0,0l.12-.11c-.29.2-.35.25-.19.15l.2-.11-.3.14c.27-.06.21-.06-.19,0l-1.77-.74a1.33,1.33,0,0,1-.28-.54c.12.38,0-.23,0-.34s0-.22,0-.08,0,.11,0-.07a1.4,1.4,0,0,1,.47-.59,1.2,1.2,0,0,1,1.24,0c-.34-.18.09.08.19.22s.26.64.18.25A2.51,2.51,0,0,0,77.46,397a2.56,2.56,0,0,0-1.75,3.08Z"/><path class="cls-10" d="M142.29,55c3.86,0,3.87-6,0-6s-3.87,6,0,6Z"/><path class="cls-11" d="M112.59,37.53c15.44,0,15.47-24,0-24s-15.47,24,0,24Z"/><path class="cls-12" d="M67.53,64C83,64,83,40,67.53,40s-15.47,24,0,24Z"/><path class="cls-13" d="M84.28,20.71c5.79,0,5.8-9,0-9s-5.8,9,0,9Z"/><path class="cls-14" d="M109.14,61.56c7.73,0,7.74-12,0-12s-7.73,12,0,12Z"/><path class="cls-15" d="M20.33,43.53c9.42,0,18.44-8.28,18-18s-7.91-18-18-18c-9.41,0-18.43,8.28-18,18s7.91,18,18,18Z"/><path class="cls-16" d="M29.22,484.71a25,25,0,0,0,0,6.23c.33,2.57,1.59,5.07,1.19,7.66-.17,1.1,1.61.64,2,.24,1-1,1.59-3.37.28-4.54a1.33,1.33,0,0,0,1.31,0c3-1.6-.3-4.15-2.11-4.92-1.58-.68-4.41.55-2.73,2.52.93,1.08,2.41.62,3.57.41s2.67-.13,3.41-1.31c1.89-3-2.44-4.09-4.48-4-.49,0-1.36.46-1.19,1.08.33,1.18.32,2.56,1.83,2.66a1.63,1.63,0,0,0,1.81-1.54.81.81,0,0,0-1-.71,5.93,5.93,0,0,0-4.39,2.44,2.82,2.82,0,0,0-.54,1.67c.07.93,1.41,1.56,1.26,2.38l2.19-.37a18.9,18.9,0,0,1,.19-10.36c.3-1-1.92-.78-2.2.16a19.65,19.65,0,0,0-.17,10.78c.26,1,2.05.44,2.19-.37.09-.52.11-.49,0-.89l-.33-.48c-1.32-1-.77-2.1,1.62-3.37l-1-.71c.78-.12,1.09-.45.94-1a3.4,3.4,0,0,0-.2-.88l-1.19,1.09c.92,0,4,.81,1.91,2-.56.32-2.2-.32-2.18-.33l-1.35.24c.28.1,3.62,2.28,3.2,2.5l1.32,0a2,2,0,0,0-2.5-.2c-2.09,1.29.22,3.86-1.27,5.35l2,.24c.34-2.2-.41-4-.87-6.1a22.91,22.91,0,0,1-.27-7.79c.13-1.11-2.08-.82-2.2.16Z"/></g></svg>