<svg xmlns="http://www.w3.org/2000/svg" viewBox="0 0 429.38 510.35"><defs><style>.cls-1{fill:#f7a7a9;}.cls-2{fill:#f386aa;}.cls-3{fill:#b09ecc;}.cls-4{fill:#a3c1d2;}.cls-5{fill:#8873b4;}.cls-6{fill:#442f8f;}.cls-7{fill:#7985c1;}.cls-8{fill:#e6e7e8;}.cls-9{fill:#2c266d;}.cls-10{fill:#fbc3b6;}.cls-11{fill:#fcc396;}.cls-12{fill:#faa964;}.cls-13{fill:#e0d9c9;}.cls-14{fill:#cdabbe;}.cls-15{fill:#ebe07b;}.cls-16{fill:#8874b5;}</style></defs><title>welcome</title><g id="Layer_1" data-name="Layer 1"><path class="cls-1" d="M335.21,53.76a22.75,22.75,0,0,0-1.6-5.1c-2.94-10.38-15.32-16.47-25.48-13.92-11.75,2.95-17.56,14.52-15.45,25.87.81,4.4,2.2,13.39,1.12,14.59-1.6,1.14-3.71,1.24-6.92.75-.38-.06-4.76-.66-5.79-1.93-.34-1,0-2.61-.26-1.8a18.28,18.28,0,0,1,2.85-6.72c15-23-21.32-45.25-36.3-22.32-9.55,14.63-12,33.86-4.95,50,3.65,8.37,10,14.13,17.58,18-8.37.84-15.66,5.41-18.5,14.55-3.08,9.89,3,24.67,14.29,26.53,28.54,4.67,54.5-4.67,68.81-31.06A103.74,103.74,0,0,0,335.21,53.76Z"/><path class="cls-2" d="M228.23,191.82c-43.27-6.85-74.08,39-57,77.5,7.88,17.69,25.24,28.86,44.21,31,21.16,2.34,39.84-8.64,51.46-25.76,17.25-25.44-23.18-50.68-40.39-25.31-1.89,2.79-3.65,4.31-6.09,3.88a11.61,11.61,0,0,1-5.74-2.52c2.85,2.45-1.15-3.21-.15-.51-3.13-8.4,1.52-12.21,11.6-10.62,12.71,2,24.34-11,24.84-22.78.6-14.09-10-22.82-22.78-24.84Z"/><path class="cls-3" d="M127.36,362.85c-9.34-2.75-18.49-4.43-28.18-2.1-8.52,2.05-16.42,5.37-23,11.38A51.73,51.73,0,0,0,61.1,423.34c4.94,19,19.78,31.94,38.71,36.3s37.72-4.13,49.54-18.68c7.44-9.15,5.92-24.6-3.84-31.59-10.06-7.21-23.65-5.92-31.58,3.84-.43.53-1.86,1.71-2,2.33.24-1.07,3.35-2.74.78-1a12.06,12.06,0,0,0-2.42,1.7c2.76-1.51,3.38-1.91,1.84-1.18-.44.21-.88.4-1.34.57-.68.26-4,1.4-.57.29s0-.34-.69-.14c-2.43.66,4.08.58,1.53.1a26.32,26.32,0,0,0-3.07-.41c-2.56-.14,3.36,1.52,1,.29-.85-.44-3.38-.84-3.91-1.74.35.58,3.33,2.45,1.06.52a13,13,0,0,0-2.11-1.78c1,.47,2.92,3.54,1.31,1.07a15.21,15.21,0,0,0-1.54-2.23c.85.85,1.86,4.23,1,1.44-.25-.84-1.56-4.78-.51-1,1.24,4.49.13-5.52-.17-1-.24,3.66,0,.19.12-.56.1-.95.38-1.92.45-2.88.18-2.61-1.55,3.73-.41,1.3a21.26,21.26,0,0,0,1.12-2.76c.74-2.38-3,3.81-.52.85.44-.54,1.53-1.49,1.73-2.13-.3.93-3.6,3-1.08,1.21a10.46,10.46,0,0,0,2.25-1.63c-.52.83-4.3,2-1.36.87a10,10,0,0,0,2.65-1c-1,1-5.11,1-.89.37.86-.12,4,0,.69-.29-3.55-.26.09.07.79.16,1.29.16,5,1.13-.16-.39,6,1.77,11.41,2.65,17.49.15,5-2.05,10.13-6.74,12.1-11.88,3.91-10.24.33-26-11.73-29.59Z"/><path class="cls-4" d="M222.11,311.46A22.93,22.93,0,0,1,219.93,328c-1.13,2.13,3,4.78,4.32,2.38a26.21,26.21,0,0,0,2.3-18.69c-.57-2.38-5.17-3.29-4.44-.26Z"/><path class="cls-4" d="M264.14,288.17c2.19,4.63,4.42,9.52,3.58,14.76-.5,3.16,4.36,4.35,4.87,1.17,1.07-6.74-1.39-12.61-4.21-18.59-1.37-2.9-5.6-.22-4.24,2.66Z"/><path class="cls-4" d="M164.4,282.4c-8.67,5.06-16.71,12.77-21.15,21.78-.3.62-.5-2-.19-2.62A50.61,50.61,0,0,1,163.15,280c.41-.24,2.56,1.5,1.9,1.89Z"/><path class="cls-5" d="M137.4,310.59c-4.32-.39-9.77,1.3-10.62,6.22-.34,1.95.35,3.93,2.47,4.29,1.73.3,4.67.06,6.18-.93s1.67-2.88.83-4.46c-1-1.93-2.6-2.7-4.62-1.63-1.56.83-3.21,2.94-2.83,4.79.48,2.32,2.92,2,4.64,1.49.59-.19,1.72-1.42.66-1.83-3-1.15-7.9-1.12-7.61,3.15.25,3.74,3.53,5.12,6.46,2.74.93-.75,2.76-2.58,2.28-4s-3-2-4.27-1.62c-3.92,1-1.76,5.28,1.66,4.75,2.51-.39,5.48-4.92,2-6.12-3.08-1-5.39,3.84-1.8,4.84a3.9,3.9,0,0,0,3.93-1.49c.76-1,1.62-3.25,1.06-4.48s-2-1-3-.62a4.24,4.24,0,0,0-2.48,4,2.56,2.56,0,1,0,4.94-.59,2.17,2.17,0,0,0-3.35-1.34c-1.95,1-1.56,2.83-.53,4.36.62.9,3.23-.32,2.64-1.34a3,3,0,0,0-5.23.27c-1.19,2.38,1.74,3.57,3.66,3.57,2.46,0,3.87-1.85,4.18-4.13.47-3.43-2.35-2.9-4.75-2.7-.66.05-1.85.49-1.83,1.35l0,2.54c0,1.42,2.9.63,2.88-.61l0-2.54-1.83,1.36c1.07-.09,2.44-.63,2.7.92.22,1.33-1.82,2.36-2.55,1.09l2.64-1.34c-.24-1.1-.7-1.18-1.38-.23a1,1,0,0,1-.19,1l1.26-.77c-.73.14.23-4.25-.58-2.57-.22.46-.05,1.22-.38,1.68l-1.4.84c-1.13.08-1.51.45-1.14,1.1a.41.41,0,0,1-.07.67,1.16,1.16,0,0,1-1.09.62c-1.15.32-1.16.19-1.45-.9a4,4,0,0,1-.15-1.45c-.43-.58-.22-.75.63-.49a3.39,3.39,0,0,1,2.09.38l.66-1.83c-1.1-1.08-1.19-1.87-.28-2.35.34-.48.58-.43.73.14a3.07,3.07,0,0,1,.8,2.05c-.38,1-3.62.75-4.16,0-.77-1,0-2.95.58-3.82,1.28-1.8,3.47-2.16,5.53-2,1.19.11,3.23-1.89,1.47-2.05Z"/><path class="cls-4" d="M279.56,204a19.09,19.09,0,0,1-19.22,12.87c-1.12,0-2.55,2.5-1,2.56a22.89,22.89,0,0,0,22.38-15.57c.64-1.86-1.74-1.09-2.16.14Z"/><path class="cls-5" d="M194.41,65.41a7,7,0,0,1-6.64.89c-1.51-.53-3.92-1.84-3.51-3.78l-.68.92c.19-.15,6.09,3.93,6.73,4.33s2.66-.81,2.45-1.65a11.73,11.73,0,0,0-1.77-4c-.58-.82-2.39-2.52-1.38-3.56l-1.61.84c2.19-.39,4.28,4.42,5.09,6,.39.76,3-.69,2.58-1.53-.8-1.71-1.7-3.53-1.63-5.47,0-.75,0-2,.71-1.78s.94,2.18.93,2.58c-.05,2.93-1.81,6.22-3,8.82-.48,1,2.19,0,2.55-.77,1-2.12,6.33-13.22.3-12.9a4.38,4.38,0,0,0-3.38,2.42c-1.58,2.84-.28,5.95,1,8.63l2.58-1.53c-1.32-2.56-3.79-8.17-7.47-5.82a2.8,2.8,0,0,0-1.42,3.18,8.88,8.88,0,0,0,1.63,2.42,11.44,11.44,0,0,1,1.76,4L192.63,66c-2.23-1.4-5.9-5-8.79-4.17-2,.59-3,2.37-1.63,4.1,3.27,4.16,9.91,3,13.51.11,1.59-1.26-.26-1.47-1.31-.64Z"/><path class="cls-4" d="M146.49,369c5.48-10.89-.86-24.36-7.94-33.12-.48-.59-2.24.35-1.91.76,7,8.71,12.41,21,7,31.83a1.5,1.5,0,0,0,1.52,1.65C146,370,146.49,369,146.49,369Z"/><path class="cls-5" d="M136.62,334.92c2.7-2,4.1-9.07,1-11.33-2.28-1.68-6.61.54-5.3,3.53,1.09,2.49,5.79,1.82,5.08-1-.81-3.28-5.92-1.13-6.59,1.15-1,3.48,4.09,6,6,2.83s-3.72-6.22-6.31-5.29a3.37,3.37,0,0,0-2.45,3c-.06,1.42,1,3.86,2.6,4.09,2.64.39,5.58-3.92,3-5.66-2.25-1.53-7.07,1.25-6.94,3.84.16,3.35,3.71,5.82,6.38,3.25a4.53,4.53,0,0,0,1.16-4.27c-.73-1.83-3.68-2.2-5.36-2.29-3.63-.19-4.66,2.8-2.48,5.7,2,2.64,6.22.83,7.29-1.82,1.16-2.88-.75-10.59-4.91-9.5a3.18,3.18,0,0,0-2.45,2.31c-.27,1.74,1.63,5.84,3,6.93,2,1.59,6.72-.85,7-3.27.49-3.51-5.09-7.32-7.42-3.61-2.15,3.44,3.26,6.41,6,4.37s1.09-8.94-3-7.83a3,3,0,0,0-2.27,3.3,8.86,8.86,0,0,0,1,4c.79,1.52,2.48,2.68,1.38,4.47a.36.36,0,0,0-.08.34c1.35,2.23,5.27-.95,4.54-3.14-.07-.19-.41-.2-.56-.21-1.93,0-4.36,2.46-1.51,3.28a2.79,2.79,0,0,0,2.41-1c1.14-1.43-.1-4.08-.78-5.48-.37-.76-3.12.42-2.78,1.12.47,1,1.8,3.72.94,4.8l2.4-1a.83.83,0,0,1-.53-1.23l-2.14,1c-.28,0-.05,1.48,1,.54a1.92,1.92,0,0,0,.33-.71c.3-.87-.45-1.82-.87-2.44-1-1.41-3.35-5.56-1.54-7.09l-2,.79c1.45,0,2.28,2,2.5,3.23.48,2.74-1,2.19-1.78.43a2,2,0,0,1-.26-1.15c-.07-.68-.06-.74,0-.17a10.22,10.22,0,0,1,1.59,2.3l.36.76-1.69,2c-.26,0-1.06-1.77-1.16-2-.61-1.18-.89-2.53-1.48-3.69l-.53-.27.95,1.26a10.54,10.54,0,0,1,1,2.23,10.25,10.25,0,0,1,.47,1.91c.07.49.35,3.32-.47,3.67-.57.24-1.51-.82-1.79-1.22-.51-.74-1-2.66-.59-3.4l-1.47.87a10.66,10.66,0,0,1,2.86.57c1.16.38,3,2.26,1.65,3.56-.22.22-1.39-1.76-1.61-2.51l-.18-1.3c1.67-.31,2.37,0,2.09.95a2.9,2.9,0,0,1-.7,1.73l1.83-1c-.68.14-1.31-1.4-1.46-1.78-.28-.73-1-2,0-2,1.43,0,4,3,2.6,4.27l2-.79c-1.36,0-2.67-1.88-2.38-3.17.34-1.54,1.32.6.9,1.5l1.56-1.06-.56.18,1.12,0c-.59-.27-2.22-2.59-1.73-2.62.77,0,1.29,2,1.37,2.5.37,2,.48,6-1.35,7.33-1.56,1.13,1.05.87,1.77.34Z"/><path class="cls-4" d="M138.93,462.14a58.92,58.92,0,0,1,5.9,17.15c.47,2.56,4.9.29,4.47-2.06A62.06,62.06,0,0,0,143,459.17c-1.14-2.15-5.2.75-4,3Z"/><path class="cls-4" d="M96.56,466.5a35.57,35.57,0,0,1-2.29,18.31c-1.18,2.88,3.4,3.14,4.33.88a39.47,39.47,0,0,0,2.75-20.35c-.35-2.65-5.1-1.21-4.79,1.16Z"/><path class="cls-6" d="M146.49,485l.79,6.07c.25,2,3.86,1.94,4.78.65a40,40,0,0,0,2.67-4.26c.39-.73.75-1.46,1.09-2.21.14-.33.28-.65.43-1,.41-.48.25-.6-.48-.37-.64-.2-1,0-.92.71a8.25,8.25,0,0,1-.45.89,10.2,10.2,0,0,1-1.2,1.72,13.22,13.22,0,0,1-3.44,2.78l3.84.86c-.87-1.59.32-3.13,1.61-4,1-.69.16-1.94-.58-2.38a3.29,3.29,0,0,0-3.47.13c-2.51,1.68-3.54,4.62-2.06,7.32.62,1.14,2.8,1.47,3.85.86,3-1.7,10.58-8.2,5.43-11.51-2-1.32-5.19-1.11-6.57,1.05-.7,1.11-1.12,2.42-1.74,3.58a39.14,39.14,0,0,1-2.67,4.27l4.78.65-.79-6.08c-.27-2.08-5.21-2.23-4.9.23Z"/><path class="cls-6" d="M92.19,489.74c-.93,3.16-2.71,4.89-5.32,6.79l4.68,1.17c-.09-.51,1.13-1.11,1.38-1.49a2.38,2.38,0,0,0,.26-2,10.06,10.06,0,0,0-2.31-4.11c-1.86-2.18-4.94-3.85-7.87-3s-3.89,4.54-2.18,7,5.15,3.49,8,3.53c.37,0,1.24,0,1.39-.46.93-3.18-1.23-5.68-3.86-7.12-.4-.22-3.82-1.27-3.84-.15-.06,3,.58,5.9,3.76,6.84.92.27,2.51.55,3.39-.11a2,2,0,0,0,.69-1.25c0-.4,0-.8,0-1.2.69-1,.22-1.35-1.4-1.15.75.35,5.37.95,3.29-.64-2.3-1.75-2.63-5-5.45-5.92-2.42-.82-4.87-.06-5.1,2.77-.44,5.21,4.23,11,9.76,8.85,1.56-.62-2.78-2.4-4-1.93.93-.36.17-1-.09-1.66a14.85,14.85,0,0,1-.67-2.18c-.28-1.38-.45-3.57,1.2-4.2l-2.84-.28c-1.28-.53.43,1.93.76,2.38a13.4,13.4,0,0,0,2.66,2.55l3.28-.64a7,7,0,0,0-4.73-.74,2.06,2.06,0,0,0-1.33.91c-.4.7.16,2.43-.91,2.7l3.4.51c-.85-.35-.87-3.77-.86-4.4l-3.84-.16a4.28,4.28,0,0,1,1.83,5l1.39-.46c-1.79,0-2.19-3.08-1.84-4.26a15.11,15.11,0,0,1,1.37-1.95c-1.09-.63-1.21-.59-.35.11a7.42,7.42,0,0,1,.88,1.05c.86,1.15,2.09,3,1.27,4.39-.58,1-1.59.86-1.34,2.19s3.82,1.79,4.68,1.16c2.73-2,4.63-3.91,5.6-7.21.36-1.19-4.47-2.5-4.85-1.21Z"/><path class="cls-4" d="M61.83,440.19A85.77,85.77,0,0,0,44.37,465.7c-.36.81-1.95-1-1.54-1.88A87.07,87.07,0,0,1,60.55,438c.62-.63,2.07,1.38,1.28,2.19Z"/><path class="cls-4" d="M289.29,155.19c-1.63,4-3.84,9.42-2.88,13.8.74,3.38,3.7,6.81,6.16,9.1.89.83,5.59.93,4.41-.17-2.87-2.67-5.86-6.58-5.78-10.65.08-3.79,2.23-7.62,3-11.27.57-2.64-4.38-2.16-4.94-.81Z"/><path class="cls-4" d="M244.6,155.06a111.87,111.87,0,0,1-21.33,6.7c-3.12.65-4.2,5.69,1.63,5,8.73-1.1,13.6-3.6,21.54-7,4.94-2.12,1.15-5.86-1.84-4.65Z"/><path class="cls-6" d="M216.39,166c.85-3.6-3.41-7.28-6.31-4.11a5.15,5.15,0,0,0,2.37,8.22,1.81,1.81,0,0,0,2.26-1,16.71,16.71,0,0,0,.91-9.09,3.37,3.37,0,0,0-2.66-2.86c-1.29-.12-2.38,1-3.16,1.86a6.66,6.66,0,0,0-1.24,7.42,5.15,5.15,0,0,0,2.59,2.39,4.08,4.08,0,0,0,1.54.28c.38,0,1.14-.41,1.47-.35l-1.48-.78.23.27-.71-1.8,0,.36c.09,1.65,1.58,3.14,3.22,2.3l3.22-1.66c2.28-1.17.19-5.65-2.32-4.36l-3.22,1.66,3.22,2.3c-.12-2.08-2-4.12-4.09-2.89-.33.19-.25,0-.18-.17.27-.68.9-1.82,1.68-1.95l-1.57-.32q-.62-1.28-.48-.45a7.89,7.89,0,0,1,.05.84,8.58,8.58,0,0,1-.05,1.34,12.16,12.16,0,0,1-.7,3l2.26-1c-1-.31,0,.39-.31.32.45.1-.43-2-.61-1.22-.64,2.69,3.3,4.66,4,1.5Z"/><path class="cls-6" d="M293.82,182.58a9,9,0,0,1,.52,3.14l3.69-1.84a9.09,9.09,0,0,0-6.65,0c-1.61.66-4.05,2.34-3.29,4.4s3.25,1.72,5,1.73c1.19,0,2.08.14,3.09-.63a3.8,3.8,0,0,0,.81-.84c.09-.12.63-.84.35-.63l-1.74.64a6.65,6.65,0,0,0,3.42-1.32L294.7,186c-.12.41-.11.51,0,.31l.87-.74-.57.23c-.26-.07-.27,0,0,.07s.25.1.07-.26c-.15-.72-1.13-1.27-1.74-1.51a4.44,4.44,0,0,0-5,1.28,2.74,2.74,0,0,0,.51,3.92,6,6,0,0,0,5.58.27,1.78,1.78,0,0,0,.78-2.7,3,3,0,0,0-3.45-.56c.64-.28.37,0,0-.19l.92.66c.24.92-.51,1.06-2.26.42a1.67,1.67,0,0,0,.37.81,3.13,3.13,0,0,0,.86.8,6.32,6.32,0,0,0,3.56.86,5.91,5.91,0,0,0,3.34-1c1-.76,1.05-1.7,1.19-2.87.1-.85-.95-1.53-1.61-1.71a3.1,3.1,0,0,0-2.71.52c-.17.1-.18.12,0,.07.31-.09.13-.07-.56.06a3.18,3.18,0,0,0-1.25.68c-.41.37-.59,1-1,1.34l1.08-.55c.86.05,1,0,.32-.09-.36,0-.72,0-1.07,0l-.85.1c-.55,0-.47.07.23.19l.67.83-.1-.33.05,1c.29-1,2.09-.83,2.79-.56,1.39.52,3.69,0,3.69-1.84a12.63,12.63,0,0,0-.74-4.17c-.82-2.33-5.69-1.36-4.78,1.24Z"/><path class="cls-4" d="M341,92.66c4.9,8.62,16.17,13.64,26.4,15.24,2.19.34,3.81,2.18.59,1.68-11.9-1.86-22.78-5.18-28.52-15.29-1-1.71-.53-3.23.64-2.53A6.49,6.49,0,0,1,341,92.66Z"/><path class="cls-5" d="M285.9,198.8c-.48-1.21-.54-3.14-1.18-4.2q-2-2.13-.48.18a3.23,3.23,0,0,1,.22,3c-.58,1.66,2.09,3.82,3,1.84.65-1.38,3.06-3.55,4.79-2.77l-1.34-1.29c-.47-1.14-5.37.9-6.06,1.56-1.11,1.07.19,3.93,1.8,3.23a50,50,0,0,1,5-1.89c.86-.27,1.74-.5,2.61-.72.35-.08,3.26-.46,1.47-1.68-.56-.37-3.64.71-4.43.82a58.13,58.13,0,0,1-6.73.53l1.43,3.27c1.35-1.12,3.64-1.09,5.31-1.35.6-.1,5.25-.65,4.87-1.33l.07-2.34a19.83,19.83,0,0,1-11.37,1.85c-2.12-.26-1.05,3.25.69,3.46a22.23,22.23,0,0,0,12.83-2.23c.88-.44.4-1.77.08-2.34-1.14-2-3.44-1.28-5.29-1-2.85.45-7.05.3-9.34,2.2-1.19,1,0,3.3,1.42,3.27a61.27,61.27,0,0,0,10.2-1.06c1.83-.35,4.42-.95,4.1-3.41-.76-5.89-11.67-.64-14.42.55l1.81,3.23c1.41-1.36,10.06-1.81,6.28-6-2.75-3.05-7.6,1-8.83,3.58l3,1.84c.88-2.5-.27-8.79-3.66-9.19-4.32-.52-1.37,7.42-.7,9.11.79,2,3.69,1.55,2.79-.73Z"/><path class="cls-4" d="M230.4,80c2-.42,1.87-2.68-.47-2.61-5.74.18-21.54-2.11-31.52-6.53-2.15-.95-1.47.65-1.21,1C198.05,73.1,219.47,82.21,230.4,80Z"/><path class="cls-7" d="M376.12,110.8a13.18,13.18,0,0,0,2.42-4.5l.27-.41-.55-.29s-.13,1.31-.18,1.5a4.66,4.66,0,0,1-2.61,3.17c-.56.21-2,1.27-.64,1.49a12.52,12.52,0,0,0,6.42-.91c1.31-.48,2.68-1,2.24-2.72-.37-1.39-2.26-.87-3.37-.6a9.2,9.2,0,0,0-2.39,1c-.91.51-1.71,1.51-2.66,1.85-.45.16-1.87.93-.91,1.42a5,5,0,0,1,2.64,3.49l1.6-1.23c-1.22.21-2-3.74-2.13-4.47-.2-.93-3.09-.12-2.86.9.59,2.61,1.38,5.71,4.65,5.13.47-.08,1.77-.51,1.6-1.23a5.86,5.86,0,0,0-3.25-4.06l-.91,1.42c1.61-.57,2.82-2.14,4.39-2.59.58-.16.52-.35.74-.09s0,.39-.13.57c-.76.76-3.05.7-3.95.55l-.65,1.49a8.07,8.07,0,0,0,4.45-3.54c.58-1,1.57-3.51,0-4.12-1.36-.54-3.11.66-3.94,1.62-1.35,1.55-1.66,3.71-3,5.29-.46.55.46.76.81.77a2.42,2.42,0,0,0,1.88-.86Z"/><path class="cls-6" d="M267.29,308.72a38.58,38.58,0,0,1,.84,7.72c0,1.72,4.18,1.91,4.88.64.89-1.63,1.73-3.3,2.69-4.9a10.61,10.61,0,0,1,1.76-2.24l.71-.46-.42-.09a4,4,0,0,1,.11,1.71,5.42,5.42,0,0,1-2.73,3.72,7.72,7.72,0,0,0-1,.41c-.41.06-.32.1.27.13.35.23.56.17.63-.17.76-.62.94-1.73,2.15-1.89l-3-1.74c-.29.67-.57,1.51-1.33,1.76l1.79-.26-.49,0,2.3,1.74a8.59,8.59,0,0,1,2.72-3.68c1.75-1.38-3-2.53-4.23-1.54a10.26,10.26,0,0,0-3.26,4.25c-.5,1.23,1.49,1.7,2.31,1.73a4.6,4.6,0,0,0,5-3c.62-1.43-2.1-1.85-3-1.73a7.44,7.44,0,0,0-5.28,2.67c-1,1.36-1.42,2.91.31,3.74,3.5,1.69,8.46.08,10.67-3,1-1.39,1.71-3.55.93-5.2-.87-1.81-3.39-2.27-5.17-2.16-5.17.3-7.05,5.3-9.2,9.24l4.88.64a41.61,41.61,0,0,0-1-8.39c-.33-1.55-5.28-1.6-4.85.36Z"/><path class="cls-6" d="M218.07,333.72c.14,2.59-.87,4.35-1.88,6.66-.89,2,3.66,2.7,4.71,1.47s2.47-3.12,4.23-3.7a1.68,1.68,0,0,1,1.72.12c1,.94-.1,1.89-1,2.27a8.5,8.5,0,0,1-2.74.49c-.58,0-2.7.07-.87.67a9,9,0,0,0,2.7-.29,19.08,19.08,0,0,0,2.93-.37c3.94-1.06,1.19-4.74-1.58-5.2-3.54-.58-5.44,2.26-8.19,3.81-1.06.6-.31,1.89.4,2.38a3.31,3.31,0,0,0,3.47.15,21.18,21.18,0,0,0,2.81-2.1c.09-.07,1.4-.87,1.42-.92.63-1.76-1.86-1.19-2.38-1.14-1.89.2-5,0-6.21,1.82s.47,3.47,2.07,4.1c2.2.86,5.08.6,7.33.13,2-.42,4.64-1.41,5.06-3.71.39-2.14-1.37-4-3.15-4.9-5.09-2.48-9.39.72-12.59,4.51l4.71,1.47c1.18-2.71,2-4.52,1.89-7.55-.11-2.07-5-2.62-4.9-.17Z"/></g><g id="Layer_2" data-name="Layer 2"><path class="cls-8" d="M258.38,55.59c-1.74,2.68-4.86,8.06-1.75,10.85,2.87,2.58,7.06,2.57,8.09-1.56.91-3.69.52-7.11-3.55-8.3-1.52-.45-2.62-.29-3.36,1.2a28.41,28.41,0,0,0-2,7.65c-.21,1.26,4.29,3,4.55,2.07.51-1.82-2.35-2.78-3.68-3.09-.35-.08-1.16-.31-1.41.11-1.61,2.63,2.31,5,4.7,4.59,1.59-.29,1.53-1.81,1.64-3.15.19-2.56.36-5.12.54-7.68.08-1.14-3.47-2.9-4.38-2.22a6.6,6.6,0,0,0-2.69,4.84c-.17,1.54-.42,3.86.56,5.14a5.11,5.11,0,0,0,4.12,1.77c1.86-.39,1.29-3.45,1.11-4.86-.13-1-3.85-2.81-4.56-1.85-2.83,3.86,3.17,6.66,6.27,6.7l-4.07-2.3a1.45,1.45,0,0,1-1.21,1.15l3.23,1.16-.37-.25.85.9c-.52-1.77-1.35-8.64,1.67-8.9L260.54,59c-1.16-.48-.55-.77-.73.25-.09.55.08,1.6.05,2.07-.06.69-.4,3.53-1.47,3.48l3.51,1.77c-1.7-2.56-.51-6.32,1.1-8.58l-3.19-.62a2.44,2.44,0,0,1,.59,1.33c.28,1.08,4.63,2.83,4.56,1.62l-.22-3.86c-.05-.94-2.5-1.83-3.14-1.95-1.5-.29-2.42-.2-3.39,1.09-1.29,1.72-2.11,4-3.08,6l4.55,2.07.12-2.39c.05-1.15-3.84-3.13-4.55-2.07a6.72,6.72,0,0,0,0,7.52c.6,1,5,2.36,4.26,1.06a5.91,5.91,0,0,1,.32-6.51l-4.55-2.07-.12,2.39c-.06,1.13,4,3.17,4.55,2.07,1-1.89,2.22-6.14,4.34-6.88l-1.24,0,.55.11-3.15-2,.22,3.86L265,60.34a6.13,6.13,0,0,0-3.31-3.79c-.51-.28-2.64-1.4-3.2-.62-2.51,3.53-3.13,10.08,2.18,11.27,4.19.94,5-6,2.7-8.32-1.08-1.08-3.47-2.27-5-1.75-2.17.71-2.33,3.9-2.31,5.8,0,2.34,0,4.2,2.19,5.4,1.88,1,3.84,1.42,4.88-.76.56-1.18-3.41-2.28-4.08-2.29,1.15.44,1.57.11,1.27-1a2.64,2.64,0,0,1,.61-1.11l-4.55-1.84c.05.43.54,3.91-.34,4l3.93,1.79c-.79-.94-.37-3.81-.16-4.91A5.92,5.92,0,0,1,262,58.44l-4.38-2.23c-.06.82-.86,10.46-.93,10.44l3,1.68a1.34,1.34,0,0,1,.16-1.74l-1.41.11.42.09-3-1.67,0,.31,4.55,2.07c.17-1,1.4-8.79,2.78-8.62l-2.81-1.15c.76.49.16,3.43,0,4.27-.23,1.32-.82,4-2.74,3.7l2.29.83c.51.28.05-.77,0-1.08a8.08,8.08,0,0,1,.58-2.83,21.58,21.58,0,0,1,2.44-5c.52-.8-3.84-3.17-4.55-2.07Z"/><path class="cls-8" d="M317,56.05c-2.52,2.46-4.33,6.59-2.8,10s6.39,4.34,7.63.29a15.42,15.42,0,0,0,.34-5.86,4.12,4.12,0,0,0-3.46-3.58c-4.16-.48-5.49,5.18-4.8,8.23a3.17,3.17,0,0,0,2.58,2.42c6.26.35,5.33-10.85,0-9.76-5,1-6.16,9.18-1.73,11.52A3.74,3.74,0,0,0,320,67.48c1.07-2.12,2.15-5.68,1.12-8a4.77,4.77,0,0,0-5.82-2.65c-2.68,1-3.09,3.87-3.08,6.38l4.36,1.09a2.6,2.6,0,0,1,.32-2.23,3,3,0,0,1,.72-.78c.37-.26,1-.26.31-.46l-1.53-1.18c-.36-.43,0-.42,0,.21a8.26,8.26,0,0,1-.06,1.72,7.79,7.79,0,0,1-1.12,2.81c-1.16,1.94,2.83,4.84,4.18,2.59,1.69-2.82,2.73-9.42-1.8-10.31-3.81-.75-6.17,3.92-5.33,7.08a3.19,3.19,0,0,0,2.3,2.34c.88.21,2.06-.14,2.06-1.26a8,8,0,0,1,.17-2.54c.2-.61.7-.84.93-1.29.82-.12.63-.45-.59-1a4.47,4.47,0,0,1-.19,1.31,21.76,21.76,0,0,1-.66,2.36c-.16.5-.64,1.12-.73,1.59-.6.37-.36.61.73.71a1.94,1.94,0,0,1,0-.76c.4-1,1-3.07,2.41-3.19l-1.66-.41c-.86-.47-.65-1.73-.72-.09,0,.41,0,1.78-.75,1.74l2.58,2.41a4.51,4.51,0,0,1,.17-2.81,3.87,3.87,0,0,1,.65-1.13c.81-.89.6.08-.45-1l-.93-1.59a9.86,9.86,0,0,1,.06,3.21c0,.67-.23,1.29-.28,1.93l-.32.39c.79.88,1.11,1,1,.46,0,0,.07-1.38.06-1.3a6.81,6.81,0,0,1,.49-1.59,8.52,8.52,0,0,1,2-2.85c1.71-1.68-1.92-5.12-3.65-3.42Z"/><path class="cls-8" d="M212.83,206.64c-.14,3.53.13,7.56,3.74,9.29,2.7,1.3,6.53.87,8.4-1.63s1.5-6.27.23-8.78c-1.51-3-5.51-3.74-8.31-2.18-2.27,1.27-4,4.4-3,7,1.11,2.84,5,3,7.39,1.7s3.41-4.55.82-6.36a6.91,6.91,0,0,0-8.18.68c-2.29,2.33-1.32,7,2.29,7.22a4.2,4.2,0,0,0,3.34-7.13c-1.14-1.27-3.91-.9-4.79.5-1.43,2.26-2.53,5.51.58,6.88,2.1.92,5.41.59,6.47-1.68.79-1.68-4.11-1.8-4.87-.19,1.73.18,2.21-.05,1.45-.68a2.46,2.46,0,0,1,0-1.67,8.77,8.77,0,0,1,1.27-2.47l-4.8.5c1,1.16,1.41,2.79.24,4l1.43-.76-.55.15,2.87.31c-1-.61-1.83-2.62-.83-3.67.26-.26.24-.34,0-.24a1.67,1.67,0,0,1,.69.75,3.64,3.64,0,0,1-.36,1.87c.67.09.87,0,.61-.34a1.36,1.36,0,0,1-.24-.69,3.48,3.48,0,0,1,.07-1.54,4.8,4.8,0,0,1,.57-1.41,4.17,4.17,0,0,1,.69-.83c-.44.16-.46.36-.07.6,1.09,1.6,2.28,5.72.7,7.48-1.07,1.19-2.22-1.27-2.51-2.32a16,16,0,0,1-.28-4.88c.07-1.7-4.89-1.38-5,.52Z"/><path class="cls-8" d="M190.47,214.53a42,42,0,0,0-.5,8.15c.1,2.09.68,3.72,3,4.14,4.65.86,6.84-4,7.1-7.84.27-3.95-1.8-8.48-6.55-7-4.58,1.4-5.19,7.84-4.88,11.83.16,2.15,3.57,1.73,4.67.76a10.23,10.23,0,0,0,3-10.42c-.46-1.78-5-1.51-4.9.49l.23,5c.1,2.2,5.1,2.11,5-.06l-.23-5-4.91.49a7.87,7.87,0,0,1-2.56,7.92l4.67.76a15.35,15.35,0,0,1,.88-7.14,13.7,13.7,0,0,0,.71-1.31l-.85-.42a2.81,2.81,0,0,1,.4.86,8.51,8.51,0,0,1,.29,3.33,10,10,0,0,1-.72,3.14c-.31.75-1.09,1.25,0,1.22s.66-.32.63-1.2a44.49,44.49,0,0,1,.51-7.74c.31-2.06-4.66-2.15-5,.06Z"/><path class="cls-8" d="M114.31,372.83c0,1.65-.21,3.47.56,5a4.85,4.85,0,0,0,4.68,2.54,3,3,0,0,0,2.82-3.21,5,5,0,0,0-.84-2.29c-.32-.51-.91-1-1-1.65l-.67,1.27.17-.14-1.05.36.22,0-1.27-.14.23.06L117,374c-.37-.28-.2-.48-.22.07a6,6,0,0,0,.12,1l.21,1.89a2.73,2.73,0,0,0,2.54,2.15c1,.1,2.49-.37,2.35-1.62-.21-1.86,0-4.5-1.63-5.78s-5.4-1.07-4.61,1.79a7.43,7.43,0,0,0,1.2,2.21c.19.28.3.57.47.84.06.09,0,.36,0,.35-.4-.45,2.17-.32,1.92.18,0,0-.17-.67-.18-.76-.09-1,0-2,0-3,0-2.33-4.88-3.17-4.89-.53Z"/><path class="cls-8" d="M87,376.86c-.16,2.05-.78,4.7.82,6.36s4.49,1.08,5.88-.66c2.46-3.07.3-9.73-4.34-7.85-2,.84-3,2.84-3.49,4.85-.45,1.74-.72,3.78.36,5.34,1.31,1.9,4,1.79,5.67.47,2-1.55,2.15-3.82,1.66-6.12-.58-2.75-5.28-1.17-4.75,1.35a11.81,11.81,0,0,0,.22,1.9c1.23.23,1.67.1,1.33-.4a4.88,4.88,0,0,1-.12-.75,6.46,6.46,0,0,1,.27-1.57c.08-.29.55-1.13.5-1.38.36-.53-.15-.51-1.51.06a1.57,1.57,0,0,1,.18.31,8.22,8.22,0,0,0,.24,1.76c1.43.26,2,0,1.65-.75a4,4,0,0,1,0-.91c0-.76.12-1.52.18-2.28.24-3-4.56-2.28-4.77.27Z"/><path class="cls-9" d="M314,68.39c5,0,5.7-10,.75-10s-5.7,10-.75,10Z"/><path class="cls-9" d="M256.77,65.64c4.78,0,6.61-9.77,1.26-9.77-4.77,0-6.61,9.77-1.26,9.77Z"/><path class="cls-9" d="M220.6,210.57c4.82,0,8.72-8.48,2.5-8.48-4.82,0-8.72,8.48-2.5,8.48Z"/><path class="cls-9" d="M199.1,219.66a3.38,3.38,0,0,0,3.4-4.24c-.72-2.5-3.68-3.55-6-3.55a3.38,3.38,0,0,0-3.4,4.24c.73,2.5,3.69,3.55,6,3.55Z"/><path class="cls-9" d="M116.09,377l.24,2,3.76-2.16a1.53,1.53,0,0,1,.42.42c-.25-.37.11.34,0,.06s0,.32,0,.41c0,.32,0,0,.07-.16l-2.41,1.83c.5,0-.5-.19,0,0l-.31-.14.14.07c.18.12.19.12,0,0s-.16-.13,0,0c.33.3-.2-.3,0-.06s-.09-.06,0-.09-.06.66.07.13-.11.09,0,.14l0-.35c-.08.26,0,.21.09-.14a2.5,2.5,0,1,0,4.31,2.52,4.88,4.88,0,0,0-4.27-7.07,2.58,2.58,0,0,0-2.41,1.84,4.29,4.29,0,0,0,1.78,4.92,2.51,2.51,0,0,0,3.76-2.16l-.24-2a2.55,2.55,0,0,0-2.5-2.5c-1.22.05-2.66,1.11-2.5,2.5Z"/><path class="cls-9" d="M87,382.79a3.9,3.9,0,1,0,7.07-3c-1.56-2.5-4.73-1.27-6.09.7a4.76,4.76,0,0,0-.17,5.21,2.5,2.5,0,0,0,4.32-2.52c-.11-.16-.27-.58,0,0-.16-.42.06.42,0,.12-.08-.54.08.1,0,.11a.86.86,0,0,1,.06-.23c.06-.18,0-.11-.1.22l.08-.14c.11-.18.11-.19,0,0s-.13.17,0,0l.11-.11c-.28.2-.34.25-.19.15l.21-.11-.3.14c.27-.06.2-.05-.19,0L90,382.65a1.46,1.46,0,0,1-.29-.55c.13.38,0-.23,0-.34s0-.22,0-.08,0,.11,0-.07a1.51,1.51,0,0,1,.48-.59,1.22,1.22,0,0,1,1.24,0c-.35-.18.09.08.19.22s.26.64.18.25a2.53,2.53,0,0,0-3.08-1.75A2.57,2.57,0,0,0,87,382.79Z"/><path class="cls-10" d="M177.11,55c3.86,0,3.87-6,0-6s-3.87,6,0,6Z"/><path class="cls-11" d="M147.41,37.53c15.44,0,15.47-24,0-24s-15.47,24,0,24Z"/><path class="cls-12" d="M102.34,64c15.45,0,15.47-24,0-24s-15.46,24,0,24Z"/><path class="cls-13" d="M119.1,20.71c5.79,0,5.8-9,0-9s-5.8,9,0,9Z"/><path class="cls-14" d="M144,61.56c7.72,0,7.74-12,0-12s-7.73,12,0,12Z"/><path class="cls-15" d="M55.15,43.53c9.42,0,18.44-8.28,18-18s-7.91-18-18-18c-9.41,0-18.43,8.28-18,18s7.91,18,18,18Z"/><path class="cls-16" d="M40.51,467.45a25.38,25.38,0,0,0,0,6.22c.33,2.57,1.58,5.07,1.18,7.66-.16,1.1,1.61.64,2,.24,1-1,1.59-3.37.28-4.54a1.35,1.35,0,0,0,1.32,0c3-1.6-.3-4.15-2.11-4.92-1.59-.68-4.42.55-2.73,2.52.92,1.08,2.41.62,3.57.41s2.67-.12,3.41-1.3c1.89-3-2.44-4.1-4.49-4-.48,0-1.35.46-1.18,1.09.33,1.17.32,2.55,1.83,2.65a1.63,1.63,0,0,0,1.81-1.54.82.82,0,0,0-1-.71A5.93,5.93,0,0,0,40,473.66a2.77,2.77,0,0,0-.55,1.68c.08.93,1.41,1.55,1.27,2.38l2.18-.38a18.9,18.9,0,0,1,.2-10.36c.3-1-1.92-.77-2.2.17a19.62,19.62,0,0,0-.17,10.77c.26,1,2,.44,2.19-.37a1.22,1.22,0,0,0,0-.89l-.33-.48q-2-1.47,1.62-3.37l-1-.71c.78-.12,1.09-.45.93-1a3,3,0,0,0-.2-.89l-1.18,1.09c.91,0,4,.82,1.9,2-.55.32-2.19-.32-2.18-.33l-1.34.24c.28.1,3.62,2.28,3.2,2.51h1.32a2,2,0,0,0-2.51-.19c-2.08,1.28.22,3.85-1.26,5.34l2,.24c.33-2.2-.41-4-.87-6.1a23.16,23.16,0,0,1-.28-7.79c.14-1.1-2.08-.81-2.2.17Z"/></g></svg>