<?xml version="1.0" encoding="utf-8"?>
<svg version="1.1" width="90px" height="90px" xmlns:xlink="http://www.w3.org/1999/xlink" xmlns="http://www.w3.org/2000/svg">
  <defs>
    <linearGradient gradientUnits="userSpaceOnUse" x1="9.32580821917807" y1="4.54308370044054" x2="85.2" y2="65.9999999999999" id="LinearGradient3866">
      <stop id="Stop3867" stop-color="#c3fafd" offset="0" />
      <stop id="Stop3868" stop-color="#98f9dc" offset="1" />
    </linearGradient>
    <mask fill="white" id="clip3869">
      <path d="M 0 45  C 0 30.9973948899245  6.11338562515828 18.6620767685285  15.8696424513853 10.4645600599016  C 23.6713807330839 3.90929188075391  33.8026051100755 0  45 0  C 55.8274102465876 0  65.6579428346046 3.6552180814258  73.3494175127279 9.82347399295438  C 83.5592837346405 18.011379474637  90 30.6274102465876  90 45  C 90 70.2  70.2 90  45 90  C 19.8 90  0 70.2  0 45  Z " fill-rule="evenodd" />
    </mask>
  </defs>
  <g transform="translate(-3 -2 )">
    <path d="M 0 45  C 0 30.9973948899245  6.11338562515828 18.6620767685285  15.8696424513853 10.4645600599016  C 23.6713807330839 3.90929188075391  33.8026051100755 0  45 0  C 55.8274102465876 0  65.6579428346046 3.6552180814258  73.3494175127279 9.82347399295438  C 83.5592837346405 18.011379474637  90 30.6274102465876  90 45  C 90 70.2  70.2 90  45 90  C 19.8 90  0 70.2  0 45  Z " fill-rule="nonzero" fill="url(#LinearGradient3866)" stroke="none" transform="matrix(1 0 0 1 3 2 )" />
    <path d="M 0 45  C 0 30.9973948899245  6.11338562515828 18.6620767685285  15.8696424513853 10.4645600599016  C 23.6713807330839 3.90929188075391  33.8026051100755 0  45 0  C 55.8274102465876 0  65.6579428346046 3.6552180814258  73.3494175127279 9.82347399295438  C 83.5592837346405 18.011379474637  90 30.6274102465876  90 45  C 90 70.2  70.2 90  45 90  C 19.8 90  0 70.2  0 45  Z " stroke-width="6" stroke="#98f9fc" fill="none" transform="matrix(1 0 0 1 3 2 )" mask="url(#clip3869)" />
  </g>
</svg>