<?xml version="1.0" encoding="utf-8"?>
<svg version="1.1" width="41px" height="41px" xmlns:xlink="http://www.w3.org/1999/xlink" xmlns="http://www.w3.org/2000/svg">
  <defs>
    <mask fill="white" id="clip1010">
      <path d="M 36.9606103619588 1.40589488636364  C 37.0218831322451 1.76503314393939  36.9649869884079 2.1110321969697  36.7899219304471 2.44389204545455  L 19.9836763662172 36.0802556818182  C 19.6860657676839 36.6934185606061  19.1871303524959 37  18.4868701206529 37  C 18.3993375916726 37  18.268038798202 36.9824810606061  18.0929737402413 36.9474431818182  C 17.7078306127277 36.8598484848485  17.3970901348474 36.6627604166667  17.1607523066004 36.3561789772727  C 16.9244144783534 36.0495975378788  16.80624556423 35.7035984848485  17 35.3181818181818  L 17 20  L 1.680624556423 20  C 1.29548142890939 20.1818181818182  0.949727939436953 20.0635653409091  0.643364088005678 19.8270596590909  C 0.337000236574403 19.5905539772727  0.140052046368583 19.2795928030303  0.0525195173882186 18.8941761363636  C -0.0350130115921457 18.508759469697  0 18.1408617424242  0.157558552164656 17.7904829545455  C 0.315117104329312 17.4401041666667  0.568961438372368 17.1773200757576  0.919091554293826 17.0021306818182  L 34.5315826827537 0.183948863636365  C 34.7591672581027 0.0613162878787855  35.0130115921457 0  35.2931156848829 0  C 35.7657913413769 0  36.1596877217885 0.166429924242421  36.4748048261178 0.499289772727275  C 36.7374024130589 0.744554924242421  36.8993375916726 1.04675662878788  36.9606103619588 1.40589488636364  Z " fill-rule="evenodd" />
    </mask>
    <filter x="-50%" y="-50%" width="200%" height="200%" filterUnits="objectBoundingBox" id="filter1011">
      <feOffset dx="1" dy="2" in="SourceAlpha" result="shadowOffsetInner" />
      <feGaussianBlur stdDeviation="1" in="shadowOffsetInner" result="shadowGaussian" />
      <feComposite in2="shadowGaussian" operator="atop" in="SourceAlpha" result="shadowComposite" />
      <feColorMatrix type="matrix" values="0 0 0 0 0  0 0 0 0 0  0 0 0 0 0  0 0 0 0.313725490196078 0  " in="shadowComposite" />
    </filter>
    <g id="widget1012">
      <path d="M 36.9606103619588 1.40589488636364  C 37.0218831322451 1.76503314393939  36.9649869884079 2.1110321969697  36.7899219304471 2.44389204545455  L 19.9836763662172 36.0802556818182  C 19.6860657676839 36.6934185606061  19.1871303524959 37  18.4868701206529 37  C 18.3993375916726 37  18.268038798202 36.9824810606061  18.0929737402413 36.9474431818182  C 17.7078306127277 36.8598484848485  17.3970901348474 36.6627604166667  17.1607523066004 36.3561789772727  C 16.9244144783534 36.0495975378788  16.80624556423 35.7035984848485  17 35.3181818181818  L 17 20  L 1.680624556423 20  C 1.29548142890939 20.1818181818182  0.949727939436953 20.0635653409091  0.643364088005678 19.8270596590909  C 0.337000236574403 19.5905539772727  0.140052046368583 19.2795928030303  0.0525195173882186 18.8941761363636  C -0.0350130115921457 18.508759469697  0 18.1408617424242  0.157558552164656 17.7904829545455  C 0.315117104329312 17.4401041666667  0.568961438372368 17.1773200757576  0.919091554293826 17.0021306818182  L 34.5315826827537 0.183948863636365  C 34.7591672581027 0.0613162878787855  35.0130115921457 0  35.2931156848829 0  C 35.7657913413769 0  36.1596877217885 0.166429924242421  36.4748048261178 0.499289772727275  C 36.7374024130589 0.744554924242421  36.8993375916726 1.04675662878788  36.9606103619588 1.40589488636364  Z " fill-rule="nonzero" fill="#98f9fc" stroke="none" transform="matrix(1 0 0 1 237 200 )" />
      <path d="M 36.9606103619588 1.40589488636364  C 37.0218831322451 1.76503314393939  36.9649869884079 2.1110321969697  36.7899219304471 2.44389204545455  L 19.9836763662172 36.0802556818182  C 19.6860657676839 36.6934185606061  19.1871303524959 37  18.4868701206529 37  C 18.3993375916726 37  18.268038798202 36.9824810606061  18.0929737402413 36.9474431818182  C 17.7078306127277 36.8598484848485  17.3970901348474 36.6627604166667  17.1607523066004 36.3561789772727  C 16.9244144783534 36.0495975378788  16.80624556423 35.7035984848485  17 35.3181818181818  L 17 20  L 1.680624556423 20  C 1.29548142890939 20.1818181818182  0.949727939436953 20.0635653409091  0.643364088005678 19.8270596590909  C 0.337000236574403 19.5905539772727  0.140052046368583 19.2795928030303  0.0525195173882186 18.8941761363636  C -0.0350130115921457 18.508759469697  0 18.1408617424242  0.157558552164656 17.7904829545455  C 0.315117104329312 17.4401041666667  0.568961438372368 17.1773200757576  0.919091554293826 17.0021306818182  L 34.5315826827537 0.183948863636365  C 34.7591672581027 0.0613162878787855  35.0130115921457 0  35.2931156848829 0  C 35.7657913413769 0  36.1596877217885 0.166429924242421  36.4748048261178 0.499289772727275  C 36.7374024130589 0.744554924242421  36.8993375916726 1.04675662878788  36.9606103619588 1.40589488636364  Z " stroke-width="4" stroke="#797979" fill="none" transform="matrix(1 0 0 1 237 200 )" mask="url(#clip1010)" />
    </g>
  </defs>
  <g transform="translate(-236 -200 )">
    <use xlink:href="#widget1012" filter="url(#filter1011)" />
    <use xlink:href="#widget1012" />
  </g>
</svg>