<?xml version="1.0" encoding="utf-8"?>
<svg version="1.1" width="26px" height="26px" xmlns:xlink="http://www.w3.org/1999/xlink" xmlns="http://www.w3.org/2000/svg">
  <defs>
    <mask fill="white" id="clip3858">
      <path d="M 21.9765791341377 0.835937499999999  C 22.0130115921457 1.04947916666666  21.9791814525668 1.25520833333333  21.875088715401 1.453125  L 11.8821859474805 21.453125  C 11.7052282942986 21.8177083333333  11.4085639933759 22  10.9921930447126 22  C 10.9401466761296 22  10.8620771232553 21.9895833333333  10.7579843860894 21.96875  C 10.5289803643246 21.9166666666667  10.3442157558552 21.7994791666667  10.2036905606813 21.6171875  C 10.0631653655075 21.4348958333333  9.99290276792051 21.2291666666667  9.99290276792051 21  L 9.99290276792051 12  L 0.999290276792051 12  C 0.770286255027206 12  0.564703099124675 11.9296875  0.382540809084457 11.7890625  C 0.200378519044239 11.6484375  0.0832741897326709 11.4635416666667  0.0312278211497516 11.234375  C -0.0208185474331677 11.0052083333333  0 10.7864583333333  0.0936834634492548 10.578125  C 0.18736692689851 10.3697916666667  0.338301395788976 10.2135416666667  0.546486870120653 10.109375  L 20.5322924059617 0.109375000000001  C 20.6676129642773 0.0364583333333319  20.8185474331677 0  20.9850958126331 0  C 21.2661462029808 0  21.500354861604 0.0989583333333313  21.6877217885025 0.296875000000001  C 21.8438608942512 0.442708333333331  21.9401466761296 0.622395833333331  21.9765791341377 0.835937499999999  Z " fill-rule="evenodd" />
    </mask>
    <filter x="-50%" y="-50%" width="200%" height="200%" filterUnits="objectBoundingBox" id="filter3859">
      <feOffset dx="1" dy="2" in="SourceAlpha" result="shadowOffsetInner" />
      <feGaussianBlur stdDeviation="1" in="shadowOffsetInner" result="shadowGaussian" />
      <feComposite in2="shadowGaussian" operator="atop" in="SourceAlpha" result="shadowComposite" />
      <feColorMatrix type="matrix" values="0 0 0 0 0  0 0 0 0 0  0 0 0 0 0  0 0 0 0.313725490196078 0  " in="shadowComposite" />
    </filter>
    <g id="widget3860">
      <path d="M 21.9765791341377 0.835937499999999  C 22.0130115921457 1.04947916666666  21.9791814525668 1.25520833333333  21.875088715401 1.453125  L 11.8821859474805 21.453125  C 11.7052282942986 21.8177083333333  11.4085639933759 22  10.9921930447126 22  C 10.9401466761296 22  10.8620771232553 21.9895833333333  10.7579843860894 21.96875  C 10.5289803643246 21.9166666666667  10.3442157558552 21.7994791666667  10.2036905606813 21.6171875  C 10.0631653655075 21.4348958333333  9.99290276792051 21.2291666666667  9.99290276792051 21  L 9.99290276792051 12  L 0.999290276792051 12  C 0.770286255027206 12  0.564703099124675 11.9296875  0.382540809084457 11.7890625  C 0.200378519044239 11.6484375  0.0832741897326709 11.4635416666667  0.0312278211497516 11.234375  C -0.0208185474331677 11.0052083333333  0 10.7864583333333  0.0936834634492548 10.578125  C 0.18736692689851 10.3697916666667  0.338301395788976 10.2135416666667  0.546486870120653 10.109375  L 20.5322924059617 0.109375000000001  C 20.6676129642773 0.0364583333333319  20.8185474331677 0  20.9850958126331 0  C 21.2661462029808 0  21.500354861604 0.0989583333333313  21.6877217885025 0.296875000000001  C 21.8438608942512 0.442708333333331  21.9401466761296 0.622395833333331  21.9765791341377 0.835937499999999  Z " fill-rule="nonzero" fill="#0a122a" stroke="none" transform="matrix(1 0 0 1 71 72 )" />
      <path d="M 21.9765791341377 0.835937499999999  C 22.0130115921457 1.04947916666666  21.9791814525668 1.25520833333333  21.875088715401 1.453125  L 11.8821859474805 21.453125  C 11.7052282942986 21.8177083333333  11.4085639933759 22  10.9921930447126 22  C 10.9401466761296 22  10.8620771232553 21.9895833333333  10.7579843860894 21.96875  C 10.5289803643246 21.9166666666667  10.3442157558552 21.7994791666667  10.2036905606813 21.6171875  C 10.0631653655075 21.4348958333333  9.99290276792051 21.2291666666667  9.99290276792051 21  L 9.99290276792051 12  L 0.999290276792051 12  C 0.770286255027206 12  0.564703099124675 11.9296875  0.382540809084457 11.7890625  C 0.200378519044239 11.6484375  0.0832741897326709 11.4635416666667  0.0312278211497516 11.234375  C -0.0208185474331677 11.0052083333333  0 10.7864583333333  0.0936834634492548 10.578125  C 0.18736692689851 10.3697916666667  0.338301395788976 10.2135416666667  0.546486870120653 10.109375  L 20.5322924059617 0.109375000000001  C 20.6676129642773 0.0364583333333319  20.8185474331677 0  20.9850958126331 0  C 21.2661462029808 0  21.500354861604 0.0989583333333313  21.6877217885025 0.296875000000001  C 21.8438608942512 0.442708333333331  21.9401466761296 0.622395833333331  21.9765791341377 0.835937499999999  Z " stroke-width="2" stroke="#0a122a" fill="none" transform="matrix(1 0 0 1 71 72 )" mask="url(#clip3858)" />
    </g>
  </defs>
  <g transform="translate(-70 -72 )">
    <use xlink:href="#widget3860" filter="url(#filter3859)" />
    <use xlink:href="#widget3860" />
  </g>
</svg>