<?xml version="1.0" encoding="utf-8"?>
<svg version="1.1" width="34px" height="28px" xmlns:xlink="http://www.w3.org/1999/xlink" xmlns="http://www.w3.org/2000/svg">
  <g transform="translate(-26 -9 )">
    <path d="M 29.1127633209418 15.5398285268901  C 29.1268071045023 15.5680956092492  29.1338289962825 15.6104962327878  29 15.6670303975059  L 29 25.8431800467654  C 29.1338289962825 26.2106521174331  29.0004130524577 26.5286567939725  28.7335811648079 26.7971940763836  C 28.4667492771582 27.0657313587946  28.1507641470467 27.2  27.7856257744734 27.2  L 19.6964064436183 27.2  L 19.6964064436183 19.0590802805924  L 14.3035935563817 19.0590802805924  L 14.3035935563817 27.2  L 6.21437422552663 27.2  C 5.84923585295334 27.2  5.53325072284179 27.0657313587946  5.26641883519207 26.7971940763836  C 4.99958694754235 26.5286567939725  4.86617100371748 26.2106521174331  5 25.8431800467654  L 5 15.6670303975059  C 4.86617100371748 15.6528968563264  4.86968194960761 15.631696544557  4.87670384138784 15.6034294621979  C 4.88372573316812 15.575162379839  4.88723667905825 15.5539620680696  4.88723667905825 15.5398285268901  L 17 5.49088074824624  L 29.1127633209418 15.5398285268901  Z M 33.9789343246592 13.7060015588464  C 33.9929781082197 13.8968043647701  33.943824865758 14.0628734736296  33.8314745972738 14.2042088854248  L 32.5254027261462 15.7730319563523  C 32.4130524576621 15.900233826968  32.2655927302768 15.9779683034554  32.0830235439901 16.0062353858145  L 32.0198265179678 16.0062353858145  C 31.8372573316811 16.0062353858145  31.6897976042957 15.9567679916862  31.5774473358117 15.8578332034296  L 17 3.62525331254869  L 2.42255266418834 15.8578332034296  C 2.2540272614622 15.9709015328657  2.08550185873605 16.020368926994  1.91697645600993 16.0062353858145  C 1.73440726972325 15.9779683034554  1.5869475423379 15.900233826968  1.47459727385379 15.7730319563523  L 0.168525402726146 14.2042088854248  C 0.0561751342420393 14.0628734736296  0.00702189178025492 13.8968043647701  0.0210656753407648 13.7060015588464  C 0.0351094589012746 13.5151987529229  0.112350268484107 13.363263185243  0.252788104089234 13.2501948558067  L 15.3990086741016 0.551208106001582  C 15.848409748038 0.183736035333823  16.3820735233375 0  17 0  C 17.6179264766625 0  18.151590251962 0.183736035333823  18.6009913258984 0.551208106001582  L 23.7410161090459 4.87607170693684  L 23.7410161090459 0.742010911925149  C 23.7410161090459 0.544141335411837  23.8042131350682 0.381605611847249  23.9306071871128 0.254403741231499  C 24.0570012391574 0.12720187061575  24.2185047501033 0.063600935307818  24.4151177199504 0.063600935307818  L 28.459727385378 0.063600935307818  C 28.6563403552251 0.063600935307818  28.817843866171 0.12720187061575  28.9442379182156 0.254403741231499  C 29.0706319702602 0.381605611847249  29.1338289962825 0.544141335411837  29.1338289962825 0.742010911925149  L 29.1338289962825 9.39173811379578  L 33.7472118959108 13.2501948558067  C 33.8876497315159 13.363263185243  33.9648905410987 13.5151987529229  33.9789343246592 13.7060015588464  Z " fill-rule="nonzero" fill="#ffffff" stroke="none" fill-opacity="0.996078431372549" transform="matrix(1 0 0 1 26 9 )" />
  </g>
</svg>