<?xml version="1.0" encoding="utf-8"?>
<svg version="1.1" width="20px" height="20px" xmlns:xlink="http://www.w3.org/1999/xlink" xmlns="http://www.w3.org/2000/svg">
  <defs>
    <filter x="-50%" y="-50%" width="200%" height="200%" filterUnits="objectBoundingBox" id="filter3933">
      <feOffset dx="1" dy="1" in="SourceAlpha" result="shadowOffsetInner" />
      <feGaussianBlur stdDeviation="2.5" in="shadowOffsetInner" result="shadowGaussian" />
      <feComposite in2="shadowGaussian" operator="atop" in="SourceAlpha" result="shadowComposite" />
      <feColorMatrix type="matrix" values="0 0 0 0 0  0 0 0 0 0  0 0 0 0 0  0 0 0 0.349019607843137 0  " in="shadowComposite" />
    </filter>
    <g id="widget3934">
      <path d="M 5 0  C 7.8 0  10 2.2  10 5  C 10 7.8  7.8 10  5 10  C 2.2 10  0 7.8  0 5  C 0 2.2  2.2 0  5 0  Z " fill-rule="nonzero" fill="#98f9fc" stroke="none" />
      <path d="M 5 0.5  C 7.52 0.5  9.5 2.48  9.5 5  C 9.5 7.52  7.52 9.5  5 9.5  C 2.48 9.5  0.5 7.52  0.5 5  C 0.5 2.48  2.48 0.5  5 0.5  Z " stroke-width="1" stroke="#1b9aaa" fill="none" />
    </g>
  </defs>
  <g transform="translate(4 4 )">
    <use xlink:href="#widget3934" filter="url(#filter3933)" />
    <use xlink:href="#widget3934" />
  </g>
</svg>