<?xml version="1.0" encoding="utf-8"?>
<svg version="1.1" width="69px" height="93px" xmlns:xlink="http://www.w3.org/1999/xlink" xmlns="http://www.w3.org/2000/svg">
  <defs>
    <linearGradient gradientUnits="userSpaceOnUse" x1="6.09827150547479" y1="58.1432092004381" x2="53.5902698941663" y2="34.0404510604401" id="LinearGradient356">
      <stop id="Stop357" stop-color="#35bdd0" offset="0" />
      <stop id="Stop358" stop-color="#06b797" offset="1" />
    </linearGradient>
    <linearGradient gradientUnits="userSpaceOnUse" x1="6.09827150547479" y1="58.1432092004381" x2="53.5902698941663" y2="34.0404510604401" id="LinearGradient359">
      <stop id="Stop360" stop-color="#35bdd0" offset="0" />
      <stop id="Stop361" stop-color="#06b797" offset="1" />
    </linearGradient>
  </defs>
  <g transform="translate(-44 -22 )">
    <path d="M 13 79.9999995212225  L 13 60  L 36.1145038167939 60  L 57 60.3316062176166  L 57 34  L 46 34  L 46 0  L 22 0  L 22 12.3212435233161  L 19 12.3212435233161  L 19 0  L 6.9618320610687 0  L 0 0  L 0 9.34715025906736  L 0 60.3316062176166  L 3 60.3316062176166  L 3 80.0000000000978  " stroke-width="2" stroke="url(#LinearGradient356)" fill="none" transform="matrix(1 0 0 1 54 23 )" />
    <path d="M 16 75.9999999999525  L 10 75.9999999999525  L 10 81.9999999999525  L 16 81.9999999999525  L 16 75.9999999999525  Z M 6 75.9999996366545  L 0 75.9999996366545  L 0 81.9999996366545  L 6 81.9999996366545  L 6 75.9999996366545  Z " fill-rule="nonzero" fill="url(#LinearGradient359)" stroke="none" transform="matrix(1 0 0 1 54 23 )" />
  </g>
</svg>