<?xml version="1.0" encoding="utf-8"?>
<svg version="1.1" width="55px" height="75px" xmlns:xlink="http://www.w3.org/1999/xlink" xmlns="http://www.w3.org/2000/svg">
  <g transform="translate(-481 -412 )">
    <path d="M 10.5 64.9999999878056  L 10.5 48.5  L 28.5114503816794 48.5  L 45.5 48.5  L 45.5 26.6735751295337  L 36.5 26.6735751295337  L 36.5 0.5  L 16.8320610687023 0.5  L 16.8320610687023 9.91709844559585  L 14.4274809160305 9.91709844559585  L 14.4274809160305 0  L 5.49618320610687 0  L 0 0  L 0.5 7.52331606217617  L 0.5 48.559585492228  L 2.40458015267176 48.559585492228  L 2.40458015267176 64.9999999909563  " stroke-width="1" stroke="#050505" fill="none" transform="matrix(1 0 0 1 490 412 )" />
    <path d="M 13 60.9999999438463  L 8 60.9999999438463  L 8 65.9999999438463  L 13 65.9999999438463  L 13 60.9999999438463  Z M 4.90458015267176 60.9999999547257  L -0.0954198473282442 60.9999999547257  L -0.0954198473282442 65.9999999547257  L 4.90458015267176 65.9999999547257  L 4.90458015267176 60.9999999547257  Z " fill-rule="nonzero" fill="#050505" stroke="none" transform="matrix(1 0 0 1 490 412 )" />
  </g>
</svg>