<?xml version="1.0" encoding="utf-8"?>
<svg version="1.1" width="25px" height="25px" xmlns:xlink="http://www.w3.org/1999/xlink" xmlns="http://www.w3.org/2000/svg">
  <defs>
    <mask fill="white" id="clip3875">
      <path d="M 24.9733853797019 0.949928977272727  C 25.0147859001656 1.19258996212121  24.976342559735 1.42637310606061  24.8580553584102 1.65127840909091  L 13.5024840312278 24.3785511363636  C 13.3013957889756 24.7928503787879  12.9642772651999 25  12.4911284599006 25  C 12.4319848592382 25  12.3432694582446 24.9881628787879  12.2249822569198 24.9644886363636  C 11.9647504140052 24.905303030303  11.7547906316537 24.7721354166667  11.5951029098652 24.5649857954545  C 11.4354151880767 24.3578361742424  11.3555713271824 24.124053030303  11.3555713271824 23.8636363636364  L 11.3555713271824 13.6363636363636  L 1.13555713271824 13.6363636363636  C 0.875325289803643 13.6363636363636  0.64170806718713 13.5564630681818  0.434705464868701 13.3966619318182  C 0.227702862550272 13.2368607954545  0.0946297610598533 13.0267518939394  0.035486160397445 12.7663352272727  C -0.0236574402649633 12.5059185606061  0 12.2573390151515  0.106458481192335 12.0205965909091  C 0.21291696238467 11.7838541666667  0.384433404305654 11.6062973484848  0.621007806955287 11.4879261363636  L 23.3321504613201 0.124289772727273  C 23.4859238230423 0.0414299242424226  23.6574402649633 0  23.846699787083 0  C 24.16607523066 0  24.4322214336409 0.112452651515149  24.6451383960256 0.337357954545456  C 24.8225691980128 0.503077651515149  24.9319848592382 0.70726799242424  24.9733853797019 0.949928977272727  Z " fill-rule="evenodd" />
    </mask>
  </defs>
  <g transform="translate(0 0 )">
    <path d="M 24.9733853797019 0.949928977272727  C 25.0147859001656 1.19258996212121  24.976342559735 1.42637310606061  24.8580553584102 1.65127840909091  L 13.5024840312278 24.3785511363636  C 13.3013957889756 24.7928503787879  12.9642772651999 25  12.4911284599006 25  C 12.4319848592382 25  12.3432694582446 24.9881628787879  12.2249822569198 24.9644886363636  C 11.9647504140052 24.905303030303  11.7547906316537 24.7721354166667  11.5951029098652 24.5649857954545  C 11.4354151880767 24.3578361742424  11.3555713271824 24.124053030303  11.3555713271824 23.8636363636364  L 11.3555713271824 13.6363636363636  L 1.13555713271824 13.6363636363636  C 0.875325289803643 13.6363636363636  0.64170806718713 13.5564630681818  0.434705464868701 13.3966619318182  C 0.227702862550272 13.2368607954545  0.0946297610598533 13.0267518939394  0.035486160397445 12.7663352272727  C -0.0236574402649633 12.5059185606061  0 12.2573390151515  0.106458481192335 12.0205965909091  C 0.21291696238467 11.7838541666667  0.384433404305654 11.6062973484848  0.621007806955287 11.4879261363636  L 23.3321504613201 0.124289772727273  C 23.4859238230423 0.0414299242424226  23.6574402649633 0  23.846699787083 0  C 24.16607523066 0  24.4322214336409 0.112452651515149  24.6451383960256 0.337357954545456  C 24.8225691980128 0.503077651515149  24.9319848592382 0.70726799242424  24.9733853797019 0.949928977272727  Z " fill-rule="nonzero" fill="#ffffff" stroke="none" fill-opacity="0" />
    <path d="M 24.9733853797019 0.949928977272727  C 25.0147859001656 1.19258996212121  24.976342559735 1.42637310606061  24.8580553584102 1.65127840909091  L 13.5024840312278 24.3785511363636  C 13.3013957889756 24.7928503787879  12.9642772651999 25  12.4911284599006 25  C 12.4319848592382 25  12.3432694582446 24.9881628787879  12.2249822569198 24.9644886363636  C 11.9647504140052 24.905303030303  11.7547906316537 24.7721354166667  11.5951029098652 24.5649857954545  C 11.4354151880767 24.3578361742424  11.3555713271824 24.124053030303  11.3555713271824 23.8636363636364  L 11.3555713271824 13.6363636363636  L 1.13555713271824 13.6363636363636  C 0.875325289803643 13.6363636363636  0.64170806718713 13.5564630681818  0.434705464868701 13.3966619318182  C 0.227702862550272 13.2368607954545  0.0946297610598533 13.0267518939394  0.035486160397445 12.7663352272727  C -0.0236574402649633 12.5059185606061  0 12.2573390151515  0.106458481192335 12.0205965909091  C 0.21291696238467 11.7838541666667  0.384433404305654 11.6062973484848  0.621007806955287 11.4879261363636  L 23.3321504613201 0.124289772727273  C 23.4859238230423 0.0414299242424226  23.6574402649633 0  23.846699787083 0  C 24.16607523066 0  24.4322214336409 0.112452651515149  24.6451383960256 0.337357954545456  C 24.8225691980128 0.503077651515149  24.9319848592382 0.70726799242424  24.9733853797019 0.949928977272727  Z " stroke-width="4" stroke="#ffffff" fill="none" stroke-opacity="0.996078431372549" mask="url(#clip3875)" />
  </g>
</svg>