<?xml version="1.0" encoding="utf-8"?>
<svg version="1.1" width="34px" height="34px" xmlns:xlink="http://www.w3.org/1999/xlink" xmlns="http://www.w3.org/2000/svg">
  <defs>
    <filter x="-50%" y="-50%" width="200%" height="200%" filterUnits="objectBoundingBox" id="filter3876">
      <feOffset dx="1" dy="1" in="SourceAlpha" result="shadowOffsetInner" />
      <feGaussianBlur stdDeviation="1.5" in="shadowOffsetInner" result="shadowGaussian" />
      <feComposite in2="shadowGaussian" operator="atop" in="SourceAlpha" result="shadowComposite" />
      <feColorMatrix type="matrix" values="0 0 0 0 0  0 0 0 0 0  0 0 0 0 0  0 0 0 0.349019607843137 0  " in="shadowComposite" />
    </filter>
    <g id="widget3877">
      <path d="M 95 2  C 102.84 2  109 8.16  109 16  C 109 23.84  102.84 30  95 30  C 87.16 30  81 23.84  81 16  C 81 8.16  87.16 2  95 2  Z " fill-rule="nonzero" fill="#ffffff" stroke="none" />
      <path d="M 95 2.5  C 102.56 2.5  108.5 8.44  108.5 16  C 108.5 23.56  102.56 29.5  95 29.5  C 87.44 29.5  81.5 23.56  81.5 16  C 81.5 8.44  87.44 2.5  95 2.5  Z " stroke-width="1" stroke="#797979" fill="none" />
    </g>
  </defs>
  <g transform="translate(-79 0 )">
    <use xlink:href="#widget3877" filter="url(#filter3876)" />
    <use xlink:href="#widget3877" />
  </g>
</svg>