<?xml version="1.0" encoding="utf-8"?>
<svg version="1.1" width="50px" height="45px" xmlns:xlink="http://www.w3.org/1999/xlink" xmlns="http://www.w3.org/2000/svg">
  <g transform="translate(362 0 )">
    <path d="M 49.4698660714286 14.934375  C 49.8232886904762 15.290625  50 15.7125  50 16.2  C 50 16.6875  49.8232886904762 17.109375  49.4698660714286 17.465625  L 35.1841517857143 31.865625  C 34.8307291666667 32.221875  34.4122023809524 32.4  33.9285714285714 32.4  C 33.4449404761905 32.4  33.0264136904762 32.221875  32.6729910714286 31.865625  C 32.319568452381 31.509375  32.1428571428571 31.0875  32.1428571428571 30.6  L 32.1428571428571 23.4  L 25.8928571428571 23.4  C 24.0699404761905 23.4  22.4376860119048 23.45625  20.99609375 23.56875  C 19.5545014880952 23.68125  18.1222098214286 23.8828125  16.69921875 24.1734375  C 15.2762276785714 24.4640625  14.0392485119048 24.8625  12.98828125 25.36875  C 11.9373139880952 25.875  10.9561011904762 26.5265625  10.0446428571429 27.3234375  C 9.13318452380953 28.1203125  8.38913690476191 29.0671875  7.8125 30.1640625  C 7.2358630952381 31.2609375  6.78478422619048 32.559375  6.45926339285714 34.059375  C 6.13374255952381 35.559375  5.97098214285714 37.25625  5.97098214285714 39.15  C 5.97098214285714 40.18125  6.01748511904762 41.334375  6.11049107142857 42.609375  C 6.11049107142857 42.721875  6.13374255952381 42.9421875  6.18024553571429 43.2703125  C 6.22674851190476 43.5984375  6.25 43.846875  6.25 44.015625  C 6.25 44.296875  6.17094494047619 44.53125  6.01283482142857 44.71875  C 5.85472470238095 44.90625  5.63616071428572 45  5.35714285714286 45  C 5.05952380952381 45  4.79910714285714 44.840625  4.57589285714286 44.521875  C 4.44568452380952 44.353125  4.32477678571429 44.146875  4.21316964285714 43.903125  C 4.1015625 43.659375  3.97600446428571 43.378125  3.83649553571429 43.059375  C 3.69698660714286 42.740625  3.59933035714286 42.515625  3.54352678571429 42.384375  C 1.1811755952381 37.040625  0 32.8125  0 29.7  C 0 25.96875  0.492931547619048 22.846875  1.47879464285714 20.334375  C 4.4921875 12.778125  12.6302083333333 9  25.8928571428571 9  L 32.1428571428571 9  L 32.1428571428571 1.8  C 32.1428571428571 1.3125  32.319568452381 0.890624999999994  32.6729910714286 0.534374999999999  C 33.0264136904762 0.178124999999998  33.4449404761905 0  33.9285714285714 0  C 34.4122023809524 0  34.8307291666667 0.178124999999998  35.1841517857143 0.534374999999999  L 49.4698660714286 14.934375  Z " fill-rule="nonzero" fill="#000000" stroke="none" transform="matrix(1 0 0 1 -362 0 )" />
  </g>
</svg>