<?xml version="1.0" encoding="utf-8"?>
<svg version="1.1" width="110px" height="70px" xmlns:xlink="http://www.w3.org/1999/xlink" xmlns="http://www.w3.org/2000/svg">
  <g transform="translate(-397 -757 )">
    <path d="M 417 826.5  L 497 826.5  C 502.32 826.5  506.5 822.32  506.5 817  L 506.5 777  C 506.5 773.019603773678  504.16005511139 769.677374335159  500.753426824863 768.246573175137  C 499.804162307016 765.986446856925  498.013553143075 764.195837692984  495.753426824863 763.246573175137  C 494.322625664841 759.83994488861  490.980396226322 757.5  487 757.5  L 407 757.5  C 401.68 757.5  397.5 761.68  397.5 767  L 397.5 807  C 397.5 810.980396226322  399.83994488861 814.322625664841  403.246573175137 815.753426824863  C 404.195837692984 818.013553143075  405.986446856925 819.804162307016  408.246573175137 820.753426824863  C 409.677374335159 824.16005511139  413.019603773678 826.5  417 826.5  Z " fill-rule="nonzero" fill="#ffffff" stroke="none" />
    <path d="M 417.5 826.5  L 496.5 826.5  C 502.1 826.5  506.5 822.1  506.5 816.5  L 506.5 777.5  C 506.5 773.382075431273  504.120786603431 769.913027243428  500.634752186914 768.365247813086  C 499.644031495375 766.13386628665  497.86613371335 764.355968504625  495.634752186914 763.365247813086  C 494.086972756572 759.879213396569  490.617924568727 757.5  486.5 757.5  L 407.5 757.5  C 401.9 757.5  397.5 761.9  397.5 767.5  L 397.5 806.5  C 397.5 810.617924568727  399.879213396569 814.086972756572  403.365247813086 815.634752186914  C 404.355968504626 817.86613371335  406.13386628665 819.644031495375  408.365247813086 820.634752186914  C 409.913027243428 824.120786603431  413.382075431273 826.5  417.5 826.5  Z " stroke-width="1" stroke="#666666" fill="none" />
    <path d="M 500.678014577568 768.071985422432  C 501.207220379431 769.263905668009  501.5 770.592028340291  501.5 772  L 501.5 811.5  C 501.5 817.1  497.1 821.5  491.5 821.5  L 412 821.5  C 408.087971659709 821.5  404.792375881257 819.23974727326  403.321985422432 815.928014577568  M 495.678014577568 763.071985422432  C 496.207220379431 764.263905668009  496.5 765.592028340291  496.5 767  L 496.5 806.499  C 496.5 812.099  492.1 816.499  486.5 816.499  L 407 816.5  C 405.592028340291 816.5  404.263905668009 816.207220379431  403.071985422432 815.678014577568  " stroke-width="1" stroke="#666666" fill="none" />
  </g>
</svg>