<?xml version="1.0" encoding="utf-8"?>
<svg version="1.1" width="44.5px" height="5px" viewBox="1938 306.5  44.5 5" xmlns:xlink="http://www.w3.org/1999/xlink" xmlns="http://www.w3.org/2000/svg">
  <path d="M 1938 309.5  L 1975 309.5  A 5 5 0 0 0 1980.5 304.5 L 1980.5 195  A 5 5 0 0 0 1975 190.5 L 976 190.5  A 3 3 0 0 0 973 187.5 A 3 3 0 0 0 970 190.5 L 926 190.5  A 5 5 0 0 0 921.5 195.5 L 921.5 278  " stroke-width="1" stroke="#666666" fill="none" />
  <path d="M 926.146446609407 272.946446609407  L 921.5 277.592893218814  L 916.853553390593 272.946446609407  L 916.146446609407 273.653553390593  L 921.146446609407 278.653553390593  L 921.5 279.007106781187  L 921.853553390593 278.653553390593  L 926.853553390593 273.653553390593  L 926.146446609407 272.946446609407  Z " fill-rule="nonzero" fill="#666666" stroke="none" />
</svg>