<?xml version="1.0" encoding="utf-8"?>
<svg version="1.1" width="5px" height="146px" viewBox="1727.5 306.5  5 146" xmlns:xlink="http://www.w3.org/1999/xlink" xmlns="http://www.w3.org/2000/svg">
  <path d="M 1716 309.5  L 1725 309.5  A 5 5 0 0 1 1730.5 314 L 1730.5 402.769230769231  A 3 3 0 0 1 1733.5 405.769230769231 A 3 3 0 0 1 1730.5 408.769230769231 L 1730.5 445  A 5 5 0 0 1 1725.5 450.5 L 1238 450.5  A 5 5 0 0 1 1233.5 445.5 L 1233.5 437  " stroke-width="1" stroke-dasharray="1,1" stroke="#666666" fill="none" />
  <path d="M 1228.85355339059 442.053553390593  L 1233.5 437.407106781187  L 1238.14644660941 442.053553390593  L 1238.85355339059 441.346446609407  L 1233.85355339059 436.346446609407  L 1233.5 435.992893218813  L 1233.14644660941 436.346446609407  L 1228.14644660941 441.346446609407  L 1228.85355339059 442.053553390593  Z " fill-rule="nonzero" fill="#666666" stroke="none" />
</svg>