<?xml version="1.0" encoding="utf-8"?>
<svg version="1.1" width="5px" height="194px" viewBox="1673.5 336.5  5 194" xmlns:xlink="http://www.w3.org/1999/xlink" xmlns="http://www.w3.org/2000/svg">
  <path d="M 1666 339.5  L 1671 339.5  A 5 5 0 0 1 1676.5 344 L 1676.5 402.769230769231  A 3 3 0 0 1 1679.5 405.769230769231 A 3 3 0 0 1 1676.5 408.769230769231 L 1676.5 447  A 3 3 0 0 1 1679.5 450 A 3 3 0 0 1 1676.5 453 L 1676.5 523  A 5 5 0 0 0 1681.5 528.5 L 2059 528.5  " stroke-width="1" stroke="#666666" fill="none" />
  <path d="M 2053.94644660941 523.853553390593  L 2058.59289321881 528.5  L 2053.94644660941 533.146446609407  L 2054.65355339059 533.853553390593  L 2059.65355339059 528.853553390593  L 2060.00710678119 528.5  L 2059.65355339059 528.146446609407  L 2054.65355339059 523.146446609407  L 2053.94644660941 523.853553390593  Z " fill-rule="nonzero" fill="#666666" stroke="none" />
</svg>