<?xml version="1.0" encoding="utf-8"?>
<svg version="1.1" width="18px" height="18px" viewBox="1580 755  18 18" xmlns:xlink="http://www.w3.org/1999/xlink" xmlns="http://www.w3.org/2000/svg">
  <path d="M 1589.5 762  L 1589.5 771  A 5 5 0 0 0 1594.5 776.5 L 1622 776.5  A 5 5 0 0 1 1627.5 781 L 1627.5 816  A 3 3 0 0 1 1630.5 819 A 3 3 0 0 1 1627.5 822 L 1627.5 856  A 5 5 0 0 1 1622.5 861.5 L 1591 861.5  A 5 5 0 0 0 1586.5 866.5 L 1586.5 875  " stroke-width="1" stroke="#666666" fill="none" />
  <path d="M 1584.85355339059 767.053553390593  L 1589.5 762.407106781187  L 1594.14644660941 767.053553390593  L 1594.85355339059 766.346446609407  L 1589.85355339059 761.346446609407  L 1589.5 760.992893218813  L 1589.14644660941 761.346446609407  L 1584.14644660941 766.346446609407  L 1584.85355339059 767.053553390593  Z M 1591.14644660941 869.946446609407  L 1586.5 874.592893218813  L 1581.85355339059 869.946446609407  L 1581.14644660941 870.653553390593  L 1586.14644660941 875.653553390593  L 1586.5 876.007106781187  L 1586.85355339059 875.653553390593  L 1591.85355339059 870.653553390593  L 1591.14644660941 869.946446609407  Z " fill-rule="nonzero" fill="#666666" stroke="none" />
</svg>