<?xml version="1.0" encoding="utf-8"?>
<svg version="1.1" width="18px" height="18px" viewBox="1580 1013  18 18" xmlns:xlink="http://www.w3.org/1999/xlink" xmlns="http://www.w3.org/2000/svg">
  <path d="M 1589.5 1020  L 1589.5 1029  A 5 5 0 0 0 1594.5 1034.5 L 1622 1034.5  A 5 5 0 0 1 1627.5 1039 L 1627.5 1074  A 3 3 0 0 1 1630.5 1077 A 3 3 0 0 1 1627.5 1080 L 1627.5 1114  A 5 5 0 0 1 1622.5 1119.5 L 1591 1119.5  A 5 5 0 0 0 1586.5 1124.5 L 1586.5 1133  " stroke-width="1" stroke="#666666" fill="none" />
  <path d="M 1584.85355339059 1025.05355339059  L 1589.5 1020.40710678119  L 1594.14644660941 1025.05355339059  L 1594.85355339059 1024.34644660941  L 1589.85355339059 1019.34644660941  L 1589.5 1018.99289321881  L 1589.14644660941 1019.34644660941  L 1584.14644660941 1024.34644660941  L 1584.85355339059 1025.05355339059  Z M 1591.14644660941 1127.94644660941  L 1586.5 1132.59289321881  L 1581.85355339059 1127.94644660941  L 1581.14644660941 1128.65355339059  L 1586.14644660941 1133.65355339059  L 1586.5 1134.00710678119  L 1586.85355339059 1133.65355339059  L 1591.85355339059 1128.65355339059  L 1591.14644660941 1127.94644660941  Z " fill-rule="nonzero" fill="#666666" stroke="none" />
</svg>