<?xml version="1.0" encoding="utf-8"?>
<svg version="1.1" width="5px" height="46px" viewBox="1227.5 816.5  5 46" xmlns:xlink="http://www.w3.org/1999/xlink" xmlns="http://www.w3.org/2000/svg">
  <path d="M 807 1311.5  L 1165 1311.5  A 5 5 0 0 0 1170.5 1306 L 1170.5 1210  A 3 3 0 0 0 1173.5 1207 A 3 3 0 0 0 1170.5 1204 L 1170.5 865  A 5 5 0 0 1 1175.5 860.5 L 1225 860.5  A 5 5 0 0 0 1230.5 855.5 L 1230.5 824  A 5 5 0 0 1 1235.5 819.5 L 1245 819.5  " stroke-width="1" stroke="#666666" fill="none" />
  <path d="M 1239.94644660941 814.853553390593  L 1244.59289321881 819.5  L 1239.94644660941 824.146446609407  L 1240.65355339059 824.853553390593  L 1245.65355339059 819.853553390593  L 1246.00710678119 819.5  L 1245.65355339059 819.146446609407  L 1240.65355339059 814.146446609407  L 1239.94644660941 814.853553390593  Z " fill-rule="nonzero" fill="#666666" stroke="none" />
</svg>