<?xml version="1.0" encoding="utf-8"?>
<svg version="1.1" width="18px" height="18px" viewBox="1061 333  18 18" xmlns:xlink="http://www.w3.org/1999/xlink" xmlns="http://www.w3.org/2000/svg">
  <path d="M 971 1127.5  L 1005 1127.5  A 5 5 0 0 0 1010.5 1122 L 1010.5 863  A 3 3 0 0 0 1013.5 860 A 3 3 0 0 0 1010.5 857 L 1010.5 818  A 3 3 0 0 0 1013.5 815 A 3 3 0 0 0 1010.5 812 L 1010.5 733.151515151515  A 3 3 0 0 0 1013.5 730.151515151515 A 3 3 0 0 0 1010.5 727.151515151515 L 1010.5 681  A 3 3 0 0 0 1013.5 678 A 3 3 0 0 0 1010.5 675 L 1010.5 535  A 3 3 0 0 0 1013.5 532 A 3 3 0 0 0 1010.5 529 L 1010.5 355  A 5 5 0 0 1 1015.5 350.5 L 1065 350.5  A 5 5 0 0 0 1070.5 345.5 L 1070.5 340  " stroke-width="1" stroke="#666666" fill="none" />
  <path d="M 1065.85355339059 345.053553390593  L 1070.5 340.407106781187  L 1075.14644660941 345.053553390593  L 1075.85355339059 344.346446609407  L 1070.85355339059 339.346446609407  L 1070.5 338.992893218813  L 1070.14644660941 339.346446609407  L 1065.14644660941 344.346446609407  L 1065.85355339059 345.053553390593  Z " fill-rule="nonzero" fill="#666666" stroke="none" />
</svg>