<?xml version="1.0" encoding="utf-8"?>
<svg version="1.1" width="18px" height="18px" viewBox="2048 519  18 18" xmlns:xlink="http://www.w3.org/1999/xlink" xmlns="http://www.w3.org/2000/svg">
  <defs>
    <mask fill="white" id="clip449">
      <path d="M 1982.5 1238  L 2017.5 1238  L 2017.5 1263  L 1982.5 1263  Z M 1229 525  L 2067 525  L 2067 1263  L 1229 1263  Z " fill-rule="evenodd" />
    </mask>
  </defs>
  <path d="M 1232.5 1237  L 1232.5 1245  A 5 5 0 0 0 1237.5 1250.5 L 2013 1250.5  A 5 5 0 0 0 2018.5 1245.5 L 2018.5 533  A 5 5 0 0 1 2023.5 528.5 L 2059 528.5  " stroke-width="1" stroke-dasharray="1,1" stroke="#666666" fill="none" mask="url(#clip449)" />
  <path d="M 2053.94644660941 523.853553390593  L 2058.59289321881 528.5  L 2053.94644660941 533.146446609407  L 2054.65355339059 533.853553390593  L 2059.65355339059 528.853553390593  L 2060.00710678119 528.5  L 2059.65355339059 528.146446609407  L 2054.65355339059 523.146446609407  L 2053.94644660941 523.853553390593  Z " fill-rule="nonzero" fill="#666666" stroke="none" mask="url(#clip449)" />
</svg>