<?xml version="1.0" encoding="utf-8"?>
<svg version="1.1" width="149px" height="188px" xmlns:xlink="http://www.w3.org/1999/xlink" xmlns="http://www.w3.org/2000/svg">
  <defs>
    <filter x="-50%" y="-50%" width="200%" height="200%" filterUnits="objectBoundingBox" id="filter3912">
      <feOffset dx="1" dy="1" in="SourceAlpha" result="shadowOffsetInner" />
      <feGaussianBlur stdDeviation="1.5" in="shadowOffsetInner" result="shadowGaussian" />
      <feComposite in2="shadowGaussian" operator="atop" in="SourceAlpha" result="shadowComposite" />
      <feColorMatrix type="matrix" values="0 0 0 0 0  0 0 0 0 0  0 0 0 0 0  0 0 0 0.207843137254902 0  " in="shadowComposite" />
    </filter>
    <g id="widget3913">
      <path d="M 26 15  A 14 14 0 0 1 40 1 L 153 1  A 14 14 0 0 1 167 15 L 167 167  A 14 14 0 0 1 153 181 L 40 181  A 14 14 0 0 1 26 167 L 26 15  Z " fill-rule="nonzero" fill="#ffffff" stroke="none" />
      <path d="M 25.5 15  A 14.5 14.5 0 0 1 40 0.5 L 153 0.5  A 14.5 14.5 0 0 1 167.5 15 L 167.5 167  A 14.5 14.5 0 0 1 153 181.5 L 40 181.5  A 14.5 14.5 0 0 1 25.5 167 L 25.5 15  Z " stroke-width="1" stroke="#d4d4d4" fill="none" stroke-opacity="0.996078431372549" />
    </g>
  </defs>
  <g transform="translate(-23 2 )">
    <use xlink:href="#widget3913" filter="url(#filter3912)" />
    <use xlink:href="#widget3913" />
  </g>
</svg>