<?xml version="1.0" encoding="utf-8"?>
<!-- Generator: Adobe Illustrator 16.0.0, SVG Export Plug-In . SVG Version: 6.00 Build 0)  -->
<!DOCTYPE svg PUBLIC "-//W3C//DTD SVG 1.1//EN" "http://www.w3.org/Graphics/SVG/1.1/DTD/svg11.dtd">
<svg version="1.1" xmlns="http://www.w3.org/2000/svg" xmlns:xlink="http://www.w3.org/1999/xlink" x="0px" y="0px" width="700px"
	 height="300px" viewBox="0 0 700 300" enable-background="new 0 0 700 300" xml:space="preserve">
<g id="圖層_1">
	<circle fill="none" stroke="#0C0B0B" stroke-width="5" stroke-miterlimit="10" cx="657.5" cy="38.5" r="58.5"/>
	<g>
		<g>
			<line fill="none" stroke="#0C0B0B" stroke-width="5" stroke-miterlimit="10" x1="525.5" y1="258" x2="651.935" y2="48.713"/>
			<g>
				<polygon fill="#0C0B0B" points="657.205,54.454 657.501,39.5 644.401,46.719 				"/>
			</g>
		</g>
	</g>
	<circle fill="none" stroke="#0C0B0B" stroke-width="5" stroke-miterlimit="10" cx="525.5" cy="254.5" r="65.5"/>
	<linearGradient id="SVGID_1_" gradientUnits="userSpaceOnUse" x1="0" y1="150" x2="699" y2="150">
		<stop  offset="0" style="stop-color:#8F8389"/>
		<stop  offset="1" style="stop-color:#FFFFFF;stop-opacity:0"/>
	</linearGradient>
	<rect fill="url(#SVGID_1_)" width="699" height="300"/>
</g>
<g id="圖層_2">
	<g>
		<path fill="#312B2B" d="M64.656,84.074h12.607v3.136h-8.895v5.343h7.52v3.136h-7.52v6.176h9.215V105H64.656V84.074z"/>
		<path fill="#312B2B" d="M91.823,92.201h-5.952V105h-3.68V92.201H80.08v-2.752l2.112-0.16v-1.376c0-3.231,1.632-5.567,5.44-5.567
			c1.184,0,2.304,0.224,3.072,0.576l-0.704,2.752c-0.608-0.288-1.152-0.416-1.984-0.416c-1.312,0-2.144,0.896-2.144,2.656v1.376
			h5.952v-1.632c0-3.264,1.472-5.631,5.184-5.631c1.152,0,2.176,0.256,2.88,0.544l-0.704,2.751
			c-0.544-0.256-1.152-0.384-1.696-0.384c-1.312,0-1.984,0.832-1.984,2.656v1.696h3.072v2.912h-3.072V105h-3.68V92.201z"/>
		<path fill="#312B2B" d="M99.984,97.161c0-5.12,3.552-8.255,7.231-8.255c4.255,0,6.496,3.072,6.496,7.456
			c0,0.704-0.064,1.408-0.16,1.792h-9.983c0.32,2.784,2.112,4.384,4.64,4.384c1.344,0,2.496-0.416,3.648-1.152l1.248,2.304
			c-1.504,0.992-3.392,1.696-5.376,1.696C103.375,105.384,99.984,102.344,99.984,97.161z M110.511,95.657
			c0-2.432-1.056-3.904-3.2-3.904c-1.855,0-3.456,1.376-3.775,3.904H110.511z"/>
		<path fill="#312B2B" d="M116.208,97.161c0-5.248,3.68-8.255,7.871-8.255c2.016,0,3.456,0.768,4.608,1.76l-1.792,2.4
			c-0.832-0.736-1.632-1.152-2.624-1.152c-2.528,0-4.288,2.08-4.288,5.248c0,3.136,1.728,5.215,4.192,5.215
			c1.216,0,2.336-0.608,3.232-1.344l1.504,2.432c-1.472,1.28-3.328,1.92-5.12,1.92C119.503,105.384,116.208,102.376,116.208,97.161z
			"/>
		<path fill="#312B2B" d="M132.239,99.688v-7.487H130v-2.752l2.432-0.16l0.448-4.288h3.072v4.288h4v2.912h-4v7.487
			c0,1.856,0.704,2.752,2.208,2.752c0.544,0,1.184-0.16,1.632-0.352l0.64,2.72c-0.864,0.288-1.952,0.576-3.2,0.576
			C133.583,105.384,132.239,103.08,132.239,99.688z"/>
		<path fill="#312B2B" d="M141.359,103.208l1.728-2.368c1.408,1.088,2.752,1.76,4.352,1.76c1.696,0,2.496-0.8,2.496-1.888
			c0-1.312-1.696-1.888-3.36-2.528c-2.08-0.768-4.416-1.952-4.416-4.576c0-2.752,2.208-4.704,5.728-4.704
			c2.176,0,3.936,0.896,5.216,1.888l-1.696,2.24c-1.088-0.8-2.208-1.344-3.456-1.344c-1.568,0-2.304,0.736-2.304,1.728
			c0,1.248,1.568,1.728,3.264,2.335c2.144,0.8,4.512,1.824,4.512,4.768c0,2.688-2.144,4.863-6.111,4.863
			C145.167,105.384,142.895,104.456,141.359,103.208z"/>
		<path fill="#312B2B" d="M162.095,97.161c0-5.248,3.552-8.255,7.456-8.255c3.936,0,7.487,3.008,7.487,8.255
			c0,5.215-3.552,8.223-7.487,8.223C165.647,105.384,162.095,102.376,162.095,97.161z M173.262,97.161
			c0-3.168-1.408-5.248-3.711-5.248c-2.304,0-3.68,2.08-3.68,5.248c0,3.136,1.376,5.215,3.68,5.215
			C171.854,102.376,173.262,100.296,173.262,97.161z"/>
		<path fill="#312B2B" d="M181.199,92.201h-2.112v-2.752l2.112-0.16v-1.632c0-3.264,1.504-5.631,5.216-5.631
			c1.12,0,2.176,0.256,2.88,0.544l-0.704,2.751c-0.576-0.256-1.184-0.384-1.728-0.384c-1.28,0-1.983,0.832-1.983,2.656v1.696h3.071
			v2.912h-3.071V105h-3.68V92.201z"/>
		<path fill="#312B2B" d="M197.422,84.074h4.192l3.711,10.239c0.448,1.312,0.896,2.72,1.344,4.096h0.128
			c0.448-1.376,0.864-2.784,1.312-4.096l3.616-10.239h4.224V105h-3.424v-9.567c0-1.952,0.288-4.735,0.48-6.655h-0.128l-1.696,4.863
			l-3.424,9.408h-2.208l-3.456-9.408l-1.664-4.863h-0.128c0.16,1.92,0.48,4.704,0.48,6.655V105h-3.36V84.074z"/>
		<path fill="#312B2B" d="M219.918,97.161c0-5.12,3.552-8.255,7.231-8.255c4.255,0,6.496,3.072,6.496,7.456
			c0,0.704-0.064,1.408-0.16,1.792h-9.983c0.32,2.784,2.112,4.384,4.64,4.384c1.344,0,2.496-0.416,3.648-1.152l1.248,2.304
			c-1.504,0.992-3.392,1.696-5.376,1.696C223.31,105.384,219.918,102.344,219.918,97.161z M230.446,95.657
			c0-2.432-1.056-3.904-3.2-3.904c-1.855,0-3.456,1.376-3.775,3.904H230.446z"/>
		<path fill="#312B2B" d="M237.39,99.688v-7.487h-2.24v-2.752l2.432-0.16l0.448-4.288h3.072v4.288h4v2.912h-4v7.487
			c0,1.856,0.704,2.752,2.208,2.752c0.544,0,1.184-0.16,1.632-0.352l0.64,2.72c-0.864,0.288-1.952,0.576-3.2,0.576
			C238.734,105.384,237.39,103.08,237.39,99.688z"/>
		<path fill="#312B2B" d="M246.894,100.776c0-3.36,2.784-5.12,9.248-5.824c-0.064-1.664-0.736-3.072-2.88-3.072
			c-1.536,0-3.008,0.704-4.416,1.536l-1.344-2.464c1.728-1.088,3.968-2.048,6.463-2.048c3.904,0,5.856,2.4,5.856,6.783V105h-3.04
			l-0.256-1.728h-0.128c-1.408,1.184-3.008,2.112-4.864,2.112C248.782,105.384,246.894,103.528,246.894,100.776z M256.142,100.776
			v-3.52c-4.288,0.544-5.696,1.664-5.696,3.232c0,1.408,0.96,2.016,2.272,2.016C253.998,102.504,254.958,101.864,256.142,100.776z"
			/>
		<path fill="#312B2B" d="M264.238,89.289h3.04l0.256,1.664h0.128c1.312-1.12,3.008-2.048,4.735-2.048c3.904,0,6.176,3.136,6.176,8
			c0,5.375-3.232,8.479-6.72,8.479c-1.376,0-2.751-0.64-4.032-1.728l0.096,2.624v4.928h-3.68V89.289z M274.765,96.937
			c0-3.136-1.024-4.992-3.392-4.992c-1.152,0-2.24,0.576-3.456,1.76v7.328c1.152,0.96,2.24,1.312,3.167,1.312
			C273.165,102.344,274.765,100.488,274.765,96.937z"/>
		<path fill="#312B2B" d="M282.286,82.41h3.68v5.824l-0.128,3.04c1.312-1.248,2.88-2.368,5.023-2.368
			c3.36,0,4.832,2.271,4.832,6.239V105h-3.68v-9.375c0-2.592-0.736-3.552-2.464-3.552c-1.375,0-2.271,0.672-3.583,1.952V105h-3.68
			V82.41z"/>
		<path fill="#312B2B" d="M299.118,97.161c0-5.248,3.552-8.255,7.456-8.255c3.936,0,7.487,3.008,7.487,8.255
			c0,5.215-3.552,8.223-7.487,8.223C302.669,105.384,299.118,102.376,299.118,97.161z M310.285,97.161
			c0-3.168-1.408-5.248-3.711-5.248c-2.304,0-3.68,2.08-3.68,5.248c0,3.136,1.376,5.215,3.68,5.215
			C308.877,102.376,310.285,100.296,310.285,97.161z"/>
		<path fill="#312B2B" d="M317.709,89.289h3.04l0.256,2.784h0.128c1.12-2.048,2.784-3.167,4.447-3.167c0.8,0,1.312,0.096,1.792,0.32
			l-0.64,3.2c-0.544-0.16-0.96-0.256-1.632-0.256c-1.248,0-2.751,0.864-3.711,3.232V105h-3.68V89.289z"/>
		<path fill="#312B2B" d="M329.229,84.458c0-1.248,0.96-2.112,2.272-2.112c1.312,0,2.271,0.864,2.271,2.112
			c0,1.216-0.96,2.08-2.271,2.08C330.189,86.537,329.229,85.673,329.229,84.458z M329.645,89.289h3.68V105h-3.68V89.289z"/>
		<path fill="#312B2B" d="M337.005,97.161c0-5.248,3.68-8.255,7.872-8.255c2.016,0,3.455,0.768,4.607,1.76l-1.792,2.4
			c-0.832-0.736-1.632-1.152-2.624-1.152c-2.527,0-4.287,2.08-4.287,5.248c0,3.136,1.728,5.215,4.191,5.215
			c1.216,0,2.336-0.608,3.231-1.344l1.504,2.432c-1.472,1.28-3.327,1.92-5.119,1.92C340.301,105.384,337.005,102.376,337.005,97.161
			z"/>
		<path fill="#312B2B" d="M351.66,100.776c0-3.36,2.784-5.12,9.247-5.824c-0.063-1.664-0.735-3.072-2.88-3.072
			c-1.535,0-3.008,0.704-4.415,1.536l-1.344-2.464c1.728-1.088,3.967-2.048,6.463-2.048c3.904,0,5.855,2.4,5.855,6.783V105h-3.039
			l-0.257-1.728h-0.128c-1.407,1.184-3.008,2.112-4.863,2.112C353.548,105.384,351.66,103.528,351.66,100.776z M360.907,100.776
			v-3.52c-4.287,0.544-5.695,1.664-5.695,3.232c0,1.408,0.96,2.016,2.271,2.016C358.764,102.504,359.724,101.864,360.907,100.776z"
			/>
		<path fill="#312B2B" d="M369.004,100.968V82.41h3.68v18.75c0,0.896,0.416,1.216,0.8,1.216c0.16,0,0.288,0,0.576-0.064l0.479,2.752
			c-0.447,0.192-1.088,0.32-1.951,0.32C369.964,105.384,369.004,103.688,369.004,100.968z"/>
		<path fill="#312B2B" d="M68.751,122.474h4.352l6.816,20.926h-3.904l-1.632-5.664h-7.04l-1.632,5.664h-3.776L68.751,122.474z
			 M68.208,134.825h5.344l-0.736-2.56c-0.672-2.208-1.28-4.607-1.888-6.912h-0.128c-0.576,2.336-1.184,4.704-1.856,6.912
			L68.208,134.825z"/>
		<path fill="#312B2B" d="M80.432,127.689h3.711l1.888,8.16c0.32,1.504,0.544,2.976,0.832,4.512h0.128
			c0.288-1.536,0.608-3.04,0.992-4.512l2.048-8.16h3.36l2.08,8.16c0.384,1.504,0.704,2.976,1.056,4.512h0.128
			c0.288-1.536,0.544-3.008,0.832-4.512l1.888-8.16h3.456l-4,15.711h-4.384l-1.824-7.328c-0.352-1.472-0.608-2.912-0.96-4.576
			h-0.128c-0.288,1.664-0.576,3.136-0.928,4.608l-1.792,7.295h-4.224L80.432,127.689z"/>
		<path fill="#312B2B" d="M104.784,139.176c0-3.36,2.784-5.12,9.248-5.824c-0.064-1.664-0.736-3.072-2.88-3.072
			c-1.536,0-3.008,0.704-4.416,1.536l-1.344-2.464c1.728-1.088,3.968-2.048,6.463-2.048c3.904,0,5.856,2.4,5.856,6.783v9.312h-3.04
			l-0.256-1.728h-0.128c-1.408,1.184-3.008,2.112-4.864,2.112C106.671,143.784,104.784,141.928,104.784,139.176z M114.031,139.176
			v-3.52c-4.288,0.544-5.696,1.664-5.696,3.232c0,1.408,0.96,2.016,2.272,2.016C111.887,140.904,112.847,140.264,114.031,139.176z"
			/>
		<path fill="#312B2B" d="M122.127,127.689h3.04l0.256,2.784h0.128c1.12-2.048,2.784-3.167,4.447-3.167
			c0.8,0,1.312,0.096,1.792,0.32l-0.64,3.2c-0.544-0.16-0.96-0.256-1.632-0.256c-1.248,0-2.751,0.864-3.711,3.232v9.599h-3.68
			V127.689z"/>
		<path fill="#312B2B" d="M132.719,135.561c0-5.12,3.552-8.255,7.231-8.255c4.255,0,6.496,3.072,6.496,7.456
			c0,0.704-0.064,1.408-0.16,1.792h-9.983c0.32,2.784,2.112,4.384,4.64,4.384c1.344,0,2.496-0.416,3.648-1.152l1.248,2.304
			c-1.504,0.992-3.392,1.696-5.376,1.696C136.111,143.784,132.719,140.744,132.719,135.561z M143.247,134.057
			c0-2.432-1.056-3.904-3.2-3.904c-1.855,0-3.456,1.376-3.775,3.904H143.247z"/>
		<path fill="#312B2B" d="M149.967,127.689h3.04l0.256,2.112h0.128c1.408-1.376,3.008-2.496,5.151-2.496
			c3.36,0,4.832,2.272,4.832,6.239v9.855h-3.68v-9.375c0-2.592-0.736-3.552-2.464-3.552c-1.375,0-2.271,0.672-3.583,1.952V143.4
			h-3.68V127.689z"/>
		<path fill="#312B2B" d="M166.863,135.561c0-5.12,3.552-8.255,7.231-8.255c4.255,0,6.496,3.072,6.496,7.456
			c0,0.704-0.064,1.408-0.16,1.792h-9.983c0.32,2.784,2.112,4.384,4.64,4.384c1.344,0,2.496-0.416,3.648-1.152l1.248,2.304
			c-1.504,0.992-3.392,1.696-5.376,1.696C170.254,143.784,166.863,140.744,166.863,135.561z M177.39,134.057
			c0-2.432-1.056-3.904-3.2-3.904c-1.855,0-3.456,1.376-3.775,3.904H177.39z"/>
		<path fill="#312B2B" d="M182.542,141.608l1.728-2.368c1.408,1.088,2.752,1.76,4.352,1.76c1.696,0,2.496-0.8,2.496-1.888
			c0-1.312-1.696-1.888-3.36-2.528c-2.08-0.768-4.416-1.952-4.416-4.576c0-2.752,2.208-4.704,5.728-4.704
			c2.176,0,3.936,0.896,5.216,1.888l-1.696,2.24c-1.088-0.8-2.208-1.344-3.456-1.344c-1.568,0-2.304,0.736-2.304,1.728
			c0,1.248,1.568,1.728,3.264,2.335c2.144,0.8,4.512,1.824,4.512,4.768c0,2.688-2.144,4.863-6.111,4.863
			C186.35,143.784,184.078,142.856,182.542,141.608z"/>
		<path fill="#312B2B" d="M196.334,141.608l1.728-2.368c1.408,1.088,2.752,1.76,4.352,1.76c1.696,0,2.496-0.8,2.496-1.888
			c0-1.312-1.696-1.888-3.36-2.528c-2.08-0.768-4.416-1.952-4.416-4.576c0-2.752,2.208-4.704,5.728-4.704
			c2.176,0,3.936,0.896,5.216,1.888l-1.696,2.24c-1.088-0.8-2.208-1.344-3.456-1.344c-1.568,0-2.304,0.736-2.304,1.728
			c0,1.248,1.568,1.728,3.264,2.335c2.144,0.8,4.512,1.824,4.512,4.768c0,2.688-2.144,4.863-6.111,4.863
			C200.142,143.784,197.87,142.856,196.334,141.608z"/>
		<path fill="#312B2B" d="M217.07,135.561c0-5.248,3.552-8.255,7.456-8.255c3.936,0,7.487,3.008,7.487,8.255
			c0,5.215-3.552,8.223-7.487,8.223C220.622,143.784,217.07,140.776,217.07,135.561z M228.237,135.561
			c0-3.168-1.408-5.248-3.711-5.248c-2.304,0-3.68,2.08-3.68,5.248c0,3.136,1.376,5.215,3.68,5.215
			C226.83,140.776,228.237,138.696,228.237,135.561z"/>
		<path fill="#312B2B" d="M235.662,127.689h3.04l0.256,2.112h0.128c1.408-1.376,3.008-2.496,5.151-2.496
			c3.36,0,4.832,2.272,4.832,6.239v9.855h-3.68v-9.375c0-2.592-0.736-3.552-2.464-3.552c-1.375,0-2.271,0.672-3.583,1.952V143.4
			h-3.68V127.689z"/>
		<path fill="#312B2B" d="M64.656,160.873h7.072c4.352,0,7.679,1.536,7.679,6.208c0,3.2-1.664,5.12-4.16,5.983l4.992,8.735h-4.16
			l-4.512-8.191h-3.2v8.191h-3.712V160.873z M71.343,170.664c2.848,0,4.416-1.215,4.416-3.583c0-2.399-1.568-3.231-4.416-3.231
			h-2.976v6.814H71.343z"/>
		<path fill="#312B2B" d="M81.936,173.961c0-5.12,3.552-8.256,7.231-8.256c4.255,0,6.496,3.072,6.496,7.455
			c0,0.704-0.064,1.408-0.16,1.792H85.52c0.32,2.784,2.112,4.384,4.64,4.384c1.344,0,2.496-0.416,3.648-1.152l1.248,2.305
			c-1.504,0.992-3.392,1.695-5.376,1.695C85.328,182.184,81.936,179.145,81.936,173.961z M92.463,172.457
			c0-2.433-1.056-3.904-3.2-3.904c-1.855,0-3.456,1.376-3.775,3.904H92.463z"/>
		<path fill="#312B2B" d="M97.968,177.576c0-3.359,2.784-5.119,9.247-5.824c-0.064-1.663-0.736-3.071-2.879-3.071
			c-1.536,0-3.008,0.704-4.416,1.536l-1.344-2.464c1.728-1.088,3.968-2.048,6.463-2.048c3.904,0,5.856,2.4,5.856,6.783v9.312h-3.04
			l-0.256-1.728h-0.128c-1.408,1.184-3.008,2.111-4.864,2.111C99.855,182.184,97.968,180.328,97.968,177.576z M107.215,177.576
			v-3.52c-4.288,0.543-5.695,1.664-5.695,3.231c0,1.407,0.96,2.017,2.272,2.017C105.071,179.305,106.031,178.664,107.215,177.576z"
			/>
		<path fill="#312B2B" d="M114.352,173.961c0-5.12,3.231-8.256,6.655-8.256c1.792,0,2.912,0.672,4.128,1.728l-0.128-2.527v-5.696
			h3.68V181.8h-3.04l-0.256-1.696h-0.128c-1.152,1.152-2.752,2.08-4.448,2.08C116.879,182.184,114.352,179.145,114.352,173.961z
			 M125.007,177.385v-7.328c-1.088-0.96-2.144-1.313-3.2-1.313c-2.016,0-3.648,1.889-3.648,5.184c0,3.393,1.28,5.217,3.552,5.217
			C122.927,179.145,123.951,178.6,125.007,177.385z"/>
		<path fill="#312B2B" d="M132.943,161.258c0-1.248,0.96-2.112,2.272-2.112c1.312,0,2.271,0.864,2.271,2.112
			c0,1.215-0.96,2.079-2.271,2.079C133.903,163.337,132.943,162.473,132.943,161.258z M133.359,166.089h3.68V181.8h-3.68V166.089z"
			/>
		<path fill="#312B2B" d="M141.743,166.089h3.04l0.256,2.112h0.128c1.408-1.377,3.008-2.496,5.151-2.496
			c3.36,0,4.832,2.271,4.832,6.239v9.855h-3.68v-9.376c0-2.592-0.736-3.551-2.464-3.551c-1.375,0-2.271,0.672-3.583,1.951V181.8
			h-3.68V166.089z"/>
		<path fill="#312B2B" d="M158.607,184.647c0-1.312,0.8-2.464,2.24-3.359v-0.128c-0.8-0.512-1.408-1.344-1.408-2.624
			c0-1.216,0.832-2.272,1.728-2.912v-0.128c-1.056-0.8-2.048-2.304-2.048-4.16c0-3.615,2.912-5.631,6.208-5.631
			c0.864,0,1.664,0.16,2.304,0.384h5.632v2.72h-2.88c0.512,0.607,0.896,1.568,0.896,2.656c0,3.487-2.624,5.344-5.952,5.344
			c-0.672,0-1.44-0.129-2.144-0.416c-0.48,0.416-0.768,0.8-0.768,1.504c0,0.896,0.64,1.439,2.56,1.439h2.784
			c3.776,0,5.76,1.152,5.76,3.871c0,3.104-3.264,5.536-8.383,5.536C161.391,188.743,158.607,187.399,158.607,184.647z
			 M169.966,183.815c0-1.216-0.992-1.567-2.784-1.567h-2.144c-0.864,0-1.536-0.064-2.144-0.225c-0.832,0.641-1.216,1.344-1.216,2.08
			c0,1.408,1.536,2.24,4.032,2.24C168.238,186.344,169.966,185.16,169.966,183.815z M168.046,171.336
			c0-1.951-1.184-3.104-2.72-3.104c-1.536,0-2.752,1.12-2.752,3.104c0,2.017,1.216,3.168,2.752,3.168
			C166.831,174.504,168.046,173.353,168.046,171.336z"/>
		<path fill="#312B2B" d="M181.935,171.4c0-6.848,4.288-10.911,9.567-10.911c2.624,0,4.735,1.248,6.047,2.655l-1.984,2.4
			c-1.088-1.088-2.335-1.824-3.968-1.824c-3.423,0-5.855,2.881-5.855,7.584c0,4.768,2.24,7.647,5.76,7.647
			c1.856,0,3.296-0.864,4.479-2.144l1.984,2.336c-1.696,1.951-3.904,3.039-6.591,3.039
			C186.094,182.184,181.935,178.344,181.935,171.4z"/>
		<path fill="#312B2B" d="M200.11,173.961c0-5.248,3.552-8.256,7.456-8.256c3.936,0,7.487,3.008,7.487,8.256
			c0,5.215-3.552,8.223-7.487,8.223C203.662,182.184,200.11,179.176,200.11,173.961z M211.277,173.961
			c0-3.168-1.408-5.248-3.711-5.248c-2.304,0-3.68,2.08-3.68,5.248c0,3.135,1.376,5.215,3.68,5.215
			C209.87,179.176,211.277,177.096,211.277,173.961z"/>
		<path fill="#312B2B" d="M218.702,166.089h3.04l0.256,2.144h0.128c1.312-1.408,2.848-2.527,4.799-2.527
			c2.304,0,3.616,1.056,4.352,2.816c1.504-1.601,3.072-2.816,5.056-2.816c3.328,0,4.863,2.271,4.863,6.239v9.855h-3.711v-9.376
			c0-2.592-0.768-3.551-2.4-3.551c-0.992,0-2.08,0.64-3.296,1.951V181.8h-3.68v-9.376c0-2.592-0.768-3.551-2.432-3.551
			c-0.96,0-2.08,0.64-3.296,1.951V181.8h-3.68V166.089z"/>
		<path fill="#312B2B" d="M245.678,166.089h3.04l0.256,1.664h0.128c1.312-1.12,3.008-2.048,4.735-2.048c3.904,0,6.176,3.136,6.176,8
			c0,5.375-3.232,8.479-6.72,8.479c-1.376,0-2.751-0.64-4.032-1.728l0.096,2.624v4.928h-3.68V166.089z M256.205,173.736
			c0-3.136-1.024-4.992-3.392-4.992c-1.152,0-2.24,0.576-3.456,1.76v7.328c1.152,0.96,2.24,1.313,3.167,1.313
			C254.605,179.145,256.205,177.288,256.205,173.736z"/>
		<path fill="#312B2B" d="M263.726,166.089h3.04l0.256,2.784h0.128c1.12-2.049,2.784-3.168,4.447-3.168
			c0.8,0,1.312,0.096,1.792,0.32l-0.64,3.199c-0.544-0.16-0.96-0.256-1.632-0.256c-1.248,0-2.752,0.863-3.712,3.232v9.599h-3.68
			V166.089z"/>
		<path fill="#312B2B" d="M274.317,173.961c0-5.12,3.552-8.256,7.231-8.256c4.256,0,6.496,3.072,6.496,7.455
			c0,0.704-0.064,1.408-0.16,1.792h-9.983c0.32,2.784,2.112,4.384,4.64,4.384c1.344,0,2.496-0.416,3.648-1.152l1.248,2.305
			c-1.504,0.992-3.392,1.695-5.376,1.695C277.709,182.184,274.317,179.145,274.317,173.961z M284.845,172.457
			c0-2.433-1.056-3.904-3.2-3.904c-1.855,0-3.456,1.376-3.775,3.904H284.845z"/>
		<path fill="#312B2B" d="M291.565,159.209h3.68v5.824l-0.128,3.039c1.312-1.248,2.88-2.367,5.023-2.367
			c3.36,0,4.832,2.271,4.832,6.239v9.855h-3.68v-9.376c0-2.592-0.736-3.551-2.464-3.551c-1.375,0-2.271,0.672-3.583,1.951V181.8
			h-3.68V159.209z"/>
		<path fill="#312B2B" d="M308.397,173.961c0-5.12,3.552-8.256,7.231-8.256c4.255,0,6.496,3.072,6.496,7.455
			c0,0.704-0.064,1.408-0.16,1.792h-9.983c0.32,2.784,2.112,4.384,4.64,4.384c1.344,0,2.496-0.416,3.648-1.152l1.248,2.305
			c-1.504,0.992-3.392,1.695-5.376,1.695C311.789,182.184,308.397,179.145,308.397,173.961z M318.924,172.457
			c0-2.433-1.056-3.904-3.2-3.904c-1.855,0-3.456,1.376-3.775,3.904H318.924z"/>
		<path fill="#312B2B" d="M325.645,166.089h3.04l0.256,2.112h0.128c1.408-1.377,3.008-2.496,5.151-2.496
			c3.359,0,4.832,2.271,4.832,6.239v9.855h-3.68v-9.376c0-2.592-0.736-3.551-2.464-3.551c-1.375,0-2.271,0.672-3.583,1.951V181.8
			h-3.68V166.089z"/>
		<path fill="#312B2B" d="M341.996,180.008l1.729-2.367c1.407,1.088,2.752,1.76,4.352,1.76c1.695,0,2.496-0.801,2.496-1.889
			c0-1.312-1.696-1.888-3.36-2.527c-2.08-0.768-4.415-1.952-4.415-4.576c0-2.752,2.207-4.703,5.728-4.703
			c2.176,0,3.936,0.896,5.215,1.888l-1.695,2.239c-1.088-0.799-2.208-1.344-3.456-1.344c-1.567,0-2.304,0.736-2.304,1.729
			c0,1.248,1.567,1.728,3.264,2.336c2.144,0.8,4.512,1.824,4.512,4.768c0,2.688-2.144,4.863-6.111,4.863
			C345.804,182.184,343.532,181.256,341.996,180.008z"/>
		<path fill="#312B2B" d="M356.94,161.258c0-1.248,0.96-2.112,2.271-2.112c1.313,0,2.272,0.864,2.272,2.112
			c0,1.215-0.96,2.079-2.272,2.079C357.9,163.337,356.94,162.473,356.94,161.258z M357.356,166.089h3.68V181.8h-3.68V166.089z"/>
		<path fill="#312B2B" d="M364.716,173.961c0-5.248,3.552-8.256,7.456-8.256c3.936,0,7.487,3.008,7.487,8.256
			c0,5.215-3.552,8.223-7.487,8.223C368.268,182.184,364.716,179.176,364.716,173.961z M375.884,173.961
			c0-3.168-1.408-5.248-3.712-5.248s-3.68,2.08-3.68,5.248c0,3.135,1.376,5.215,3.68,5.215S375.884,177.096,375.884,173.961z"/>
		<path fill="#312B2B" d="M383.309,166.089h3.04l0.256,2.112h0.128c1.408-1.377,3.008-2.496,5.151-2.496
			c3.359,0,4.832,2.271,4.832,6.239v9.855h-3.68v-9.376c0-2.592-0.736-3.551-2.464-3.551c-1.376,0-2.272,0.672-3.584,1.951V181.8
			h-3.68V166.089z"/>
		<path fill="#312B2B" d="M63.504,215.977c0-3.359,2.784-5.12,9.247-5.823c-0.064-1.664-0.736-3.072-2.879-3.072
			c-1.536,0-3.008,0.704-4.416,1.536l-1.344-2.464c1.728-1.088,3.968-2.048,6.463-2.048c3.904,0,5.856,2.399,5.856,6.783v9.312
			h-3.04l-0.256-1.728h-0.128c-1.408,1.184-3.008,2.111-4.864,2.111C65.392,220.584,63.504,218.729,63.504,215.977z M72.751,215.977
			v-3.52c-4.288,0.544-5.695,1.664-5.695,3.231c0,1.408,0.96,2.016,2.272,2.016C70.607,217.704,71.567,217.064,72.751,215.977z"/>
		<path fill="#312B2B" d="M80.848,204.489h3.04l0.256,2.112h0.128c1.408-1.376,3.008-2.496,5.151-2.496
			c3.36,0,4.832,2.271,4.832,6.239v9.855h-3.68v-9.375c0-2.592-0.736-3.552-2.464-3.552c-1.375,0-2.271,0.672-3.583,1.951V220.2
			h-3.68V204.489z"/>
		<path fill="#312B2B" d="M97.808,212.36c0-5.119,3.231-8.255,6.655-8.255c1.792,0,2.912,0.672,4.128,1.728l-0.128-2.527v-5.696
			h3.68V220.2h-3.04l-0.256-1.696h-0.128c-1.152,1.152-2.752,2.08-4.448,2.08C100.335,220.584,97.808,217.544,97.808,212.36z
			 M108.463,215.784v-7.327c-1.088-0.96-2.144-1.312-3.2-1.312c-2.016,0-3.648,1.888-3.648,5.184c0,3.392,1.28,5.215,3.552,5.215
			C106.383,217.544,107.407,217,108.463,215.784z"/>
		<path fill="#312B2B" d="M120.751,199.273h3.936l2.944,10.527c0.672,2.368,1.152,4.416,1.856,6.815h0.128
			c0.704-2.399,1.184-4.447,1.824-6.815l2.912-10.527h3.808l-6.496,20.927h-4.384L120.751,199.273z"/>
		<path fill="#312B2B" d="M138.799,212.36c0-5.247,3.552-8.255,7.456-8.255c3.936,0,7.487,3.008,7.487,8.255
			c0,5.216-3.552,8.224-7.487,8.224C142.351,220.584,138.799,217.576,138.799,212.36z M149.966,212.36
			c0-3.167-1.408-5.247-3.711-5.247c-2.304,0-3.68,2.08-3.68,5.247c0,3.136,1.376,5.216,3.68,5.216
			C148.559,217.576,149.966,215.496,149.966,212.36z"/>
		<path fill="#312B2B" d="M156.367,212.36c0-5.247,3.68-8.255,7.871-8.255c2.016,0,3.456,0.768,4.608,1.76l-1.792,2.399
			c-0.832-0.735-1.632-1.151-2.624-1.151c-2.528,0-4.288,2.08-4.288,5.247c0,3.136,1.728,5.216,4.192,5.216
			c1.216,0,2.336-0.607,3.232-1.344l1.504,2.432c-1.472,1.28-3.328,1.92-5.12,1.92C159.663,220.584,156.367,217.576,156.367,212.36z
			"/>
		<path fill="#312B2B" d="M171.023,215.977c0-3.359,2.784-5.12,9.248-5.823c-0.064-1.664-0.736-3.072-2.88-3.072
			c-1.536,0-3.008,0.704-4.416,1.536l-1.344-2.464c1.728-1.088,3.968-2.048,6.463-2.048c3.904,0,5.856,2.399,5.856,6.783v9.312
			h-3.04l-0.256-1.728h-0.128c-1.408,1.184-3.008,2.111-4.864,2.111C172.911,220.584,171.023,218.729,171.023,215.977z
			 M180.271,215.977v-3.52c-4.288,0.544-5.696,1.664-5.696,3.231c0,1.408,0.96,2.016,2.272,2.016
			C178.126,217.704,179.086,217.064,180.271,215.977z"/>
		<path fill="#312B2B" d="M191.694,218.536h-0.096l-0.32,1.664h-2.912v-22.591h3.68v5.824l-0.096,2.624
			c1.312-1.152,2.944-1.952,4.544-1.952c3.936,0,6.208,3.136,6.208,7.968c0,5.407-3.232,8.511-6.72,8.511
			C194.542,220.584,193.006,219.849,191.694,218.536z M198.894,212.137c0-3.136-1.024-4.991-3.392-4.991
			c-1.152,0-2.24,0.575-3.456,1.76v7.327c1.12,0.96,2.24,1.312,3.167,1.312C197.294,217.544,198.894,215.688,198.894,212.137z"/>
		<path fill="#312B2B" d="M206.222,214.345v-9.855h3.68v9.375c0,2.592,0.736,3.552,2.432,3.552c1.375,0,2.304-0.64,3.487-2.176
			v-10.751h3.68V220.2h-3.008l-0.288-2.304h-0.096c-1.376,1.632-2.912,2.688-5.056,2.688
			C207.694,220.584,206.222,218.313,206.222,214.345z"/>
		<path fill="#312B2B" d="M224.174,216.169v-18.56h3.68v18.751c0,0.896,0.416,1.216,0.8,1.216c0.16,0,0.288,0,0.576-0.063
			l0.48,2.752c-0.448,0.191-1.088,0.319-1.952,0.319C225.134,220.584,224.174,218.889,224.174,216.169z"/>
		<path fill="#312B2B" d="M232.014,215.977c0-3.359,2.784-5.12,9.248-5.823c-0.064-1.664-0.736-3.072-2.88-3.072
			c-1.536,0-3.008,0.704-4.416,1.536l-1.344-2.464c1.728-1.088,3.968-2.048,6.463-2.048c3.904,0,5.856,2.399,5.856,6.783v9.312
			h-3.04l-0.256-1.728h-0.128c-1.408,1.184-3.008,2.111-4.864,2.111C233.902,220.584,232.014,218.729,232.014,215.977z
			 M241.262,215.977v-3.52c-4.288,0.544-5.696,1.664-5.696,3.231c0,1.408,0.96,2.016,2.272,2.016
			C239.118,217.704,240.078,217.064,241.262,215.977z"/>
		<path fill="#312B2B" d="M249.358,204.489h3.04l0.256,2.784h0.128c1.12-2.048,2.784-3.168,4.447-3.168
			c0.8,0,1.312,0.096,1.792,0.32l-0.64,3.199c-0.544-0.16-0.96-0.256-1.632-0.256c-1.248,0-2.751,0.864-3.711,3.231v9.6h-3.68
			V204.489z"/>
		<path fill="#312B2B" d="M260.813,226.344l0.672-2.88c0.288,0.096,0.736,0.224,1.12,0.224c1.664,0,2.624-1.119,3.136-2.688
			l0.288-0.992l-6.176-15.519h3.744l2.72,7.712c0.448,1.376,0.896,2.943,1.376,4.415h0.128c0.384-1.439,0.8-3.008,1.184-4.415
			l2.368-7.712h3.552l-5.696,16.415c-1.312,3.552-2.944,5.76-6.368,5.76C261.997,226.664,261.389,226.536,260.813,226.344z"/>
		<path fill="#312B2B" d="M284.365,199.273h7.072c4.352,0,7.679,1.536,7.679,6.208c0,3.199-1.664,5.119-4.16,5.983l4.992,8.735
			h-4.16l-4.512-8.191h-3.2v8.191h-3.712V199.273z M291.052,209.065c2.848,0,4.416-1.217,4.416-3.584c0-2.4-1.568-3.232-4.416-3.232
			h-2.976v6.816H291.052z"/>
		<path fill="#312B2B" d="M301.645,212.36c0-5.119,3.552-8.255,7.231-8.255c4.255,0,6.496,3.071,6.496,7.455
			c0,0.704-0.064,1.408-0.16,1.792h-9.983c0.32,2.784,2.112,4.384,4.64,4.384c1.344,0,2.496-0.416,3.648-1.152l1.248,2.305
			c-1.504,0.991-3.392,1.695-5.376,1.695C305.037,220.584,301.645,217.544,301.645,212.36z M312.172,210.856
			c0-2.432-1.056-3.903-3.2-3.903c-1.855,0-3.456,1.376-3.775,3.903H312.172z"/>
		<path fill="#312B2B" d="M319.117,214.889v-7.487h-2.24v-2.752l2.432-0.16l0.448-4.288h3.072v4.288h4v2.912h-4v7.487
			c0,1.855,0.704,2.752,2.208,2.752c0.544,0,1.184-0.16,1.632-0.353l0.64,2.72c-0.864,0.288-1.952,0.576-3.2,0.576
			C320.46,220.584,319.117,218.28,319.117,214.889z"/>
		<path fill="#312B2B" d="M328.589,212.36c0-5.119,3.552-8.255,7.231-8.255c4.256,0,6.495,3.071,6.495,7.455
			c0,0.704-0.063,1.408-0.159,1.792h-9.984c0.32,2.784,2.112,4.384,4.64,4.384c1.344,0,2.495-0.416,3.647-1.152l1.248,2.305
			c-1.504,0.991-3.392,1.695-5.376,1.695C331.98,220.584,328.589,217.544,328.589,212.36z M339.116,210.856
			c0-2.432-1.056-3.903-3.2-3.903c-1.855,0-3.456,1.376-3.775,3.903H339.116z"/>
		<path fill="#312B2B" d="M345.836,204.489h3.04l0.256,2.112h0.128c1.408-1.376,3.008-2.496,5.151-2.496
			c3.359,0,4.832,2.271,4.832,6.239v9.855h-3.68v-9.375c0-2.592-0.736-3.552-2.464-3.552c-1.376,0-2.272,0.672-3.584,1.951V220.2
			h-3.68V204.489z"/>
		<path fill="#312B2B" d="M364.3,214.889v-7.487h-2.24v-2.752l2.433-0.16l0.447-4.288h3.072v4.288h3.999v2.912h-3.999v7.487
			c0,1.855,0.704,2.752,2.208,2.752c0.544,0,1.184-0.16,1.632-0.353l0.64,2.72c-0.864,0.288-1.952,0.576-3.2,0.576
			C365.644,220.584,364.3,218.28,364.3,214.889z"/>
		<path fill="#312B2B" d="M374.893,199.657c0-1.247,0.96-2.111,2.271-2.111c1.313,0,2.272,0.864,2.272,2.111
			c0,1.217-0.96,2.08-2.272,2.08C375.853,201.737,374.893,200.874,374.893,199.657z M375.309,204.489h3.68V220.2h-3.68V204.489z"/>
		<path fill="#312B2B" d="M382.667,212.36c0-5.247,3.552-8.255,7.456-8.255c3.936,0,7.487,3.008,7.487,8.255
			c0,5.216-3.552,8.224-7.487,8.224C386.219,220.584,382.667,217.576,382.667,212.36z M393.835,212.36
			c0-3.167-1.408-5.247-3.712-5.247s-3.68,2.08-3.68,5.247c0,3.136,1.376,5.216,3.68,5.216S393.835,215.496,393.835,212.36z"/>
		<path fill="#312B2B" d="M401.26,204.489h3.04l0.256,2.112h0.128c1.408-1.376,3.008-2.496,5.151-2.496
			c3.359,0,4.832,2.271,4.832,6.239v9.855h-3.68v-9.375c0-2.592-0.736-3.552-2.464-3.552c-1.376,0-2.272,0.672-3.584,1.951V220.2
			h-3.68V204.489z"/>
	</g>
</g>
</svg>
