<?xml version="1.0" encoding="utf-8"?>
<!-- Generator: Adobe Illustrator 16.0.0, SVG Export Plug-In . SVG Version: 6.00 Build 0)  -->
<!DOCTYPE svg PUBLIC "-//W3C//DTD SVG 1.1//EN" "http://www.w3.org/Graphics/SVG/1.1/DTD/svg11.dtd">
<svg version="1.1" xmlns="http://www.w3.org/2000/svg" xmlns:xlink="http://www.w3.org/1999/xlink" x="0px" y="0px" width="100px"
	 height="100px" viewBox="0 0 100 100" enable-background="new 0 0 100 100" xml:space="preserve">
<g id="圖層_2">
	<ellipse fill="#E8D5C8" cx="37.918" cy="81.596" rx="2.326" ry="5.19"/>
	<ellipse fill="#E8D5C8" cx="43.731" cy="14.025" rx="1.471" ry="1.775"/>
	
		<ellipse transform="matrix(0.9571 0.2898 -0.2898 0.9571 8.499 -13.5482)" fill="#E8D5C8" cx="49.995" cy="21.923" rx="1.702" ry="1.553"/>
	
		<ellipse transform="matrix(0.9506 0.3103 -0.3103 0.9506 9.705 -17.9483)" fill="#E8D5C8" cx="61.271" cy="21.532" rx="1.479" ry="1.533"/>
	<ellipse fill="#E8D5C8" cx="37.777" cy="22.069" rx="1.5" ry="1.713"/>
	
		<ellipse transform="matrix(0.8842 -0.467 0.467 0.8842 -7.5624 32.0459)" fill="#E8D5C8" cx="60.865" cy="31.279" rx="1.54" ry="1.499"/>
	
		<ellipse transform="matrix(0.9331 0.3596 -0.3596 0.9331 14.3715 -23.8311)" fill="#E8D5C8" cx="71.245" cy="26.716" rx="1.593" ry="1.804"/>
	<circle fill="#E8D5C8" cx="71.373" cy="42.293" r="1.127"/>
	<circle fill="none" stroke="#4E433B" stroke-miterlimit="10" cx="49.5" cy="49.75" r="44.75"/>
</g>
<g id="圖層_3">
</g>
<g id="圖層_1">
	<path fill="none" stroke="#534242" stroke-miterlimit="10" d="M37.425,76.237c-2.542-21.017,9.322-34.576,9.322-34.576"/>
	<path fill="none" stroke="#534242" stroke-miterlimit="10" d="M37.068,84.542"/>
	<path fill="none" stroke="#534242" stroke-miterlimit="10" d="M43.899,15.22c-0.207,7.242,0.202,12.996,0.772,17.263
		c0.832,6.229,2.008,9.289,2.109,9.178"/>
	<path fill="none" stroke="#534242" stroke-miterlimit="10" d="M49.849,23.373c0,0-3.898,8.982-3.729,17.796"/>
	<path fill="none" stroke="#534242" stroke-miterlimit="10" d="M46.528,41.64c3.199-1.242,13.25-9.668,13.25-9.668"/>
	<path fill="none" stroke="#534242" stroke-miterlimit="10" d="M70.239,28.802c0,0-6.446,9.525-23.021,12.636"/>
	<path fill="none" stroke="#534242" stroke-miterlimit="10" d="M38.148,23.542c0,0-0.535,8.082,8.015,17.854
		c0.094,0.107,0.905-2.813,4.173-7.473c3.897-5.56,7.598-9.311,10.169-11.859"/>
	<path fill="none" stroke="#534242" stroke-miterlimit="10" d="M46.781,41.664c5.971,1.958,18.386-1.247,24.388-3.455"/>
	<path fill="none" stroke="#7C6363" stroke-miterlimit="10" d="M45.193,13.844c0.188,2.453-2.746,2.678-2.934,0.225"/>
	<path fill="none" stroke="#7C6363" stroke-miterlimit="10" d="M62.131,31.732c-2.018,1.937-3.813,0.069-1.796-1.868"/>
	<path fill="none" stroke="#7C6363" stroke-miterlimit="10" d="M72.76,27.215c-1.863,2.914-4.393,1.3-2.527-1.615"/>
	<path fill="none" stroke="#7C6363" stroke-miterlimit="10" d="M62.753,21.567c-1.765,2.228-4.01,0.452-2.244-1.777"/>
	<path fill="none" stroke="#7C6363" stroke-miterlimit="10" d="M51.623,21.727c-1.063,3.292-3.919,2.371-2.854-0.921"/>
	<path fill="none" stroke="#7C6363" stroke-miterlimit="10" d="M39.276,21.18c0.054,3.459-2.946,3.506-2.999,0.047"/>
	<path fill="none" stroke="#534242" stroke-miterlimit="10" d="M30.75,19.435c0,0,2.047,11.857,15.461,22.229"/>
	<path fill="none" stroke="#534242" stroke-miterlimit="10" d="M69.922,43.125c0,0-10.584,3.283-24.048-1.702"/>
	<path fill="none" stroke="#7C6363" stroke-miterlimit="10" d="M72.298,43.333c-2.087,1.339-3.45-0.783-1.362-2.123"/>
	<path fill="none" stroke="#7C6363" stroke-miterlimit="10" d="M29.478,28.753"/>
	<path fill="none" stroke="#534242" stroke-miterlimit="10" d="M29.64,27.412c0,0,1.896,9.394,16.14,14.008"/>
	<path fill="none" stroke="#534242" stroke-miterlimit="10" d="M65.172,47.415c0,0-9.885,0.376-19.155-5.926"/>
	<path fill="none" stroke="#595050" stroke-miterlimit="10" d="M37.777,80.5c0,0,1.026,6.854,1.5,5.794"/>
	<path fill="none" stroke="#595050" stroke-miterlimit="10" d="M36.75,76.5c0,0-2.604,3.652,0,8.25
		c2.148,3.792,3.225,1.125,3.225,1.125C40.861,79.5,39.5,75.75,36.75,76.5z"/>
</g>
</svg>
