<?xml version="1.0" encoding="utf-8"?>
<!-- Generator: Adobe Illustrator 16.0.0, SVG Export Plug-In . SVG Version: 6.00 Build 0)  -->
<!DOCTYPE svg PUBLIC "-//W3C//DTD SVG 1.1//EN" "http://www.w3.org/Graphics/SVG/1.1/DTD/svg11.dtd">
<svg version="1.1" xmlns="http://www.w3.org/2000/svg" xmlns:xlink="http://www.w3.org/1999/xlink" x="0px" y="0px" width="200px"
	 height="100px" viewBox="0 0 200 100" enable-background="new 0 0 200 100" xml:space="preserve">
<g id="圖層_2">
	
		<ellipse transform="matrix(-0.074 -0.9973 0.9973 -0.074 -60.4519 120.3197)" fill="#E8D5C8" cx="25.636" cy="88.227" rx="6.191" ry="2.675"/>
	
		<ellipse transform="matrix(-0.0741 -0.9973 0.9973 -0.0741 13.8936 37.1293)" fill="#E8D5C8" cx="24.184" cy="12.115" rx="1.839" ry="1.996"/>
	<path fill="#E8D5C8" d="M33.895,20.62c-0.261,1.219-1.355,2.001-2.443,1.746c-1.091-0.254-1.763-1.45-1.502-2.669
		c0.26-1.219,1.354-2,2.443-1.746C33.481,18.205,34.155,19.401,33.895,20.62z"/>
	<path fill="#E8D5C8" d="M47.219,18.974c-0.275,1.173-1.143,1.958-1.938,1.753c-0.796-0.204-1.214-1.321-0.938-2.494
		c0.276-1.172,1.143-1.957,1.938-1.752C47.077,16.686,47.497,17.802,47.219,18.974z"/>
	
		<ellipse transform="matrix(-0.0739 -0.9973 0.9973 -0.0739 -3.4661 40.8382)" fill="#E8D5C8" cx="17.23" cy="22.029" rx="1.775" ry="1.499"/>
	<path fill="#E8D5C8" d="M48.407,30.294c0.485,0.802,0.125,1.945-0.809,2.549c-0.934,0.604-2.086,0.443-2.574-0.359
		c-0.486-0.804-0.124-1.946,0.809-2.55C46.767,29.33,47.918,29.49,48.407,30.294z"/>
	<path fill="#E8D5C8" d="M59.999,25.082c-0.476,1.636-1.541,2.747-2.385,2.48c-0.844-0.266-1.143-1.808-0.668-3.445
		c0.475-1.635,1.54-2.746,2.383-2.479C60.172,21.904,60.472,23.445,59.999,25.082z"/>
	
		<ellipse transform="matrix(-0.0742 -0.9972 0.9972 -0.0742 21.5151 107.4997)" fill="#E8D5C8" cx="60.658" cy="43.763" rx="1.626" ry="1.751"/>
</g>
<g id="圖層_1">
	<path fill="none" stroke="#757D77" stroke-width="2" stroke-miterlimit="10" d="M24.358,82.273
		c-3.792-21.994,5.181-37.032,5.181-37.032"/>
	<path fill="none" stroke="#534242" stroke-width="2" stroke-miterlimit="10" d="M24.767,91.902"/>
	<path fill="none" stroke="#757D77" stroke-width="2" stroke-miterlimit="10" d="M24.275,13.939
		c0.394,8.698,1.401,15.559,2.468,20.622c1.558,7.392,3.25,10.954,3.364,10.811"/>
	<path fill="none" stroke="#757D77" stroke-width="2" stroke-miterlimit="10" d="M32.186,23.178c0,0-3.911,11.116-2.923,21.665"/>
	<path fill="none" stroke="#757D77" stroke-width="2" stroke-miterlimit="10" d="M29.8,45.37
		c3.753-1.775,15.145-12.774,15.145-12.774"/>
	<path fill="none" stroke="#757D77" stroke-width="2" stroke-miterlimit="10" d="M57.298,27.858c0,0-6.938,11.993-26.684,17.208"/>
	<path fill="none" stroke="#757D77" stroke-width="2" stroke-miterlimit="10" d="M18.069,24.429c0,0,0.072,9.735,11.268,20.682
		c0.123,0.121,0.843-3.453,4.376-9.331c4.213-7.013,8.35-11.84,11.229-15.125"/>
	<path fill="none" stroke="#757D77" stroke-width="2" stroke-miterlimit="10" d="M30.107,45.375
		c7.386,1.812,22.098-3.142,29.149-6.326"/>
	<path fill="none" stroke="#7C6363" stroke-width="2" stroke-miterlimit="10" d="M25.715,12.174
		c0.446,2.923-3.078,3.455-3.522,0.532"/>
	<path fill="none" stroke="#7C6363" stroke-width="2" stroke-miterlimit="10" d="M47.763,32.098
		c-2.264,2.501-4.599,0.424-2.334-2.079"/>
	<path fill="none" stroke="#7C6363" stroke-width="2" stroke-miterlimit="10" d="M60.202,25.73c-1.988,3.66-5.189,1.952-3.193-1.708
		"/>
	<path fill="none" stroke="#7C6363" stroke-width="2" stroke-miterlimit="10" d="M47.613,19.858c-1.935,2.828-4.802,0.9-2.868-1.929
		"/>
	<path fill="none" stroke="#7C6363" stroke-width="2" stroke-miterlimit="10" d="M34.185,21.046
		c-0.993,4.041-4.523,3.193-3.531-0.848"/>
	<path fill="none" stroke="#7C6363" stroke-width="2" stroke-miterlimit="10" d="M19.221,21.496
		c0.372,4.142-3.247,4.467-3.618,0.327"/>
	<path fill="none" stroke="#757D77" stroke-width="2" stroke-miterlimit="10" d="M8.766,20.168c0,0,3.526,14.028,20.651,25.258"/>
	<path fill="none" stroke="#757D77" stroke-width="2" stroke-miterlimit="10" d="M58.19,45.054c0,0-12.494,4.883-29.201,0.115"/>
	<path fill="none" stroke="#7C6363" stroke-width="2" stroke-miterlimit="10" d="M61.077,45.091c-2.4,1.793-4.236-0.63-1.832-2.421"
		/>
	<path fill="none" stroke="#7C6363" stroke-width="2" stroke-miterlimit="10" d="M8.059,31.452"/>
	<path fill="none" stroke="#757D77" stroke-width="2" stroke-miterlimit="10" d="M8.135,29.829c0,0,3.124,11.088,20.74,15.343"/>
	<path fill="none" stroke="#757D77" stroke-width="2" stroke-miterlimit="10" d="M58.72,50.786c0,0-14.84,1.254-29.55-5.552"/>
	<path fill="none" stroke="#757D77" stroke-width="2" stroke-miterlimit="10" d="M25.279,87.165c0,0,1.828,7.837,2.308,6.567"/>
	<path fill="none" stroke="#757D77" stroke-width="2" stroke-miterlimit="10" d="M23.694,82.627c0,0-2.833,4.46,0.708,9.546
		c2.921,4.193,3.992,1.013,3.992,1.013C28.917,85.73,26.951,81.516,23.694,82.627z"/>
	<g>
		<path fill="none" stroke="#706A6A" stroke-width="1.5" stroke-miterlimit="10" d="M52.151,75.733l0.396-0.068
			c0.492-0.082,0.959-0.189,1.401-0.321c0.442-0.132,0.827-0.33,1.155-0.595s0.59-0.617,0.786-1.06
			c0.196-0.442,0.294-1.019,0.294-1.729c0-0.528-0.082-0.984-0.246-1.367s-0.392-0.697-0.684-0.943
			c-0.292-0.246-0.647-0.429-1.066-0.547c-0.419-0.118-0.88-0.178-1.381-0.178c-0.265,0-0.492,0.007-0.684,0.021
			s-0.429,0.034-0.711,0.062V82.05h-1.9V68.118c0.574-0.046,1.208-0.082,1.9-0.109c0.692-0.027,1.372-0.041,2.037-0.041
			c0.811,0,1.518,0.091,2.119,0.273s1.098,0.439,1.49,0.772c0.392,0.333,0.684,0.738,0.875,1.217s0.287,1.019,0.287,1.62
			c0,0.629-0.114,1.217-0.342,1.764c-0.228,0.547-0.581,1.021-1.06,1.422s-1.085,0.718-1.818,0.95
			c-0.734,0.232-1.606,0.349-2.618,0.349h-0.123L52.151,75.733z"/>
		<path fill="none" stroke="#706A6A" stroke-width="1.5" stroke-miterlimit="10" d="M71.708,82.05v-6.508H64.01v6.508h-1.9v-14h1.9
			v6.467h7.697V68.05h1.9v14H71.708z"/>
		<path fill="none" stroke="#706A6A" stroke-width="1.5" stroke-miterlimit="10" d="M91.414,74.995c0,1.112-0.143,2.114-0.43,3.008
			s-0.713,1.654-1.279,2.283c-0.564,0.629-1.273,1.112-2.125,1.449c-0.854,0.337-1.844,0.506-2.974,0.506
			c-1.148,0-2.138-0.173-2.967-0.52c-0.83-0.347-1.509-0.836-2.037-1.47c-0.529-0.634-0.918-1.395-1.169-2.283
			c-0.251-0.889-0.376-1.88-0.376-2.974s0.127-2.078,0.383-2.953c0.255-0.875,0.651-1.62,1.189-2.235
			c0.538-0.615,1.221-1.087,2.051-1.415c0.829-0.328,1.813-0.492,2.953-0.492c1.13,0,2.119,0.164,2.966,0.492s1.555,0.8,2.119,1.415
			c0.566,0.615,0.99,1.36,1.271,2.235C91.273,72.917,91.414,73.901,91.414,74.995z M89.376,74.995c0-0.894-0.09-1.709-0.273-2.447
			c-0.182-0.738-0.467-1.372-0.854-1.9c-0.389-0.528-0.881-0.938-1.477-1.23c-0.598-0.292-1.311-0.438-2.14-0.438
			c-0.72,0-1.39,0.077-2.01,0.232c-0.62,0.155-1.112,0.388-1.477,0.697c-0.201,0.173-0.369,0.429-0.506,0.766
			s-0.246,0.731-0.328,1.183s-0.142,0.943-0.178,1.477c-0.037,0.533-0.055,1.087-0.055,1.661c0,0.884,0.075,1.702,0.226,2.454
			s0.398,1.401,0.745,1.948c0.346,0.547,0.809,0.976,1.388,1.285c0.579,0.31,1.301,0.465,2.167,0.465
			c0.829,0,1.533-0.075,2.113-0.226c0.578-0.15,1.096-0.422,1.551-0.813c0.201-0.164,0.369-0.422,0.506-0.772
			s0.252-0.757,0.342-1.217c0.092-0.46,0.158-0.959,0.199-1.497S89.376,75.542,89.376,74.995z"/>
		<path fill="none" stroke="#706A6A" stroke-width="1.5" stroke-miterlimit="10" d="M103.342,82.05h-7.479v-14h7.178l-0.137,1.012
			l-5.141,0.068v4.963l4.84,0.055l-0.137,0.889l-4.704,0.109v5.824l5.715,0.109L103.342,82.05z"/>
		<path fill="none" stroke="#706A6A" stroke-width="1.5" stroke-miterlimit="10" d="M116.486,78.263c0,0.62-0.094,1.171-0.281,1.654
			c-0.186,0.483-0.479,0.896-0.875,1.237s-0.908,0.602-1.537,0.779s-1.381,0.267-2.256,0.267c-0.293,0-0.615-0.005-0.971-0.014
			s-0.719-0.022-1.088-0.041s-0.73-0.041-1.086-0.068s-0.68-0.055-0.971-0.082v-13.85c0.547-0.063,1.127-0.109,1.742-0.137
			s1.229-0.041,1.84-0.041c0.746,0,1.416,0.063,2.01,0.191c0.592,0.128,1.098,0.323,1.518,0.588c0.418,0.265,0.74,0.608,0.963,1.032
			c0.225,0.424,0.336,0.928,0.336,1.511c0,0.474-0.076,0.894-0.227,1.258s-0.35,0.679-0.602,0.943
			c-0.25,0.265-0.537,0.48-0.861,0.649c-0.322,0.169-0.654,0.294-0.99,0.376v0.041c0.564,0.118,1.057,0.294,1.477,0.526
			c0.418,0.232,0.766,0.508,1.039,0.827s0.479,0.679,0.615,1.08S116.486,77.816,116.486,78.263z M113.861,71.509
			c0-0.456-0.07-0.843-0.213-1.162c-0.141-0.319-0.342-0.581-0.602-0.786s-0.576-0.355-0.949-0.451
			c-0.375-0.096-0.793-0.144-1.258-0.144c-0.211,0-0.389,0.002-0.533,0.007c-0.146,0.005-0.275,0.012-0.391,0.021
			c-0.113,0.009-0.217,0.019-0.307,0.027c-0.092,0.009-0.188,0.019-0.287,0.027v5.086h1.818c0.373,0,0.713-0.034,1.018-0.103
			c0.307-0.068,0.563-0.157,0.773-0.267c0.1-0.055,0.205-0.135,0.314-0.239s0.209-0.246,0.301-0.424
			c0.09-0.178,0.166-0.396,0.225-0.656C113.832,72.186,113.861,71.873,113.861,71.509z M114.504,78.208
			c0-0.556-0.094-1.03-0.281-1.422c-0.186-0.392-0.438-0.711-0.752-0.957s-0.682-0.424-1.1-0.533
			c-0.42-0.109-0.861-0.164-1.326-0.164h-1.723v5.92c0.199,0.019,0.467,0.043,0.799,0.075c0.334,0.032,0.699,0.048,1.102,0.048
			c0.199,0,0.41-0.007,0.629-0.021s0.43-0.036,0.635-0.068s0.395-0.07,0.568-0.116c0.172-0.046,0.314-0.101,0.424-0.164
			c0.117-0.063,0.236-0.15,0.355-0.26c0.117-0.109,0.227-0.265,0.328-0.465c0.1-0.2,0.182-0.451,0.246-0.752
			C114.471,79.028,114.504,78.654,114.504,78.208z"/>
		<path fill="none" stroke="#706A6A" stroke-width="1.5" stroke-miterlimit="10" d="M128.086,82.05h-7.479v-14h7.178l-0.137,1.012
			l-5.141,0.068v4.963l4.84,0.055l-0.137,0.889l-4.703,0.109v5.824l5.715,0.109L128.086,82.05z"/>
		<path fill="none" stroke="#706A6A" stroke-width="1.5" stroke-miterlimit="10" d="M142.902,82.241c-1.012,0-1.867-0.173-2.57-0.52
			c-0.701-0.347-1.273-0.834-1.715-1.463c-0.443-0.629-0.764-1.388-0.965-2.276c-0.199-0.889-0.301-1.88-0.301-2.974
			c0-1.331,0.191-2.449,0.574-3.356s0.883-1.641,1.498-2.201s1.305-0.962,2.07-1.203s1.531-0.362,2.297-0.362
			c0.283,0,0.598,0.009,0.943,0.027c0.348,0.019,0.684,0.041,1.012,0.068s0.637,0.057,0.924,0.089s0.512,0.066,0.676,0.103
			l-0.506,1.668c-0.182-0.055-0.438-0.118-0.766-0.191s-0.682-0.139-1.059-0.198c-0.379-0.06-0.75-0.109-1.115-0.15
			c-0.363-0.041-0.67-0.062-0.916-0.062c-0.547,0-1.016,0.043-1.408,0.13c-0.391,0.087-0.756,0.262-1.094,0.526
			c-0.41,0.319-0.697,0.921-0.861,1.805s-0.246,1.987-0.246,3.309c0,2.015,0.295,3.543,0.883,4.587s1.533,1.565,2.836,1.565
			c0.365,0,0.744-0.014,1.135-0.041c0.393-0.027,0.781-0.068,1.17-0.123c0.387-0.055,0.768-0.123,1.141-0.205
			c0.375-0.082,0.725-0.178,1.053-0.287v0.725c-0.336,0.164-0.699,0.308-1.086,0.431c-0.389,0.123-0.785,0.228-1.189,0.314
			c-0.406,0.087-0.814,0.152-1.225,0.198S143.285,82.241,142.902,82.241z"/>
		<path fill="none" stroke="#706A6A" stroke-width="1.5" stroke-miterlimit="10" d="M161.146,82.05v-6.508h-7.697v6.508h-1.9v-14
			h1.9v6.467h7.697V68.05h1.9v14H161.146z"/>
		<path fill="none" stroke="#706A6A" stroke-width="1.5" stroke-miterlimit="10" d="M175.426,82.05h-7.479v-14h7.178l-0.137,1.012
			l-5.141,0.068v4.963l4.84,0.055l-0.137,0.889l-4.703,0.109v5.824l5.715,0.109L175.426,82.05z"/>
		<path fill="none" stroke="#706A6A" stroke-width="1.5" stroke-miterlimit="10" d="M190.58,82.118l-9.885-10.91h-0.041
			c0.018,1.03,0.035,1.969,0.055,2.816c0.008,0.364,0.016,0.727,0.02,1.087c0.006,0.36,0.01,0.69,0.014,0.991
			c0.006,0.301,0.01,0.561,0.014,0.779c0.006,0.219,0.008,0.369,0.008,0.451v4.717h-1.258V67.954h0.834l9.898,10.883h0.014
			c-0.02-0.957-0.033-1.846-0.041-2.666c0-0.347-0.002-0.697-0.008-1.053c-0.004-0.355-0.008-0.69-0.014-1.005
			c-0.004-0.314-0.006-0.595-0.006-0.841s0-0.438,0-0.574v-4.635h1.258v14.055H190.58z"/>
	</g>
</g>
</svg>
