<?xml version="1.0" encoding="utf-8"?>
<!-- Generator: Adobe Illustrator 16.0.0, SVG Export Plug-In . SVG Version: 6.00 Build 0)  -->
<!DOCTYPE svg PUBLIC "-//W3C//DTD SVG 1.1//EN" "http://www.w3.org/Graphics/SVG/1.1/DTD/svg11.dtd">
<svg version="1.1" xmlns="http://www.w3.org/2000/svg" xmlns:xlink="http://www.w3.org/1999/xlink" x="0px" y="0px" width="100px"
	 height="100px" viewBox="0 0 100 100" enable-background="new 0 0 100 100" xml:space="preserve">
<g id="圖層_2">
	
		<ellipse transform="matrix(0.9973 -0.0739 0.0739 0.9973 -6.4256 3.3435)" fill="#E8D5C8" cx="41.953" cy="88.472" rx="2.675" ry="6.191"/>
	
		<ellipse transform="matrix(0.9973 -0.074 0.074 0.9973 -0.8038 3.0301)" fill="#E8D5C8" cx="40.498" cy="12.365" rx="1.996" ry="1.839"/>
	<path fill="#E8D5C8" d="M50.211,20.87c-0.261,1.219-1.355,2.001-2.444,1.746c-1.09-0.254-1.762-1.45-1.501-2.669
		c0.26-1.219,1.353-2,2.443-1.746C49.797,18.455,50.471,19.651,50.211,20.87z"/>
	<path fill="#E8D5C8" d="M63.535,19.224c-0.275,1.173-1.143,1.958-1.938,1.753c-0.795-0.204-1.213-1.321-0.938-2.494
		c0.276-1.172,1.143-1.957,1.938-1.752S63.812,18.052,63.535,19.224z"/>
	
		<ellipse transform="matrix(0.9973 -0.0739 0.0739 0.9973 -1.5549 2.5406)" fill="#E8D5C8" cx="33.545" cy="22.277" rx="1.499" ry="1.775"/>
	<path fill="#E8D5C8" d="M64.722,30.544c0.486,0.802,0.125,1.945-0.808,2.549c-0.934,0.604-2.086,0.443-2.574-0.359
		c-0.487-0.804-0.124-1.946,0.809-2.55C63.083,29.58,64.234,29.74,64.722,30.544z"/>
	<path fill="#E8D5C8" d="M76.314,25.332c-0.475,1.636-1.541,2.747-2.385,2.48c-0.843-0.266-1.142-1.808-0.668-3.445
		c0.475-1.635,1.541-2.746,2.384-2.479C76.489,22.154,76.788,23.695,76.314,25.332z"/>
	
		<ellipse transform="matrix(0.9973 -0.074 0.074 0.9973 -3.0464 5.8183)" fill="#E8D5C8" cx="76.972" cy="44.009" rx="1.751" ry="1.626"/>
	<linearGradient id="SVGID_1_" gradientUnits="userSpaceOnUse" x1="1.25" y1="50.25" x2="99.75" y2="50.25">
		<stop  offset="0" style="stop-color:#666666"/>
		<stop  offset="1" style="stop-color:#736357"/>
	</linearGradient>
	<circle fill="none" stroke="url(#SVGID_1_)" stroke-width="2" stroke-miterlimit="10" cx="50.5" cy="50.25" r="48.25"/>
</g>
<g id="圖層_3">
</g>
<g id="圖層_1">
	<path fill="none" stroke="#757D77" stroke-width="2" stroke-miterlimit="10" d="M40.41,82.523
		c-3.792-21.994,5.181-37.032,5.181-37.032"/>
	<path fill="none" stroke="#534242" stroke-width="2" stroke-miterlimit="10" d="M40.819,92.153"/>
	<path fill="none" stroke="#757D77" stroke-width="2" stroke-miterlimit="10" d="M40.327,14.189
		c0.394,8.698,1.401,15.559,2.468,20.622c1.558,7.392,3.25,10.954,3.364,10.811"/>
	<path fill="none" stroke="#757D77" stroke-width="2" stroke-miterlimit="10" d="M48.238,23.428c0,0-3.911,11.116-2.923,21.665"/>
	<path fill="none" stroke="#757D77" stroke-width="2" stroke-miterlimit="10" d="M45.852,45.62
		c3.753-1.775,15.145-12.774,15.145-12.774"/>
	<path fill="none" stroke="#757D77" stroke-width="2" stroke-miterlimit="10" d="M73.35,28.108c0,0-6.938,11.993-26.684,17.208"/>
	<path fill="none" stroke="#757D77" stroke-width="2" stroke-miterlimit="10" d="M34.121,24.679c0,0,0.072,9.735,11.268,20.682
		c0.123,0.121,0.843-3.453,4.376-9.331c4.214-7.013,8.35-11.84,11.229-15.125"/>
	<path fill="none" stroke="#757D77" stroke-width="2" stroke-miterlimit="10" d="M46.159,45.625
		c7.386,1.812,22.098-3.142,29.15-6.326"/>
	<path fill="none" stroke="#7C6363" stroke-width="2" stroke-miterlimit="10" d="M41.767,12.424
		c0.446,2.923-3.078,3.455-3.522,0.532"/>
	<path fill="none" stroke="#7C6363" stroke-width="2" stroke-miterlimit="10" d="M63.815,32.348
		c-2.264,2.501-4.599,0.424-2.334-2.079"/>
	<path fill="none" stroke="#7C6363" stroke-width="2" stroke-miterlimit="10" d="M76.254,25.98c-1.989,3.66-5.19,1.952-3.194-1.708"
		/>
	<path fill="none" stroke="#7C6363" stroke-width="2" stroke-miterlimit="10" d="M63.665,20.108c-1.934,2.828-4.802,0.9-2.868-1.929
		"/>
	<path fill="none" stroke="#7C6363" stroke-width="2" stroke-miterlimit="10" d="M50.236,21.296
		c-0.993,4.041-4.523,3.193-3.531-0.848"/>
	<path fill="none" stroke="#7C6363" stroke-width="2" stroke-miterlimit="10" d="M35.273,21.746
		c0.372,4.142-3.247,4.467-3.618,0.327"/>
	<path fill="none" stroke="#757D77" stroke-width="2" stroke-miterlimit="10" d="M24.818,20.418c0,0,3.526,14.028,20.651,25.258"/>
	<path fill="none" stroke="#757D77" stroke-width="2" stroke-miterlimit="10" d="M74.242,45.304c0,0-12.494,4.883-29.201,0.115"/>
	<path fill="none" stroke="#7C6363" stroke-width="2" stroke-miterlimit="10" d="M77.129,45.341
		c-2.401,1.793-4.237-0.63-1.832-2.421"/>
	<path fill="none" stroke="#7C6363" stroke-width="2" stroke-miterlimit="10" d="M24.111,31.702"/>
	<path fill="none" stroke="#757D77" stroke-width="2" stroke-miterlimit="10" d="M24.187,30.079c0,0,3.124,11.088,20.74,15.343"/>
	<path fill="none" stroke="#757D77" stroke-width="2" stroke-miterlimit="10" d="M74.771,51.036c0,0-14.839,1.254-29.55-5.552"/>
	<path fill="none" stroke="#757D77" stroke-width="2" stroke-miterlimit="10" d="M41.331,87.415c0,0,1.828,7.837,2.308,6.567"/>
	<path fill="none" stroke="#757D77" stroke-width="2" stroke-miterlimit="10" d="M39.746,82.877c0,0-2.833,4.46,0.708,9.546
		c2.921,4.193,3.992,1.013,3.992,1.013C44.969,85.981,43.003,81.766,39.746,82.877z"/>
	<g>
		<path fill="#6C7C70" d="M57.678,81.659l-2.775,4.621v3.192h-1.675V86.28l-2.775-4.621h1.777l1.853,3.322l1.832-3.322H57.678z"/>
		<path fill="#6C7C70" d="M60.214,89.473h-1.695v-1.613h1.695V89.473z"/>
		<path fill="#6C7C70" d="M65.19,89.596c-0.552,0-1.058-0.088-1.518-0.264c-0.46-0.175-0.854-0.445-1.183-0.81
			c-0.337-0.369-0.585-0.798-0.741-1.285c-0.158-0.487-0.236-1.044-0.236-1.668c0-1.249,0.326-2.235,0.978-2.96
			c0.337-0.364,0.733-0.637,1.189-0.816c0.456-0.181,0.959-0.271,1.511-0.271c0.438,0,0.839,0.053,1.203,0.157
			s0.697,0.267,0.998,0.485c0.369,0.273,0.641,0.586,0.813,0.937s0.285,0.747,0.335,1.189h-1.668
			c-0.055-0.424-0.228-0.756-0.52-0.994c-0.292-0.24-0.679-0.359-1.162-0.359c-0.296,0-0.566,0.059-0.811,0.174
			c-0.243,0.117-0.451,0.286-0.621,0.51c-0.172,0.224-0.304,0.499-0.396,0.827c-0.094,0.328-0.141,0.702-0.141,1.121
			s0.046,0.792,0.137,1.118c0.091,0.325,0.221,0.602,0.39,0.826c0.169,0.227,0.374,0.396,0.615,0.514
			c0.241,0.115,0.513,0.174,0.813,0.174c0.483,0,0.87-0.124,1.162-0.373c0.292-0.248,0.47-0.604,0.533-1.069h1.654
			c-0.05,0.456-0.16,0.86-0.332,1.214c-0.17,0.353-0.406,0.657-0.707,0.912c-0.301,0.246-0.641,0.426-1.019,0.54
			S65.664,89.596,65.19,89.596z"/>
		<path fill="#6C7C70" d="M71.541,89.473h-1.695v-1.613h1.695V89.473z"/>
	</g>
</g>
</svg>
