<?xml version="1.0" encoding="utf-8"?>
<!-- Generator: Adobe Illustrator 16.0.0, SVG Export Plug-In . SVG Version: 6.00 Build 0)  -->
<!DOCTYPE svg PUBLIC "-//W3C//DTD SVG 1.1//EN" "http://www.w3.org/Graphics/SVG/1.1/DTD/svg11.dtd">
<svg version="1.1" id="圖層_1" xmlns="http://www.w3.org/2000/svg" xmlns:xlink="http://www.w3.org/1999/xlink" x="0px" y="0px"
	 width="100px" height="100px" viewBox="0 0 100 100" enable-background="new 0 0 100 100" xml:space="preserve">
<g id="圖層_2">
	
		<ellipse transform="matrix(-0.0739 -0.9973 0.9973 -0.0739 -43.182 136.8527)" fill="#E8D5C8" cx="41.952" cy="88.477" rx="6.191" ry="2.675"/>
	
		<ellipse transform="matrix(-0.0739 -0.9973 0.9973 -0.0739 31.1636 53.6679)" fill="#E8D5C8" cx="40.5" cy="12.365" rx="1.839" ry="1.996"/>
	<path fill="#E8D5C8" d="M50.211,20.87c-0.261,1.219-1.355,2.001-2.444,1.746c-1.09-0.254-1.762-1.45-1.501-2.669
		c0.26-1.219,1.353-2,2.443-1.746C49.797,18.455,50.471,19.651,50.211,20.87z"/>
	<path fill="#E8D5C8" d="M63.535,19.224c-0.275,1.173-1.143,1.958-1.938,1.753c-0.796-0.204-1.214-1.321-0.938-2.494
		c0.276-1.172,1.143-1.957,1.938-1.752C63.393,16.936,63.813,18.052,63.535,19.224z"/>
	
		<ellipse transform="matrix(-0.0739 -0.9973 0.9973 -0.0739 13.8055 57.378)" fill="#E8D5C8" cx="33.546" cy="22.279" rx="1.775" ry="1.499"/>
	<path fill="#E8D5C8" d="M64.723,30.544c0.485,0.802,0.125,1.945-0.809,2.549c-0.934,0.604-2.086,0.443-2.574-0.359
		c-0.486-0.804-0.124-1.946,0.809-2.55C63.083,29.58,64.234,29.74,64.723,30.544z"/>
	<path fill="#E8D5C8" d="M76.314,25.332c-0.476,1.636-1.541,2.747-2.385,2.48c-0.844-0.266-1.143-1.808-0.668-3.445
		c0.475-1.635,1.54-2.746,2.383-2.479C76.488,22.154,76.788,23.695,76.314,25.332z"/>
	
		<ellipse transform="matrix(-0.0742 -0.9972 0.9972 -0.0742 38.7918 124.0392)" fill="#E8D5C8" cx="76.974" cy="44.013" rx="1.626" ry="1.751"/>
	
		<linearGradient id="SVGID_1_" gradientUnits="userSpaceOnUse" x1="248.9102" y1="-320.21" x2="347.4102" y2="-320.21" gradientTransform="matrix(1 0 0 -1 -247.6602 -269.96)">
		<stop  offset="0" style="stop-color:#666666"/>
		<stop  offset="1" style="stop-color:#736357"/>
	</linearGradient>
	<circle fill="none" stroke="url(#SVGID_1_)" stroke-width="2" stroke-miterlimit="10" cx="50.5" cy="50.25" r="48.25"/>
</g>
<g id="圖層_3">
</g>
<path fill="none" stroke="#757D77" stroke-width="2" stroke-miterlimit="10" d="M40.41,82.523
	c-3.792-21.994,5.181-37.032,5.181-37.032"/>
<path fill="none" stroke="#534242" stroke-width="2" stroke-miterlimit="10" d="M40.819,92.152"/>
<path fill="none" stroke="#757D77" stroke-width="2" stroke-miterlimit="10" d="M40.327,14.189
	c0.394,8.698,1.401,15.559,2.468,20.622c1.558,7.392,3.25,10.954,3.364,10.811"/>
<path fill="none" stroke="#757D77" stroke-width="2" stroke-miterlimit="10" d="M48.238,23.428c0,0-3.911,11.116-2.923,21.665"/>
<path fill="none" stroke="#757D77" stroke-width="2" stroke-miterlimit="10" d="M45.852,45.62
	c3.753-1.775,15.145-12.774,15.145-12.774"/>
<path fill="none" stroke="#757D77" stroke-width="2" stroke-miterlimit="10" d="M73.35,28.108c0,0-6.938,11.993-26.684,17.208"/>
<path fill="none" stroke="#757D77" stroke-width="2" stroke-miterlimit="10" d="M34.121,24.679c0,0,0.072,9.735,11.268,20.682
	c0.123,0.121,0.843-3.453,4.376-9.331c4.213-7.013,8.35-11.84,11.229-15.125"/>
<path fill="none" stroke="#757D77" stroke-width="2" stroke-miterlimit="10" d="M46.159,45.625
	c7.386,1.812,22.098-3.142,29.149-6.326"/>
<path fill="none" stroke="#7C6363" stroke-width="2" stroke-miterlimit="10" d="M41.767,12.424c0.446,2.923-3.078,3.455-3.522,0.532
	"/>
<path fill="none" stroke="#7C6363" stroke-width="2" stroke-miterlimit="10" d="M63.814,32.348
	c-2.264,2.501-4.599,0.424-2.334-2.079"/>
<path fill="none" stroke="#7C6363" stroke-width="2" stroke-miterlimit="10" d="M76.254,25.98c-1.988,3.66-5.189,1.952-3.193-1.708"
	/>
<path fill="none" stroke="#7C6363" stroke-width="2" stroke-miterlimit="10" d="M63.665,20.108c-1.935,2.828-4.802,0.9-2.868-1.929"
	/>
<path fill="none" stroke="#7C6363" stroke-width="2" stroke-miterlimit="10" d="M50.236,21.296
	c-0.993,4.041-4.523,3.193-3.531-0.848"/>
<path fill="none" stroke="#7C6363" stroke-width="2" stroke-miterlimit="10" d="M35.273,21.746c0.372,4.142-3.247,4.467-3.618,0.327
	"/>
<path fill="none" stroke="#757D77" stroke-width="2" stroke-miterlimit="10" d="M24.818,20.418c0,0,3.526,14.028,20.651,25.258"/>
<path fill="none" stroke="#757D77" stroke-width="2" stroke-miterlimit="10" d="M74.242,45.304c0,0-12.494,4.883-29.201,0.115"/>
<path fill="none" stroke="#7C6363" stroke-width="2" stroke-miterlimit="10" d="M77.129,45.341c-2.4,1.793-4.236-0.63-1.832-2.421"
	/>
<path fill="none" stroke="#7C6363" stroke-width="2" stroke-miterlimit="10" d="M24.111,31.702"/>
<path fill="none" stroke="#757D77" stroke-width="2" stroke-miterlimit="10" d="M24.187,30.079c0,0,3.124,11.088,20.74,15.343"/>
<path fill="none" stroke="#757D77" stroke-width="2" stroke-miterlimit="10" d="M74.771,51.036c0,0-14.84,1.254-29.55-5.552"/>
<path fill="none" stroke="#757D77" stroke-width="2" stroke-miterlimit="10" d="M41.331,87.415c0,0,1.828,7.837,2.308,6.567"/>
<path fill="none" stroke="#757D77" stroke-width="2" stroke-miterlimit="10" d="M39.746,82.877c0,0-2.833,4.46,0.708,9.546
	c2.921,4.193,3.992,1.013,3.992,1.013C44.969,85.98,43.003,81.766,39.746,82.877z"/>
<g>
	<path fill="none" stroke="#4E4B4A" stroke-width="1.3" stroke-miterlimit="10" d="M54.704,86.725c0-0.129-0.012-0.281-0.035-0.457
		c0.121,0.055,0.221,0.095,0.299,0.12c0.079,0.025,0.174,0.047,0.285,0.064s0.214,0.026,0.308,0.026c0.224,0,0.433-0.057,0.628-0.17
		s0.394-0.344,0.593-0.691s0.433-0.825,0.698-1.433l-1.291-3.594l-0.928-2.509c0.113,0.004,0.206,0.006,0.28,0.006
		s0.165-0.002,0.274-0.006l0.105,0.416c0.043,0.16,0.093,0.322,0.147,0.485c0.07,0.227,0.174,0.529,0.311,0.908l1.333,3.801
		l1.849-4.123c0.168-0.379,0.284-0.651,0.351-0.819s0.146-0.391,0.24-0.668c0.113,0.004,0.202,0.006,0.265,0.006
		c0.066,0,0.157-0.002,0.271-0.006c-0.195,0.438-0.553,1.213-1.071,2.326l-1.142,2.467l-1.095,2.414
		c-0.173,0.371-0.321,0.645-0.446,0.82c-0.102,0.137-0.207,0.254-0.316,0.352c-0.082,0.07-0.174,0.131-0.275,0.182
		c-0.122,0.063-0.253,0.109-0.394,0.141c-0.152,0.039-0.309,0.059-0.469,0.059C55.231,86.842,54.974,86.803,54.704,86.725z"/>
	<path fill="none" stroke="#4E4B4A" stroke-width="1.3" stroke-miterlimit="10" d="M64.214,84c0.012-0.16,0.019-0.287,0.021-0.381
		s0.005-0.18,0.009-0.258c0.143,0.004,0.253,0.006,0.331,0.006c0.083,0,0.193-0.002,0.331-0.006
		c-0.008,0.117-0.014,0.229-0.018,0.337S64.878,83.906,64.87,84c-0.138-0.004-0.246-0.006-0.325-0.006
		C64.462,83.994,64.352,83.996,64.214,84z"/>
	<path fill="none" stroke="#4E4B4A" stroke-width="1.3" stroke-miterlimit="10" d="M73.665,83.525
		c-0.039,0.16-0.066,0.309-0.082,0.445c-0.496,0.098-0.959,0.146-1.389,0.146c-0.406,0-0.786-0.057-1.14-0.17
		s-0.657-0.295-0.911-0.547s-0.442-0.568-0.565-0.948c-0.123-0.381-0.185-0.78-0.185-1.197c0-0.57,0.097-1.112,0.29-1.628
		c0.193-0.515,0.502-0.922,0.926-1.22c0.424-0.299,0.997-0.448,1.72-0.448c0.527,0,1.029,0.072,1.506,0.217
		c0.004,0.129,0.018,0.266,0.041,0.41c-0.406-0.125-0.725-0.206-0.955-0.243s-0.441-0.056-0.633-0.056
		c-0.41,0-0.773,0.079-1.09,0.237s-0.579,0.381-0.788,0.67s-0.357,0.611-0.445,0.969s-0.132,0.715-0.132,1.074
		c0,0.386,0.049,0.747,0.146,1.083c0.098,0.335,0.254,0.608,0.469,0.819s0.479,0.371,0.791,0.482s0.641,0.167,0.984,0.167
		c0.191,0,0.395-0.019,0.609-0.056S73.325,83.627,73.665,83.525z"/>
	<path fill="none" stroke="#4E4B4A" stroke-width="1.3" stroke-miterlimit="10" d="M78.042,84c0.012-0.16,0.019-0.287,0.021-0.381
		s0.005-0.18,0.009-0.258c0.143,0.004,0.253,0.006,0.331,0.006c0.083,0,0.193-0.002,0.331-0.006
		c-0.008,0.117-0.014,0.229-0.018,0.337s-0.01,0.208-0.018,0.302c-0.138-0.004-0.246-0.006-0.325-0.006
		C78.29,83.994,78.18,83.996,78.042,84z"/>
</g>
</svg>
