<?xml version="1.0" encoding="utf-8"?>
<!-- Generator: Adobe Illustrator 16.0.0, SVG Export Plug-In . SVG Version: 6.00 Build 0)  -->
<!DOCTYPE svg PUBLIC "-//W3C//DTD SVG 1.1//EN" "http://www.w3.org/Graphics/SVG/1.1/DTD/svg11.dtd">
<svg version="1.1" id="圖層_1" xmlns="http://www.w3.org/2000/svg" xmlns:xlink="http://www.w3.org/1999/xlink" x="0px" y="0px"
	 width="16px" height="16px" viewBox="0 0 16 16" enable-background="new 0 0 16 16" xml:space="preserve">
<ellipse transform="matrix(0.9679 -0.2512 0.2512 0.9679 -0.471 1.3317)" fill="#E8D5C8" cx="4.981" cy="2.511" rx="0.815" ry="0.576"/>
<path fill="#E8D5C8" d="M7.511,3.195c0.303,0.128,0.464,0.53,0.355,0.896C7.758,4.453,7.424,4.645,7.12,4.515
	C6.817,4.387,6.657,3.988,6.766,3.623C6.872,3.257,7.204,3.067,7.511,3.195z"/>
<path fill="#E8D5C8" d="M11.303,2.115c0.183,0.236,0.102,0.658-0.18,0.94c-0.289,0.29-0.668,0.33-0.852,0.091
	c-0.181-0.235-0.101-0.658,0.186-0.944C10.737,1.918,11.117,1.879,11.303,2.115z"/>
<ellipse transform="matrix(0.9681 -0.2507 0.2507 0.9681 -1.0913 1.1353)" fill="#E8D5C8" cx="3.91" cy="4.85" rx="0.671" ry="0.622"/>
<path fill="#E8D5C8" d="M11.674,4.917c0.218,0.2,0.171,0.537-0.107,0.752c-0.279,0.218-0.683,0.231-0.901,0.031
	c-0.223-0.199-0.173-0.537,0.106-0.755C11.05,4.732,11.453,4.717,11.674,4.917z"/>
<path fill="#E8D5C8" d="M14.6,3.295c0.039,0.353-0.203,0.708-0.538,0.79c-0.332,0.084-0.635-0.136-0.669-0.491
	c-0.04-0.353,0.2-0.708,0.534-0.792C14.265,2.719,14.562,2.94,14.6,3.295z"/>
<path fill="#E8D5C8" d="M15.728,7.126c0.08,0.309-0.102,0.623-0.404,0.702c-0.306,0.08-0.614-0.109-0.692-0.416
	c-0.081-0.308,0.097-0.621,0.402-0.699C15.337,6.636,15.649,6.819,15.728,7.126z"/>
<path fill="none" stroke="#706A6A" stroke-width="0.5" stroke-miterlimit="10" d="M8.102,18.218C6.283,13.069,7.514,9.12,7.514,9.12
	"/>
<path fill="none" stroke="#706A6A" stroke-width="0.5" stroke-miterlimit="10" d="M5.129,2.993C5.518,4.74,5.997,6.084,6.428,7.061
	c0.631,1.425,1.168,2.065,1.189,2.032"/>
<path fill="none" stroke="#706A6A" stroke-width="0.5" stroke-miterlimit="10" d="M7.387,4.487c0,0-0.592,2.446,0.006,4.541"/>
<path fill="none" stroke="#706A6A" stroke-width="0.5" stroke-miterlimit="10" d="M7.544,9.107c0.864-0.541,3.301-3.324,3.301-3.324
	"/>
<path fill="none" stroke="#706A6A" stroke-width="0.5" stroke-miterlimit="10" d="M13.729,4.226c0,0-1.309,2.77-5.994,4.781"/>
<path fill="none" stroke="#706A6A" stroke-width="0.5" stroke-miterlimit="10" d="M3.954,5.422c0,0,0.342,1.973,3.467,3.656
	c0.034,0.018,0.091-0.743,0.765-2.106c0.801-1.627,1.658-2.807,2.257-3.613"/>
<path fill="none" stroke="#706A6A" stroke-width="0.5" stroke-miterlimit="10" d="M7.618,9.095c1.881,0.012,5.337-1.703,6.967-2.689
	"/>
<path fill="none" stroke="#7C6363" stroke-width="0.5" stroke-miterlimit="10" d="M5.425,2.563c0.208,0.573-0.642,0.852-0.849,0.279
	"/>
<path fill="none" stroke="#7C6363" stroke-width="0.5" stroke-miterlimit="10" d="M11.522,5.545
	c-0.474,0.619-1.119,0.309-0.645-0.307"/>
<path fill="none" stroke="#7C6363" stroke-width="0.5" stroke-miterlimit="10" d="M14.372,3.654
	c-0.369,0.839-1.216,0.647-0.848-0.192"/>
<path fill="none" stroke="#7C6363" stroke-width="0.5" stroke-miterlimit="10" d="M11.073,3.069
	c-0.381,0.666-1.151,0.414-0.771-0.253"/>
<path fill="none" stroke="#7C6363" stroke-width="0.5" stroke-miterlimit="10" d="M7.807,3.958C7.698,4.826,6.801,4.823,6.91,3.955"
	/>
<path fill="none" stroke="#7C6363" stroke-width="0.5" stroke-miterlimit="10" d="M4.138,4.769C4.369,5.594,3.49,5.834,3.259,5.01"
	/>
<path fill="none" stroke="#706A6A" stroke-width="0.5" stroke-miterlimit="10" d="M1.52,5.004c0,0,1.339,2.678,5.932,4.135"/>
<path fill="none" stroke="#706A6A" stroke-width="0.5" stroke-miterlimit="10" d="M14.521,7.675c0,0-2.911,1.594-7.186,1.429"/>
<path fill="none" stroke="#7C6363" stroke-width="0.5" stroke-miterlimit="10" d="M15.234,7.542c-0.531,0.481-1.064,0.078-0.533-0.4
	"/>
<path fill="none" stroke="#7C6363" stroke-width="0.5" stroke-miterlimit="10" d="M1.723,7.329"/>
<path fill="none" stroke="#706A6A" stroke-width="0.5" stroke-miterlimit="10" d="M1.687,6.996c0,0,1.143,2.101,5.622,2.116"/>
<path fill="none" stroke="#706A6A" stroke-width="0.5" stroke-miterlimit="10" d="M13.391,9.064c0,0-2.888,0.845-6.007,0.046"/>
</svg>
