<?xml version="1.0" encoding="utf-8"?>
<!-- Generator: Adobe Illustrator 16.0.0, SVG Export Plug-In . SVG Version: 6.00 Build 0)  -->
<!DOCTYPE svg PUBLIC "-//W3C//DTD SVG 1.1//EN" "http://www.w3.org/Graphics/SVG/1.1/DTD/svg11.dtd">
<svg version="1.1" xmlns="http://www.w3.org/2000/svg" xmlns:xlink="http://www.w3.org/1999/xlink" x="0px" y="0px" width="100px"
	 height="100px" viewBox="0 0 100 100" enable-background="new 0 0 100 100" xml:space="preserve">
<g id="圖層_2">
	
		<ellipse transform="matrix(0.9973 -0.0739 0.0739 0.9973 -6.4256 3.3435)" fill="#E8D5C8" cx="41.953" cy="88.472" rx="2.675" ry="6.191"/>
	
		<ellipse transform="matrix(0.9973 -0.074 0.074 0.9973 -0.8038 3.0301)" fill="#E8D5C8" cx="40.498" cy="12.365" rx="1.996" ry="1.839"/>
	<path fill="#E8D5C8" d="M50.211,20.87c-0.261,1.219-1.355,2.001-2.444,1.746c-1.09-0.254-1.762-1.45-1.501-2.669
		c0.26-1.219,1.353-2,2.443-1.746C49.797,18.455,50.471,19.651,50.211,20.87z"/>
	<path fill="#E8D5C8" d="M63.535,19.224c-0.275,1.173-1.143,1.958-1.938,1.753c-0.795-0.204-1.213-1.321-0.938-2.494
		c0.276-1.172,1.143-1.957,1.938-1.752S63.812,18.052,63.535,19.224z"/>
	
		<ellipse transform="matrix(0.9973 -0.0739 0.0739 0.9973 -1.5549 2.5406)" fill="#E8D5C8" cx="33.545" cy="22.277" rx="1.499" ry="1.775"/>
	<path fill="#E8D5C8" d="M64.722,30.544c0.486,0.802,0.125,1.945-0.808,2.549c-0.934,0.604-2.086,0.443-2.574-0.359
		c-0.487-0.804-0.124-1.946,0.809-2.55C63.083,29.58,64.234,29.74,64.722,30.544z"/>
	<path fill="#E8D5C8" d="M76.314,25.332c-0.475,1.636-1.541,2.747-2.385,2.48c-0.843-0.266-1.142-1.808-0.668-3.445
		c0.475-1.635,1.541-2.746,2.384-2.479C76.489,22.154,76.788,23.695,76.314,25.332z"/>
	
		<ellipse transform="matrix(0.9973 -0.074 0.074 0.9973 -3.0464 5.8183)" fill="#E8D5C8" cx="76.972" cy="44.009" rx="1.751" ry="1.626"/>
	<circle fill="none" stroke="#534242" stroke-width="2" stroke-miterlimit="10" cx="50.5" cy="50.25" r="48.25"/>
</g>
<g id="圖層_3">
</g>
<g id="圖層_1">
	<path fill="none" stroke="#534242" stroke-width="2" stroke-miterlimit="10" d="M40.41,82.523
		c-3.792-21.994,5.181-37.032,5.181-37.032"/>
	<path fill="none" stroke="#534242" stroke-width="2" stroke-miterlimit="10" d="M40.819,92.153"/>
	<path fill="none" stroke="#534242" stroke-width="2" stroke-miterlimit="10" d="M40.327,14.189
		c0.394,8.698,1.401,15.559,2.468,20.622c1.558,7.392,3.25,10.954,3.364,10.811"/>
	<path fill="none" stroke="#534242" stroke-width="2" stroke-miterlimit="10" d="M48.238,23.428c0,0-3.911,11.116-2.923,21.665"/>
	<path fill="none" stroke="#534242" stroke-width="2" stroke-miterlimit="10" d="M45.852,45.62
		c3.753-1.775,15.145-12.774,15.145-12.774"/>
	<path fill="none" stroke="#534242" stroke-width="2" stroke-miterlimit="10" d="M73.35,28.108c0,0-6.938,11.993-26.684,17.208"/>
	<path fill="none" stroke="#534242" stroke-width="2" stroke-miterlimit="10" d="M34.121,24.679c0,0,0.072,9.735,11.268,20.682
		c0.123,0.121,0.843-3.453,4.376-9.331c4.214-7.013,8.35-11.84,11.229-15.125"/>
	<path fill="none" stroke="#534242" stroke-width="2" stroke-miterlimit="10" d="M46.159,45.625
		c7.386,1.812,22.098-3.142,29.15-6.326"/>
	<path fill="none" stroke="#7C6363" stroke-width="2" stroke-miterlimit="10" d="M41.767,12.424
		c0.446,2.923-3.078,3.455-3.522,0.532"/>
	<path fill="none" stroke="#7C6363" stroke-width="2" stroke-miterlimit="10" d="M63.815,32.348
		c-2.264,2.501-4.599,0.424-2.334-2.079"/>
	<path fill="none" stroke="#7C6363" stroke-width="2" stroke-miterlimit="10" d="M76.254,25.98c-1.989,3.66-5.19,1.952-3.194-1.708"
		/>
	<path fill="none" stroke="#7C6363" stroke-width="2" stroke-miterlimit="10" d="M63.665,20.108c-1.934,2.828-4.802,0.9-2.868-1.929
		"/>
	<path fill="none" stroke="#7C6363" stroke-width="2" stroke-miterlimit="10" d="M50.236,21.296
		c-0.993,4.041-4.523,3.193-3.531-0.848"/>
	<path fill="none" stroke="#7C6363" stroke-width="2" stroke-miterlimit="10" d="M35.273,21.746
		c0.372,4.142-3.247,4.467-3.618,0.327"/>
	<path fill="none" stroke="#534242" stroke-width="2" stroke-miterlimit="10" d="M24.818,20.418c0,0,3.526,14.028,20.651,25.258"/>
	<path fill="none" stroke="#534242" stroke-width="2" stroke-miterlimit="10" d="M74.242,45.304c0,0-12.494,4.883-29.201,0.115"/>
	<path fill="none" stroke="#7C6363" stroke-width="2" stroke-miterlimit="10" d="M77.129,45.341
		c-2.401,1.793-4.237-0.63-1.832-2.421"/>
	<path fill="none" stroke="#7C6363" stroke-width="2" stroke-miterlimit="10" d="M24.111,31.702"/>
	<path fill="none" stroke="#534242" stroke-width="2" stroke-miterlimit="10" d="M24.187,30.079c0,0,3.124,11.088,20.74,15.343"/>
	<path fill="none" stroke="#534242" stroke-width="2" stroke-miterlimit="10" d="M74.771,51.036c0,0-14.839,1.254-29.55-5.552"/>
	<path fill="none" stroke="#595050" stroke-width="2" stroke-miterlimit="10" d="M41.331,87.415c0,0,1.828,7.837,2.308,6.567"/>
	<path fill="none" stroke="#595050" stroke-width="2" stroke-miterlimit="10" d="M39.746,82.877c0,0-2.833,4.46,0.708,9.546
		c2.921,4.193,3.992,1.013,3.992,1.013C44.969,85.981,43.003,81.766,39.746,82.877z"/>
</g>
</svg>
