<?xml-stylesheet type="text/css" href="style.css" ?>
<svg width="262" height="117" viewBox="0 0 262 117" fill="none" xmlns="http://www.w3.org/2000/svg">

<rect width="262" height="117" fill="#E5E5E5"/>
<g id="animation">
<rect id="full-bg" width="262" height="117" fill="#F5F8F9"/>

<g id="input-area">
<rect id="input-box" x="16" y="57" width="230" height="24" rx="4"/>
<g id="binding-path">
<rect id="Rectangle 2" x="108" y="63" width="98" height="12" rx="6"/>
<rect id="Rectangle 1" x="36" y="63" width="64" height="12" rx="6"/>
<g id="@">
<path d="M33 68.4573C33 69.0386 32.9071 69.5711 32.7214 70.0549C32.5356 70.5346 32.2735 70.9085 31.935 71.1768C31.6006 71.4451 31.2126 71.5793 30.7709 71.5793C30.4448 71.5793 30.162 71.4939 29.9226 71.3232C29.6832 71.1524 29.5222 70.9207 29.4396 70.628H29.3653C29.1631 70.9451 28.9133 71.1829 28.6161 71.3415C28.3189 71.5 27.9845 71.5793 27.613 71.5793C26.9401 71.5793 26.4097 71.3659 26.0217 70.939C25.6378 70.5122 25.4458 69.935 25.4458 69.2073C25.4458 68.3699 25.7018 67.6911 26.2136 67.1707C26.7255 66.6463 27.4128 66.3841 28.2755 66.3841C28.5893 66.3841 28.936 66.4126 29.3158 66.4695C29.929 66.5539 30.3169 67.1234 30.2872 67.7416L30.2012 69.5305V69.6768C30.2012 70.3272 30.4159 70.6524 30.8452 70.6524C31.1713 70.6524 31.4293 70.4451 31.6192 70.0305C31.8132 69.6159 31.9102 69.0874 31.9102 68.4451C31.9102 67.75 31.7657 67.1402 31.4768 66.6159C31.1878 66.0874 30.7771 65.6809 30.2446 65.3963C29.7121 65.1118 29.1011 64.9695 28.4118 64.9695C27.5325 64.9695 26.7668 65.1484 26.1146 65.5061C25.4665 65.8638 24.9711 66.376 24.6285 67.0427C24.2859 67.7053 24.1146 68.4756 24.1146 69.3537C24.1146 70.5325 24.4345 71.439 25.0743 72.0732C25.7141 72.7073 26.6326 73.0244 27.8297 73.0244C28.5422 73.0244 29.2785 72.9128 30.0388 72.6897C30.3553 72.5968 30.6842 72.8259 30.6842 73.1558C30.6842 73.349 30.5673 73.5244 30.3849 73.5883C29.6014 73.8628 28.7579 74 27.8545 74C26.3271 74 25.1362 73.5955 24.2817 72.7866C23.4272 71.9736 23 70.8415 23 69.3902C23 68.3293 23.2312 67.3862 23.6935 66.561C24.1558 65.7317 24.7957 65.0976 25.613 64.6585C26.4345 64.2195 27.3633 64 28.3994 64C29.2951 64 30.0918 64.1829 30.7895 64.5488C31.4912 64.9146 32.0341 65.437 32.418 66.1159C32.806 66.7907 33 67.5711 33 68.4573ZM26.6347 69.2317C26.6347 70.1789 27.0124 70.6524 27.7678 70.6524C28.5645 70.6524 29 70.0569 29.0743 68.8659L29.1486 67.4085C28.8885 67.3394 28.6099 67.3049 28.3127 67.3049C27.7843 67.3049 27.3715 67.4776 27.0743 67.8232C26.7812 68.1687 26.6347 68.6382 26.6347 69.2317Z"/>
<path d="M33 68.4573C33 69.0386 32.9071 69.5711 32.7214 70.0549C32.5356 70.5346 32.2735 70.9085 31.935 71.1768C31.6006 71.4451 31.2126 71.5793 30.7709 71.5793C30.4448 71.5793 30.162 71.4939 29.9226 71.3232C29.6832 71.1524 29.5222 70.9207 29.4396 70.628H29.3653C29.1631 70.9451 28.9133 71.1829 28.6161 71.3415C28.3189 71.5 27.9845 71.5793 27.613 71.5793C26.9401 71.5793 26.4097 71.3659 26.0217 70.939C25.6378 70.5122 25.4458 69.935 25.4458 69.2073C25.4458 68.3699 25.7018 67.6911 26.2136 67.1707C26.7255 66.6463 27.4128 66.3841 28.2755 66.3841C28.5893 66.3841 28.936 66.4126 29.3158 66.4695C29.929 66.5539 30.3169 67.1234 30.2872 67.7416L30.2012 69.5305V69.6768C30.2012 70.3272 30.4159 70.6524 30.8452 70.6524C31.1713 70.6524 31.4293 70.4451 31.6192 70.0305C31.8132 69.6159 31.9102 69.0874 31.9102 68.4451C31.9102 67.75 31.7657 67.1402 31.4768 66.6159C31.1878 66.0874 30.7771 65.6809 30.2446 65.3963C29.7121 65.1118 29.1011 64.9695 28.4118 64.9695C27.5325 64.9695 26.7668 65.1484 26.1146 65.5061C25.4665 65.8638 24.9711 66.376 24.6285 67.0427C24.2859 67.7053 24.1146 68.4756 24.1146 69.3537C24.1146 70.5325 24.4345 71.439 25.0743 72.0732C25.7141 72.7073 26.6326 73.0244 27.8297 73.0244C28.5422 73.0244 29.2785 72.9128 30.0388 72.6897C30.3553 72.5968 30.6842 72.8259 30.6842 73.1558C30.6842 73.349 30.5673 73.5244 30.3849 73.5883C29.6014 73.8628 28.7579 74 27.8545 74C26.3271 74 25.1362 73.5955 24.2817 72.7866C23.4272 71.9736 23 70.8415 23 69.3902C23 68.3293 23.2312 67.3862 23.6935 66.561C24.1558 65.7317 24.7957 65.0976 25.613 64.6585C26.4345 64.2195 27.3633 64 28.3994 64C29.2951 64 30.0918 64.1829 30.7895 64.5488C31.4912 64.9146 32.0341 65.437 32.418 66.1159C32.806 66.7907 33 67.5711 33 68.4573ZM26.6347 69.2317C26.6347 70.1789 27.0124 70.6524 27.7678 70.6524C28.5645 70.6524 29 70.0569 29.0743 68.8659L29.1486 67.4085C28.8885 67.3394 28.6099 67.3049 28.3127 67.3049C27.7843 67.3049 27.3715 67.4776 27.0743 67.8232C26.7812 68.1687 26.6347 68.6382 26.6347 69.2317Z"/>
</g>
<g id=".">
<path d="M103 73.4852C103 73.0066 103.128 72.6393 103.384 72.3836C103.64 72.1279 104.01 72 104.495 72C104.987 72 105.36 72.1344 105.616 72.4033C105.872 72.6656 106 73.0262 106 73.4852C106 73.9508 105.869 74.3213 105.606 74.5967C105.35 74.8656 104.98 75 104.495 75C104.01 75 103.64 74.8656 103.384 74.5967C103.128 74.3279 103 73.9574 103 73.4852Z"/>
<path d="M103 73.4852C103 73.0066 103.128 72.6393 103.384 72.3836C103.64 72.1279 104.01 72 104.495 72C104.987 72 105.36 72.1344 105.616 72.4033C105.872 72.6656 106 73.0262 106 73.4852C106 73.9508 105.869 74.3213 105.606 74.5967C105.35 74.8656 104.98 75 104.495 75C104.01 75 103.64 74.8656 103.384 74.5967C103.128 74.3279 103 73.9574 103 73.4852Z" />
</g>
</g>
<path id="lock-icon" fill-rule="evenodd" clip-rule="evenodd" d="M231 69.0854V67C231 65.3431 232.343 64 234 64C235.657 64 237 65.3431 237 67V69.0854C237.583 69.2913 238 69.8469 238 70.5V72.5C238 73.3284 237.328 74 236.5 74H231.5C230.672 74 230 73.3284 230 72.5V70.5C230 69.8469 230.417 69.2913 231 69.0854ZM232 67C232 65.8954 232.895 65 234 65C235.105 65 236 65.8954 236 67V69H232V67ZM236.5 70C236.776 70 237 70.2239 237 70.5V72.5C237 72.7761 236.776 73 236.5 73H231.5C231.224 73 231 72.7761 231 72.5V70.5C231 70.2239 231.224 70 231.5 70H236.5Z" fill="#637274"/>
<rect id="label" x="16" y="34" width="64" height="14" rx="8" fill="#ACB4B5"/>
</g>
<g id="switcher">
<g id="switcher-bg" filter="url(#filter0_d_1224_126769)">
<rect x="159" y="28" width="85" height="20" rx="4" fill="white"/>
</g>
<path id="bg-data" d="M204 28H224V48H204V28Z" fill="#E4E6E7"/>
<path id="bg-reapply" d="M159 32C159 29.7909 160.791 28 163 28H179V48H163C160.791 48 159 46.2091 159 44V32Z" fill="#F6F6F8"/>
<g id="data">
<path fill-rule="evenodd" clip-rule="evenodd" d="M218 35V41C218 41.3762 217.82 41.6928 217.581 41.9351C217.344 42.1753 217.026 42.3686 216.672 42.5202C215.963 42.8242 215.018 43 214 43C212.982 43 212.037 42.8242 211.328 42.5202C210.974 42.3686 210.656 42.1753 210.419 41.9351C210.18 41.6928 210 41.3762 210 41V35C210 34.6238 210.18 34.3072 210.419 34.0649C210.656 33.8247 210.974 33.6314 211.328 33.4798C212.037 33.1758 212.982 33 214 33C215.018 33 215.963 33.1758 216.672 33.4798C217.026 33.6314 217.344 33.8247 217.581 34.0649C217.82 34.3072 218 34.6238 218 35ZM211 35C211 34.962 211.016 34.8839 211.131 34.7674C211.248 34.6486 211.442 34.5188 211.722 34.3989C212.28 34.16 213.085 34 214 34C214.915 34 215.72 34.16 216.278 34.3989C216.558 34.5188 216.752 34.6486 216.869 34.7674C216.984 34.8839 217 34.962 217 35C217 35.038 216.984 35.1161 216.869 35.2327C216.752 35.3514 216.558 35.4812 216.278 35.6011C215.72 35.84 214.915 36 214 36C213.085 36 212.28 35.84 211.722 35.6011C211.442 35.4812 211.248 35.3514 211.131 35.2327C211.016 35.1161 211 35.038 211 35ZM211 36.3612C211.105 36.4186 211.215 36.4716 211.328 36.5202C212.037 36.8242 212.982 37 214 37C215.018 37 215.963 36.8242 216.672 36.5202C216.785 36.4716 216.895 36.4186 217 36.3612V37C217 37.038 216.984 37.1161 216.869 37.2326C216.752 37.3514 216.558 37.4812 216.278 37.6011C215.72 37.84 214.915 38 214 38C213.085 38 212.28 37.84 211.722 37.6011C211.442 37.4812 211.248 37.3514 211.131 37.2326C211.016 37.1161 211 37.038 211 37V36.3612ZM216.672 38.5202C216.785 38.4716 216.895 38.4186 217 38.3612V39C217 39.038 216.984 39.1161 216.869 39.2326C216.752 39.3514 216.558 39.4812 216.278 39.6011C215.72 39.84 214.915 40 214 40C213.085 40 212.28 39.84 211.722 39.6011C211.442 39.4812 211.248 39.3514 211.131 39.2326C211.016 39.1161 211 39.038 211 39V38.3612C211.105 38.4186 211.215 38.4716 211.328 38.5202C212.037 38.8242 212.982 39 214 39C215.018 39 215.963 38.8242 216.672 38.5202ZM211 40.3612C211.105 40.4186 211.215 40.4716 211.328 40.5202C212.037 40.8242 212.982 41 214 41C215.018 41 215.963 40.8242 216.672 40.5202C216.785 40.4716 216.895 40.4186 217 40.3612V41C217 41.038 216.984 41.1161 216.869 41.2326C216.752 41.3514 216.558 41.4812 216.278 41.6011C215.72 41.84 214.915 42 214 42C213.085 42 212.28 41.84 211.722 41.6011C211.442 41.4812 211.248 41.3514 211.131 41.2326C211.016 41.1161 211 41.038 211 41V40.3612Z" fill="#01778E"/>
<path fill-rule="evenodd" clip-rule="evenodd" d="M211.23 33.25C211.977 32.9297 212.957 32.75 214 32.75C215.043 32.75 216.023 32.9297 216.77 33.25C217.143 33.4095 217.492 33.6188 217.759 33.8893C218.029 34.1628 218.25 34.539 218.25 35V41C218.25 41.461 218.029 41.8372 217.759 42.1107C217.492 42.3812 217.143 42.5905 216.77 42.75C216.023 43.0703 215.043 43.25 214 43.25C212.957 43.25 211.977 43.0703 211.23 42.75C210.857 42.5905 210.508 42.3812 210.241 42.1107C209.971 41.8372 209.75 41.461 209.75 41V35C209.75 34.539 209.971 34.1628 210.241 33.8893C210.508 33.6188 210.857 33.4095 211.23 33.25ZM214 33.25C213.008 33.25 212.098 33.4218 211.427 33.7096C211.091 33.8532 210.804 34.0307 210.597 34.2405C210.389 34.4517 210.25 34.7087 210.25 35V41C210.25 41.2913 210.389 41.5483 210.597 41.7595C210.804 41.9693 211.091 42.1468 211.427 42.2904C212.098 42.5782 213.008 42.75 214 42.75C214.992 42.75 215.902 42.5782 216.573 42.2904C216.909 42.1468 217.196 41.9693 217.403 41.7595C217.611 41.5483 217.75 41.2913 217.75 41V35C217.75 34.7087 217.611 34.4517 217.403 34.2405C217.196 34.0307 216.909 33.8532 216.573 33.7096C215.902 33.4218 214.992 33.25 214 33.25ZM211.624 34.1691C212.219 33.9139 213.059 33.75 214 33.75C214.941 33.75 215.781 33.9139 216.376 34.1691C216.675 34.2969 216.9 34.4426 217.047 34.5917C217.194 34.741 217.25 34.8787 217.25 35C217.25 35.1213 217.194 35.259 217.047 35.4083C216.9 35.5574 216.675 35.7031 216.376 35.8309C215.781 36.0861 214.941 36.25 214 36.25C213.059 36.25 212.219 36.0861 211.624 35.8309C211.325 35.7031 211.1 35.5574 210.953 35.4083C210.806 35.259 210.75 35.1213 210.75 35C210.75 34.8787 210.806 34.741 210.953 34.5917C211.1 34.4426 211.325 34.2969 211.624 34.1691ZM214 34.25C213.11 34.25 212.34 34.406 211.821 34.6287C211.559 34.7406 211.396 34.8546 211.309 34.943C211.285 34.9676 211.269 34.9867 211.26 35C211.269 35.0133 211.285 35.0324 211.309 35.057C211.396 35.1454 211.559 35.2594 211.821 35.3713C212.34 35.594 213.11 35.75 214 35.75C214.89 35.75 215.66 35.594 216.179 35.3713C216.441 35.2594 216.604 35.1454 216.691 35.057C216.715 35.0324 216.731 35.0133 216.74 35C216.731 34.9867 216.715 34.9676 216.691 34.943C216.604 34.8546 216.441 34.7406 216.179 34.6287C215.66 34.406 214.89 34.25 214 34.25ZM217.25 35.9389V37C217.25 37.1213 217.194 37.259 217.047 37.4083C216.9 37.5574 216.675 37.7031 216.376 37.8309C215.781 38.0861 214.941 38.25 214 38.25C213.059 38.25 212.219 38.0861 211.624 37.8309C211.325 37.7031 211.1 37.5574 210.953 37.4083C210.806 37.259 210.75 37.1213 210.75 37V35.9389L211.12 36.142C211.217 36.1951 211.32 36.2446 211.427 36.2904C212.098 36.5782 213.008 36.75 214 36.75C214.992 36.75 215.902 36.5782 216.573 36.2904C216.68 36.2446 216.783 36.1951 216.88 36.142L217.25 35.9389ZM211.25 36.7587V36.9833C211.256 36.994 211.271 37.0188 211.309 37.057C211.396 37.1454 211.559 37.2594 211.821 37.3713C212.34 37.594 213.11 37.75 214 37.75C214.89 37.75 215.66 37.594 216.179 37.3713C216.441 37.2594 216.604 37.1454 216.691 37.057C216.729 37.0188 216.744 36.994 216.75 36.9833V36.7587C216.005 37.0735 215.034 37.25 214 37.25C212.966 37.25 211.995 37.0735 211.25 36.7587ZM217.25 37.9389V39C217.25 39.1213 217.194 39.259 217.047 39.4083C216.9 39.5574 216.675 39.7031 216.376 39.8309C215.781 40.0861 214.941 40.25 214 40.25C213.059 40.25 212.219 40.0861 211.624 39.8309C211.325 39.7031 211.1 39.5574 210.953 39.4083C210.806 39.259 210.75 39.1213 210.75 39V37.9389L211.12 38.142C211.217 38.1951 211.32 38.2446 211.427 38.2904C212.098 38.5782 213.008 38.75 214 38.75C214.992 38.75 215.902 38.5782 216.573 38.2904C216.68 38.2446 216.783 38.1951 216.88 38.142L217.25 37.9389ZM211.25 38.7587V38.9833C211.256 38.994 211.271 39.0188 211.309 39.057C211.396 39.1454 211.559 39.2594 211.821 39.3713C212.34 39.594 213.11 39.75 214 39.75C214.89 39.75 215.66 39.594 216.179 39.3713C216.441 39.2594 216.604 39.1454 216.691 39.057C216.729 39.0188 216.744 38.994 216.75 38.9833V38.7587C216.005 39.0735 215.034 39.25 214 39.25C212.966 39.25 211.995 39.0735 211.25 38.7587ZM217.25 39.9389V41C217.25 41.1213 217.194 41.259 217.047 41.4083C216.9 41.5574 216.675 41.7031 216.376 41.8309C215.781 42.0861 214.941 42.25 214 42.25C213.059 42.25 212.219 42.0861 211.624 41.8309C211.325 41.7031 211.1 41.5574 210.953 41.4083C210.806 41.259 210.75 41.1213 210.75 41V39.9389L211.12 40.142C211.217 40.1951 211.32 40.2446 211.427 40.2904C212.098 40.5782 213.008 40.75 214 40.75C214.992 40.75 215.902 40.5782 216.573 40.2904C216.68 40.2446 216.783 40.1951 216.88 40.142L217.25 39.9389ZM211.25 40.7587V40.9833C211.256 40.994 211.271 41.0188 211.309 41.057C211.396 41.1454 211.559 41.2594 211.821 41.3713C212.34 41.594 213.11 41.75 214 41.75C214.89 41.75 215.66 41.594 216.179 41.3713C216.441 41.2594 216.604 41.1454 216.691 41.057C216.729 41.0188 216.744 40.994 216.75 40.9833V40.7587C216.005 41.0735 215.034 41.25 214 41.25C212.966 41.25 211.995 41.0735 211.25 40.7587Z" fill="#01778E"/>
</g>
<g id="code">
<path d="M232.854 35.8536C233.049 35.6583 233.049 35.3417 232.854 35.1464C232.658 34.9512 232.342 34.9512 232.146 35.1464L229.146 38.1464C228.951 38.3417 228.951 38.6583 229.146 38.8536L232.146 41.8536C232.342 42.0488 232.658 42.0488 232.854 41.8536C233.049 41.6583 233.049 41.3417 232.854 41.1464L230.207 38.5L232.854 35.8536Z" fill="black"/>
<path d="M235.146 35.8536C234.951 35.6583 234.951 35.3417 235.146 35.1464C235.342 34.9512 235.658 34.9512 235.854 35.1464L238.854 38.1464C239.049 38.3417 239.049 38.6583 238.854 38.8536L235.854 41.8536C235.658 42.0488 235.342 42.0488 235.146 41.8536C234.951 41.6583 234.951 41.3417 235.146 41.1464L237.793 38.5L235.146 35.8536Z" fill="black"/>
<path d="M232.854 35.8536C233.049 35.6583 233.049 35.3417 232.854 35.1464C232.658 34.9512 232.342 34.9512 232.146 35.1464L229.146 38.1464C228.951 38.3417 228.951 38.6583 229.146 38.8536L232.146 41.8536C232.342 42.0488 232.658 42.0488 232.854 41.8536C233.049 41.6583 233.049 41.3417 232.854 41.1464L230.207 38.5L232.854 35.8536Z" stroke="black" stroke-width="0.5" stroke-linecap="round" stroke-linejoin="round"/>
<path d="M235.146 35.8536C234.951 35.6583 234.951 35.3417 235.146 35.1464C235.342 34.9512 235.658 34.9512 235.854 35.1464L238.854 38.1464C239.049 38.3417 239.049 38.6583 238.854 38.8536L235.854 41.8536C235.658 42.0488 235.342 42.0488 235.146 41.8536C234.951 41.6583 234.951 41.3417 235.146 41.1464L237.793 38.5L235.146 35.8536Z" stroke="black" stroke-width="0.5" stroke-linecap="round" stroke-linejoin="round"/>
</g>
<path id="rewind" d="M164.75 32.5C164.75 32.0858 165.086 31.75 165.5 31.75C165.914 31.75 166.25 32.0858 166.25 32.5V32.7561C167.174 32.1217 168.294 31.75 169.5 31.75C172.676 31.75 175.25 34.3244 175.25 37.5C175.25 40.6756 172.676 43.25 169.5 43.25C166.545 43.25 164.074 41.0193 163.755 38.1381C163.709 37.7264 164.006 37.3557 164.417 37.3101C164.829 37.2645 165.2 37.5613 165.246 37.973C165.48 40.0918 167.307 41.75 169.5 41.75C171.847 41.75 173.75 39.8472 173.75 37.5C173.75 35.1528 171.847 33.25 169.5 33.25C168.776 33.25 168.094 33.4308 167.498 33.75H167.5C167.914 33.75 168.25 34.0858 168.25 34.5C168.25 34.9142 167.914 35.25 167.5 35.25H165.5C165.086 35.25 164.75 34.9142 164.75 34.5V32.5Z" fill="black"/>
<path id="pencil" fill-rule="evenodd" clip-rule="evenodd" d="M196.707 34.2929C196.317 33.9024 195.683 33.9024 195.293 34.2929L194.646 34.9393L196.061 36.3536L196.707 35.7071C197.098 35.3166 197.098 34.6834 196.707 34.2929ZM195.354 37.0607L193.939 35.6464L189.881 39.7049L189.255 41.7454L191.295 41.1192L195.354 37.0607ZM194.586 33.5858C195.367 32.8047 196.633 32.8047 197.414 33.5858C198.195 34.3668 198.195 35.6332 197.414 36.4142L191.914 41.9142C191.856 41.972 191.785 42.0147 191.707 42.0387L188.647 42.978C188.47 43.0323 188.277 42.9844 188.146 42.8536C188.016 42.7227 187.968 42.5302 188.022 42.3533L188.961 39.2926C188.985 39.2146 189.028 39.1435 189.086 39.0858L194.586 33.5858Z" fill="black" stroke="black" stroke-width="0.5" stroke-linejoin="round"/>
<rect id="Divider" x="181" y="32" width="1" height="12" rx="0.5" fill="#C4C4C4"/>
</g>
<g id="unlock">
<rect id="circle-bg" x="223" y="58" width="22" height="22" rx="12" fill="#D1D6D6"/>
<path id="unlock-icon" fill-rule="evenodd" clip-rule="evenodd" d="M232 67C232 65.8954 232.895 65 234 65C234.967 65 235.775 65.6868 235.96 66.5995C236.015 66.8701 236.279 67.0449 236.549 66.99C236.82 66.9351 236.995 66.6712 236.94 66.4005C236.662 65.031 235.452 64 234 64C232.343 64 231 65.3431 231 67V69.0854C230.417 69.2913 230 69.8469 230 70.5V72.5C230 73.3284 230.672 74 231.5 74H236.5C237.328 74 238 73.3284 238 72.5V70.5C238 69.6716 237.328 69 236.5 69H232V67ZM231.5 70C231.224 70 231 70.2239 231 70.5V72.5C231 72.7761 231.224 73 231.5 73H236.5C236.776 73 237 72.7761 237 72.5V70.5C237 70.2239 236.776 70 236.5 70H231.5Z" fill="#01778E"/>
</g>
<g id="click-effect">
<circle id="big-cir" cx="132" cy="72.5" r="40" fill="#FFEB39"/>
<circle id="small-cir" cx="132" cy="72.5" r="8" fill="#F1DA09"/>
</g>
<path id="cursor" d="M136.725 75.3111C136.443 75.0146 136.009 74.9196 135.629 75.0713C135.249 75.2231 135 75.5909 135 76V93.5811C135 93.9875 135.246 94.3535 135.622 94.507C135.998 94.6606 136.43 94.5711 136.715 94.2808L139.046 91.8996L141.143 96.4207C141.257 96.6679 141.468 96.8577 141.726 96.946C141.983 97.0343 142.266 97.0136 142.508 96.8887L146.122 95.0243C146.591 94.7823 146.791 94.2174 146.579 93.7341L144.778 89.6264H148C148.4 89.6264 148.761 89.3882 148.919 89.0208C149.077 88.6534 149 88.2273 148.725 87.9375L136.725 75.3111Z" fill="white" stroke="black" stroke-width="2" stroke-linejoin="round"/>
<g id="pointer">
<path d="M140.632 80.0524C139.688 80.0524 138.923 80.6668 138.923 81.4247V83.8409L137.144 76.2871C137.104 76.1189 137.051 75.9534 136.955 75.8097C136.723 75.4602 136.166 74.845 135.214 75.036C133.996 75.2803 134.007 76.4596 134.014 76.6214C134.015 76.6341 134.016 76.6454 134.017 76.658C134.059 77.1086 134.147 78.5324 134.541 80.6624C134.94 82.8221 135.611 84.8879 135.611 86.4599L133.61 84.482C132.939 83.8183 132.069 83.2059 131.163 83.4683C130.927 83.5369 130.696 83.6529 130.504 83.8409C130.225 84.1141 130.089 84.4676 130.028 84.8034C129.899 85.5091 130.241 86.1881 130.644 86.7807C131.475 88.001 132.949 90.175 133.767 91.417C134.614 92.7048 135.669 93.5354 136.196 93.9016C136.398 94.0417 136.53 94.2696 136.53 94.5159V95.8329C136.53 96.0224 136.683 96.176 136.871 96.176H141.658C141.658 96.176 141.953 94.1176 142.998 94.1176C144.042 94.1176 144.393 96.176 144.393 96.176H146.444C146.633 96.176 146.786 96.0224 146.786 95.8329V93.312C146.786 92.9412 146.886 92.5772 147.075 92.2586L148.235 90.3052C148.677 89.5599 148.937 88.7199 148.994 87.8542L149.122 85.8844L149.179 84.2288L149.136 83.1969C149.127 82.9827 149.102 82.7669 149.01 82.5738C148.851 82.244 148.5 81.7615 147.803 81.7615C147.4 81.7615 147.167 81.8345 146.901 82.0136C146.513 82.2747 146.418 82.7762 146.357 83.2405L146.277 83.8409L146.105 82.2187C146.073 81.9152 146.008 81.6094 145.82 81.3692C145.574 81.0536 145.116 80.6624 144.357 80.6624C143.717 80.6624 143.263 80.9405 142.97 81.2168C142.637 81.5301 142.534 81.9969 142.508 82.4538L142.428 83.8409L142.342 81.4247C142.342 80.6668 141.576 80.0524 140.632 80.0524Z" fill="white"/>
<path d="M142.342 81.4247H141.342C141.342 81.4366 141.342 81.4484 141.342 81.4603L142.342 81.4247ZM142.428 83.8409L141.429 83.8766C141.448 84.4105 141.883 84.8351 142.417 84.8409C142.951 84.8467 143.396 84.4316 143.426 83.8982L142.428 83.8409ZM138.923 83.8409L137.949 84.0701C138.066 84.5643 138.534 84.8928 139.038 84.8343C139.542 84.7757 139.923 84.3486 139.923 83.8409H138.923ZM137.144 76.2871L138.117 76.0579L138.117 76.0579L137.144 76.2871ZM135.611 86.4599L134.908 87.171C135.195 87.4547 135.624 87.5381 135.996 87.3827C136.368 87.2272 136.611 86.8633 136.611 86.4599H135.611ZM133.61 84.482L134.313 83.7709L134.313 83.7709L133.61 84.482ZM141.658 96.176V97.176C142.155 97.176 142.577 96.8104 142.648 96.3181L141.658 96.176ZM144.393 96.176L143.407 96.3438C143.489 96.8244 143.905 97.176 144.393 97.176V96.176ZM147.075 92.2586L147.935 92.7691L147.935 92.7691L147.075 92.2586ZM148.235 90.3052L147.375 89.7948L147.375 89.7948L148.235 90.3052ZM136.955 75.8097L137.788 75.2551L137.788 75.2551L136.955 75.8097ZM135.214 75.036L135.411 76.0164L135.411 76.0164L135.214 75.036ZM134.014 76.6214L135.013 76.5762L135.013 76.5762L134.014 76.6214ZM131.163 83.4683L131.442 84.4288L131.442 84.4288L131.163 83.4683ZM130.504 83.8409L131.204 84.5554L131.204 84.5554L130.504 83.8409ZM130.028 84.8034L129.044 84.6238L129.044 84.6238L130.028 84.8034ZM142.508 82.4538L143.506 82.5111L143.506 82.5111L142.508 82.4538ZM146.105 82.2187L145.111 82.3238L145.111 82.3238L146.105 82.2187ZM146.277 83.8409L145.282 83.9461C145.335 84.4497 145.757 84.834 146.263 84.8408C146.769 84.8477 147.201 84.4749 147.268 83.9729L146.277 83.8409ZM146.357 83.2405L147.348 83.3725L147.348 83.3725L146.357 83.2405ZM149.136 83.1969L148.137 83.2392L148.137 83.2392L149.136 83.1969ZM149.179 84.2288L150.179 84.2634C150.18 84.2378 150.18 84.2121 150.179 84.1865L149.179 84.2288ZM146.901 82.0136L147.459 82.843L147.459 82.843L146.901 82.0136ZM149.01 82.5738L148.108 83.0066L148.108 83.0066L149.01 82.5738ZM142.97 81.2168L142.284 80.4891L142.284 80.4891L142.97 81.2168ZM145.82 81.3692L146.609 80.7539L146.609 80.7539L145.82 81.3692ZM130.644 86.7807L131.471 86.2182L131.471 86.2182L130.644 86.7807ZM133.767 91.417L132.931 91.9667L132.931 91.9667L133.767 91.417ZM136.196 93.9016L135.626 94.7231L135.626 94.7231L136.196 93.9016ZM134.017 76.658L135.013 76.5657L135.013 76.5657L134.017 76.658ZM134.541 80.6624L135.524 80.4807L135.524 80.4807L134.541 80.6624ZM148.994 87.8542L149.992 87.9191L149.992 87.9191L148.994 87.8542ZM149.122 85.8844L150.12 85.9493C150.121 85.9392 150.121 85.9291 150.121 85.919L149.122 85.8844ZM140.5 91.5C140.5 92.0523 140.948 92.5 141.5 92.5C142.052 92.5 142.5 92.0523 142.5 91.5H140.5ZM142.5 86.4599C142.5 85.9076 142.052 85.4599 141.5 85.4599C140.948 85.4599 140.5 85.9076 140.5 86.4599H142.5ZM137.5 91.5C137.5 92.0523 137.948 92.5 138.5 92.5C139.052 92.5 139.5 92.0523 139.5 91.5H137.5ZM139.5 86.4599C139.5 85.9076 139.052 85.4599 138.5 85.4599C137.948 85.4599 137.5 85.9076 137.5 86.4599H139.5ZM143.357 91.5C143.357 92.0523 143.805 92.5 144.357 92.5C144.909 92.5 145.357 92.0523 145.357 91.5H143.357ZM145.357 86.4599C145.357 85.9076 144.909 85.4599 144.357 85.4599C143.805 85.4599 143.357 85.9076 143.357 86.4599H145.357ZM139.923 81.4247C139.923 81.4025 139.931 81.329 140.049 81.2342C140.169 81.1379 140.372 81.0524 140.632 81.0524V79.0524C139.352 79.0524 137.923 79.9206 137.923 81.4247H139.923ZM140.632 81.0524C140.892 81.0524 141.095 81.1379 141.215 81.2342C141.333 81.329 141.342 81.4025 141.342 81.4247H143.342C143.342 79.9206 141.912 79.0524 140.632 79.0524V81.0524ZM141.342 81.4603L141.429 83.8766L143.427 83.8053L143.341 81.389L141.342 81.4603ZM137.923 81.4247V83.8409H139.923V81.4247H137.923ZM139.896 83.6117L138.117 76.0579L136.171 76.5163L137.949 84.0701L139.896 83.6117ZM136.314 85.7488L134.313 83.7709L132.907 85.1931L134.908 87.171L136.314 85.7488ZM135.53 94.5159V95.8329H137.53V94.5159H135.53ZM136.871 97.176H141.658V95.176H136.871V97.176ZM141.658 96.176C142.648 96.3181 142.648 96.3183 142.648 96.3186C142.648 96.3186 142.648 96.3188 142.648 96.319C142.648 96.3192 142.648 96.3195 142.648 96.3197C142.647 96.3201 142.647 96.3203 142.647 96.3205C142.647 96.3208 142.647 96.3207 142.647 96.3201C142.648 96.3189 142.648 96.316 142.649 96.3113C142.65 96.302 142.653 96.2861 142.657 96.2645C142.665 96.2212 142.677 96.1561 142.695 96.0768C142.732 95.9145 142.788 95.7102 142.866 95.516C142.947 95.3116 143.028 95.1778 143.089 95.1102C143.14 95.0543 143.104 95.1176 142.998 95.1176V93.1176C142.369 93.1176 141.905 93.4382 141.606 93.7683C141.318 94.0867 141.13 94.4674 141.007 94.7775C140.88 95.098 140.796 95.4082 140.745 95.6319C140.72 95.7455 140.701 95.8413 140.688 95.9105C140.682 95.9452 140.677 95.9735 140.674 95.9944C140.672 96.0048 140.671 96.0134 140.67 96.02C140.67 96.0233 140.669 96.0261 140.669 96.0284C140.669 96.0296 140.669 96.0306 140.668 96.0315C140.668 96.032 140.668 96.0324 140.668 96.0328C140.668 96.0329 140.668 96.0332 140.668 96.0333C140.668 96.0336 140.668 96.0338 141.658 96.176ZM142.998 95.1176C142.895 95.1176 142.866 95.0577 142.925 95.1208C142.992 95.1933 143.079 95.3316 143.167 95.5372C143.25 95.733 143.311 95.9386 143.353 96.1013C143.373 96.1809 143.388 96.2463 143.397 96.2898C143.401 96.3115 143.404 96.3275 143.406 96.3369C143.407 96.3415 143.407 96.3445 143.408 96.3458C143.408 96.3464 143.408 96.3465 143.408 96.3462C143.408 96.346 143.408 96.3458 143.407 96.3454C143.407 96.3452 143.407 96.345 143.407 96.3447C143.407 96.3446 143.407 96.3444 143.407 96.3443C143.407 96.3441 143.407 96.3438 144.393 96.176C145.379 96.0081 145.379 96.0078 145.379 96.0076C145.379 96.0075 145.379 96.0072 145.379 96.007C145.379 96.0066 145.378 96.0062 145.378 96.0058C145.378 96.0049 145.378 96.0039 145.378 96.0027C145.377 96.0004 145.377 95.9976 145.376 95.9943C145.375 95.9878 145.374 95.9792 145.372 95.9688C145.368 95.9481 145.362 95.9198 145.355 95.8852C145.341 95.8162 145.32 95.7207 145.291 95.6074C145.234 95.3842 145.143 95.0752 145.008 94.7564C144.877 94.4474 144.68 94.0711 144.388 93.7577C144.088 93.4349 143.623 93.1176 142.998 93.1176V95.1176ZM144.393 97.176H146.444V95.176H144.393V97.176ZM147.786 95.8329V93.312H145.786V95.8329H147.786ZM147.935 92.7691L149.095 90.8157L147.375 89.7948L146.215 91.7482L147.935 92.7691ZM137.788 75.2551C137.479 74.7919 136.577 73.7426 135.017 74.0555L135.411 76.0164C135.619 75.9746 135.743 76.0195 135.837 76.076C135.954 76.1468 136.054 76.2599 136.123 76.3642L137.788 75.2551ZM135.017 74.0555C134.039 74.2518 133.494 74.8639 133.236 75.4646C133.001 76.0119 133.009 76.5227 133.015 76.6666L135.013 76.5762C135.013 76.5772 135.011 76.5311 135.02 76.4626C135.029 76.3927 135.046 76.3191 135.074 76.2546C135.1 76.1931 135.131 76.1506 135.167 76.1197C135.198 76.0922 135.266 76.0455 135.411 76.0164L135.017 74.0555ZM130.885 82.5079C130.526 82.6118 130.139 82.799 129.805 83.1265L131.204 84.5554C131.254 84.5068 131.327 84.462 131.442 84.4288L130.885 82.5079ZM129.805 83.1265C129.33 83.5912 129.128 84.1623 129.044 84.6238L131.011 84.9831C131.05 84.7728 131.121 84.6371 131.204 84.5554L129.805 83.1265ZM143.426 83.8982L143.506 82.5111L141.509 82.3965L141.43 83.7836L143.426 83.8982ZM145.111 82.3238L145.282 83.9461L147.271 83.7357L147.099 82.1135L145.111 82.3238ZM147.268 83.9729L147.348 83.3725L145.365 83.1085L145.285 83.7089L147.268 83.9729ZM148.137 83.2392L148.18 84.2711L150.179 84.1865L150.135 83.1546L148.137 83.2392ZM147.459 82.843C147.528 82.7971 147.557 82.787 147.576 82.7817C147.6 82.7747 147.66 82.7615 147.803 82.7615V80.7615C147.226 80.7615 146.793 80.8807 146.342 81.1842L147.459 82.843ZM147.803 82.7615C147.859 82.7615 147.892 82.7707 147.91 82.7776C147.929 82.7849 147.948 82.7957 147.969 82.8131C148.017 82.853 148.067 82.921 148.108 83.0066L149.911 82.1409C149.685 81.6708 149.07 80.7615 147.803 80.7615V82.7615ZM143.656 81.9446C143.815 81.7944 144.035 81.6624 144.357 81.6624V79.6624C143.399 79.6624 142.711 80.0865 142.284 80.4891L143.656 81.9446ZM144.357 81.6624C144.556 81.6624 144.69 81.7113 144.785 81.7658C144.887 81.8241 144.969 81.9036 145.032 81.9844L146.609 80.7539C146.236 80.2765 145.514 79.6624 144.357 79.6624V81.6624ZM129.818 87.3432C130.649 88.5649 132.119 90.7324 132.931 91.9667L134.602 90.8673C133.78 89.6177 132.3 87.4371 131.471 86.2182L129.818 87.3432ZM132.931 91.9667C133.874 93.3994 135.039 94.3157 135.626 94.7231L136.766 93.08C136.298 92.7552 135.354 92.0103 134.602 90.8673L132.931 91.9667ZM133.021 76.7503C133.062 77.1879 133.154 78.6606 133.558 80.8442L135.524 80.4807C135.141 78.4042 135.056 77.0293 135.013 76.5657L133.021 76.7503ZM133.558 80.8442C133.761 81.9455 134.041 83.0556 134.249 83.9976C134.466 84.9787 134.611 85.7937 134.611 86.4599H136.611C136.611 85.5541 136.42 84.5502 136.202 83.5655C135.975 82.5417 135.72 81.5391 135.524 80.4807L133.558 80.8442ZM149.992 87.9191L150.12 85.9493L148.124 85.8194L147.996 87.7892L149.992 87.9191ZM150.121 85.919L150.179 84.2634L148.18 84.1942L148.123 85.8497L150.121 85.919ZM150.135 83.1546C150.125 82.9118 150.096 82.5254 149.911 82.1409L148.108 83.0066C148.106 83.0028 148.113 83.0143 148.12 83.054C148.127 83.0955 148.133 83.1526 148.137 83.2392L150.135 83.1546ZM147.348 83.3725C147.378 83.1457 147.406 83.0007 147.444 82.8976C147.478 82.8068 147.494 82.8201 147.459 82.843L146.342 81.1842C145.92 81.4682 145.695 81.8628 145.569 82.2041C145.447 82.5331 145.397 82.8711 145.365 83.1085L147.348 83.3725ZM146.444 97.176C147.189 97.176 147.786 96.5714 147.786 95.8329H145.786C145.786 95.4733 146.078 95.176 146.444 95.176V97.176ZM147.099 82.1135C147.063 81.7681 146.976 81.2246 146.609 80.7539L145.032 81.9844C145.033 81.9849 145.047 82.0028 145.064 82.0598C145.082 82.1198 145.098 82.2031 145.111 82.3238L147.099 82.1135ZM135.53 95.8329C135.53 96.5714 136.127 97.176 136.871 97.176V95.176C137.238 95.176 137.53 95.4733 137.53 95.8329H135.53ZM129.044 84.6238C128.838 85.7502 129.397 86.7252 129.818 87.3432L131.471 86.2182C131.085 85.651 130.959 85.2681 131.011 84.9831L129.044 84.6238ZM134.313 83.7709C133.943 83.4047 133.468 83.0014 132.915 82.7299C132.349 82.4528 131.644 82.2878 130.885 82.5079L131.442 84.4288C131.588 84.3865 131.771 84.3964 132.034 84.5258C132.31 84.6609 132.606 84.8956 132.907 85.1931L134.313 83.7709ZM149.095 90.8157C149.618 89.9347 149.925 88.942 149.992 87.9191L147.996 87.7892C147.95 88.4977 147.737 89.1851 147.375 89.7948L149.095 90.8157ZM133.015 76.6666C133.017 76.706 133.02 76.7394 133.021 76.7504L135.013 76.5657C135.013 76.5625 135.013 76.561 135.012 76.5599C135.012 76.559 135.012 76.5593 135.012 76.5604C135.013 76.5628 135.013 76.5685 135.013 76.5762L133.015 76.6666ZM143.506 82.5111C143.516 82.3325 143.54 82.1966 143.573 82.0968C143.604 82.0022 143.637 81.9626 143.656 81.9446L142.284 80.4891C141.663 81.0745 141.539 81.8732 141.509 82.3965L143.506 82.5111ZM137.53 94.5159C137.53 93.9094 137.21 93.3877 136.766 93.08L135.626 94.7231C135.587 94.6957 135.53 94.6299 135.53 94.5159H137.53ZM147.786 93.312C147.786 93.1207 147.838 92.9331 147.935 92.7691L146.215 91.7482C145.934 92.2214 145.786 92.7617 145.786 93.312H147.786ZM138.117 76.0579C138.068 75.8486 137.982 75.5464 137.788 75.2551L136.123 76.3642C136.12 76.3597 136.125 76.3658 136.135 76.3911C136.145 76.4175 136.157 76.4564 136.171 76.5163L138.117 76.0579ZM142.5 91.5V86.4599H140.5V91.5H142.5ZM139.5 91.5V86.4599H137.5V91.5H139.5ZM145.357 91.5V86.4599H143.357V91.5H145.357Z" fill="#000000"/>
</g>
</g>
</g>
<defs>
<filter id="filter0_d_1224_126769" x="155" y="26" width="93" height="28" filterUnits="userSpaceOnUse" color-interpolation-filters="sRGB">
<feFlood flood-opacity="0" result="BackgroundImageFix"/>
<feColorMatrix in="SourceAlpha" type="matrix" values="0 0 0 0 0 0 0 0 0 0 0 0 0 0 0 0 0 0 127 0" result="hardAlpha"/>
<feOffset dy="2"/>
<feGaussianBlur stdDeviation="2"/>
<feColorMatrix type="matrix" values="0 0 0 0 0 0 0 0 0 0 0 0 0 0 0 0 0 0 0.3 0"/>
<feBlend mode="normal" in2="BackgroundImageFix" result="effect1_dropShadow_1224_126769"/>
<feBlend mode="normal" in="SourceGraphic" in2="effect1_dropShadow_1224_126769" result="shape"/>
</filter>
</defs>
</svg>
