<?xml version="1.0" encoding="utf-8"?>
<svg version="1.1" width="38px" height="38px" xmlns:xlink="http://www.w3.org/1999/xlink" xmlns="http://www.w3.org/2000/svg">
  <defs>
    <filter x="-50%" y="-50%" width="200%" height="200%" filterUnits="objectBoundingBox" id="filter3818">
      <feOffset dx="1" dy="1" in="SourceAlpha" result="shadowOffsetInner" />
      <feGaussianBlur stdDeviation="2.5" in="shadowOffsetInner" result="shadowGaussian" />
      <feComposite in2="shadowGaussian" operator="atop" in="SourceAlpha" result="shadowComposite" />
      <feColorMatrix type="matrix" values="0 0 0 0 0  0 0 0 0 0  0 0 0 0 0  0 0 0 0.2 0  " in="shadowComposite" />
    </filter>
    <g id="widget3819">
      <path d="M 890 63  C 897.84 63  904 69.16  904 77  C 904 84.84  897.84 91  890 91  C 882.16 91  876 84.84  876 77  C 876 69.16  882.16 63  890 63  Z " fill-rule="nonzero" fill="#ffffff" stroke="none" />
      <path d="M 890 63.5  C 897.56 63.5  903.5 69.44  903.5 77  C 903.5 84.56  897.56 90.5  890 90.5  C 882.44 90.5  876.5 84.56  876.5 77  C 876.5 69.44  882.44 63.5  890 63.5  Z " stroke-width="1" stroke="#fcc62d" fill="none" />
    </g>
  </defs>
  <g transform="translate(-872 -59 )">
    <use xlink:href="#widget3819" filter="url(#filter3818)" />
    <use xlink:href="#widget3819" />
  </g>
</svg>