<?xml version="1.0" encoding="utf-8"?>
<svg version="1.1" width="56px" height="56px" xmlns:xlink="http://www.w3.org/1999/xlink" xmlns="http://www.w3.org/2000/svg">
  <defs>
    <filter x="-50%" y="-50%" width="200%" height="200%" filterUnits="objectBoundingBox" id="filter2957">
      <feOffset dx="1" dy="1" in="SourceAlpha" result="shadowOffsetInner" />
      <feGaussianBlur stdDeviation="2.5" in="shadowOffsetInner" result="shadowGaussian" />
      <feComposite in2="shadowGaussian" operator="atop" in="SourceAlpha" result="shadowComposite" />
      <feColorMatrix type="matrix" values="0 0 0 0 0  0 0 0 0 0  0 0 0 0 0  0 0 0 0.2 0  " in="shadowComposite" />
    </filter>
    <g id="widget2958">
      <path d="M 564 263  C 576.88 263  587 273.12  587 286  C 587 298.88  576.88 309  564 309  C 551.12 309  541 298.88  541 286  C 541 273.12  551.12 263  564 263  Z " fill-rule="nonzero" fill="#ffffff" stroke="none" />
      <path d="M 564 263.5  C 576.6 263.5  586.5 273.4  586.5 286  C 586.5 298.6  576.6 308.5  564 308.5  C 551.4 308.5  541.5 298.6  541.5 286  C 541.5 273.4  551.4 263.5  564 263.5  Z " stroke-width="1" stroke="#fcc62d" fill="none" />
    </g>
  </defs>
  <g transform="translate(-537 -259 )">
    <use xlink:href="#widget2958" filter="url(#filter2957)" />
    <use xlink:href="#widget2958" />
  </g>
</svg>