<?xml version="1.0" encoding="utf-8"?>
<svg version="1.1" width="114px" height="114px" xmlns:xlink="http://www.w3.org/1999/xlink" xmlns="http://www.w3.org/2000/svg">
  <defs>
    <filter x="-50%" y="-50%" width="200%" height="200%" filterUnits="objectBoundingBox" id="filter2965">
      <feOffset dx="1" dy="1" in="SourceAlpha" result="shadowOffsetInner" />
      <feGaussianBlur stdDeviation="2.5" in="shadowOffsetInner" result="shadowGaussian" />
      <feComposite in2="shadowGaussian" operator="atop" in="SourceAlpha" result="shadowComposite" />
      <feColorMatrix type="matrix" values="0 0 0 0 0  0 0 0 0 0  0 0 0 0 0  0 0 0 0.2 0  " in="shadowComposite" />
    </filter>
    <g id="widget2966">
      <path d="M 104 52  C 104 81.12  81.12 104  52 104  C 22.88 104  0 81.12  0 52  C 0 22.88  22.88 0  52 0  C 81.12 0  104 22.88  104 52  Z M 6 52  C 6 77.76  26.24 98  52 98  C 77.76 98  98 77.76  98 52  C 98 26.24  77.76 6  52 6  C 26.24 6  6 26.24  6 52  Z " fill-rule="nonzero" fill="#b6dcdc" stroke="none" fill-opacity="0.2" transform="matrix(1 0 0 1 440 468 )" />
    </g>
  </defs>
  <g transform="translate(-436 -464 )">
    <use xlink:href="#widget2966" filter="url(#filter2965)" />
    <use xlink:href="#widget2966" />
  </g>
</svg>