<?xml version="1.0" encoding="utf-8"?>
<svg version="1.1" width="110px" height="64px" xmlns:xlink="http://www.w3.org/1999/xlink" xmlns="http://www.w3.org/2000/svg">
  <defs>
    <mask fill="white" id="clip1490">
      <path d="M 0 64  C 0 28.16  24.2 0  55 0  C 85.8 0  110 28.16  110 64  L 0 64  Z M 100.756302521008 64  C 100.756302521008 32.8347826086956  80.4201680672269 8.34782608695656  54.5378151260504 8.34782608695656  C 28.655462184874 8.34782608695656  8.31932773109236 32.8347826086956  8.31932773109236 64  L 100.756302521008 64  Z " fill-rule="evenodd" />
    </mask>
  </defs>
  <g transform="translate(-10 -345 )">
    <path d="M 0 64  C 0 28.16  24.2 0  55 0  C 85.8 0  110 28.16  110 64  L 0 64  Z M 100.756302521008 64  C 100.756302521008 32.8347826086956  80.4201680672269 8.34782608695656  54.5378151260504 8.34782608695656  C 28.655462184874 8.34782608695656  8.31932773109236 32.8347826086956  8.31932773109236 64  L 100.756302521008 64  Z " fill-rule="nonzero" fill="#f2f2f2" stroke="none" transform="matrix(1 0 0 1 10 345 )" />
    <path d="M 0 64  C 0 28.16  24.2 0  55 0  C 85.8 0  110 28.16  110 64  L 0 64  Z " stroke-width="2" stroke="#f2f2f2" fill="none" transform="matrix(1 0 0 1 10 345 )" mask="url(#clip1490)" />
    <path d="M 100.756302521008 64  C 100.756302521008 32.8347826086956  80.4201680672269 8.34782608695656  54.5378151260504 8.34782608695656  C 28.655462184874 8.34782608695656  8.31932773109236 32.8347826086956  8.31932773109236 64  L 100.756302521008 64  Z " stroke-width="2" stroke="#f2f2f2" fill="none" transform="matrix(1 0 0 1 10 345 )" mask="url(#clip1490)" />
  </g>
</svg>