<?xml version="1.0" encoding="utf-8"?>
<svg version="1.1" width="20px" height="20px" xmlns:xlink="http://www.w3.org/1999/xlink" xmlns="http://www.w3.org/2000/svg">
  <defs>
    <filter x="-50%" y="-50%" width="200%" height="200%" filterUnits="objectBoundingBox" id="filter330">
      <feOffset dx="1" dy="1" in="SourceAlpha" result="shadowOffsetInner" />
      <feGaussianBlur stdDeviation="2.5" in="shadowOffsetInner" result="shadowGaussian" />
      <feComposite in2="shadowGaussian" operator="atop" in="SourceAlpha" result="shadowComposite" />
      <feColorMatrix type="matrix" values="0 0 0 0 0  0 0 0 0 0  0 0 0 0 0  0 0 0 0.2 0  " in="shadowComposite" />
    </filter>
    <g id="widget331">
      <path d="M 167 674  C 169.8 674  172 676.2  172 679  C 172 681.8  169.8 684  167 684  C 164.2 684  162 681.8  162 679  C 162 676.2  164.2 674  167 674  Z " fill-rule="nonzero" fill="#afdcdc" stroke="none" />
      <path d="M 167 674.5  C 169.52 674.5  171.5 676.48  171.5 679  C 171.5 681.52  169.52 683.5  167 683.5  C 164.48 683.5  162.5 681.52  162.5 679  C 162.5 676.48  164.48 674.5  167 674.5  Z " stroke-width="1" stroke="#afdcdc" fill="none" />
    </g>
  </defs>
  <g transform="translate(-158 -670 )">
    <use xlink:href="#widget331" filter="url(#filter330)" />
    <use xlink:href="#widget331" />
  </g>
</svg>