<?xml version="1.0" encoding="utf-8"?>
<svg version="1.1" width="20px" height="20px" xmlns:xlink="http://www.w3.org/1999/xlink" xmlns="http://www.w3.org/2000/svg">
  <defs>
    <filter x="-50%" y="-50%" width="200%" height="200%" filterUnits="objectBoundingBox" id="filter332">
      <feOffset dx="1" dy="1" in="SourceAlpha" result="shadowOffsetInner" />
      <feGaussianBlur stdDeviation="2.5" in="shadowOffsetInner" result="shadowGaussian" />
      <feComposite in2="shadowGaussian" operator="atop" in="SourceAlpha" result="shadowComposite" />
      <feColorMatrix type="matrix" values="0 0 0 0 0  0 0 0 0 0  0 0 0 0 0  0 0 0 0.2 0  " in="shadowComposite" />
    </filter>
    <g id="widget333">
      <path d="M 187 674  C 189.8 674  192 676.2  192 679  C 192 681.8  189.8 684  187 684  C 184.2 684  182 681.8  182 679  C 182 676.2  184.2 674  187 674  Z " fill-rule="nonzero" fill="#f2f2f2" stroke="none" />
      <path d="M 187 674.5  C 189.52 674.5  191.5 676.48  191.5 679  C 191.5 681.52  189.52 683.5  187 683.5  C 184.48 683.5  182.5 681.52  182.5 679  C 182.5 676.48  184.48 674.5  187 674.5  Z " stroke-width="1" stroke="#afdcdc" fill="none" />
    </g>
  </defs>
  <g transform="translate(-178 -670 )">
    <use xlink:href="#widget333" filter="url(#filter332)" />
    <use xlink:href="#widget333" />
  </g>
</svg>