<?xml version="1.0" encoding="utf-8"?>
<svg version="1.1" width="54px" height="54px" xmlns:xlink="http://www.w3.org/1999/xlink" xmlns="http://www.w3.org/2000/svg">
  <defs>
    <filter x="-50%" y="-50%" width="200%" height="200%" filterUnits="objectBoundingBox" id="filter334">
      <feOffset dx="0" dy="0" in="SourceAlpha" result="shadowOffsetInner" />
      <feGaussianBlur stdDeviation="1.5" in="shadowOffsetInner" result="shadowGaussian" />
      <feComposite in2="shadowGaussian" operator="atop" in="SourceAlpha" result="shadowComposite" />
      <feColorMatrix type="matrix" values="0 0 0 0 0.525490196078431  0 0 0 0 0.525490196078431  0 0 0 0 0.525490196078431  0 0 0 0.349019607843137 0  " in="shadowComposite" />
    </filter>
    <g id="widget335">
      <path d="M 41 515  C 54.44 515  65 525.56  65 539  C 65 552.44  54.44 563  41 563  C 27.56 563  17 552.44  17 539  C 17 525.56  27.56 515  41 515  Z " fill-rule="nonzero" fill="#ffffff" stroke="none" fill-opacity="0.258823529411765" />
      <path d="M 41 515.5  C 54.16 515.5  64.5 525.84  64.5 539  C 64.5 552.16  54.16 562.5  41 562.5  C 27.84 562.5  17.5 552.16  17.5 539  C 17.5 525.84  27.84 515.5  41 515.5  Z " stroke-width="1" stroke="#c9c9c9" fill="none" />
    </g>
  </defs>
  <g transform="translate(-14 -512 )">
    <use xlink:href="#widget335" filter="url(#filter334)" />
    <use xlink:href="#widget335" />
  </g>
</svg>