<?xml version="1.0" encoding="utf-8"?>
<svg version="1.1" width="20px" height="13px" xmlns:xlink="http://www.w3.org/1999/xlink" xmlns="http://www.w3.org/2000/svg">
  <g transform="translate(-15 -22 )">
    <path d="M 8 8.125  L 8 9.1  L 12 9.1  L 12 8.125  L 10.6666666666667 8.125  L 10.6666666666667 3.575  L 9.47916666666667 3.575  L 7.9375 4.96640625  L 8.73958333333333 5.77890625  C 9.03125 5.52838541666667  9.22222222222222 5.33541666666667  9.3125 5.2  L 9.33333333333333 5.2  L 9.33333333333333 8.125  L 8 8.125  Z M 13.1145833333333 5.0578125  C 13.2604166666667 5.5453125  13.3333333333333 6.02604166666667  13.3333333333333 6.5  C 13.3333333333333 6.97395833333333  13.2604166666667 7.4546875  13.1145833333333 7.9421875  C 12.96875 8.4296875  12.7621527777778 8.88333333333333  12.4947916666667 9.303125  C 12.2274305555556 9.72291666666666  11.875 10.06484375  11.4375 10.32890625  C 11 10.59296875  10.5208333333333 10.725  10 10.725  C 9.47916666666667 10.725  9 10.59296875  8.5625 10.32890625  C 8.125 10.06484375  7.77256944444444 9.72291666666666  7.50520833333333 9.303125  C 7.23784722222222 8.88333333333333  7.03125 8.4296875  6.88541666666667 7.9421875  C 6.73958333333333 7.4546875  6.66666666666667 6.97395833333333  6.66666666666667 6.5  C 6.66666666666667 6.02604166666667  6.73958333333333 5.5453125  6.88541666666667 5.0578125  C 7.03125 4.5703125  7.23784722222222 4.11666666666667  7.50520833333333 3.696875  C 7.77256944444444 3.27708333333333  8.125 2.93515625  8.5625 2.67109375  C 9 2.40703125  9.47916666666667 2.275  10 2.275  C 10.5208333333333 2.275  11 2.40703125  11.4375 2.67109375  C 11.875 2.93515625  12.2274305555556 3.27708333333333  12.4947916666667 3.696875  C 12.7621527777778 4.11666666666667  12.96875 4.5703125  13.1145833333333 5.0578125  Z M 16.78125 9.86171875  C 17.3020833333333 9.35390625  17.9305555555556 9.1  18.6666666666667 9.1  L 18.6666666666667 3.9  C 17.9305555555556 3.9  17.3020833333333 3.64609375  16.78125 3.13828125  C 16.2604166666667 2.63046875  16 2.01770833333333  16 1.3  L 4 1.3  C 4 2.01770833333333  3.73958333333333 2.63046875  3.21875 3.13828125  C 2.69791666666667 3.64609375  2.06944444444444 3.9  1.33333333333333 3.9  L 1.33333333333333 9.1  C 2.06944444444444 9.1  2.69791666666667 9.35390625  3.21875 9.86171875  C 3.73958333333333 10.36953125  4 10.9822916666667  4 11.7  L 16 11.7  C 16 10.9822916666667  16.2604166666667 10.36953125  16.78125 9.86171875  Z M 19.8020833333333 0.192968750000001  C 19.9340277777778 0.321614583333332  20 0.473958333333332  20 0.650000000000001  L 20 12.35  C 20 12.5260416666667  19.9340277777778 12.6783854166667  19.8020833333333 12.80703125  C 19.6701388888889 12.9356770833333  19.5138888888889 13  19.3333333333333 13  L 0.666666666666667 13  C 0.486111111111111 13  0.329861111111111 12.9356770833333  0.197916666666667 12.80703125  C 0.0659722222222222 12.6783854166667  0 12.5260416666667  0 12.35  L 0 0.650000000000001  C 0 0.473958333333332  0.0659722222222222 0.321614583333332  0.197916666666667 0.192968750000001  C 0.329861111111111 0.0643229166666659  0.486111111111111 0  0.666666666666667 0  L 19.3333333333333 0  C 19.5138888888889 0  19.6701388888889 0.0643229166666659  19.8020833333333 0.192968750000001  Z " fill-rule="nonzero" fill="#1b9aaa" stroke="none" transform="matrix(1 0 0 1 15 22 )" />
  </g>
</svg>