<?xml version="1.0" encoding="utf-8"?>
<svg version="1.1" width="110px" height="64px" xmlns:xlink="http://www.w3.org/1999/xlink" xmlns="http://www.w3.org/2000/svg">
  <defs>
    <linearGradient gradientUnits="userSpaceOnUse" x1="0.0200000000000111" y1="62.62" x2="93.95" y2="-1.55" id="LinearGradient2251">
      <stop id="Stop2252" stop-color="#d4d4d4" stop-opacity="0.996078431372549" offset="0" />
      <stop id="Stop2253" stop-color="#ff9999" offset="1" />
    </linearGradient>
  </defs>
  <g transform="translate(-133 -345 )">
    <path d="M 55 0  C 65.842494230429 0  75.867087154247 3.48971224154025  84.3059787520448 9.57568532085782  C 97.5118905457357 19.0995455023561  106.834623813377 34.9813144323974  109.331809999228 53.7971014492754  L 105.000041416471 53.7970725263908  L 100.010636267108 53.7970392125177  C 96.127743137218 27.6530367447403  77.5190638207544 8.3478260869565  54.5378151260504 8.3478260869565  C 28.655462184874 8.3478260869565  8.31932773109247 32.8347826086956  8.31932858037203 64  L 8.31805147774674 64  L 0 64  C 0 28.16  24.2 0  55 0  Z M 8.31932858037203 64  L 70.2522540793096 64  L 8.31932858037203 64  Z " fill-rule="nonzero" fill="url(#LinearGradient2251)" stroke="none" transform="matrix(1 0 0 1 133 345 )" />
  </g>
</svg>