<?xml version="1.0" encoding="utf-8"?>
<svg version="1.1" width="15px" height="11px" xmlns:xlink="http://www.w3.org/1999/xlink" xmlns="http://www.w3.org/2000/svg">
  <g transform="translate(-122 -18 )">
    <path d="M 14.7290322580645 1.51851851851852  C 14.9096774193548 1.69135802469136  15 1.90123456790123  15 2.14814814814815  C 15 2.39506172839506  14.9096774193548 2.60493827160494  14.7290322580645 2.77777777777778  L 7.72258064516129 9.48148148148148  L 6.40645161290323 10.7407407407407  C 6.2258064516129 10.9135802469136  6.00645161290323 11  5.74838709677419 11  C 5.49032258064516 11  5.27096774193548 10.9135802469136  5.09032258064516 10.7407407407407  L 3.7741935483871 9.48148148148148  L 0.270967741935484 6.12962962962963  C 0.0903225806451614 5.95679012345679  0 5.74691358024691  0 5.5  C 0 5.25308641975309  0.0903225806451614 5.04320987654321  0.270967741935484 4.87037037037037  L 1.58709677419355 3.61111111111111  C 1.76774193548387 3.43827160493827  1.98709677419355 3.35185185185185  2.24516129032258 3.35185185185185  C 2.50322580645161 3.35185185185185  2.72258064516129 3.43827160493827  2.90322580645161 3.61111111111111  L 5.74838709677419 6.34259259259259  L 12.0967741935484 0.259259259259259  C 12.2774193548387 0.0864197530864194  12.4967741935484 0  12.7548387096774 0  C 13.0129032258065 0  13.2322580645161 0.0864197530864194  13.4129032258065 0.259259259259259  L 14.7290322580645 1.51851851851852  Z " fill-rule="nonzero" fill="#1b9aaa" stroke="none" transform="matrix(1 0 0 1 122 18 )" />
  </g>
</svg>