<?xml version="1.0" encoding="utf-8"?>
<svg version="1.1" width="54px" height="54px" xmlns:xlink="http://www.w3.org/1999/xlink" xmlns="http://www.w3.org/2000/svg">
  <defs>
    <filter x="-50%" y="-50%" width="200%" height="200%" filterUnits="objectBoundingBox" id="filter300">
      <feOffset dx="0" dy="0" in="SourceAlpha" result="shadowOffsetInner" />
      <feGaussianBlur stdDeviation="1.5" in="shadowOffsetInner" result="shadowGaussian" />
      <feComposite in2="shadowGaussian" operator="atop" in="SourceAlpha" result="shadowComposite" />
      <feColorMatrix type="matrix" values="0 0 0 0 0.525490196078431  0 0 0 0 0.525490196078431  0 0 0 0 0.525490196078431  0 0 0 0.349019607843137 0  " in="shadowComposite" />
    </filter>
    <g id="widget301">
      <path d="M 44 503  C 57.44 503  68 513.56  68 527  C 68 540.44  57.44 551  44 551  C 30.56 551  20 540.44  20 527  C 20 513.56  30.56 503  44 503  Z " fill-rule="nonzero" fill="#ffffff" stroke="none" fill-opacity="0.258823529411765" />
      <path d="M 44 503.5  C 57.16 503.5  67.5 513.84  67.5 527  C 67.5 540.16  57.16 550.5  44 550.5  C 30.84 550.5  20.5 540.16  20.5 527  C 20.5 513.84  30.84 503.5  44 503.5  Z " stroke-width="1" stroke="#c9c9c9" fill="none" />
    </g>
  </defs>
  <g transform="translate(-17 -500 )">
    <use xlink:href="#widget301" filter="url(#filter300)" />
    <use xlink:href="#widget301" />
  </g>
</svg>