<?xml version="1.0" encoding="utf-8"?>
<svg version="1.1" width="54px" height="54px" xmlns:xlink="http://www.w3.org/1999/xlink" xmlns="http://www.w3.org/2000/svg">
  <defs>
    <filter x="-50%" y="-50%" width="200%" height="200%" filterUnits="objectBoundingBox" id="filter958">
      <feOffset dx="0" dy="0" in="SourceAlpha" result="shadowOffsetInner" />
      <feGaussianBlur stdDeviation="1.5" in="shadowOffsetInner" result="shadowGaussian" />
      <feComposite in2="shadowGaussian" operator="atop" in="SourceAlpha" result="shadowComposite" />
      <feColorMatrix type="matrix" values="0 0 0 0 0.525490196078431  0 0 0 0 0.525490196078431  0 0 0 0 0.525490196078431  0 0 0 0.349019607843137 0  " in="shadowComposite" />
    </filter>
    <g id="widget959">
      <path d="M 44 562  C 57.44 562  68 572.56  68 586  C 68 599.44  57.44 610  44 610  C 30.56 610  20 599.44  20 586  C 20 572.56  30.56 562  44 562  Z " fill-rule="nonzero" fill="#ffffff" stroke="none" fill-opacity="0.258823529411765" />
      <path d="M 44 562.5  C 57.16 562.5  67.5 572.84  67.5 586  C 67.5 599.16  57.16 609.5  44 609.5  C 30.84 609.5  20.5 599.16  20.5 586  C 20.5 572.84  30.84 562.5  44 562.5  Z " stroke-width="1" stroke="#c9c9c9" fill="none" />
    </g>
  </defs>
  <g transform="translate(-17 -559 )">
    <use xlink:href="#widget959" filter="url(#filter958)" />
    <use xlink:href="#widget959" />
  </g>
</svg>