<?xml version="1.0" encoding="utf-8"?>
<svg version="1.1" width="38px" height="38px" xmlns:xlink="http://www.w3.org/1999/xlink" xmlns="http://www.w3.org/2000/svg">
  <defs>
    <filter x="-50%" y="-50%" width="200%" height="200%" filterUnits="objectBoundingBox" id="filter3654">
      <feOffset dx="1" dy="1" in="SourceAlpha" result="shadowOffsetInner" />
      <feGaussianBlur stdDeviation="2.5" in="shadowOffsetInner" result="shadowGaussian" />
      <feComposite in2="shadowGaussian" operator="atop" in="SourceAlpha" result="shadowComposite" />
      <feColorMatrix type="matrix" values="0 0 0 0 0  0 0 0 0 0  0 0 0 0 0  0 0 0 0.2 0  " in="shadowComposite" />
    </filter>
    <g id="widget3655">
      <path d="M 330 185  C 337.84 185  344 191.16  344 199  C 344 206.84  337.84 213  330 213  C 322.16 213  316 206.84  316 199  C 316 191.16  322.16 185  330 185  Z " fill-rule="nonzero" fill="#ffffff" stroke="none" />
      <path d="M 330 185.5  C 337.56 185.5  343.5 191.44  343.5 199  C 343.5 206.56  337.56 212.5  330 212.5  C 322.44 212.5  316.5 206.56  316.5 199  C 316.5 191.44  322.44 185.5  330 185.5  Z " stroke-width="1" stroke="#fcc62d" fill="none" />
    </g>
  </defs>
  <g transform="translate(-312 -181 )">
    <use xlink:href="#widget3655" filter="url(#filter3654)" />
    <use xlink:href="#widget3655" />
  </g>
</svg>