<?xml version="1.0" encoding="utf-8"?><svg version="1.1" xmlns:xlink="http://www.w3.org/1999/xlink" width="76px" height="76px" xmlns="http://www.w3.org/2000/svg"><g transform="matrix(1 0 0 1 -947 -1524 )"><path d="M 985 1527  C 1004.6 1527  1020 1542.4  1020 1562  C 1020 1581.6  1004.6 1597  985 1597  C 965.4 1597  950 1581.6  950 1562  C 950 1542.4  965.4 1527  985 1527  Z " fill-rule="nonzero" fill="#ffffff" stroke="none" fill-opacity="0.964705882352941" /><path d="M 985 1526  C 1005.16 1526  1021 1541.84  1021 1562  C 1021 1582.16  1005.16 1598  985 1598  C 964.84 1598  949 1582.16  949 1562  C 949 1541.84  964.84 1526  985 1526  Z " stroke-width="4" stroke="#d4d2d2" fill="none" /></g></svg>