<?xml version="1.0" encoding="utf-8"?><svg version="1.1" xmlns:xlink="http://www.w3.org/1999/xlink" width="55px" height="55px" xmlns="http://www.w3.org/2000/svg"><g transform="matrix(1 0 0 1 -966 -1526 )"><path d="M 993.5 1527  C 1008.34 1527  1020 1538.66  1020 1553.5  C 1020 1568.34  1008.34 1580  993.5 1580  C 978.66 1580  967 1568.34  967 1553.5  C 967 1538.66  978.66 1527  993.5 1527  Z " fill-rule="nonzero" fill="#ffffff" stroke="none" fill-opacity="0.964705882352941" /><path d="M 993.5 1527  C 1008.34 1527  1020 1538.66  1020 1553.5  C 1020 1568.34  1008.34 1580  993.5 1580  C 978.66 1580  967 1568.34  967 1553.5  C 967 1538.66  978.66 1527  993.5 1527  Z " stroke-width="2" stroke="#d4d2d2" fill="none" /></g></svg>