<?xml version="1.0" encoding="utf-8"?><svg version="1.1" xmlns:xlink="http://www.w3.org/1999/xlink" width="21px" height="30px" xmlns="http://www.w3.org/2000/svg"><g transform="matrix(1 0 0 1 -855 -408 )"><path d="M 20.6536458333333 11.8810096153846  C 20.8845486111111 12.109375  21 12.3798076923077  21 12.6923076923077  L 21 15  C 21 17.65625  20.1037326388889 19.9669471153846  18.3111979166667 21.9320913461538  C 16.5186631944444 23.8972355769231  14.3038194444444 25.0240384615385  11.6666666666667 25.3125  L 11.6666666666667 27.6923076923077  L 16.3333333333333 27.6923076923077  C 16.6493055555556 27.6923076923077  16.9227430555556 27.8064903846154  17.1536458333333 28.0348557692308  C 17.3845486111111 28.2632211538462  17.5 28.5336538461538  17.5 28.8461538461538  C 17.5 29.1586538461538  17.3845486111111 29.4290865384615  17.1536458333333 29.6574519230769  C 16.9227430555556 29.8858173076923  16.6493055555556 30  16.3333333333333 30  L 4.66666666666667 30  C 4.35069444444444 30  4.07725694444444 29.8858173076923  3.84635416666667 29.6574519230769  C 3.61545138888889 29.4290865384615  3.5 29.1586538461538  3.5 28.8461538461538  C 3.5 28.5336538461538  3.61545138888889 28.2632211538462  3.84635416666667 28.0348557692308  C 4.07725694444444 27.8064903846154  4.35069444444444 27.6923076923077  4.66666666666667 27.6923076923077  L 9.33333333333333 27.6923076923077  L 9.33333333333333 25.3125  C 6.69618055555556 25.0240384615385  4.48133680555556 23.8972355769231  2.68880208333333 21.9320913461538  C 0.896267361111111 19.9669471153846  0 17.65625  0 15  L 0 12.6923076923077  C 0 12.3798076923077  0.115451388888889 12.109375  0.346354166666667 11.8810096153846  C 0.577256944444444 11.6526442307692  0.850694444444445 11.5384615384615  1.16666666666667 11.5384615384615  C 1.48263888888889 11.5384615384615  1.75607638888889 11.6526442307692  1.98697916666667 11.8810096153846  C 2.21788194444444 12.109375  2.33333333333333 12.3798076923077  2.33333333333333 12.6923076923077  L 2.33333333333333 15  C 2.33333333333333 17.2235576923077  3.13237847222222 19.1256009615385  4.73046875 20.7061298076923  C 6.32855902777778 22.2866586538462  8.25173611111111 23.0769230769231  10.5 23.0769230769231  C 12.7482638888889 23.0769230769231  14.6714409722222 22.2866586538462  16.26953125 20.7061298076923  C 17.8676215277778 19.1256009615385  18.6666666666667 17.2235576923077  18.6666666666667 15  L 18.6666666666667 12.6923076923077  C 18.6666666666667 12.3798076923077  18.7821180555556 12.109375  19.0130208333333 11.8810096153846  C 19.2439236111111 11.6526442307692  19.5173611111111 11.5384615384615  19.8333333333333 11.5384615384615  C 20.1493055555556 11.5384615384615  20.4227430555556 11.6526442307692  20.6536458333333 11.8810096153846  Z M 14.6197916666667 1.69471153846154  C 15.7621527777778 2.82451923076923  16.3333333333333 4.18269230769231  16.3333333333333 5.76923076923077  L 16.3333333333333 15  C 16.3333333333333 16.5865384615385  15.7621527777778 17.9447115384615  14.6197916666667 19.0745192307692  C 13.4774305555556 20.2043269230769  12.1041666666667 20.7692307692308  10.5 20.7692307692308  C 8.89583333333333 20.7692307692308  7.52256944444445 20.2043269230769  6.38020833333333 19.0745192307692  C 5.23784722222222 17.9447115384615  4.66666666666667 16.5865384615385  4.66666666666667 15  L 4.66666666666667 5.76923076923077  C 4.66666666666667 4.18269230769231  5.23784722222222 2.82451923076923  6.38020833333333 1.69471153846154  C 7.52256944444445 0.564903846153849  8.89583333333333 0  10.5 0  C 12.1041666666667 0  13.4774305555556 0.564903846153849  14.6197916666667 1.69471153846154  Z " fill-rule="nonzero" fill="#bbbaba" stroke="none" transform="matrix(1 0 0 1 855 408 )" /></g></svg>