<?xml version="1.0" encoding="utf-8"?><svg version="1.1" xmlns:xlink="http://www.w3.org/1999/xlink" width="55px" height="55px" xmlns="http://www.w3.org/2000/svg"><g transform="matrix(1 0 0 1 -3 -1526 )"><path d="M 30.5 1527  C 45.34 1527  57 1538.66  57 1553.5  C 57 1568.34  45.34 1580  30.5 1580  C 15.66 1580  4 1568.34  4 1553.5  C 4 1538.66  15.66 1527  30.5 1527  Z " fill-rule="nonzero" fill="#ffffff" stroke="none" fill-opacity="0.996078431372549" /><path d="M 30.5 1527  C 45.34 1527  57 1538.66  57 1553.5  C 57 1568.34  45.34 1580  30.5 1580  C 15.66 1580  4 1568.34  4 1553.5  C 4 1538.66  15.66 1527  30.5 1527  Z " stroke-width="2" stroke="#d4d2d2" fill="none" /></g></svg>