<?xml version="1.0" encoding="utf-8"?><svg version="1.1" xmlns:xlink="http://www.w3.org/1999/xlink" width="76px" height="76px" xmlns="http://www.w3.org/2000/svg"><g transform="matrix(1 0 0 1 -1 -1523 )"><path d="M 39 1526  C 58.6 1526  74 1541.4  74 1561  C 74 1580.6  58.6 1596  39 1596  C 19.4 1596  4 1580.6  4 1561  C 4 1541.4  19.4 1526  39 1526  Z " fill-rule="nonzero" fill="#ffffff" stroke="none" fill-opacity="0.996078431372549" /><path d="M 39 1525  C 59.16 1525  75 1540.84  75 1561  C 75 1581.16  59.16 1597  39 1597  C 18.84 1597  3 1581.16  3 1561  C 3 1540.84  18.84 1525  39 1525  Z " stroke-width="4" stroke="#d4d2d2" fill="none" /></g></svg>