<?xml version="1.0" encoding="utf-8"?>
<svg version="1.1" width="132px" height="132px" xmlns:xlink="http://www.w3.org/1999/xlink" xmlns="http://www.w3.org/2000/svg">
  <defs>
    <linearGradient gradientUnits="userSpaceOnUse" x1="9.04109589041094" y1="2.90748898678416" x2="124.96" y2="96.7999999999999" id="LinearGradient3687">
      <stop id="Stop3688" stop-color="#7ae2e8" offset="0" />
      <stop id="Stop3689" stop-color="#6de8c3" offset="1" />
    </linearGradient>
  </defs>
  <g transform="translate(-35 -19 )">
    <path d="M 108.796875 55.9453125  C 109.828125 54.9140625  110.34375 53.625  110.34375 52.078125  C 110.34375 50.4739583333333  109.828125 49.15625  108.796875 48.125  L 100.9765625 40.390625  C 99.8880208333334 39.3020833333333  98.5989583333334 38.7578125  97.109375 38.7578125  C 95.6197916666667 38.7578125  94.3307291666667 39.3020833333333  93.2421875 40.390625  L 58.1796875 75.3671875  L 38.7578125 55.9453125  C 37.6692708333333 54.8567708333333  36.3802083333333 54.3125  34.890625 54.3125  C 33.4010416666667 54.3125  32.1119791666667 54.8567708333333  31.0234375 55.9453125  L 23.203125 63.6796875  C 22.171875 64.7109375  21.65625 66.0286458333333  21.65625 67.6328125  C 21.65625 69.1796875  22.171875 70.46875  23.203125 71.5  L 54.3125 102.609375  C 55.4010416666667 103.697916666667  56.6901041666667 104.2421875  58.1796875 104.2421875  C 59.7265625 104.2421875  61.0442708333333 103.697916666667  62.1328125 102.609375  L 108.796875 55.9453125  Z M 123.1484375 32.87109375  C 129.049479166667 42.9830729166667  132 54.0260416666667  132 66  C 132 77.9739583333333  129.049479166667 89.0169270833333  123.1484375 99.12890625  C 117.247395833333 109.240885416667  109.240885416667 117.247395833333  99.12890625 123.1484375  C 89.0169270833333 129.049479166667  77.9739583333333 132  66 132  C 54.0260416666667 132  42.9830729166667 129.049479166667  32.87109375 123.1484375  C 22.7591145833333 117.247395833333  14.7526041666667 109.240885416667  8.8515625 99.12890625  C 2.95052083333333 89.0169270833333  0 77.9739583333333  0 66  C 0 54.0260416666667  2.95052083333333 42.9830729166667  8.8515625 32.87109375  C 14.7526041666667 22.7591145833333  22.7591145833333 14.7526041666667  32.87109375 8.85156249999999  C 42.9830729166667 2.95052083333332  54.0260416666667 0  66 0  C 77.9739583333333 0  89.0169270833333 2.95052083333332  99.12890625 8.85156249999999  C 109.240885416667 14.7526041666667  117.247395833333 22.7591145833333  123.1484375 32.87109375  Z " fill-rule="nonzero" fill="url(#LinearGradient3687)" stroke="none" transform="matrix(1 0 0 1 35 19 )" />
  </g>
</svg>