<?xml version="1.0" encoding="utf-8"?>
<svg version="1.1" width="92px" height="82px" xmlns:xlink="http://www.w3.org/1999/xlink" xmlns="http://www.w3.org/2000/svg">
  <defs>
    <linearGradient gradientUnits="userSpaceOnUse" x1="16.56" y1="12.4782608695652" x2="71.7599999999999" y2="105.173913043478" id="LinearGradient1027">
      <stop id="Stop1028" stop-color="#ff9999" offset="0" />
      <stop id="Stop1029" stop-color="#cc7a7a" offset="1" />
    </linearGradient>
  </defs>
  <g transform="translate(-69 -32 )">
    <path d="M 52.0701559020045 68.9164663461539  C 52.394580549369 68.6043669871795  52.5567928730512 68.2183493589744  52.5567928730512 67.7584134615385  L 52.5567928730512 58.3954326923077  C 52.5567928730512 57.9354967948718  52.394580549369 57.5494791666667  52.0701559020045 57.2373798076923  C 51.7457312546399 56.925280448718  51.3615441722346 56.7692307692308  50.9175946547884 56.7692307692308  L 41.0824053452116 56.7692307692308  C 40.6384558277654 56.7692307692308  40.2542687453601 56.925280448718  39.9298440979955 57.2373798076923  C 39.605419450631 57.5494791666667  39.4432071269488 57.9354967948718  39.4432071269488 58.3954326923077  L 39.4432071269488 67.7584134615385  C 39.4432071269488 68.2183493589744  39.605419450631 68.6043669871795  39.9298440979955 68.9164663461539  C 40.2542687453601 69.2285657051282  40.6384558277654 69.3846153846154  41.0824053452116 69.3846153846154  L 50.9175946547884 69.3846153846154  C 51.3615441722346 69.3846153846154  51.7457312546399 69.2285657051282  52.0701559020045 68.9164663461539  Z M 51.9164810690423 50.1412259615385  C 52.2409057164068 49.9276842948718  52.4201930215293 49.6566506410256  52.4543429844098 49.328125  L 53.3763919821826 26.7091346153846  C 53.3763919821826 26.3149038461538  53.2056421677803 26.0028044871795  52.8641425389755 25.7728365384615  C 52.4201930215293 25.4114583333333  52.0103934669636 25.2307692307692  51.6347438752784 26  L 40.3652561247216 26  C 39.9896065330364 25.2307692307692  39.5798069784707 25.4114583333333  39.1358574610245 25.7728365384615  C 38.7943578322198 26.0028044871795  38.6236080178174 26.3477564102564  38.6236080178174 26.8076923076923  L 39.4944320712695 49.328125  C 39.4944320712695 49.6566506410256  39.6651818856719 49.9276842948718  40.0066815144766 50.1412259615385  C 40.3481811432814 50.3547676282051  40.7579806978471 50.4615384615385  41.2360801781737 50.4615384615385  L 50.7126948775056 50.4615384615385  C 51.1907943578322 50.4615384615385  51.5920564216778 50.3547676282051  51.9164810690423 50.1412259615385  Z M 49.3296213808463 0.887019230769232  C 50.3541202672606 1.47836538461538  51.1566443949518 2.2832532051282  51.7371937639198 3.3016826923077  L 91.0779510022272 72.6862980769231  C 92.2731997030438 74.7560096153846  92.2390497401633 76.8257211538461  90.9755011135858 78.8954326923077  C 90.3949517446177 79.848157051282  89.6009651076466 80.603766025641  88.5935412026726 81.1622596153846  C 87.5861172976986 81.7207532051282  86.5018559762435 82  85.3407572383073 82  L 6.65924276169265 82  C 5.4981440237565 82  4.41388270230141 81.7207532051282  3.40645879732739 81.1622596153846  C 2.39903489235338 80.603766025641  1.60504825538233 79.848157051282  1.02449888641425 78.8954326923077  C -0.239049740163326 76.8257211538461  -0.273199703043801 74.7560096153846  0.922048997772829 72.6862980769231  L 40.2628062360802 3.3016826923077  C 40.8433556050483 2.2832532051282  41.6458797327394 1.47836538461538  42.6703786191537 0.887019230769232  C 43.6948775055679 0.29567307692308  44.8047512991834 0  46 0  C 47.1952487008166 0  48.3051224944321 0.29567307692308  49.3296213808463 0.887019230769232  Z " fill-rule="nonzero" fill="url(#LinearGradient1027)" stroke="none" transform="matrix(1 0 0 1 69 32 )" />
  </g>
</svg>