<?xml version="1.0" encoding="utf-8"?>
<svg version="1.1" width="15px" height="15px" xmlns:xlink="http://www.w3.org/1999/xlink" xmlns="http://www.w3.org/2000/svg">
  <g transform="translate(-488 -31 )">
    <path d="M 9.26757812500003 9.26757812499999  C 9.755859375 8.77929687500001  10 8.19010416666669  10 7.5  C 10 6.80989583333331  9.755859375 6.22070312499999  9.26757812500003 5.73242187500001  C 8.77929687499997 5.244140625  8.19010416666669 5.00000000000001  7.5 5.00000000000001  C 6.80989583333331 5.00000000000001  6.22070312500003 5.244140625  5.73242187499997 5.73242187500001  C 5.244140625 6.22070312499999  4.99999999999997 6.80989583333331  4.99999999999997 7.5  C 4.99999999999997 8.19010416666669  5.244140625 8.77929687500001  5.73242187499997 9.26757812499999  C 6.22070312500003 9.755859375  6.80989583333331 9.99999999999999  7.5 9.99999999999999  C 8.19010416666669 9.99999999999999  8.77929687499997 9.755859375  9.26757812500003 9.26757812499999  Z M 14.921875 6.20605468749999  C 14.9739583333334 6.27441406250001  15 6.35091145833334  15 6.43554687500001  L 15 8.60351562500001  C 15 8.68164062499999  14.9739583333334 8.75651041666667  14.921875 8.82812499999999  C 14.8697916666667 8.89973958333334  14.8046875 8.94205729166666  14.7265625 8.95507812500001  L 12.919921875 9.228515625  C 12.7962239583333 9.580078125  12.6692708333333 9.87630208333333  12.5390625 10.1171875  C 12.7669270833333 10.4427083333333  13.115234375 10.8919270833333  13.583984375 11.46484375  C 13.6490885416666 11.54296875  13.681640625 11.6243489583333  13.681640625 11.708984375  C 13.681640625 11.7936197916667  13.65234375 11.8684895833333  13.59375 11.93359375  C 13.41796875 12.1744791666667  13.095703125 12.5260416666667  12.626953125 12.98828125  C 12.158203125 13.4505208333333  11.8522135416667 13.681640625  11.708984375 13.681640625  C 11.630859375 13.681640625  11.5462239583334 13.65234375  11.455078125 13.59375  L 10.107421875 12.5390625  C 9.82096354166666 12.6888020833333  9.52473958333337 12.8125  9.21874999999997 12.91015625  C 9.11458333333337 13.7955729166667  9.02018229166663 14.4010416666667  8.935546875 14.7265625  C 8.88997395833331 14.9088541666667  8.77278645833331 15  8.583984375 15  L 6.416015625 15  C 6.32486979166663 15  6.24511718749997 14.9723307291667  6.17675781250003 14.9169921875  C 6.1083984375 14.8616536458333  6.07096354166666 14.7916666666667  6.064453125 14.70703125  L 5.79101562499997 12.91015625  C 5.47200520833334 12.8059895833333  5.17903645833334 12.685546875  4.91210937499997 12.548828125  L 3.53515624999997 13.59375  C 3.47005208333331 13.65234375  3.38867187499997 13.681640625  3.29101562500003 13.681640625  C 3.19986979166666 13.681640625  3.11848958333331 13.6458333333333  3.046875 13.57421875  C 2.2265625 12.83203125  1.68945312499997 12.28515625  1.435546875 11.93359375  C 1.38997395833331 11.8684895833333  1.36718749999997 11.7936197916667  1.36718749999997 11.708984375  C 1.36718749999997 11.630859375  1.39322916666669 11.5559895833333  1.44531250000003 11.484375  C 1.54296874999997 11.34765625  1.70898437500003 11.1311848958333  1.94335937500003 10.8349609375  C 2.17773437500003 10.5387369791667  2.35351562500003 10.3092447916667  2.47070312500003 10.146484375  C 2.29492187500003 9.82096354166666  2.16145833333334 9.49869791666666  2.07031249999997 9.17968749999999  L 0.283203124999972 8.91601562499999  C 0.198567708333343 8.90299479166667  0.130208333333314 8.8623046875  0.0781249999999716 8.79394531250001  C 0.0260416666666288 8.72558593749999  0 8.64908854166666  0 8.56445312499999  L 0 6.39648437499999  C 0 6.31835937500001  0.0260416666666288 6.24348958333333  0.0781249999999716 6.17187500000001  C 0.130208333333314 6.10026041666666  0.192057291666686 6.05794270833334  0.263671875 6.04492187499999  L 2.080078125 5.771484375  C 2.17122395833337 5.47200520833334  2.29817708333331 5.17252604166669  2.4609375 4.87304687499999  C 2.20052083333337 4.50195312500001  1.85221354166666 4.05273437499999  1.41601562500003 3.52539062499999  C 1.35091145833337 3.44726562500001  1.318359375 3.369140625  1.318359375 3.29101562499999  C 1.318359375 3.22591145833333  1.34765625 3.15104166666669  1.40625 3.06640625000001  C 1.57552083333334 2.83203125000001  1.89615885416666 2.48209635416666  2.36816406250003 2.01660156249999  C 2.84016927083331 1.55110677083331  3.14778645833331 1.318359375  3.29101562500003 1.318359375  C 3.37565104166666 1.318359375  3.46028645833337 1.35091145833333  3.544921875 1.41601562499999  L 4.892578125 2.4609375  C 5.17903645833334 2.31119791666667  5.47526041666663 2.18750000000001  5.78125000000003 2.08984374999999  C 5.88541666666663 1.20442708333333  5.97981770833337 0.598958333333314  6.064453125 0.273437499999986  C 6.11002604166669 0.0911458333333286  6.22721354166669 0  6.416015625 0  L 8.583984375 0  C 8.67513020833337 0  8.75488281250003 0.0276692708333144  8.82324218749997 0.0830078124999858  C 8.8916015625 0.138346354166657  8.92903645833334 0.208333333333329  8.935546875 0.29296875  L 9.20898437500003 2.08984374999999  C 9.52799479166666 2.19401041666667  9.82096354166666 2.314453125  10.087890625 2.45117187500001  L 11.474609375 1.40625  C 11.533203125 1.34765625  11.611328125 1.318359375  11.708984375 1.318359375  C 11.7936197916667 1.318359375  11.875 1.35091145833333  11.953125 1.41601562499999  C 12.79296875 2.19075520833334  13.330078125 2.74414062500001  13.564453125 3.076171875  C 13.6100260416667 3.12825520833334  13.6328125 3.19986979166666  13.6328125 3.29101562499999  C 13.6328125 3.369140625  13.6067708333333 3.44401041666669  13.5546875 3.515625  C 13.45703125 3.65234375000001  13.291015625 3.86881510416669  13.056640625 4.16503906250001  C 12.822265625 4.46126302083334  12.646484375 4.69075520833333  12.529296875 4.85351562500001  C 12.6985677083333 5.17903645833334  12.83203125 5.49804687500001  12.9296875 5.81054687499999  L 14.716796875 6.08398437500001  C 14.8014322916667 6.09700520833333  14.8697916666667 6.1376953125  14.921875 6.20605468749999  Z " fill-rule="nonzero" fill="#797979" stroke="none" transform="matrix(1 0 0 1 488 31 )" />
  </g>
</svg>