<?xml version="1.0" encoding="utf-8"?>
<svg version="1.1" width="27px" height="26px" xmlns:xlink="http://www.w3.org/1999/xlink" xmlns="http://www.w3.org/2000/svg">
  <g transform="translate(-169 -533 )">
    <path d="M 26.3587933247754 10.7471341874578  C 26.7862644415918 11.2029669588671  27 11.7347718588447  27 12.3425488873904  C 27 12.9620139357158  26.7862644415918 13.4879748258036  26.3587933247754 13.9204315576534  L 15.0770218228498 25.3513149022252  C 14.6264441591784 25.783771634075  14.1007702182285 26  13.5 26  C 12.887676508344 26  12.3677792041078 25.783771634075  11.9403080872914 25.3513149022252  L 0.65853658536588 13.9204315576534  C 0.219512195121979 13.4996628455833  0 12.9737019554956  0 12.3425488873904  C 0 11.723083839065  0.219512195121979 11.1912789390874  0.65853658536588 10.7471341874578  L 1.94094993581513 9.43223196223869  C 2.39152759948649 8.99977523038888  2.91720154043645 8.78354686446392  3.51797175866494 8.78354686446392  C 4.1302952503209 8.78354686446392  4.65019255455712 8.99977523038888  5.07766367137356 9.43223196223869  L 10.1726572528883 14.5866486850978  L 10.1726572528883 2.24409979770735  C 10.1726572528883 1.63632276916167  10.3921694480103 1.11036187907393  10.8311938382542 0.666217127444384  C 11.2702182284981 0.222072375814832  11.7901155327343 0  12.3908857509628 0  L 14.6091142490372 0  C 15.2098844672657 0  15.7297817715019 0.222072375814832  16.1688061617458 0.666217127444384  C 16.6078305519897 1.11036187907393  16.8273427471117 1.63632276916167  16.8273427471117 2.24409979770735  L 16.8273427471117 14.5866486850978  L 21.9223363286264 9.43223196223869  C 22.3498074454429 8.99977523038888  22.8697047496791 8.78354686446392  23.4820282413351 8.78354686446392  C 24.0827984595635 8.78354686446392  24.6084724005135 8.99977523038888  25.0590500641849 9.43223196223869  L 26.3587933247754 10.7471341874578  Z " fill-rule="nonzero" fill="#ffffff" stroke="none" transform="matrix(1 0 0 1 169 533 )" />
  </g>
</svg>