<?xml version="1.0" encoding="utf-8"?>
<svg version="1.1" width="15px" height="15px" xmlns:xlink="http://www.w3.org/1999/xlink" xmlns="http://www.w3.org/2000/svg">
  <g transform="translate(-7 -7 )">
    <path d="M 14.6464646464647 11.2121212121212  C 14.8821548821549 11.4478114478114  15 11.7340067340068  15 12.0707070707071  C 15 12.4074074074075  14.8821548821549 12.6936026936027  14.6464646464647 12.9292929292928  L 12.9292929292929 14.6464646464647  C 12.6936026936027 14.8821548821549  12.4074074074074 15  12.0707070707071 15  C 11.7340067340068 15  11.4478114478114 14.8821548821549  11.2121212121212 14.6464646464647  L 7.5 10.9343434343434  L 3.78787878787875 14.6464646464647  C 3.55218855218857 14.8821548821549  3.26599326599325 15  2.9292929292929 15  C 2.59259259259261 15  2.30639730639729 14.8821548821549  2.0707070707071 14.6464646464647  L 0.353535353535335 12.9292929292928  C 0.117845117845093 12.6936026936027  0 12.4074074074075  0 12.0707070707071  C 0 11.7340067340068  0.117845117845093 11.4478114478114  0.353535353535335 11.2121212121212  L 4.06565656565658 7.5  L 0.353535353535335 3.78787878787875  C 0.117845117845093 3.55218855218857  0 3.26599326599325  0 2.9292929292929  C 0 2.5925925925925  0.117845117845093 2.30639730639734  0.353535353535335 2.07070707070716  L 2.0707070707071 0.353535353535335  C 2.30639730639729 0.117845117845093  2.59259259259261 0  2.9292929292929 0  C 3.26599326599325 0  3.55218855218857 0.117845117845093  3.78787878787875 0.353535353535335  L 7.5 4.06565656565658  L 11.2121212121212 0.353535353535335  C 11.4478114478114 0.117845117845093  11.7340067340068 0  12.0707070707071 0  C 12.4074074074074 0  12.6936026936027 0.117845117845093  12.9292929292929 0.353535353535335  L 14.6464646464647 2.07070707070716  C 14.8821548821549 2.30639730639734  15 2.5925925925925  15 2.9292929292929  C 15 3.26599326599325  14.8821548821549 3.55218855218857  14.6464646464647 3.78787878787875  L 10.9343434343434 7.5  L 14.6464646464647 11.2121212121212  Z " fill-rule="nonzero" fill="#f2f2f2" stroke="none" transform="matrix(1 0 0 1 7 7 )" />
  </g>
</svg>