<?xml version="1.0" encoding="utf-8"?>
<svg version="1.1" width="143px" height="204px" xmlns:xlink="http://www.w3.org/1999/xlink" xmlns="http://www.w3.org/2000/svg">
  <g transform="translate(-152 -158 )">
    <path d="M 29 190.999999996885  L 29 142  L 83 142  L 131 142  L 131 78  L 106 78  L 106 0  L 49 0  L 49 29  L 42 29  L 42 0  L 16 0  L 0 0  L 0 22  L 0 142  L 7 142  L 7 190.999999996885  " stroke-width="2" stroke="#050505" fill="none" transform="matrix(1 0 0 1 162 159 )" />
    <path d="M 32 186.999999998672  L 26 186.999999998672  L 26 192.999999998672  L 32 192.999999998672  L 32 186.999999998672  Z M 10 186.999999998672  L 4 186.999999998672  L 4 192.999999998672  L 10 192.999999998672  L 10 186.999999998672  Z " fill-rule="nonzero" fill="#050505" stroke="none" transform="matrix(1 0 0 1 162 159 )" />
  </g>
</svg>