<?xml version="1.0" encoding="utf-8"?>
<svg version="1.1" width="146px" height="207px" xmlns:xlink="http://www.w3.org/1999/xlink" xmlns="http://www.w3.org/2000/svg">
  <defs>
    <linearGradient gradientUnits="userSpaceOnUse" x1="14.0153257406526" y1="136.84926067908" x2="123.163602739224" y2="80.1195982276212" id="LinearGradient3892">
      <stop id="Stop3893" stop-color="#35bdd0" offset="0" />
      <stop id="Stop3894" stop-color="#06b797" offset="1" />
    </linearGradient>
    <linearGradient gradientUnits="userSpaceOnUse" x1="14.0153257406526" y1="136.84926067908" x2="123.163602739224" y2="80.1195982276212" id="LinearGradient3895">
      <stop id="Stop3896" stop-color="#35bdd0" offset="0" />
      <stop id="Stop3897" stop-color="#06b797" offset="1" />
    </linearGradient>
  </defs>
  <g transform="translate(12 2 )">
    <path d="M 29 188.999999363617  L 29 142  L 83 142  L 131 142  L 131 78  L 106 78  L 106 0  L 49 0  L 49 29  L 42 29  L 42 0  L 16 0  L 0 0  L 0 22  L 0 142  L 7 142  L 7 188.999999363617  " stroke-width="4" stroke="url(#LinearGradient3892)" fill="none" />
    <path d="M 33 184.999999363617  L 25 184.999999363617  L 25 192.999999363617  L 33 192.999999363617  L 33 184.999999363617  Z M 11 184.999999363617  L 3 184.999999363617  L 3 192.999999363617  L 11 192.999999363617  L 11 184.999999363617  Z " fill-rule="nonzero" fill="url(#LinearGradient3895)" stroke="none" />
  </g>
</svg>