<?xml version="1.0" encoding="utf-8"?>
<svg version="1.1" width="292px" height="38px" xmlns:xlink="http://www.w3.org/1999/xlink" xmlns="http://www.w3.org/2000/svg">
  <defs>
    <mask fill="white" id="clip293">
      <path d="M 19 38  C 8.36 38  0 29.64  0 19  C 0 8.36000000000001  8.36 0  19 0  L 273 0  C 276.542475909669 0  279.832216811875 0.926695027366122  282.644834818028 2.55569719350945  C 288.280052830685 5.81948286551506  292 11.9024759096692  292 19  C 292 25.2734218379329  289.093756463996 30.7542318024101  284.5274820827 34.1962172027194  C 281.349153809793 36.5919907807476  277.366578162067 38  273 38  L 19 38  Z " fill-rule="evenodd" />
    </mask>
  </defs>
  <g transform="translate(0 0 )">
    <path d="M 19 38  C 8.36 38  0 29.64  0 19  C 0 8.36000000000001  8.36 0  19 0  L 273 0  C 276.542475909669 0  279.832216811875 0.926695027366122  282.644834818028 2.55569719350945  C 288.280052830685 5.81948286551506  292 11.9024759096692  292 19  C 292 25.2734218379329  289.093756463996 30.7542318024101  284.5274820827 34.1962172027194  C 281.349153809793 36.5919907807476  277.366578162067 38  273 38  L 19 38  Z " fill-rule="nonzero" fill="#ece8e8" stroke="none" fill-opacity="0.996078431372549" />
    <path d="M 19 38  C 8.36 38  0 29.64  0 19  C 0 8.36000000000001  8.36 0  19 0  L 273 0  C 276.542475909669 0  279.832216811875 0.926695027366122  282.644834818028 2.55569719350945  C 288.280052830685 5.81948286551506  292 11.9024759096692  292 19  C 292 25.2734218379329  289.093756463996 30.7542318024101  284.5274820827 34.1962172027194  C 281.349153809793 36.5919907807476  277.366578162067 38  273 38  L 19 38  Z " stroke-width="4" stroke="#98f9fc" fill="none" mask="url(#clip293)" />
  </g>
</svg>