<?xml version="1.0" encoding="utf-8"?>
<svg version="1.1" width="144px" height="112px" xmlns:xlink="http://www.w3.org/1999/xlink" xmlns="http://www.w3.org/2000/svg">
  <g transform="translate(-48 -1003 )">
    <path d="M 48 1003  L 192 1003  L 192 1115  L 48 1115  L 48 1003  " fill-rule="nonzero" fill="#cccccc" stroke="none" />
    <path d="M 56 1011  L 184 1011  L 184 1107  L 56 1107  L 56 1011  " fill-rule="nonzero" fill="#ffffff" stroke="none" />
    <path d="M 131.28 1036.6  C 126.576 1036.6  122.88 1032.904  122.88 1028.2  C 122.88 1023.496  126.576 1019.8  131.28 1019.8  C 135.984 1019.8  139.68 1023.496  139.68 1028.2  C 139.68 1032.904  135.984 1036.6  131.28 1036.6  " fill-rule="nonzero" fill="#cccccc" stroke="none" />
    <path d="M 59 1104  L 59 1054.5  L 89.5 1032  L 132.2 1062  L 156.6 1045.5  L 181 1062  L 181 1104  L 59 1104  " fill-rule="nonzero" fill="#169bd5" stroke="none" />
  </g>
</svg>