<?xml version="1.0" encoding="utf-8"?>
<svg version="1.1" width="68px" height="72px" xmlns:xlink="http://www.w3.org/1999/xlink" xmlns="http://www.w3.org/2000/svg">
  <defs>
    <filter x="-50%" y="-50%" width="200%" height="200%" filterUnits="objectBoundingBox" id="filter1447">
      <feOffset dx="0" dy="0" in="SourceAlpha" result="shadowOffsetInner" />
      <feGaussianBlur stdDeviation="1.5" in="shadowOffsetInner" result="shadowGaussian" />
      <feComposite in2="shadowGaussian" operator="atop" in="SourceAlpha" result="shadowComposite" />
      <feColorMatrix type="matrix" values="0 0 0 0 0.525490196078431  0 0 0 0 0.525490196078431  0 0 0 0 0.525490196078431  0 0 0 0.349019607843137 0  " in="shadowComposite" />
    </filter>
    <g id="widget1448">
      <path d="M 76 312  C 93.36 312  107 326.52  107 345  C 107 363.48  93.36 378  76 378  C 58.64 378  45 363.48  45 345  C 45 326.52  58.64 312  76 312  Z " fill-rule="nonzero" fill="#ffffff" stroke="none" fill-opacity="0.258823529411765" />
      <path d="M 76 312.5  C 93.08 312.5  106.5 326.8  106.5 345  C 106.5 363.2  93.08 377.5  76 377.5  C 58.92 377.5  45.5 363.2  45.5 345  C 45.5 326.8  58.92 312.5  76 312.5  Z " stroke-width="1" stroke="#c9c9c9" fill="none" />
    </g>
  </defs>
  <g transform="translate(-42 -309 )">
    <use xlink:href="#widget1448" filter="url(#filter1447)" />
    <use xlink:href="#widget1448" />
  </g>
</svg>