<?xml version="1.0" encoding="utf-8"?>
<svg version="1.1" width="68px" height="72px" xmlns:xlink="http://www.w3.org/1999/xlink" xmlns="http://www.w3.org/2000/svg">
  <defs>
    <filter x="-50%" y="-50%" width="200%" height="200%" filterUnits="objectBoundingBox" id="filter281">
      <feOffset dx="0" dy="0" in="SourceAlpha" result="shadowOffsetInner" />
      <feGaussianBlur stdDeviation="1.5" in="shadowOffsetInner" result="shadowGaussian" />
      <feComposite in2="shadowGaussian" operator="atop" in="SourceAlpha" result="shadowComposite" />
      <feColorMatrix type="matrix" values="0 0 0 0 0.525490196078431  0 0 0 0 0.525490196078431  0 0 0 0 0.525490196078431  0 0 0 0.349019607843137 0  " in="shadowComposite" />
    </filter>
    <g id="widget282">
      <path d="M 84 221  C 101.36 221  115 235.52  115 254  C 115 272.48  101.36 287  84 287  C 66.64 287  53 272.48  53 254  C 53 235.52  66.64 221  84 221  Z " fill-rule="nonzero" fill="#ffffff" stroke="none" fill-opacity="0.258823529411765" />
      <path d="M 84 221.5  C 101.08 221.5  114.5 235.8  114.5 254  C 114.5 272.2  101.08 286.5  84 286.5  C 66.92 286.5  53.5 272.2  53.5 254  C 53.5 235.8  66.92 221.5  84 221.5  Z " stroke-width="1" stroke="#c9c9c9" fill="none" />
    </g>
  </defs>
  <g transform="translate(-50 -218 )">
    <use xlink:href="#widget282" filter="url(#filter281)" />
    <use xlink:href="#widget282" />
  </g>
</svg>