<?xml version="1.0" encoding="utf-8"?>
<svg version="1.1" width="69px" height="69px" xmlns:xlink="http://www.w3.org/1999/xlink" xmlns="http://www.w3.org/2000/svg">
  <defs>
    <filter x="-50%" y="-50%" width="200%" height="200%" filterUnits="objectBoundingBox" id="filter949">
      <feOffset dx="0" dy="0" in="SourceAlpha" result="shadowOffsetInner" />
      <feGaussianBlur stdDeviation="1.5" in="shadowOffsetInner" result="shadowGaussian" />
      <feComposite in2="shadowGaussian" operator="atop" in="SourceAlpha" result="shadowComposite" />
      <feColorMatrix type="matrix" values="0 0 0 0 0.525490196078431  0 0 0 0 0.525490196078431  0 0 0 0 0.525490196078431  0 0 0 0.349019607843137 0  " in="shadowComposite" />
    </filter>
    <g id="widget950">
      <path d="M 59.5 5  C 77.14 5  91 18.86  91 36.5  C 91 54.14  77.14 68  59.5 68  C 41.86 68  28 54.14  28 36.5  C 28 18.86  41.86 5  59.5 5  Z " fill-rule="nonzero" fill="#ffffff" stroke="none" fill-opacity="0.258823529411765" />
      <path d="M 59.5 5.5  C 76.86 5.5  90.5 19.14  90.5 36.5  C 90.5 53.86  76.86 67.5  59.5 67.5  C 42.14 67.5  28.5 53.86  28.5 36.5  C 28.5 19.14  42.14 5.5  59.5 5.5  Z " stroke-width="1" stroke="#c9c9c9" fill="none" />
    </g>
  </defs>
  <g transform="translate(-25 -2 )">
    <use xlink:href="#widget950" filter="url(#filter949)" />
    <use xlink:href="#widget950" />
  </g>
</svg>