<?xml version="1.0" encoding="utf-8"?>
<svg version="1.1" width="6px" height="13px" xmlns:xlink="http://www.w3.org/1999/xlink" xmlns="http://www.w3.org/2000/svg">
  <g transform="translate(-14 -10 )">
    <path d="M 5.74285714285714 9.62962962962963  C 5.85194805194805 9.62962962962963  5.92727272727273 9.6772762345679  5.96883116883117 9.77256944444444  C 6.01038961038961 9.86786265432099  5.9974025974026 9.95563271604938  5.92987012987013 10.0358796296296  L 3.20259740259741 12.9247685185185  C 3.15064935064935 12.9749228395062  3.09090909090909 13  3.02337662337662 13  C 2.95064935064935 13  2.88831168831169 12.9749228395062  2.83636363636364 12.9247685185185  L 0.0701298701298683 10.0358796296296  C 0.00259740259740227 9.95563271604938  -0.0103896103896091 9.86786265432099  0.0311688311688343 9.77256944444444  C 0.0779220779220751 9.6772762345679  0.153246753246755 9.62962962962963  0.25714285714286 9.62962962962963  L 2.0025974025974 9.62962962962963  L 2.0025974025974 0.24074074074074  C 2.0025974025974 0.170524691358024  2.02597402597402 0.112847222222222  2.07272727272727 0.0677083333333339  C 2.11948051948052 0.0225694444444446  2.17922077922078 0  2.25194805194806 0  L 3.74805194805195 0  C 3.82077922077922 0  3.88051948051948 0.0225694444444446  3.92727272727273 0.0677083333333339  C 3.97402597402598 0.112847222222222  3.9974025974026 0.170524691358024  3.9974025974026 0.24074074074074  L 3.9974025974026 3.25  L 3.9974025974026 9.62962962962963  L 5.74285714285714 9.62962962962963  Z " fill-rule="nonzero" fill="#797979" stroke="none" transform="matrix(1 0 0 1 14 10 )" />
  </g>
</svg>