<?xml version="1.0" encoding="utf-8"?>
<svg version="1.1" width="20px" height="19px" xmlns:xlink="http://www.w3.org/1999/xlink" xmlns="http://www.w3.org/2000/svg">
  <g transform="translate(0 0 )">
    <path d="M 16.4732142857143 10.1927083333333  C 17.8720238095238 8.64236111111111  18.5714285714286 7.17447916666667  18.5714285714286 5.7890625  C 18.5714285714286 5.12109375  18.491443452381 4.53146701388889  18.3314732142857 4.02018229166667  C 18.1715029761905 3.50889756944444  17.9668898809524 3.10275607638889  17.7176339285714 2.8017578125  C 17.4683779761905 2.50075954861111  17.1651785714286 2.25542534722222  16.8080357142857 2.06575520833333  C 16.4508928571429 1.87608506944444  16.1011904761905 1.74826388888889  15.7589285714286 1.68229166666667  C 15.4166666666667 1.61631944444444  15.0520833333333 1.58333333333333  14.6651785714286 1.58333333333333  C 14.2782738095238 1.58333333333333  13.8616071428571 1.6884765625  13.4151785714286 1.89876302083333  C 12.96875 2.10904947916667  12.5576636904762 2.37293836805555  12.1819196428571 2.6904296875  C 11.8061755952381 3.00792100694444  11.484375 3.30479600694444  11.2165178571429 3.5810546875  C 10.9486607142857 3.85731336805555  10.7254464285714 4.11089409722222  10.546875 4.341796875  C 10.4129464285714 4.52322048611111  10.2306547619048 4.61393229166667  10 4.61393229166667  C 9.76934523809524 4.61393229166667  9.58705357142857 4.52322048611111  9.453125 4.341796875  C 9.27455357142857 4.11089409722222  9.05133928571429 3.85731336805555  8.78348214285714 3.5810546875  C 8.515625 3.30479600694444  8.19382440476191 3.00792100694444  7.81808035714286 2.6904296875  C 7.44233630952381 2.37293836805555  7.03125 2.10904947916667  6.58482142857143 1.89876302083333  C 6.13839285714286 1.6884765625  5.72172619047619 1.58333333333333  5.33482142857143 1.58333333333333  C 4.94791666666667 1.58333333333333  4.58333333333333 1.61631944444444  4.24107142857143 1.68229166666667  C 3.89880952380952 1.74826388888889  3.54910714285714 1.87608506944444  3.19196428571429 2.06575520833333  C 2.83482142857143 2.25542534722222  2.53162202380952 2.50075954861111  2.28236607142857 2.8017578125  C 2.03311011904762 3.10275607638889  1.82849702380952 3.50889756944444  1.66852678571429 4.02018229166667  C 1.50855654761905 4.53146701388889  1.42857142857143 5.12109375  1.42857142857143 5.7890625  C 1.42857142857143 7.17447916666667  2.12425595238095 8.63823784722222  3.515625 10.1803385416667  L 10 17.107421875  L 16.4732142857143 10.1927083333333  Z M 18.5825892857143 1.53385416666667  C 19.5275297619048 2.55642361111111  20 3.97482638888889  20 5.7890625  C 20 7.61154513888889  19.1480654761905 9.46701388888889  17.4441964285714 11.35546875  L 10.4910714285714 18.77734375  C 10.3571428571429 18.92578125  10.1934523809524 19  10 19  C 9.80654761904762 19  9.64285714285714 18.92578125  9.50892857142857 18.77734375  L 2.54464285714286 11.3307291666667  C 2.4702380952381 11.2647569444444  2.36793154761905 11.1575520833333  2.23772321428571 11.0091145833333  C 2.10751488095238 10.8606770833333  1.90104166666667 10.5906032986111  1.61830357142857 10.1988932291667  C 1.33556547619048 9.80718315972222  1.08258928571429 9.40516493055555  0.859375 8.99283854166667  C 0.636160714285714 8.58051215277778  0.437127976190476 8.08159722222222  0.262276785714286 7.49609375  C 0.0874255952380952 6.91059027777778  0 6.34157986111111  0 5.7890625  C 0 3.97482638888889  0.472470238095238 2.55642361111111  1.41741071428571 1.53385416666667  C 2.36235119047619 0.511284722222222  3.66815476190476 0  5.33482142857143 0  C 5.79613095238095 0  6.26674107142857 0.0886501736111099  6.74665178571429 0.265950520833334  C 7.2265625 0.443250868055554  7.67299107142857 0.68240017361111  8.0859375 0.9833984375  C 8.49888392857143 1.28439670138889  8.85416666666667 1.56684027777778  9.15178571428571 1.83072916666667  C 9.44940476190476 2.09461805555555  9.73214285714286 2.375  10 2.671875  C 10.2678571428571 2.375  10.5505952380952 2.09461805555555  10.8482142857143 1.83072916666667  C 11.1458333333333 1.56684027777778  11.5011160714286 1.28439670138889  11.9140625 0.9833984375  C 12.3270089285714 0.68240017361111  12.7734375 0.443250868055554  13.2533482142857 0.265950520833334  C 13.7332589285714 0.0886501736111099  14.203869047619 0  14.6651785714286 0  C 16.3318452380952 0  17.6376488095238 0.511284722222222  18.5825892857143 1.53385416666667  Z " fill-rule="nonzero" fill="#797979" stroke="none" />
  </g>
</svg>