<?xml version="1.0" encoding="utf-8"?>
<svg version="1.1" width="20px" height="19px" xmlns:xlink="http://www.w3.org/1999/xlink" xmlns="http://www.w3.org/2000/svg">
  <defs>
    <mask fill="white" id="clip276">
      <path d="M 10.4910714285714 18.77734375  C 10.3571428571429 18.92578125  10.1934523809524 19  10 19  C 9.80654761904762 19  9.64285714285714 18.92578125  9.50892857142857 18.77734375  L 2.54464285714286 11.3307291666667  C 2.4702380952381 11.2647569444444  2.36793154761905 11.1575520833333  2.23772321428571 11.0091145833333  C 2.10751488095238 10.8606770833333  1.90104166666667 10.5906032986111  1.61830357142857 10.1988932291667  C 1.33556547619048 9.80718315972222  1.08258928571429 9.40516493055555  0.859375 8.99283854166667  C 0.636160714285714 8.58051215277778  0.437127976190476 8.08159722222222  0.262276785714286 7.49609375  C 0.0874255952380952 6.91059027777778  0 6.34157986111111  0 5.7890625  C 0 3.97482638888889  0.472470238095238 2.55642361111111  1.41741071428571 1.53385416666667  C 2.36235119047619 0.511284722222222  3.66815476190476 0  5.33482142857143 0  C 5.79613095238095 0  6.26674107142857 0.0886501736111099  6.74665178571429 0.265950520833334  C 7.2265625 0.443250868055554  7.67299107142857 0.68240017361111  8.0859375 0.9833984375  C 8.49888392857143 1.28439670138889  8.85416666666667 1.56684027777778  9.15178571428571 1.83072916666667  C 9.44940476190476 2.09461805555555  9.73214285714286 2.375  10 2.671875  C 10.2678571428571 2.375  10.5505952380952 2.09461805555555  10.8482142857143 1.83072916666667  C 11.1458333333333 1.56684027777778  11.5011160714286 1.28439670138889  11.9140625 0.9833984375  C 12.3270089285714 0.68240017361111  12.7734375 0.443250868055554  13.2533482142857 0.265950520833334  C 13.7332589285714 0.0886501736111099  14.203869047619 0  14.6651785714286 0  C 16.3318452380952 0  17.6376488095238 0.511284722222222  18.5825892857143 1.53385416666667  C 19.5275297619048 2.55642361111111  20 3.97482638888889  20 5.7890625  C 20 7.61154513888889  19.1480654761905 9.46701388888889  17.4441964285714 11.35546875  L 10.4910714285714 18.77734375  Z " fill-rule="evenodd" />
    </mask>
  </defs>
  <g transform="translate(0 0 )">
    <path d="M 10.4910714285714 18.77734375  C 10.3571428571429 18.92578125  10.1934523809524 19  10 19  C 9.80654761904762 19  9.64285714285714 18.92578125  9.50892857142857 18.77734375  L 2.54464285714286 11.3307291666667  C 2.4702380952381 11.2647569444444  2.36793154761905 11.1575520833333  2.23772321428571 11.0091145833333  C 2.10751488095238 10.8606770833333  1.90104166666667 10.5906032986111  1.61830357142857 10.1988932291667  C 1.33556547619048 9.80718315972222  1.08258928571429 9.40516493055555  0.859375 8.99283854166667  C 0.636160714285714 8.58051215277778  0.437127976190476 8.08159722222222  0.262276785714286 7.49609375  C 0.0874255952380952 6.91059027777778  0 6.34157986111111  0 5.7890625  C 0 3.97482638888889  0.472470238095238 2.55642361111111  1.41741071428571 1.53385416666667  C 2.36235119047619 0.511284722222222  3.66815476190476 0  5.33482142857143 0  C 5.79613095238095 0  6.26674107142857 0.0886501736111099  6.74665178571429 0.265950520833334  C 7.2265625 0.443250868055554  7.67299107142857 0.68240017361111  8.0859375 0.9833984375  C 8.49888392857143 1.28439670138889  8.85416666666667 1.56684027777778  9.15178571428571 1.83072916666667  C 9.44940476190476 2.09461805555555  9.73214285714286 2.375  10 2.671875  C 10.2678571428571 2.375  10.5505952380952 2.09461805555555  10.8482142857143 1.83072916666667  C 11.1458333333333 1.56684027777778  11.5011160714286 1.28439670138889  11.9140625 0.9833984375  C 12.3270089285714 0.68240017361111  12.7734375 0.443250868055554  13.2533482142857 0.265950520833334  C 13.7332589285714 0.0886501736111099  14.203869047619 0  14.6651785714286 0  C 16.3318452380952 0  17.6376488095238 0.511284722222222  18.5825892857143 1.53385416666667  C 19.5275297619048 2.55642361111111  20 3.97482638888889  20 5.7890625  C 20 7.61154513888889  19.1480654761905 9.46701388888889  17.4441964285714 11.35546875  L 10.4910714285714 18.77734375  Z " fill-rule="nonzero" fill="#ff9999" stroke="none" />
    <path d="M 10.4910714285714 18.77734375  C 10.3571428571429 18.92578125  10.1934523809524 19  10 19  C 9.80654761904762 19  9.64285714285714 18.92578125  9.50892857142857 18.77734375  L 2.54464285714286 11.3307291666667  C 2.4702380952381 11.2647569444444  2.36793154761905 11.1575520833333  2.23772321428571 11.0091145833333  C 2.10751488095238 10.8606770833333  1.90104166666667 10.5906032986111  1.61830357142857 10.1988932291667  C 1.33556547619048 9.80718315972222  1.08258928571429 9.40516493055555  0.859375 8.99283854166667  C 0.636160714285714 8.58051215277778  0.437127976190476 8.08159722222222  0.262276785714286 7.49609375  C 0.0874255952380952 6.91059027777778  0 6.34157986111111  0 5.7890625  C 0 3.97482638888889  0.472470238095238 2.55642361111111  1.41741071428571 1.53385416666667  C 2.36235119047619 0.511284722222222  3.66815476190476 0  5.33482142857143 0  C 5.79613095238095 0  6.26674107142857 0.0886501736111099  6.74665178571429 0.265950520833334  C 7.2265625 0.443250868055554  7.67299107142857 0.68240017361111  8.0859375 0.9833984375  C 8.49888392857143 1.28439670138889  8.85416666666667 1.56684027777778  9.15178571428571 1.83072916666667  C 9.44940476190476 2.09461805555555  9.73214285714286 2.375  10 2.671875  C 10.2678571428571 2.375  10.5505952380952 2.09461805555555  10.8482142857143 1.83072916666667  C 11.1458333333333 1.56684027777778  11.5011160714286 1.28439670138889  11.9140625 0.9833984375  C 12.3270089285714 0.68240017361111  12.7734375 0.443250868055554  13.2533482142857 0.265950520833334  C 13.7332589285714 0.0886501736111099  14.203869047619 0  14.6651785714286 0  C 16.3318452380952 0  17.6376488095238 0.511284722222222  18.5825892857143 1.53385416666667  C 19.5275297619048 2.55642361111111  20 3.97482638888889  20 5.7890625  C 20 7.61154513888889  19.1480654761905 9.46701388888889  17.4441964285714 11.35546875  L 10.4910714285714 18.77734375  Z " stroke-width="2" stroke="#cc7a7a" fill="none" mask="url(#clip276)" />
  </g>
</svg>