<?xml version="1.0" encoding="utf-8"?>
<svg version="1.1" width="30px" height="30px" xmlns:xlink="http://www.w3.org/1999/xlink" xmlns="http://www.w3.org/2000/svg">
  <defs>
    <filter x="-50%" y="-50%" width="200%" height="200%" filterUnits="objectBoundingBox" id="filter346">
      <feOffset dx="1" dy="1" in="SourceAlpha" result="shadowOffsetInner" />
      <feGaussianBlur stdDeviation="2.5" in="shadowOffsetInner" result="shadowGaussian" />
      <feComposite in2="shadowGaussian" operator="atop" in="SourceAlpha" result="shadowComposite" />
      <feColorMatrix type="matrix" values="0 0 0 0 0.0392156862745098  0 0 0 0 0.0705882352941176  0 0 0 0 0.164705882352941  0 0 0 0.2 0  " in="shadowComposite" />
    </filter>
    <g id="widget347">
      <path d="M 19.0651558073654 0  C 19.4617563739376 0  19.7403210576015 0.184659090909122  19.9008498583569 0.553977272727252  C 20.0613786591124 0.942234848484816  19.9952785646836 1.27367424242425  19.7025495750708 1.5482954545455  L 12.7195467422097 8.55113636363637  L 12.7195467422097 19.0909090909091  C 12.7195467422097 19.4886363636364  12.5354107648725 19.7679924242424  12.1671388101983 19.9289772727273  C 12.0443814919736 19.9763257575758  11.9263456090652 20  11.8130311614731 20  C 11.558073654391 20  11.3456090651558 19.9100378787879  11.1756373937677 19.7301136363636  L 7.5495750708215 16.09375  C 7.37016052880074 15.9138257575758  7.28045325779038 15.7007575757576  7.28045325779038 15.4545454545455  L 7.28045325779038 8.55113636363637  L 0.297450424929195 1.5482954545455  C 0.00472143531635538 1.27367424242425  -0.0613786591123926 0.942234848484816  0.0991501416430651 0.553977272727252  C 0.259678942398466 0.184659090909122  0.538243626062354 0  0.934844192634557 0  L 19.0651558073654 0  Z " fill-rule="nonzero" fill="#1b9aaa" stroke="none" transform="matrix(1 0 0 1 313 122 )" />
    </g>
  </defs>
  <g transform="translate(-309 -118 )">
    <use xlink:href="#widget347" filter="url(#filter346)" />
    <use xlink:href="#widget347" />
  </g>
</svg>