<?xml version="1.0" encoding="utf-8"?>
<svg version="1.1" width="30px" height="24px" xmlns:xlink="http://www.w3.org/1999/xlink" xmlns="http://www.w3.org/2000/svg">
  <g transform="translate(-105 50 )">
    <path d="M 25.6877323420075 13.7116134060795  C 25.7001239157373 13.7365549493375  25.7063197026022 13.7739672642245  25.7063197026022 13.8238503507405  L 25.7063197026022 22.8028059236165  C 25.7063197026022 23.1270459859704  25.5885997521685 23.4076383476228  25.3531598513011 23.6445830085736  C 25.1177199504337 23.8815276695246  24.8389095415118 24  24.5167286245353 24  L 17.3791821561338 24  L 17.3791821561338 16.8168355416991  L 12.6208178438662 16.8168355416991  L 12.6208178438662 24  L 5.48327137546468 24  C 5.16109045848823 24  4.88228004956629 23.8815276695246  4.64684014869889 23.6445830085736  C 4.41140024783148 23.4076383476228  4.29368029739777 23.1270459859704  4.29368029739777 22.8028059236165  L 4.29368029739777 13.8238503507405  C 4.29368029739777 13.8113795791114  4.29677819083024 13.792673421668  4.30297397769516 13.76773187841  C 4.3091697645601 13.742790335152  4.31226765799256 13.7240841777085  4.31226765799256 13.7116134060795  L 15 4.84489477786437  L 25.6877323420075 13.7116134060795  Z M 29.9814126394052 12.0935307872174  C 29.9938042131351 12.2618862042089  29.9504337050805 12.4084177708496  29.8513011152416 12.5331254871395  L 28.6988847583643 13.9173811379579  C 28.5997521685254 14.0296180826189  28.4696406443618 14.0982073265783  28.3085501858736 14.1231488698363  L 28.2527881040892 14.1231488698363  C 28.091697645601 14.1231488698363  27.9615861214374 14.0795011691348  27.8624535315985 13.9922057677319  L 15 3.19875292283709  L 2.13754646840148 13.9922057677319  C 1.98884758364312 14.0919719407638  1.84014869888476 14.1356196414653  1.6914498141264 14.1231488698363  C 1.53035935563817 14.0982073265783  1.4002478314746 14.0296180826189  1.30111524163569 13.9173811379579  L 0.14869888475836 12.5331254871395  C 0.0495662949194582 12.4084177708496  0.00619578686493583 12.2618862042089  0.0185873605947933 12.0935307872174  C 0.0309789343246649 11.925175370226  0.0991325898389164 11.7911145752144  0.223048327137548 11.6913484021824  L 13.5873605947955 0.486360093530777  C 13.9838909541512 0.162120031176926  14.454770755886 0  15 0  C 15.545229244114 0  16.0161090458488 0.162120031176926  16.4126394052045 0.486360093530777  L 20.9479553903346 4.30241621200312  L 20.9479553903346 0.654715510522209  C 20.9479553903346 0.4801247077163  21.003717472119 0.336710833982863  21.1152416356877 0.224473889321899  C 21.2267657992565 0.112236944660964  21.3692688971499 0.0561184723304677  21.542750929368 0.0561184723304677  L 25.1115241635688 0.0561184723304677  C 25.2850061957869 0.0561184723304677  25.4275092936803 0.112236944660964  25.5390334572491 0.224473889321899  C 25.6505576208178 0.336710833982863  25.7063197026022 0.4801247077163  25.7063197026022 0.654715510522209  L 25.7063197026022 8.28682774746687  L 29.7769516728625 11.6913484021824  C 29.9008674101611 11.7911145752144  29.9690210656753 11.925175370226  29.9814126394052 12.0935307872174  Z " fill-rule="nonzero" fill="#1b9aaa" stroke="none" transform="matrix(1 0 0 1 105 -50 )" />
  </g>
</svg>