<?xml version="1.0" encoding="utf-8"?><svg version="1.1" xmlns:xlink="http://www.w3.org/1999/xlink" width="24px" height="41px" xmlns="http://www.w3.org/2000/svg"><g transform="matrix(1 0 0 1 -23 -1539 )"><path d="M 23.5876288659794 2.46492985971944  C 23.8625429553265 2.73881095524382  24 3.05377421509686  24 3.40981963927856  C 24 3.76586506346025  23.8625429553265 4.08082832331329  23.5876288659794 4.35470941883768  L 7.38144329896907 20.5  L 23.5876288659794 36.6452905811623  C 23.8625429553265 36.9191716766867  24 37.2341349365397  24 37.5901803607214  C 24 37.9462257849031  23.8625429553265 38.2611890447562  23.5876288659794 38.5350701402806  L 21.5257731958763 40.5891783567134  C 21.2508591065292 40.8630594522378  20.9347079037801 41  20.5773195876289 41  C 20.2199312714777 41  19.9037800687285 40.8630594522378  19.6288659793814 40.5891783567134  L 0.412371134020619 21.4448897795591  C 0.13745704467354 21.1710086840347  0 20.8560454241817  0 20.5  C 0 20.1439545758183  0.13745704467354 19.8289913159653  0.412371134020619 19.5551102204409  L 19.6288659793814 0.410821643286574  C 19.9037800687285 0.13694054776219  20.2199312714777 0  20.5773195876289 0  C 20.9347079037801 0  21.2508591065292 0.13694054776219  21.5257731958763 0.410821643286574  L 23.5876288659794 2.46492985971944  Z " fill-rule="nonzero" fill="#b9b5b5" stroke="none" transform="matrix(1 0 0 1 23 1539 )" /></g></svg>