<?xml version="1.0" encoding="utf-8"?><svg version="1.1" xmlns:xlink="http://www.w3.org/1999/xlink" width="19px" height="33px" xmlns="http://www.w3.org/2000/svg"><g transform="matrix(1 0 0 1 -21 -1537 )"><path d="M 18.6735395189003 1.98396793587174  C 18.8911798396335 2.20440881763527  19 2.45791583166332  19 2.74448897795591  C 19 3.0310621242485  18.8911798396335 3.28456913827655  18.6735395189003 3.50501002004008  L 5.84364261168385 16.5  L 18.6735395189003 29.4949899799599  C 18.8911798396335 29.7154308617234  19 29.9689378757515  19 30.2555110220441  C 19 30.5420841683367  18.8911798396335 30.7955911823647  18.6735395189003 31.0160320641283  L 17.0412371134021 32.6693386773547  C 16.823596792669 32.8897795591182  16.5733104238259 33  16.2903780068729 33  C 16.0074455899198 33  15.7571592210767 32.8897795591182  15.5395189003436 32.6693386773547  L 0.326460481099656 17.2605210420842  C 0.108820160366552 17.0400801603206  0 16.7865731462926  0 16.5  C 0 16.2134268537074  0.108820160366552 15.9599198396794  0.326460481099656 15.7394789579158  L 15.5395189003436 0.330661322645291  C 15.7571592210767 0.110220440881762  16.0074455899198 0  16.2903780068729 0  C 16.5733104238259 0  16.823596792669 0.110220440881762  17.0412371134021 0.330661322645291  L 18.6735395189003 1.98396793587174  Z " fill-rule="nonzero" fill="#b9b5b5" stroke="none" transform="matrix(1 0 0 1 21 1537 )" /></g></svg>